<svg xmlns="http://www.w3.org/2000/svg" xml:space="preserve" width="546.713" height="784.748" viewBox="0 0 546.713 784.748"><path d="M273.356 0C108.11 0 0 38.159 0 38.159v406.244c0 63.641 9.804 117.974 41.665 164.541 63.694 93.09 145.472 139.016 231.691 175.804 86.22-36.788 167.999-82.713 231.693-175.804 31.86-46.567 41.664-100.9 41.664-164.541V38.159S438.603 0 273.356 0" style="fill:#fff"/><path d="M142.241 577.615c-23.613-27.778-56.754-42.371-89.66-42.779 5.5 17.893 13.435 34.681 24.538 50.91 24.916 36.415 57.162 67.68 91.79 93.487 7.12-34.245-1.537-72.056-26.668-101.618M469.595 585.745c11.102-16.228 19.037-33.016 24.538-50.909-32.905.408-66.048 15.001-89.66 42.779-25.132 29.562-33.788 67.373-26.668 101.618 34.627-25.806 66.874-57.072 91.79-93.488"/><path d="M330.753 180.499a1018.353 1018.353 0 0 0-57.397-1.616c-20.184 0-39.355.597-57.396 1.616 3.064 124.214 21.212 223.249 57.396 323.589 36.185-100.34 54.333-199.375 57.397-323.59M41.83 207.483v242.18c0 31.729 2.902 59.578 10.776 85.174a116.38 116.38 0 0 1 25.386 3.154c61.228-100.896 96.757-221.62 103.837-354.979-86.988 7.919-139.999 24.47-139.999 24.47M504.884 207.483s-53.01-16.552-140-24.471c7.08 133.359 42.61 254.083 103.837 354.979a116.398 116.398 0 0 1 25.387-3.154c7.875-25.596 10.776-53.445 10.776-85.174v-242.18" style="fill:#5dacd8"/><path d="M305.597 579.388c-.576 18.533-17.186 36.324-30.885 50.483-13.697 14.158-26.935 24.978-34.763 42.014-7.826 17.036-14.262 46.104 15.488 55.8 0 0-4.81-4.577-4.81-15.109 0-10.533 8.632-27.453 26.072-44.461 8.045-7.846 16.721-16.771 24.776-25.899 9.405-10.659 17.353-19.424 17.353-35.181 0-12.69-8.201-23.912-13.23-27.647"/><path d="M269.964 537.237c1.403 5.267 1.123 13.123-3.799 22.878-4.92 9.756-14.586 19.262-21.928 27.108-8.805 9.41-29.537 25.656-38.573 51.026-2.088 5.866-3.245 14.008-3.245 21.275 0 17.225 6.144 32.912 16.354 45.087-3.069-16.991-2.306-35.37 6.99-51.863 10.705-18.992 20.633-27.712 36.864-43.943 16.23-16.229 23.193-24.949 23.193-40.92 0-13.209-9.812-26.936-15.856-30.648" style="fill:#5dacd8"/><path d="M344.295 659.524c0-12.577-3.279-24.385-9.02-34.627.32 3.278.018 11.22-7.728 21.635-10.274 13.813-13.554 16.317-24.778 27.367-11.222 11.05-21.928 21.324-28.316 32.806-4.438 7.979-4.87 16.33-3.218 23.175.706.021 1.41.053 2.122.053 39.178 0 70.938-31.232 70.938-70.409M90.824 172.105c-21.163 4.707-48.214-3.342-49.24-28.292V77.891a930.512 930.512 0 0 1 49.24-11.243v15.8c-12.663 2.532-18.979 3.908-31.57 6.884v50.123c.788 15.528 18.843 20.108 31.57 16.85v15.8M142.921 57.572v43.724c-8.677 1.244-13.012 1.919-21.665 3.375V60.947a758.685 758.685 0 0 0-17.63 3.144v106.037a758.685 758.685 0 0 1 17.63-3.144v-46.492c8.653-1.456 12.988-2.13 21.665-3.375v46.492a756.978 756.978 0 0 1 17.72-2.362V55.209a756.978 756.978 0 0 0-17.72 2.363M222.992 65.26V49.439a892.573 892.573 0 0 0-48.999 4.074v66.336c1.298 25.043 26.902 37.056 49 35.515v-15.821c-13.318 1.685-30.356-6.426-31.382-21.472v-6.468c12.54-1.14 18.818-1.599 31.381-2.296V93.485c-12.563.698-18.841 1.156-31.381 2.296V67.556c12.54-1.14 18.818-1.6 31.381-2.296M255.01 64.183v52.428c0 8.485 3.482 14.632 11.037 20.558 7.556-6.065 11.04-12.276 11.04-20.761V63.981c-8.83-.032-13.248.008-22.078.202zm11.037 92.33s-5.794-2.236-12.152-6.98c-8.588-6.409-16.304-15.329-16.304-30.229V48.939c18.994-.63 37.917-.803 56.92-.519v70.364c0 14.9-7.719 23.961-16.31 30.527-6.36 4.86-12.154 7.202-12.154 7.202M395.999 107.02V94.393c0-8.473 3.466-14.266 10.97-19.133 7.503 7.107 10.955 13.933 10.955 22.408v12.627c-8.757-1.423-13.144-2.078-21.925-3.275zm23.03-42.024c-6.278-5.516-12.06-9.053-12.06-9.053s-5.754 1.662-12.078 5.961c-8.544 5.807-16.236 14.49-16.236 29.368v69.065a718.8 718.8 0 0 1 17.344 2.187v-39.727c8.781 1.198 13.168 1.852 21.925 3.275v39.725a725.892 725.892 0 0 1 17.261 2.982V98.513c.434-12.032-7.689-26.076-16.156-33.517M347.813 51.097v47.898c-6.977-16.462-13.989-32.91-21.033-49.343a757.617 757.617 0 0 0-18.733-.875v106.214c7.153.26 10.73.425 17.878.826v-67.46a24116.49 24116.49 0 0 1 25.803 69.276c5.572.472 8.357.73 13.925 1.287V52.707c-7.13-.715-10.7-1.036-17.84-1.61M487.459 73.043v46.828c-6.934-17.576-12.375-33.656-19.367-51.211-7.448-1.588-11.88-2.51-19.352-3.943v106.414a777.103 777.103 0 0 1 17.8 3.594V107.14c7.827 23.105 13.893 47.888 22.388 72.372 5.524 1.337 10.693 2.901 16.201 4.325V77.423a769.393 769.393 0 0 0-17.67-4.38"/></svg>