<svg xmlns="http://www.w3.org/2000/svg" width="820.2762451171875px" height="950.6220703125px" x="0px" y="0px" style="enable-background:new 0 0 1400 980" viewBox="0 0 820.2762451171875 950.6220703125"><defs><clipPath id="a" clipPathUnits="userSpaceOnUse"><path d="M0 595.276h841.89V0H0Z"/></clipPath><clipPath id="b" clipPathUnits="userSpaceOnUse"><path d="M0 545.461h841.89v49.814H0Z"/></clipPath><clipPath id="c" clipPathUnits="userSpaceOnUse"><path d="M0 595.276h841.89V0H0Z"/></clipPath></defs><path fill="none" d="M0 0h820.276v950.622H0z" style="fill:#080540;fill-opacity:0;pointer-events:none"/><g clip-path="url(#a)" transform="matrix(2.8207 0 0 -2.8207 -446.622 1202.204)"><path d="M0 0v-3.657h1.852c1.462 0 2.087.684 2.087 1.746v.212C3.939-.696 3.314 0 1.981 0Zm-.826.743h2.879c1.804 0 2.724-1.038 2.724-2.43v-.248c0-1.379-.991-2.465-2.724-2.465H0v-3.361h-.826z" style="fill:#000100;fill-opacity:1;fill-rule:nonzero;stroke:none" transform="translate(571.549 311.146)"/><path d="M0 0h3.079l-.826 2.3a35.293 35.293 0 0 0-.707 2.112C1.228 3.303 1.062 2.878.85 2.3Zm5.167-3.361h-.885L3.339-.719H-.259l-.968-2.642h-.848l3.161 8.504h.932z" style="fill:#000100;fill-opacity:1;fill-rule:nonzero;stroke:none" transform="translate(578.543 306.746)"/><path d="M0 0h.979l3.905-6.653c.141-.236.235-.436.4-.79V0h.791v-8.504h-.979L1.18-1.829a6.423 6.423 0 0 0-.389.767v-7.442H0Z" style="fill:#000100;fill-opacity:1;fill-rule:nonzero;stroke:none" transform="translate(584.948 311.889)"/><path d="M0 0v-.731h-2.725v-7.773h-.825v7.773h-2.713V0Z" style="fill:#000100;fill-opacity:1;fill-rule:nonzero;stroke:none" transform="translate(598.501 311.889)"/><path d="M0 0v1.026c0 2.029-.967 3.126-2.477 3.126-1.509 0-2.476-1.097-2.476-3.126V0c0-2.028.967-3.125 2.476-3.125C-.967-3.125 0-2.028 0 0m.838 1.097V-.07c0-2.324-1.215-3.799-3.315-3.799-2.099 0-3.314 1.475-3.314 3.799v1.167c0 2.324 1.203 3.798 3.314 3.798 2.1 0 3.315-1.474 3.315-3.798" style="fill:#000100;fill-opacity:1;fill-rule:nonzero;stroke:none" transform="translate(605.106 307.123)"/><path d="M0 0h.979l3.905-6.653c.141-.236.235-.436.4-.79V0h.791v-8.504h-.979L1.18-1.829a6.423 6.423 0 0 0-.389.767v-7.442H0Z" style="fill:#000100;fill-opacity:1;fill-rule:nonzero;stroke:none" transform="translate(607.69 311.889)"/><path d="M0 0v-.731h-4.293v-3.043h4.046v-.732h-4.046v-3.267H.083v-.731h-5.202V0Z" style="fill:#000100;fill-opacity:1;fill-rule:nonzero;stroke:none" transform="translate(620.84 311.889)"/><path d="M625.831 305.166h1.191v-1.18h-1.191zm0 5.213h1.191v-1.18h-1.191z" style="fill:#000100;fill-opacity:1;fill-rule:nonzero;stroke:none"/><path d="M0 0h-.932l3.455 7.75h-4.776v.754h5.697v-.637Z" style="fill:#000100;fill-opacity:1;fill-rule:nonzero;stroke:none" transform="translate(634.16 303.385)"/><path d="M0 0c0-1.274.802-2.135 1.958-2.135s1.993.732 1.993 2.006v.176c0 1.274-.943 1.982-1.981 1.982C.979 2.029 0 1.239 0 .153Zm4.022 4.636a3.648 3.648 0 0 1-1.804.507c-1.593 0-2.171-1.333-2.3-3.586.259.507.955 1.192 2.146 1.192 1.451 0 2.702-.968 2.702-2.631v-.283c0-1.675-1.203-2.713-2.785-2.713C.378-2.878-.896-1.792-.896.578v.283c0 3.657 1.191 5.025 3.125 5.025.767 0 1.545-.224 2.182-.578z" style="fill:#000100;fill-opacity:1;fill-rule:nonzero;stroke:none" transform="translate(639.927 306.132)"/><path d="M0 0c.932 1.097 1.085 1.533 1.085 1.981v.095c0 .849-.59 1.38-1.615 1.38-.743 0-1.416-.295-1.971-1.286l-.66.413C-2.76 3.314-1.97 4.21-.555 4.21c1.51 0 2.478-.849 2.478-2.123V1.97c0-.921-.685-1.687-1.416-2.536l-2.642-3.102h4.364v-.755h-5.402v.707z" style="fill:#000100;fill-opacity:1;fill-rule:nonzero;stroke:none" transform="translate(649.41 307.808)"/><path d="M0 0v7.466l-2.052-1.25-.378.66L.201 8.504h.625V0Z" style="fill:#000100;fill-opacity:1;fill-rule:nonzero;stroke:none" transform="translate(656.074 303.385)"/><path d="m0 0-.425-.649c-.766.543-1.404.72-2.264.72-1.57 0-2.43-1.215-2.43-2.996V-4.01c0-2.088.943-3.114 2.512-3.114 1.061 0 1.781.389 2.336.873L.212-6.9c-.625-.566-1.486-1.015-2.831-1.015-2.205 0-3.338 1.439-3.338 3.905v1.05c0 2.406 1.203 3.809 3.268 3.809C-1.558.849-.708.542 0 0" style="fill:#000100;fill-opacity:1;fill-rule:nonzero;stroke:none" transform="translate(666.207 311.17)"/><path d="M0 0v-3.656h1.852c1.462 0 2.087.684 2.087 1.745v.213C3.939-.695 3.314 0 1.981 0Zm-.826.743h2.879c1.804 0 2.724-1.038 2.724-2.43v-.248c0-1.379-.991-2.464-2.724-2.464H0v-3.362h-.826z" style="fill:#000100;fill-opacity:1;fill-rule:nonzero;stroke:none" transform="translate(571.549 255.319)"/><path d="M0 0h3.079l-.826 2.3a35.454 35.454 0 0 0-.707 2.111C1.228 3.303 1.062 2.878.85 2.3Zm5.167-3.361h-.885L3.339-.72H-.259l-.968-2.641h-.848l3.161 8.504h.932z" style="fill:#000100;fill-opacity:1;fill-rule:nonzero;stroke:none" transform="translate(578.543 250.92)"/><path d="M0 0h.979l3.905-6.652a8.24 8.24 0 0 0 .4-.79V0h.791v-8.504h-.979L1.18-1.828a6.479 6.479 0 0 0-.389.766v-7.442H0Z" style="fill:#000100;fill-opacity:1;fill-rule:nonzero;stroke:none" transform="translate(584.948 256.062)"/><path d="M0 0v-.731h-2.725v-7.773h-.825v7.773h-2.713V0Z" style="fill:#000100;fill-opacity:1;fill-rule:nonzero;stroke:none" transform="translate(598.501 256.062)"/><path d="M0 0v1.026c0 2.029-.967 3.125-2.477 3.125-1.509 0-2.476-1.096-2.476-3.125V0c0-2.029.967-3.126 2.476-3.126C-.967-3.126 0-2.029 0 0m.838 1.097V-.071c0-2.324-1.215-3.798-3.315-3.798-2.099 0-3.314 1.474-3.314 3.798v1.168c0 2.323 1.203 3.798 3.314 3.798 2.1 0 3.315-1.475 3.315-3.798" style="fill:#000100;fill-opacity:1;fill-rule:nonzero;stroke:none" transform="translate(605.106 251.297)"/><path d="M0 0h.979l3.905-6.652a8.24 8.24 0 0 0 .4-.79V0h.791v-8.504h-.979L1.18-1.828a6.479 6.479 0 0 0-.389.766v-7.442H0Z" style="fill:#000100;fill-opacity:1;fill-rule:nonzero;stroke:none" transform="translate(607.69 256.062)"/><path d="M0 0v-.731h-4.293v-3.043h4.046v-.732h-4.046v-3.266H.083v-.732h-5.202V0Z" style="fill:#000100;fill-opacity:1;fill-rule:nonzero;stroke:none" transform="translate(620.84 256.062)"/><path d="M625.831 249.339h1.191v-1.18h-1.191zm0 5.213h1.191v-1.18h-1.191z" style="fill:#000100;fill-opacity:1;fill-rule:nonzero;stroke:none"/><path d="M0 0v-2.678h1.25v-.755H0v-1.886h-.826v1.886h-4.258v.755l4.128 5.863h.944l-4.117-5.863h3.303V0Z" style="fill:#000100;fill-opacity:1;fill-rule:nonzero;stroke:none" transform="translate(636.719 252.877)"/><path d="M0 0c0-1.273.802-2.135 1.958-2.135s1.993.732 1.993 2.005v.177c0 1.274-.943 1.982-1.981 1.982C.979 2.029 0 1.238 0 .153Zm4.022 4.636a3.648 3.648 0 0 1-1.804.507c-1.593 0-2.171-1.333-2.3-3.586.259.507.955 1.191 2.146 1.191 1.451 0 2.702-.967 2.702-2.63v-.283c0-1.675-1.203-2.713-2.785-2.713C.378-2.878-.896-1.793-.896.578v.283c0 3.657 1.191 5.025 3.125 5.025.767 0 1.545-.225 2.182-.578z" style="fill:#000100;fill-opacity:1;fill-rule:nonzero;stroke:none" transform="translate(639.927 250.306)"/><path d="M0 0c0-1.273.802-2.135 1.958-2.135s1.993.732 1.993 2.005v.177c0 1.274-.943 1.982-1.981 1.982C.979 2.029 0 1.238 0 .153Zm4.022 4.636a3.648 3.648 0 0 1-1.804.507c-1.593 0-2.171-1.333-2.3-3.586.259.507.955 1.191 2.146 1.191 1.451 0 2.702-.967 2.702-2.63v-.283c0-1.675-1.203-2.713-2.785-2.713C.378-2.878-.896-1.793-.896.578v.283c0 3.657 1.191 5.025 3.125 5.025.767 0 1.545-.225 2.182-.578z" style="fill:#000100;fill-opacity:1;fill-rule:nonzero;stroke:none" transform="translate(647.004 250.306)"/><path d="m0 0-.425-.648c-.766.543-1.404.719-2.264.719-1.57 0-2.43-1.215-2.43-2.996V-4.01c0-2.088.943-3.114 2.512-3.114 1.061 0 1.781.39 2.336.873l.483-.648c-.625-.567-1.486-1.015-2.831-1.015-2.205 0-3.338 1.439-3.338 3.904v1.05c0 2.406 1.203 3.81 3.268 3.81C-1.558.85-.708.543 0 0" style="fill:#000100;fill-opacity:1;fill-rule:nonzero;stroke:none" transform="translate(659.13 255.342)"/><path d="M0 0v-3.656h1.852c1.462 0 2.087.684 2.087 1.746v.212C3.939-.695 3.314 0 1.981 0Zm-.826.743h2.879c1.804 0 2.724-1.038 2.724-2.43v-.247c0-1.38-.991-2.465-2.724-2.465H0v-3.362h-.826z" style="fill:#000100;fill-opacity:1;fill-rule:nonzero;stroke:none" transform="translate(571.549 199.491)"/><path d="M0 0h3.079l-.826 2.3a35.454 35.454 0 0 0-.707 2.111C1.228 3.303 1.062 2.878.85 2.3Zm5.167-3.361h-.885L3.339-.72H-.259l-.968-2.641h-.848l3.161 8.504h.932z" style="fill:#000100;fill-opacity:1;fill-rule:nonzero;stroke:none" transform="translate(578.543 195.092)"/><path d="M0 0h.979l3.905-6.652a8.24 8.24 0 0 0 .4-.79V0h.791v-8.504h-.979L1.18-1.828a6.479 6.479 0 0 0-.389.766v-7.442H0Z" style="fill:#000100;fill-opacity:1;fill-rule:nonzero;stroke:none" transform="translate(584.948 200.235)"/><path d="M0 0v-.731h-2.725v-7.773h-.825v7.773h-2.713V0Z" style="fill:#000100;fill-opacity:1;fill-rule:nonzero;stroke:none" transform="translate(598.501 200.235)"/><path d="M0 0v1.026c0 2.029-.967 3.125-2.477 3.125-1.509 0-2.476-1.096-2.476-3.125V0c0-2.029.967-3.126 2.476-3.126C-.967-3.126 0-2.029 0 0m.838 1.097V-.071c0-2.324-1.215-3.798-3.315-3.798-2.099 0-3.314 1.474-3.314 3.798v1.168c0 2.323 1.203 3.798 3.314 3.798 2.1 0 3.315-1.475 3.315-3.798" style="fill:#000100;fill-opacity:1;fill-rule:nonzero;stroke:none" transform="translate(605.106 195.47)"/><path d="M0 0h.979l3.905-6.652a8.24 8.24 0 0 0 .4-.79V0h.791v-8.504h-.979L1.18-1.828a6.479 6.479 0 0 0-.389.766v-7.442H0Z" style="fill:#000100;fill-opacity:1;fill-rule:nonzero;stroke:none" transform="translate(607.69 200.235)"/><path d="M0 0v-.731h-4.293v-3.043h4.046v-.732h-4.046v-3.266H.083v-.732h-5.202V0Z" style="fill:#000100;fill-opacity:1;fill-rule:nonzero;stroke:none" transform="translate(620.84 200.235)"/><path d="M625.831 193.512h1.191v-1.18h-1.191zm0 5.213h1.191v-1.18h-1.191z" style="fill:#000100;fill-opacity:1;fill-rule:nonzero;stroke:none"/><path d="M0 0c.932 1.098 1.085 1.533 1.085 1.981v.095c0 .85-.59 1.38-1.615 1.38-.743 0-1.416-.295-1.971-1.285l-.66.412c.401.731 1.191 1.628 2.606 1.628 1.51 0 2.478-.849 2.478-2.123V1.97c0-.92-.685-1.687-1.416-2.535l-2.642-3.103h4.364v-.755h-5.402v.708z" style="fill:#000100;fill-opacity:1;fill-rule:nonzero;stroke:none" transform="translate(635.256 196.154)"/><path d="M0 0c0 1.273-.803 2.17-1.958 2.17-1.156 0-1.993-.767-1.993-2.04v-.177c0-1.274.943-2.006 1.981-2.006.991 0 1.97.815 1.97 1.9zm-4.046-4.576c.53-.307 1.156-.52 1.828-.52 1.746 0 2.23 1.345 2.3 3.551-.235-.496-.955-1.226-2.146-1.226-1.452 0-2.702.99-2.702 2.653v.283c0 1.675 1.203 2.748 2.785 2.748 1.58 0 2.877-1.097 2.877-3.468v-.353c0-3.751-1.026-4.943-3.137-4.943-.767 0-1.51.213-2.147.579z" style="fill:#000100;fill-opacity:1;fill-rule:nonzero;stroke:none" transform="translate(643.654 197.451)"/><path d="M0 0c0 1.356-.695 1.958-1.923 1.958a2.403 2.403 0 0 1-1.675-.673h-.778l.272 4.659H.271v-.755h-3.644l-.13-3.089c.377.353 1.073.601 1.781.601C-.047 2.701.814 1.545.814.035v-.177c0-1.214-.755-2.547-2.878-2.547-1.156 0-2.005.366-2.76.943l.425.673c.813-.625 1.545-.862 2.335-.862C-.542-1.935 0-.932 0-.153z" style="fill:#000100;fill-opacity:1;fill-rule:nonzero;stroke:none" transform="translate(650.932 194.29)"/><path d="m0 0-.425-.649c-.766.543-1.404.719-2.264.719-1.57 0-2.43-1.215-2.43-2.996v-1.085c0-2.088.943-3.114 2.512-3.114 1.061 0 1.781.39 2.336.873L.212-6.9c-.625-.567-1.486-1.015-2.831-1.015-2.205 0-3.338 1.439-3.338 3.904v1.05c0 2.406 1.203 3.81 3.268 3.81C-1.558.849-.708.542 0 0" style="fill:#000100;fill-opacity:1;fill-rule:nonzero;stroke:none" transform="translate(659.13 199.516)"/><path d="M0 0h-29.015l-56.3 54.979-15.032-16.271-27.626 28.297-28.379-27.36-14.279 15.334L-226.031 0h-29.915c-4.19 0-7.587-3.403-7.587-7.601v-23.311c0-1.474.017-6.539.017-8.001v-86.143a7.608 7.608 0 0 1 2.785-5.885 7.577 7.577 0 0 1 6.31-1.565 633.468 633.468 0 0 0 26.503 4.792c4.97-24.657 14.544-47.073 28.513-66.731l.006-.007a162.902 162.902 0 0 1 3.026-4.135 176.642 176.642 0 0 1 2.749-3.532l.156-.197c.138-.173.275-.346.414-.518a176.69 176.69 0 0 1 2.665-3.233c.173-.205.35-.411.526-.617l.198-.231a173.425 173.425 0 0 1 3.311-3.762c.703-.775 1.44-1.572 2.194-2.373.392-.417.786-.835 1.183-1.25.808-.841 1.609-1.659 2.383-2.434a181.738 181.738 0 0 1 5.739-5.478l.201-.184a170.684 170.684 0 0 1 7.033-6.057l.14-.114.072-.058a171.229 171.229 0 0 1 4.484-3.519l.026-.02a176.587 176.587 0 0 1 26.866-16.757c2.725-1.378 5.334-2.048 7.975-2.048 2.642 0 5.243.668 7.952 2.043 9.62 4.883 18.722 10.553 27.053 16.853.849.641 1.715 1.309 2.576 1.986l.052.042.035.027a172.38 172.38 0 0 1 2.466 1.98l.109.089c.814.667 1.636 1.354 2.437 2.036l.057.049a168.78 168.78 0 0 1 20.71 21.062l.055.067a173.604 173.604 0 0 1 1.999 2.474l.085.107.043.055c.638.806 1.276 1.629 1.897 2.444l.058.075.077.102c.632.831 1.262 1.676 1.874 2.512l.034.047.057.077a183.004 183.004 0 0 1 1.922 2.682 181.52 181.52 0 0 1 7.274 11.22c10.047 16.835 17.143 35.385 21.139 55.237a633.96 633.96 0 0 0 26.572-4.803 7.577 7.577 0 0 1 6.31 1.565 7.606 7.606 0 0 1 2.785 5.885v86.143c0 1.419.017 6.527.017 8.001v23.311C7.587-3.403 4.19 0 0 0" style="fill:#002749;fill-opacity:1;fill-rule:nonzero;stroke:none" transform="translate(430.967 349.101)"/><path d="M0 0c0-1.474-.017-6.582-.017-8.001v-86.143a7.61 7.61 0 0 0-2.785-5.885 7.579 7.579 0 0 0-6.311-1.565 633.666 633.666 0 0 1-26.572 4.803c-3.995-19.852-11.091-38.401-21.139-55.237a181.198 181.198 0 0 0-7.274-11.219l-.006-.01a183.183 183.183 0 0 0-1.916-2.673l-.056-.077-.035-.047a172.135 172.135 0 0 0-1.874-2.512l-.077-.102-.057-.075c-.621-.815-1.26-1.637-1.898-2.444l-.043-.054-.085-.108a167.925 167.925 0 0 0-1.998-2.474l-.055-.067a168.85 168.85 0 0 0-20.71-21.062l-.058-.049c-.8-.682-1.622-1.368-2.437-2.036l-.109-.089a166.822 166.822 0 0 0-2.465-1.979l-.035-.028-.053-.042c-.86-.676-1.727-1.345-2.575-1.986-8.331-6.3-17.433-11.97-27.053-16.853-2.709-1.375-5.311-2.043-7.953-2.043-2.641 0-5.249.67-7.975 2.049a176.47 176.47 0 0 0-26.865 16.757l-.026.019c-1.5 1.137-3.01 2.322-4.484 3.52l-.072.057-.141.114a170.684 170.684 0 0 0-6.405 5.487c-.21.189-.419.38-.627.57l-.202.184a168.291 168.291 0 0 0-4.208 3.971c-.513.501-1.026 1.002-1.53 1.507-.774.775-1.575 1.593-2.383 2.434-.398.415-.792.833-1.184 1.25a175.17 175.17 0 0 0-3.111 3.393c-.773.867-1.556 1.763-2.394 2.743l-.198.23c-.176.206-.352.412-.525.617a176.804 176.804 0 0 0-3.079 3.752l-.157.196a184.364 184.364 0 0 0-2.749 3.532c-.504.667-1.029 1.374-1.552 2.09-.453.617-.921 1.267-1.474 2.045l-.005.007c-13.97 19.658-23.544 42.074-28.513 66.731a633.468 633.468 0 0 1-26.503-4.792 7.575 7.575 0 0 0-6.31 1.565 7.606 7.606 0 0 0-2.785 5.885v86.143c0 1.462-.017 6.527-.017 8.001v23.311c0 4.198 3.396 7.601 7.587 7.601h29.915l55.4 54.979 14.279-15.334 28.379 27.36 27.625-28.297 15.032 16.271 56.3-54.979h29.016c4.19 0 7.587-3.403 7.587-7.601Zm-7.587 35.98h-26.958l-54.827 53.54a5.056 5.056 0 0 1-3.531 1.439l-.13-.002a5.054 5.054 0 0 1-3.582-1.624l-11.421-12.362-23.908 24.49a5.042 5.042 0 0 1-3.617 1.524 5.04 5.04 0 0 1-3.507-1.416l-24.677-23.792-10.774 11.571a5.057 5.057 0 0 1-3.599 1.61l-.1.001a5.054 5.054 0 0 1-3.56-1.468L-235.7 35.98h-27.833c-6.973 0-12.646-5.684-12.646-12.669V0c0-.741.005-2.386.009-4.028.004-1.624.008-3.246.008-3.973v-86.143c0-3.817 1.692-7.393 4.642-9.808a12.664 12.664 0 0 1 8.004-2.861c.843 0 1.688.085 2.514.253a627.328 627.328 0 0 0 21.563 3.983c5.349-23.48 14.866-44.954 28.326-63.895l.016-.021a166.764 166.764 0 0 1 3.105-4.242 183.563 183.563 0 0 1 2.826-3.632l.154-.193c.143-.18.287-.362.433-.542a177.81 177.81 0 0 1 3.278-3.955l.21-.246a177.639 177.639 0 0 1 3.404-3.867 181.205 181.205 0 0 1 5.93-6.236c.518-.519 1.046-1.035 1.574-1.551a180.74 180.74 0 0 1 4.334-4.089l.2-.182a175.144 175.144 0 0 1 7.249-6.244l.151-.123.08-.064a174.872 174.872 0 0 1 4.605-3.614l.027-.02a181.498 181.498 0 0 1 27.636-17.239c3.449-1.745 6.804-2.593 10.255-2.593 3.456 0 6.805.848 10.239 2.591 9.885 5.017 19.244 10.847 27.814 17.328.87.658 1.762 1.346 2.651 2.045l.066.052.027.021c.846.667 1.7 1.353 2.537 2.037l.11.091c.839.686 1.684 1.392 2.512 2.098l.051.043a173.926 173.926 0 0 1 21.341 21.702l.06.073v.001l.015.018c.686.834 1.373 1.683 2.04 2.525l.091.115.035.044c.666.843 1.323 1.69 1.959 2.524l.061.08.072.095c.65.856 1.299 1.725 1.933 2.591l.032.044.051.069a191.103 191.103 0 0 1 1.988 2.775 186.012 186.012 0 0 1 7.478 11.534c9.52 15.951 16.484 33.445 20.732 52.063a626.16 626.16 0 0 0 21.633-3.994 12.624 12.624 0 0 1 2.513-.253c2.909 0 5.752 1.016 8.004 2.861a12.63 12.63 0 0 1 4.642 9.808v86.143c0 .7.004 2.302.008 3.92.005 1.659.009 3.335.009 4.081v23.311c0 6.985-5.673 12.669-12.645 12.669" style="fill:#c9a970;fill-opacity:1;fill-rule:nonzero;stroke:none" transform="translate(438.555 318.19)"/><path d="M0 0s3.993-2.542.799-8.788l-4.278-7.329s-2.68-5.373-.653-9.733c0 0 .943-1.596 1.521-1.886 0 0 .872-.144.148 1.45 0 0-2.395 4.796 1.817 10.891 0 0 4.272 6.102 4.207 7.843 0 0 .212 1.672.065 2.615 0 0 3.85-1.16 3.2-7.409 0 0-.149-3.337-4.135-8.497 0 0-1.48-2.437 0-4.352 0 0 .935-1.018.725.36 0 0 .287 2.979 2.754 6.245 0 0 3.121 4.142 2.467 8.136 0 0 4.276-4.501 2.101-12.926 0 0-2.323-9.297-12.762-7.699 0 0-10.37 1.455-8.558 15.248 0 0 .954 5.101 6.267 8.803C-4.315-7.028-.36-3.202 0 0" style="fill:#fff;fill-opacity:1;fill-rule:nonzero;stroke:none" transform="translate(302.736 172.433)"/><path d="M0 0s-3.265-7.987 3.619-14.888c0 0-7.245.434-7.532 9.218 0 0 .287 4.218 3.913 5.67" style="fill:#fff;fill-opacity:1;fill-rule:nonzero;stroke:none" transform="translate(290.779 157.984)"/><path d="M0 0s3.258-7.987-3.627-14.888c0 0 7.247.434 7.539 9.218 0 0-.292 4.218-3.912 5.67" style="fill:#fff;fill-opacity:1;fill-rule:nonzero;stroke:none" transform="translate(315.215 157.984)"/><path d="M0 0s.657.801 2.389.801c0 0 1.455.067 1.236-1.169l-1.014-7.55s-4.417.656-6.957 5.156c0 0 .069.733 1.086.659 0 0 2.539 1.809-.433 3.48 0 0-1.523 1.017-3.482-1.232l-8.333-10.166 3.119-.073 4.852 5.808s1.018.508 1.018-.434l-11.452-13.876 3.334.075 9.784 11.185s.726.513.576-.29l-13.335-16.261 3.404-.077L-1.956-9.585s1.015.508.872-.436l-14.86-17.792 3.335-.145L1.739-10.961s1.017.354.725-.585l-16.958-20.407 3.335-.142L5.59-12.13s1.008.725 1.88 0l16.684-19.965 3.254.07-16.965 20.697s-.143.652.724.367l14.575-17.147 3.191.15L14.001-9.805s-.072.799.726.583l12.612-14.597 3.117-.068L17.044-7.626s-.289 1.163 1.016.579l9.713-11.474 3.188.221L19.582-4.72s-.14.872.799.58l5.002-5.733h2.973L19.442.801s-2.398 2.176-4.28-.512c0 0-.656-1.379 1.089-2.177 0 0 1.234-.07.723-1.235 0 0-1.304-2.541-5.293-4.503 0 0-1.238-.65-1.672.873L7.91 1.159s.214.654.721.873l1.089.725-3.263.149-1.522-.945s-.723-.584-1.162.796c0 0-2.464.802-3.478-.576C.295 2.181-.217.868 0 0" style="fill:#fff;fill-opacity:1;fill-rule:nonzero;stroke:none" transform="translate(296.5 185.65)"/><path d="m0 0-3.502-4.04H1.51v-2.145h-8.43v1.962l4.73 5.47c.613.715.846 1.247.846 1.978 0 1.131-.548 1.812-1.544 1.812-.995 0-1.56-.664-1.56-1.812v-.482h-2.655v.482c0 2.178 1.493 3.974 4.215 3.974 2.722 0 4.199-1.796 4.199-3.974C1.311 1.879.996 1.147 0 0" style="fill:#fff;fill-opacity:1;fill-rule:nonzero;stroke:none" transform="translate(311.804 128.395)"/><path d="M0 0v10.608l-2.821-1.28v2.361l3.203 1.463h2.273V0Z" style="fill:#fff;fill-opacity:1;fill-rule:nonzero;stroke:none" transform="translate(318.044 122.21)"/><path d="m0 0-3.502-4.04H1.51v-2.145h-8.43v1.962l4.73 5.47c.613.714.846 1.247.846 1.978 0 1.131-.548 1.812-1.544 1.812-.995 0-1.56-.664-1.56-1.812v-.482h-2.655v.482c0 2.178 1.493 3.974 4.215 3.974 2.722 0 4.199-1.796 4.199-3.974C1.311 1.879.996 1.147 0 0" style="fill:#fff;fill-opacity:1;fill-rule:nonzero;stroke:none" transform="translate(292.393 128.395)"/><path d="M0 0c.315-.449.73-.648 1.311-.648.565 0 .98.199 1.312.648.431.632.563 1.779.563 4.007 0 2.211-.132 3.358-.563 3.99-.332.449-.747.648-1.312.648-.581 0-.996-.199-1.311-.648-.431-.632-.564-1.779-.564-3.99C-.564 1.779-.431.632 0 0m4.465-1.563C3.751-2.394 2.689-2.81 1.311-2.81c-1.377 0-2.439.416-3.153 1.247-.946 1.081-1.377 2.727-1.377 5.57 0 2.826.431 4.472 1.377 5.553.714.831 1.776 1.247 3.153 1.247 1.378 0 2.44-.416 3.154-1.247.929-1.081 1.377-2.727 1.377-5.553 0-2.843-.448-4.489-1.377-5.57" style="fill:#fff;fill-opacity:1;fill-rule:nonzero;stroke:none" transform="translate(297.654 124.787)"/><path d="m0 0-4.338 2.198-.145.073-.114.115-8.672 8.711-.096.097-.067.119-1.5 2.649L-25.269 22l-.107.084-.081.108-4.19 5.578-5.32 4.984-1.217-1.14-1.325-2.002-.127-.192-.197-.118-2.157-1.293L-42.529 24l-.13-.205-.209-.124-4.882-2.894-2.367-2.217-.51-.479-.628.31-2.746 1.357-.151.075-.119.119-4.903 4.937-2.9 2.593-4.944 2.897-.179.105-.123.167-6.546 8.876-4.748 4.449-7.772-9.479-.061-.074-.074-.062-7.707-6.432-.148-.124-.183-.06-2.386-.787-4.833-5.302-3.379-5.288-.774-1.21-.878 1.136-5.006 6.476-4.982 2.918-.158.093-.116.142-5.396 6.639-11.887-14.156-.303-.361H-138.956l-8.262-9.308-.05-.057-.059-.048L-157.526.11l-7.73-9.633 9.921 4.794 10.501 7.25 7.219 8.604.134.16.187.094 4.149 2.082 9.999 9.369.692.647.69-.647 4.619-4.327 3.846-1.747.37-.168.151-.379 1.713-4.288.345-.864-.83-.418-5.944-2.996-3.022-6.192-.049-.099-.068-.086-4.284-5.404 6.61 1.896 4.608 6.849.143.213.228.119 10.047 5.24 4.138 6.216.081.122.113.094 5.139 4.289.028.024.031.022 5.91 4.227 8.386 9.124.598.652.725-.507 3.961-2.769.138-.096.099-.136 4.631-6.324 6.172-4.939.129-.104.09-.139 2.169-3.371 7.848-5.108.111-.072.089-.098 4.976-5.525 3.378-1.609.21-.1.146-.183 4.752-5.948 6.173-2.349-2.616 4.177-.021.034-.019.036-3.362 6.443-1.769 1.891-3.018 2.166-.198.142-.112.216-1.1 2.132-.351.681.559.524 3.28 3.074.112.104.136.067 2.76 1.346 1.169 2.312.081.159.13.123 1.741 1.631.642.601.684-.553 2.931-2.37.14-.113.093-.154 2.125-3.548 5.64-3.607 4.008-2.563.205-.131.123-.21 2.061-3.517 8.722-6.923.113-.09.084-.118 2.289-3.24 7.109-2.837.012-.005.011-.004 6.95-2.98-2.888 3.778z" style="fill:#c9a970;fill-opacity:1;fill-rule:nonzero;stroke:none" transform="translate(381.48 358.206)"/><path d="M430.968 341.5H175.022v-23.311h255.946z" style="fill:#c9a970;fill-opacity:1;fill-rule:nonzero;stroke:none"/><path d="M0 0c2.813 0 4.423-1.545 4.505-4.09H1.57C1.529-3.009 1.037-2.367 0-2.367c-1.079 0-1.639-.574-1.639-3.323 0-2.667.492-3.351 1.707-3.351 1.024 0 1.611.697 1.652 1.805H.041v1.956h4.451v-5.923H2.389l-.259 1.191c-.369-.849-1.338-1.382-2.54-1.382-2.84 0-4.191 2.174-4.191 5.704C-4.601-2.202-3.318 0 0 0" style="fill:#002749;fill-opacity:1;fill-rule:nonzero;stroke:none" transform="translate(197.369 335.542)"/><path d="M211.969 324.339h-2.963v11.012h2.963z" style="fill:#002749;fill-opacity:1;fill-rule:nonzero;stroke:none"/><path d="m0 0-1.871 4.98V0H-4.71v11.012h2.744l3.045-8.084 3.045 8.084h2.73V0h-2.84v4.98L2.144 0Z" style="fill:#002749;fill-opacity:1;fill-rule:nonzero;stroke:none" transform="translate(223.863 324.339)"/><path d="M0 0c.778.889 1.925 1.327 3.399 1.327 2.813 0 4.424-1.546 4.506-4.09H4.97C4.929-1.682 4.437-1.04 3.399-1.04c-.532 0-.901-.177-1.187-.588-.342-.492-.451-1.245-.451-2.735 0-1.519.109-2.257.451-2.764.286-.41.655-.588 1.187-.588 1.038 0 1.543.657 1.571 1.723h2.935c-.082-2.543-1.693-4.075-4.506-4.075-1.474 0-2.621.437-3.399 1.326-.902 1.026-1.202 2.49-1.202 4.378 0 1.86.3 3.337 1.202 4.363" style="fill:#002749;fill-opacity:1;fill-rule:nonzero;stroke:none" transform="translate(238.928 334.215)"/><path d="M0 0h-2.362v-4.46h-2.963V6.552h2.963V2.367H0v4.185h2.963V-4.46H0Z" style="fill:#002749;fill-opacity:1;fill-rule:nonzero;stroke:none" transform="translate(259.125 328.798)"/><path d="M0 0h7.155v-2.353H2.963v-1.833h3.632v-2.366H2.963v-2.121h4.274v-2.339H0Z" style="fill:#002749;fill-opacity:1;fill-rule:nonzero;stroke:none" transform="translate(269.288 335.35)"/><path d="M0 0c-.287.41-.669.588-1.201.588-.533 0-.902-.178-1.188-.588-.342-.492-.451-1.259-.451-2.736 0-1.504.109-2.257.451-2.763.286-.41.655-.588 1.188-.588.532 0 .914.178 1.201.588.328.506.437 1.259.437 2.763C.437-1.259.328-.492 0 0m2.212-7.113C1.434-8.002.273-8.44-1.201-8.44c-1.475 0-2.622.438-3.4 1.327-.901 1.026-1.202 2.49-1.202 4.377 0 1.861.301 3.338 1.202 4.364.778.889 1.925 1.326 3.4 1.326 1.474 0 2.635-.437 3.413-1.326C3.099.602 3.399-.875 3.399-2.736c0-1.887-.3-3.351-1.187-4.377" style="fill:#002749;fill-opacity:1;fill-rule:nonzero;stroke:none" transform="translate(289.103 332.587)"/><path d="M0 0v-6.019h-2.854V4.993H0l2.731-6.032v6.032h2.853V-6.019H2.731Z" style="fill:#002749;fill-opacity:1;fill-rule:nonzero;stroke:none" transform="translate(302.365 330.357)"/><path d="M0 0c-2.676 0-4.137 1.395-4.137 3.338v.218h2.95V3.31c0-.643.395-1.081 1.187-1.081s1.188.438 1.188 1.081-.369 1.026-1.42 1.231l-.833.178c-1.884.369-3.167 1.382-3.167 3.392 0 1.888 1.474 3.283 3.973 3.283 2.58 0 3.973-1.45 3.973-3.146v-.191H.765v.191c0 .561-.369.903-1.024.903-.669 0-1.024-.342-1.024-.903 0-.615.409-.957 1.461-1.176l.833-.151c1.993-.41 3.126-1.518 3.126-3.474C4.137 1.463 2.758 0 0 0" style="fill:#002749;fill-opacity:1;fill-rule:nonzero;stroke:none" transform="translate(327.21 324.148)"/><path d="m0 0-.983-3.83H.97Zm1.488 3.201L4.956-7.811H1.98l-.451 1.764h-3.072l-.45-1.764h-2.963l3.468 11.012z" style="fill:#002749;fill-opacity:1;fill-rule:nonzero;stroke:none" transform="translate(342.48 332.15)"/><path d="M0 0v-6.019h-2.854V4.993H0l2.731-6.032v6.032h2.853V-6.019H2.731Z" style="fill:#002749;fill-opacity:1;fill-rule:nonzero;stroke:none" transform="translate(356.916 330.357)"/><path d="M0 0c2.813 0 4.424-1.545 4.505-4.09H1.57C1.529-3.009 1.038-2.367 0-2.367c-1.079 0-1.639-.574-1.639-3.323 0-2.667.492-3.351 1.707-3.351 1.024 0 1.611.697 1.652 1.805H.041v1.956h4.451v-5.923H2.389l-.259 1.191c-.369-.849-1.338-1.382-2.54-1.382-2.84 0-4.191 2.174-4.191 5.704C-4.601-2.202-3.318 0 0 0" style="fill:#002749;fill-opacity:1;fill-rule:nonzero;stroke:none" transform="translate(374.11 335.542)"/><path d="m0 0-1.871 4.98V0h-2.84v11.012h2.745l3.045-8.084 3.044 8.084h2.731V0h-2.84v4.98L2.144 0Z" style="fill:#002749;fill-opacity:1;fill-rule:nonzero;stroke:none" transform="translate(390.457 324.339)"/><path d="M0 0v6.895h2.949V-.178c0-1.244.519-1.778 1.434-1.778.914 0 1.433.534 1.433 1.778v7.073h2.949V0c0-2.667-1.392-4.308-4.382-4.308C1.393-4.308 0-2.667 0 0" style="fill:#002749;fill-opacity:1;fill-rule:nonzero;stroke:none" transform="translate(404.456 328.456)"/><path d="M0 0h11.628v-4.053H4.473v-3.542h6.942v-3.734H4.473v-7.851H0Z" style="fill:#c9a970;fill-opacity:1;fill-rule:nonzero;stroke:none" transform="translate(222.287 223.499)"/><path d="M0 0c0-.832.66-1.28 1.491-1.28.83 0 1.49.448 1.49 1.28v9.75c0 .832-.66 1.281-1.49 1.281C.66 11.031 0 10.582 0 9.75Zm-4.43 10.455c0 3.264 2.662 4.437 5.921 4.437 3.258 0 5.92-1.173 5.92-4.437V-.704c0-3.265-2.662-4.438-5.92-4.438-3.259 0-5.921 1.173-5.921 4.438z" style="fill:#c9a970;fill-opacity:1;fill-rule:nonzero;stroke:none" transform="translate(239.667 209.033)"/><path d="M0 0c0-.832.66-1.28 1.491-1.28.83 0 1.491.448 1.491 1.28v9.75c0 .832-.661 1.281-1.491 1.281C.66 11.031 0 10.582 0 9.75Zm-4.43 10.455c0 3.264 2.662 4.437 5.921 4.437 3.258 0 5.92-1.173 5.92-4.437V-.704c0-3.265-2.662-4.438-5.92-4.438-3.259 0-5.921 1.173-5.921 4.438z" style="fill:#c9a970;fill-opacity:1;fill-rule:nonzero;stroke:none" transform="translate(253 209.033)"/><path d="M0 0v-3.947h-3.471V-19.18h-4.686v15.233h-3.471V0Z" style="fill:#c9a970;fill-opacity:1;fill-rule:nonzero;stroke:none" transform="translate(272.892 223.499)"/><path d="m0 0 1.299-.256c1.086-.235 1.704-.128 1.704.917V2.56c0 .918-.81 1.067-1.491 1.067H0Zm1.512 10.668H0V7.254h1.512c.916.022 1.278.448 1.278 1.494v.426c0 .918-.256 1.494-1.278 1.494M0-3.819v-.853h-4.472v19.18h7.368c2.79 0 4.195-.512 4.259-3.414V8.47c0-1.387-1.256-2.731-2.874-2.795 1.661-.106 3.087-1.536 3.087-3.029v-3.905c0-2.645-1.043-3.883-4.259-3.2z" style="fill:#c9a970;fill-opacity:1;fill-rule:nonzero;stroke:none" transform="translate(278.685 208.99)"/><path d="M0 0h2.236L1.128 8.769Zm-.895-7.062h-4.472l2.662 19.18h7.666l2.663-19.18H3.152L2.726-3.84H-.49Z" style="fill:#c9a970;fill-opacity:1;fill-rule:nonzero;stroke:none" transform="translate(292.636 211.38)"/><path d="M0 0v-4.054h-11.628v19.18h4.686V0Z" style="fill:#c9a970;fill-opacity:1;fill-rule:nonzero;stroke:none" transform="translate(313.06 208.372)"/><path d="M0 0v-4.054h-11.627v19.18h4.685V0Z" style="fill:#c9a970;fill-opacity:1;fill-rule:nonzero;stroke:none" transform="translate(325.903 208.372)"/><path d="M0 0v-2.88c0-3.265-2.662-4.438-5.92-4.438-3.259 0-6.027 1.173-6.027 4.438V8.279c0 3.264 2.662 4.437 5.92 4.437s5.92-1.173 5.92-4.437V6.081h-4.472v1.493c0 .832-.617 1.281-1.448 1.281-.83 0-1.448-.449-1.448-1.281v-9.75c0-.832.618-1.28 1.448-1.28.831 0 1.448.448 1.448 1.28V0z" style="fill:#c9a970;fill-opacity:1;fill-rule:nonzero;stroke:none" transform="translate(343.112 211.21)"/><path d="M0 0v-4.054h-11.628v19.18h4.685V0Z" style="fill:#c9a970;fill-opacity:1;fill-rule:nonzero;stroke:none" transform="translate(356.275 208.372)"/><path d="M0 0v-15.169c0-3.265-2.662-4.438-5.921-4.438-3.258 0-5.919 1.173-5.919 4.438V0h4.493v-14.465c0-.832.596-1.28 1.426-1.28.831 0 1.427.448 1.427 1.28V0Z" style="fill:#c9a970;fill-opacity:1;fill-rule:nonzero;stroke:none" transform="translate(369.33 223.499)"/><path d="m0 0 1.299-.256c1.087-.235 1.704-.128 1.704.917V2.56c0 .918-.81 1.067-1.491 1.067H0Zm1.512 10.668H0V7.254h1.512c.916.022 1.278.448 1.278 1.494v.426c0 .918-.255 1.494-1.278 1.494M0-3.819v-.853h-4.472v19.18h7.368c2.79 0 4.196-.512 4.26-3.414V8.47c0-1.387-1.257-2.731-2.875-2.795 1.661-.106 3.087-1.536 3.087-3.029v-3.905c0-2.645-1.043-3.883-4.258-3.2z" style="fill:#c9a970;fill-opacity:1;fill-rule:nonzero;stroke:none" transform="translate(375.294 208.99)"/><path d="M0 0h36.026l-.025-9.319C36.131-32.241 21.128-42.874 0-45.026v14.614c10.584.751 22.332 3.938 22.353 16.497-7.452-.216-14.902-.448-22.353-.697Z" style="fill:#fff;fill-opacity:1;fill-rule:nonzero;stroke:none" transform="translate(175.039 309.876)"/><path d="M0 0h15.124l-.128-40.372c-5.041-.291-10.082-.617-15.119-.977L0 0" style="fill:#fff;fill-opacity:1;fill-rule:nonzero;stroke:none" transform="translate(216.846 309.876)"/><path d="M0 0a1285.08 1285.08 0 0 0 56.996-4.97v-16.44a850.601 850.601 0 0 1-20.851 2.895l.041-20.759a581.266 581.266 0 0 1-15.129 2.373l-.056 20.161A855.038 855.038 0 0 1 .047-14.736L0 0" style="fill:#fff;fill-opacity:1;fill-rule:nonzero;stroke:none" transform="translate(373.954 266.879)"/><path d="M0 0h14.788l.041-13.768c2.798-.046 4.196-.071 6.993-.123l.045-14.217c-2.798.106-4.196.155-6.995.249l.042-13.527c-4.934.249-9.872.464-14.809.644L0 0" style="fill:#fff;fill-opacity:1;fill-rule:nonzero;stroke:none" transform="translate(346.484 309.876)"/><path d="M0 0c9.208 2.644 12.813 12.94 12.707 21.589l-.004 5.057h14.652l.01-5.089C27.039 12.57 31.248 3.473 40.124.336l.035-14.302C32.12-11.948 24.82-7.025 20.132-.191 15.867-7.527 7.952-11.947 0-14.062V0" style="fill:#fff;fill-opacity:1;fill-rule:nonzero;stroke:none" transform="translate(302.794 283.23)"/><path d="M0 0c3.849.049 5.773.069 9.623.102l.027 19.573h14.787l-.02-48.185a883.842 883.842 0 0 1-14.834-.202l.022 16.327c-3.852-.054-5.778-.088-9.629-.168L0 0" style="fill:#fff;fill-opacity:1;fill-rule:nonzero;stroke:none" transform="translate(272.695 290.2)"/><path d="M0 0c-7.658.808-15.367 3.978-20.05 10.296C-24.334 3.562-31.99-.047-39.465-1.872l.044 13.9c8.19 1.751 12.491 8.038 12.29 16.4l.004 1.361c-4.897-.102-7.344-.159-12.239-.284l.043 13.736c4.867.035 7.301.051 12.168.079l.015 5.204h14.519l-.012-5.131c4.814.02 7.221.029 12.035.043l-.023-13.232c-4.898-.051-7.348-.083-12.245-.158l-.004-1.342c-.537-8.187 4.886-14.382 12.893-15.32L0 0" style="fill:#fff;fill-opacity:1;fill-rule:nonzero;stroke:none" transform="translate(276.616 261.352)"/><path d="M0 0a894.153 894.153 0 0 0 27.001 4.73l.016 5.702a1118.072 1118.072 0 0 1-27.006-3.1L0 0m-14.82 18.964a1249.539 1249.539 0 0 0 56.791 5.099L41.869-8.12a587.729 587.729 0 0 1-14.912-1.821l.006 2.179a686.788 686.788 0 0 1-41.783-9.167z" style="fill:#fff;fill-opacity:1;fill-rule:nonzero;stroke:none" transform="translate(189.858 241.575)"/><path d="M0 0a732.327 732.327 0 0 1-57.905-3.115l.073 23.343c5.233.362 10.472.676 15.711.94l-.027-9.87A916.066 916.066 0 0 0 .005 12.745L0 0" style="fill:#fff;fill-opacity:1;fill-rule:nonzero;stroke:none" transform="translate(297.103 237.351)"/><path d="M0 0c1.887-.104 3.166.455 3.161 2.36-.006 2.143-1.287 2.69-3.174 2.785-7.834.366-15.666.65-23.506.855-1.619.036-2.9-.408-2.898-2.511.002-1.869 1.285-2.518 2.904-2.558C-15.669.709-7.836.398 0 0m-28.252 17.77a1301.1 1301.1 0 0 0 32.991-.952c7.659-.678 13.185-8.079 13.238-15.436.053-7.203-5.686-13.927-13.159-13.665-11.01.75-22.012 1.27-33.043 1.56-7.731-.154-13.09 7.546-13.104 14.366-.015 6.799 5.268 14.591 13.077 14.127" style="fill:#fff;fill-opacity:1;fill-rule:nonzero;stroke:none" transform="translate(345.16 247.562)"/><path d="M0 0c9.402-.366 18.801-.777 28.198-1.234l-.011 8.311c-9.403.295-18.806.56-28.21.795L0 0m-14.518 22.108h57.133v-39.454a1563.633 1563.633 0 0 1-57.02 4.088l-.113 35.366" style="fill:#fff;fill-opacity:1;fill-rule:nonzero;stroke:none" transform="translate(388.335 287.768)"/><path d="M0 0v-35.463a163.32 163.32 0 0 1 2.898-3.96c7.149-9.451 15.107-17.935 23.846-25.486V.001L0 0" style="fill:#b91d22;fill-opacity:1;fill-rule:nonzero;stroke:none" transform="translate(237.744 194.528)"/><path d="M0 0v-64.93a161.706 161.706 0 0 1 26.744 29.584V0H0" style="fill:#b91d22;fill-opacity:1;fill-rule:nonzero;stroke:none" transform="translate(341.502 194.654)"/><path d="M559.575 276.769h-38.218v38.217h38.218z" style="fill:#b91d22;fill-opacity:1;fill-rule:nonzero;stroke:none"/><path d="M559.575 331.035h-38.218v38.218h38.218z" style="fill:none;stroke:gray;stroke-width:1;stroke-linecap:butt;stroke-linejoin:miter;stroke-miterlimit:10;stroke-dasharray:none;stroke-opacity:1"/><path d="M559.575 219.728h-38.218v38.218h38.218z" style="fill:#c9a970;fill-opacity:1;fill-rule:nonzero;stroke:none"/><path d="M559.575 162.023h-38.218v38.218h38.218z" style="fill:#002749;fill-opacity:1;fill-rule:nonzero;stroke:none"/><path d="m0 0-.425-.649c-.766.543-1.404.72-2.264.72-1.57 0-2.43-1.215-2.43-2.996V-4.01c0-2.088.943-3.114 2.512-3.114 1.061 0 1.781.39 2.336.873l.483-.648c-.625-.567-1.486-1.015-2.831-1.015-2.205 0-3.338 1.438-3.338 3.904v1.05c0 2.406 1.203 3.809 3.268 3.809C-1.558.849-.708.542 0 0" style="fill:#000100;fill-opacity:1;fill-rule:nonzero;stroke:none" transform="translate(576.468 298.479)"/><path d="M0 0c-.201.401-.295.566-.425 1.074v-7.301h-.814v8.504h1.014l2.878-6.228 2.89 6.228h.979v-8.504h-.813v7.301C5.603.566 5.508.401 5.308 0L3.031-4.812h-.778Z" style="fill:#000100;fill-opacity:1;fill-rule:nonzero;stroke:none" transform="translate(579.393 296.922)"/><path d="M0 0v-3.479h-.825V0L-3.75 5.024h.932L-.4.755l2.358 4.269h.92z" style="fill:#000100;fill-opacity:1;fill-rule:nonzero;stroke:none" transform="translate(590.88 294.174)"/><path d="m0 0 3.763-4.871H2.701L-.59-.602l-1.085-1.12v-3.149h-.826v8.504h.826V-.66L2.43 3.633h1.108z" style="fill:#000100;fill-opacity:1;fill-rule:nonzero;stroke:none" transform="translate(597.475 295.566)"/><path d="M605.744 292.476h1.191v-1.18h-1.191zm0 5.213h1.191v-1.18h-1.191z" style="fill:#000100;fill-opacity:1;fill-rule:nonzero;stroke:none"/><path d="M0 0c.424.684 1.155 1.321 2.453 1.321 1.545 0 2.512-.849 2.512-2.123V-.92c0-.672-.33-1.521-1.462-1.911 1.168-.2 1.793-.99 1.793-1.981v-.177c0-1.215-.767-2.453-2.855-2.453-.991 0-1.922.306-2.724.943l.412.66c.826-.6 1.534-.848 2.312-.848 1.487 0 2.04.896 2.04 1.686v.153c0 1.286-1.155 1.617-1.969 1.617h-.955v.707h.99c1.061 0 1.581.884 1.581 1.616v.094c0 .849-.637 1.38-1.663 1.38-.673 0-1.333-.224-1.817-.991z" style="fill:#000100;fill-opacity:1;fill-rule:nonzero;stroke:none" transform="translate(612.08 298.007)"/><path d="M0 0c0 2.1-.696 2.96-2.053 2.96-1.308 0-2.028-.872-2.028-2.96v-1.345c0-2.111.72-2.971 2.028-2.971C-.696-4.316 0-3.468 0-1.345zm.85-1.332c0-2.406-.862-3.728-2.903-3.728-2.016 0-2.878 1.345-2.878 3.728v1.32c0 2.383.897 3.716 2.878 3.716C-.047 3.704.85 2.371.85-.012z" style="fill:#000100;fill-opacity:1;fill-rule:nonzero;stroke:none" transform="translate(623.744 295.624)"/><path d="m0 0-3.563-10.427h-.79L-.803 0Z" style="fill:#000100;fill-opacity:1;fill-rule:nonzero;stroke:none" transform="translate(629.713 299.953)"/><path d="M0 0v7.466l-2.052-1.251-.378.661L.201 8.504h.625V0Z" style="fill:#000100;fill-opacity:1;fill-rule:nonzero;stroke:none" transform="translate(633.498 290.695)"/><path d="M0 0c0 2.1-.696 2.96-2.053 2.96-1.308 0-2.028-.872-2.028-2.96v-1.345c0-2.111.72-2.971 2.028-2.971C-.696-4.316 0-3.468 0-1.345zm.85-1.332c0-2.406-.862-3.728-2.903-3.728-2.016 0-2.878 1.345-2.878 3.728v1.32c0 2.383.897 3.716 2.878 3.716C-.047 3.704.85 2.371.85-.012z" style="fill:#000100;fill-opacity:1;fill-rule:nonzero;stroke:none" transform="translate(642.486 295.624)"/><path d="M0 0c0 2.1-.696 2.96-2.053 2.96-1.308 0-2.028-.872-2.028-2.96v-1.345c0-2.111.72-2.971 2.028-2.971C-.696-4.316 0-3.468 0-1.345zm.85-1.332c0-2.406-.862-3.728-2.903-3.728-2.016 0-2.878 1.345-2.878 3.728v1.32c0 2.383.897 3.716 2.878 3.716C-.047 3.704.85 2.371.85-.012z" style="fill:#000100;fill-opacity:1;fill-rule:nonzero;stroke:none" transform="translate(649.563 295.624)"/><path d="m0 0-3.563-10.427h-.79L-.803 0Z" style="fill:#000100;fill-opacity:1;fill-rule:nonzero;stroke:none" transform="translate(655.532 299.953)"/><path d="M0 0v7.466l-2.052-1.251-.378.661L.201 8.504h.625V0Z" style="fill:#000100;fill-opacity:1;fill-rule:nonzero;stroke:none" transform="translate(659.317 290.695)"/><path d="M0 0c0 2.1-.696 2.96-2.053 2.96-1.308 0-2.028-.872-2.028-2.96v-1.345c0-2.111.72-2.971 2.028-2.971C-.696-4.316 0-3.468 0-1.345zm.85-1.332c0-2.406-.862-3.728-2.903-3.728-2.016 0-2.878 1.345-2.878 3.728v1.32c0 2.383.897 3.716 2.878 3.716C-.047 3.704.85 2.371.85-.012z" style="fill:#000100;fill-opacity:1;fill-rule:nonzero;stroke:none" transform="translate(668.306 295.624)"/><path d="M0 0c0 2.1-.696 2.96-2.053 2.96-1.308 0-2.028-.872-2.028-2.96v-1.345c0-2.111.72-2.971 2.028-2.971C-.696-4.316 0-3.468 0-1.345zm.85-1.332c0-2.406-.862-3.728-2.903-3.728-2.016 0-2.878 1.345-2.878 3.728v1.32c0 2.383.897 3.716 2.878 3.716C-.047 3.704.85 2.371.85-.012z" style="fill:#000100;fill-opacity:1;fill-rule:nonzero;stroke:none" transform="translate(675.383 295.624)"/><path d="m0 0-3.563-10.427h-.79L-.803 0Z" style="fill:#000100;fill-opacity:1;fill-rule:nonzero;stroke:none" transform="translate(681.352 299.953)"/><path d="M0 0c0 2.1-.696 2.96-2.053 2.96-1.308 0-2.028-.872-2.028-2.96v-1.345c0-2.111.72-2.971 2.028-2.971C-.696-4.316 0-3.468 0-1.345zm.85-1.332c0-2.406-.862-3.728-2.903-3.728-2.016 0-2.878 1.345-2.878 3.728v1.32c0 2.383.897 3.716 2.878 3.716C-.047 3.704.85 2.371.85-.012z" style="fill:#000100;fill-opacity:1;fill-rule:nonzero;stroke:none" transform="translate(687.048 295.624)"/><path d="m0 0-.425-.649c-.766.543-1.404.719-2.264.719-1.57 0-2.43-1.215-2.43-2.996v-1.085c0-2.088.943-3.114 2.512-3.114 1.061 0 1.781.39 2.336.873L.212-6.9c-.625-.567-1.486-1.015-2.831-1.015-2.205 0-3.338 1.439-3.338 3.904v1.05c0 2.406 1.203 3.81 3.268 3.81C-1.558.849-.708.542 0 0" style="fill:#000100;fill-opacity:1;fill-rule:nonzero;stroke:none" transform="translate(576.468 243.097)"/><path d="M0 0c-.201.401-.295.566-.425 1.073v-7.301h-.814v8.504h1.014l2.878-6.227 2.89 6.227h.979v-8.504h-.813v7.301C5.603.566 5.508.401 5.308 0L3.031-4.812h-.778Z" style="fill:#000100;fill-opacity:1;fill-rule:nonzero;stroke:none" transform="translate(579.393 241.54)"/><path d="M0 0v-3.479h-.825V0L-3.75 5.024h.932L-.4.755l2.358 4.269h.92z" style="fill:#000100;fill-opacity:1;fill-rule:nonzero;stroke:none" transform="translate(590.88 238.791)"/><path d="m0 0 3.763-4.871H2.701L-.59-.602l-1.085-1.12v-3.149h-.826v8.504h.826V-.66L2.43 3.633h1.108z" style="fill:#000100;fill-opacity:1;fill-rule:nonzero;stroke:none" transform="translate(597.475 240.183)"/><path d="M605.744 237.093h1.191v-1.18h-1.191zm0 5.213h1.191v-1.18h-1.191z" style="fill:#000100;fill-opacity:1;fill-rule:nonzero;stroke:none"/><path d="M0 0c.932 1.098 1.085 1.533 1.085 1.981v.095c0 .85-.59 1.38-1.615 1.38-.743 0-1.416-.295-1.971-1.285l-.66.412c.401.731 1.191 1.628 2.606 1.628 1.51 0 2.478-.849 2.478-2.123V1.97c0-.92-.685-1.687-1.416-2.535l-2.642-3.103h4.364v-.755h-5.402v.708z" style="fill:#000100;fill-opacity:1;fill-rule:nonzero;stroke:none" transform="translate(615.169 239.735)"/><path d="M0 0c0 1.356-.695 1.958-1.923 1.958a2.403 2.403 0 0 1-1.675-.673h-.778l.272 4.659H.271v-.755h-3.644l-.13-3.089c.377.353 1.073.601 1.781.601C-.047 2.701.814 1.545.814.035v-.177c0-1.214-.755-2.547-2.878-2.547-1.156 0-2.005.366-2.76.943l.425.673c.813-.625 1.545-.862 2.335-.862C-.542-1.935 0-.932 0-.153z" style="fill:#000100;fill-opacity:1;fill-rule:nonzero;stroke:none" transform="translate(623.768 237.871)"/><path d="m0 0-3.563-10.427h-.79L-.803 0Z" style="fill:#000100;fill-opacity:1;fill-rule:nonzero;stroke:none" transform="translate(629.713 244.57)"/><path d="M0 0c.424.685 1.155 1.321 2.453 1.321 1.545 0 2.512-.848 2.512-2.123V-.92c0-.672-.33-1.521-1.462-1.91 1.168-.201 1.793-.991 1.793-1.982v-.177c0-1.215-.767-2.453-2.855-2.453-.991 0-1.922.306-2.724.943l.412.661c.826-.601 1.534-.849 2.312-.849 1.487 0 2.04.896 2.04 1.686v.153c0 1.286-1.155 1.617-1.969 1.617h-.955v.708h.99c1.061 0 1.581.884 1.581 1.615v.095c0 .849-.637 1.379-1.663 1.379-.673 0-1.333-.223-1.817-.99z" style="fill:#000100;fill-opacity:1;fill-rule:nonzero;stroke:none" transform="translate(630.821 242.624)"/><path d="M0 0c0 1.356-.695 1.958-1.923 1.958a2.403 2.403 0 0 1-1.675-.673h-.778l.272 4.659H.271v-.755h-3.644l-.13-3.089c.377.353 1.073.601 1.781.601C-.047 2.701.814 1.545.814.035v-.177c0-1.214-.755-2.547-2.878-2.547-1.156 0-2.005.366-2.76.943l.425.673c.813-.625 1.545-.862 2.335-.862C-.542-1.935 0-.932 0-.153z" style="fill:#000100;fill-opacity:1;fill-rule:nonzero;stroke:none" transform="translate(642.51 237.871)"/><path d="m0 0-3.563-10.427h-.79L-.803 0Z" style="fill:#000100;fill-opacity:1;fill-rule:nonzero;stroke:none" transform="translate(648.455 244.57)"/><path d="M0 0c0-1.273.802-2.135 1.958-2.135s1.993.732 1.993 2.005v.177c0 1.274-.943 1.982-1.981 1.982C.979 2.029 0 1.238 0 .153Zm4.022 4.636a3.648 3.648 0 0 1-1.804.507c-1.593 0-2.171-1.333-2.3-3.586.259.507.955 1.191 2.146 1.191 1.451 0 2.702-.967 2.702-2.63v-.283c0-1.675-1.203-2.713-2.785-2.713C.378-2.878-.896-1.793-.896.578v.283c0 3.657 1.191 5.025 3.125 5.025.767 0 1.545-.224 2.182-.578z" style="fill:#000100;fill-opacity:1;fill-rule:nonzero;stroke:none" transform="translate(650.247 238.06)"/><path d="M0 0c0 2.1-.696 2.96-2.053 2.96-1.308 0-2.028-.873-2.028-2.96v-1.345c0-2.111.72-2.972 2.028-2.972C-.696-4.317 0-3.468 0-1.345zm.85-1.333c0-2.406-.862-3.728-2.903-3.728-2.016 0-2.878 1.345-2.878 3.728v1.321c0 2.382.897 3.715 2.878 3.715C-.047 3.703.85 2.37.85-.012z" style="fill:#000100;fill-opacity:1;fill-rule:nonzero;stroke:none" transform="translate(661.229 240.242)"/><path d="m0 0-3.563-10.427h-.79L-.803 0Z" style="fill:#000100;fill-opacity:1;fill-rule:nonzero;stroke:none" transform="translate(667.197 244.57)"/><path d="M0 0c0 2.1-.696 2.96-2.053 2.96-1.308 0-2.028-.873-2.028-2.96v-1.345c0-2.111.72-2.972 2.028-2.972C-.696-4.317 0-3.468 0-1.345zm.85-1.333c0-2.406-.862-3.728-2.903-3.728-2.016 0-2.878 1.345-2.878 3.728v1.321c0 2.382.897 3.715 2.878 3.715C-.047 3.703.85 2.37.85-.012z" style="fill:#000100;fill-opacity:1;fill-rule:nonzero;stroke:none" transform="translate(672.894 240.242)"/><path d="m0 0-.425-.649c-.766.543-1.404.719-2.264.719-1.57 0-2.43-1.215-2.43-2.996v-1.085c0-2.088.943-3.114 2.512-3.114 1.061 0 1.781.39 2.336.873L.212-6.9c-.625-.567-1.486-1.015-2.831-1.015-2.205 0-3.338 1.439-3.338 3.904v1.05c0 2.406 1.203 3.81 3.268 3.81C-1.558.849-.708.542 0 0" style="fill:#000100;fill-opacity:1;fill-rule:nonzero;stroke:none" transform="translate(576.468 187.2)"/><path d="M0 0c-.201.401-.295.566-.425 1.073v-7.301h-.814v8.504h1.014l2.878-6.227 2.89 6.227h.979v-8.504h-.813v7.301C5.603.566 5.508.401 5.308 0L3.031-4.812h-.778Z" style="fill:#000100;fill-opacity:1;fill-rule:nonzero;stroke:none" transform="translate(579.393 185.643)"/><path d="M0 0v-3.479h-.825V0L-3.75 5.024h.932L-.4.755l2.358 4.269h.92z" style="fill:#000100;fill-opacity:1;fill-rule:nonzero;stroke:none" transform="translate(590.88 182.895)"/><path d="m0 0 3.763-4.871H2.701L-.59-.602l-1.085-1.12v-3.149h-.826v8.504h.826V-.66L2.43 3.633h1.108z" style="fill:#000100;fill-opacity:1;fill-rule:nonzero;stroke:none" transform="translate(597.475 184.286)"/><path d="M605.744 181.197h1.191v-1.18h-1.191zm0 5.212h1.191v-1.18h-1.191z" style="fill:#000100;fill-opacity:1;fill-rule:nonzero;stroke:none"/><path d="M0 0c0 1.273-.803 2.17-1.958 2.17-1.156 0-1.993-.767-1.993-2.04v-.177c0-1.274.943-2.006 1.981-2.006.991 0 1.97.815 1.97 1.9zm-4.046-4.576c.53-.307 1.156-.52 1.828-.52 1.746 0 2.23 1.345 2.3 3.551-.235-.496-.955-1.227-2.146-1.227-1.452 0-2.702.991-2.702 2.654v.283c0 1.675 1.203 2.748 2.785 2.748 1.58 0 2.877-1.097 2.877-3.468v-.353c0-3.751-1.026-4.943-3.137-4.943-.767 0-1.51.213-2.147.579z" style="fill:#000100;fill-opacity:1;fill-rule:nonzero;stroke:none" transform="translate(616.49 185.136)"/><path d="M0 0c0 2.1-.696 2.96-2.053 2.96-1.308 0-2.028-.873-2.028-2.96v-1.345c0-2.111.72-2.972 2.028-2.972C-.696-4.317 0-3.468 0-1.345zm.85-1.333c0-2.406-.862-3.728-2.903-3.728-2.016 0-2.878 1.345-2.878 3.728v1.321c0 2.382.897 3.715 2.878 3.715C-.047 3.703.85 2.37.85-.012z" style="fill:#000100;fill-opacity:1;fill-rule:nonzero;stroke:none" transform="translate(623.744 184.346)"/><path d="m0 0-3.563-10.427h-.79L-.803 0Z" style="fill:#000100;fill-opacity:1;fill-rule:nonzero;stroke:none" transform="translate(629.713 188.674)"/><path d="M0 0c.424.685 1.155 1.321 2.453 1.321 1.545 0 2.512-.848 2.512-2.123V-.92c0-.672-.33-1.521-1.462-1.91 1.168-.201 1.793-.991 1.793-1.982v-.177c0-1.215-.767-2.453-2.855-2.453-.991 0-1.922.306-2.724.943l.412.661c.826-.601 1.534-.849 2.312-.849 1.487 0 2.04.896 2.04 1.686v.153c0 1.286-1.155 1.617-1.969 1.617h-.955v.708h.99c1.061 0 1.581.884 1.581 1.615v.095c0 .849-.637 1.379-1.663 1.379-.673 0-1.333-.223-1.817-.99z" style="fill:#000100;fill-opacity:1;fill-rule:nonzero;stroke:none" transform="translate(630.821 186.728)"/><path d="M0 0c0 1.356-.695 1.958-1.923 1.958a2.403 2.403 0 0 1-1.675-.673h-.778l.272 4.659H.271v-.755h-3.644l-.13-3.089c.377.353 1.073.601 1.781.601C-.047 2.701.814 1.545.814.035v-.177c0-1.214-.755-2.547-2.878-2.547-1.156 0-2.005.366-2.76.943l.425.673c.813-.625 1.545-.862 2.335-.862C-.542-1.935 0-.932 0-.153z" style="fill:#000100;fill-opacity:1;fill-rule:nonzero;stroke:none" transform="translate(642.51 181.975)"/><path d="m0 0-3.563-10.427h-.79L-.803 0Z" style="fill:#000100;fill-opacity:1;fill-rule:nonzero;stroke:none" transform="translate(648.455 188.674)"/><path d="M0 0c0 2.1-.696 2.96-2.053 2.96-1.308 0-2.028-.873-2.028-2.96v-1.345c0-2.111.72-2.972 2.028-2.972C-.696-4.317 0-3.468 0-1.345zm.85-1.333c0-2.406-.862-3.728-2.903-3.728-2.016 0-2.878 1.345-2.878 3.728v1.321c0 2.382.897 3.715 2.878 3.715C-.047 3.703.85 2.37.85-.012z" style="fill:#000100;fill-opacity:1;fill-rule:nonzero;stroke:none" transform="translate(654.151 184.346)"/><path d="m0 0-3.563-10.427h-.79L-.803 0Z" style="fill:#000100;fill-opacity:1;fill-rule:nonzero;stroke:none" transform="translate(660.12 188.674)"/><path d="M0 0c0-.92.649-1.663 1.663-1.663 1.015 0 1.663.743 1.663 1.663v.142c0 .873-.66 1.426-1.663 1.426C.649 1.568 0 1.015 0 .142Zm-.235-4.152c0-.872.719-1.569 1.898-1.569 1.191 0 1.9.697 1.9 1.569v.141c0 1.003-.779 1.675-1.9 1.675-1.097 0-1.898-.648-1.898-1.675zm-.838.177c0 .932.637 1.71 1.557 1.994C-.33-1.604-.802-.896-.802-.012v.189C-.802 1.392.236 2.3 1.663 2.3c1.428 0 2.466-.908 2.466-2.123v-.189c0-.884-.472-1.592-1.298-1.969.92-.272 1.569-1.062 1.569-1.994v-.201c0-1.356-1.097-2.288-2.737-2.288-1.639 0-2.736.932-2.736 2.288z" style="fill:#000100;fill-opacity:1;fill-rule:nonzero;stroke:none" transform="translate(662.112 185.75)"/><path d="M0 0c0 2.1-.696 2.96-2.053 2.96-1.308 0-2.028-.873-2.028-2.96v-1.345c0-2.111.72-2.972 2.028-2.972C-.696-4.317 0-3.468 0-1.345zm.85-1.333c0-2.406-.862-3.728-2.903-3.728-2.016 0-2.878 1.345-2.878 3.728v1.321c0 2.382.897 3.715 2.878 3.715C-.047 3.703.85 2.37.85-.012z" style="fill:#000100;fill-opacity:1;fill-rule:nonzero;stroke:none" transform="translate(672.894 184.346)"/><path d="M0 0v-3.351h1.863c1.475 0 2.088.615 2.088 1.64v.118C3.951-.602 3.314 0 1.993 0Zm2.441-4.081c-.106-.012-.212-.012-.318-.012H0v-3.669h-.826V.743h2.937c1.699 0 2.678-.979 2.678-2.312v-.177c0-1.026-.59-1.817-1.533-2.158l1.71-3.858h-.885Z" style="fill:#000100;fill-opacity:1;fill-rule:nonzero;stroke:none" transform="translate(571.549 285.514)"/><path d="m0 0-.425-.649c-.766.543-1.427.719-2.323.719-1.64 0-2.465-1.215-2.465-2.996v-1.085c0-2.088.897-3.113 2.63-3.113.685 0 1.521.142 1.993.424v2.689h-2.005v.732H.213V-7.16c-.732-.53-1.699-.755-2.831-.755-2.348 0-3.433 1.439-3.433 3.904v1.05c0 2.406 1.168 3.81 3.303 3.81C-1.557.849-.708.542 0 0" style="fill:#000100;fill-opacity:1;fill-rule:nonzero;stroke:none" transform="translate(583.992 285.537)"/><path d="M0 0h2.193c1.333 0 1.958.52 1.958 1.521v.26c0 1.038-.518 1.58-2.216 1.58H0Zm0 7.054V4.058h1.923c1.179 0 1.851.353 1.851 1.415v.213c0 1.001-.601 1.368-1.934 1.368zm-.814.719h2.712c1.805 0 2.702-.684 2.702-2.076v-.248c0-.743-.354-1.45-1.369-1.698 1.039-.153 1.758-.767 1.758-1.946V1.51c0-1.392-.885-2.241-2.724-2.241H-.814z" style="fill:#000100;fill-opacity:1;fill-rule:nonzero;stroke:none" transform="translate(586.705 278.484)"/><path d="M596.318 279.533h1.191v-1.18h-1.191zm0 5.214h1.191v-1.18h-1.191z" style="fill:#000100;fill-opacity:1;fill-rule:nonzero;stroke:none"/><path d="M0 0v7.467l-2.052-1.251-.378.661L.201 8.505h.625V0Z" style="fill:#000100;fill-opacity:1;fill-rule:nonzero;stroke:none" transform="translate(605.33 277.752)"/><path d="M0 0c0-.92.649-1.663 1.663-1.663 1.015 0 1.663.743 1.663 1.663v.142c0 .873-.66 1.427-1.663 1.427C.649 1.569 0 1.015 0 .142Zm-.235-4.151c0-.873.719-1.57 1.898-1.57 1.191 0 1.9.697 1.9 1.57v.141c0 1.002-.779 1.675-1.9 1.675-1.097 0-1.898-.649-1.898-1.675zm-.838.176c0 .932.637 1.71 1.557 1.994C-.33-1.604-.802-.896-.802-.012v.189C-.802 1.392.236 2.3 1.663 2.3c1.428 0 2.466-.908 2.466-2.123v-.189c0-.884-.472-1.592-1.298-1.969.92-.272 1.569-1.062 1.569-1.994v-.2c0-1.356-1.097-2.289-2.737-2.289-1.639 0-2.736.933-2.736 2.289z" style="fill:#000100;fill-opacity:1;fill-rule:nonzero;stroke:none" transform="translate(610.614 284.086)"/><path d="M0 0v-2.677h1.25v-.755H0v-1.887h-.826v1.887h-4.258v.755l4.128 5.863h.944l-4.117-5.863h3.303V0Z" style="fill:#000100;fill-opacity:1;fill-rule:nonzero;stroke:none" transform="translate(621.36 283.072)"/><path d="m0 0-3.563-10.428h-.79L-.803 0Z" style="fill:#000100;fill-opacity:1;fill-rule:nonzero;stroke:none" transform="translate(627.364 287.012)"/><path d="M0 0c.932 1.097 1.085 1.533 1.085 1.981v.094c0 .85-.59 1.38-1.615 1.38-.743 0-1.416-.295-1.971-1.285l-.66.413c.401.73 1.191 1.627 2.606 1.627 1.51 0 2.478-.849 2.478-2.123V1.97c0-.921-.685-1.688-1.416-2.536l-2.642-3.103h4.364v-.755h-5.402v.708z" style="fill:#000100;fill-opacity:1;fill-rule:nonzero;stroke:none" transform="translate(631.563 282.176)"/><path d="M0 0c0-.92.649-1.663 1.663-1.663 1.015 0 1.663.743 1.663 1.663v.142c0 .873-.66 1.427-1.663 1.427C.649 1.569 0 1.015 0 .142Zm-.235-4.151c0-.873.719-1.57 1.898-1.57 1.191 0 1.9.697 1.9 1.57v.141c0 1.002-.779 1.675-1.9 1.675-1.097 0-1.898-.649-1.898-1.675zm-.838.176c0 .932.637 1.71 1.557 1.994C-.33-1.604-.802-.896-.802-.012v.189C-.802 1.392.236 2.3 1.663 2.3c1.428 0 2.466-.908 2.466-2.123v-.189c0-.884-.472-1.592-1.298-1.969.92-.272 1.569-1.062 1.569-1.994v-.2c0-1.356-1.097-2.289-2.737-2.289-1.639 0-2.736.933-2.736 2.289z" style="fill:#000100;fill-opacity:1;fill-rule:nonzero;stroke:none" transform="translate(636.434 284.086)"/><path d="m0 0-3.563-10.428h-.79L-.803 0Z" style="fill:#000100;fill-opacity:1;fill-rule:nonzero;stroke:none" transform="translate(646.106 287.012)"/><path d="M0 0c.424.684 1.155 1.32 2.453 1.32 1.545 0 2.512-.848 2.512-2.123V-.92c0-.673-.33-1.522-1.462-1.911 1.167-.2 1.793-.991 1.793-1.981v-.177c0-1.215-.767-2.454-2.855-2.454-.991 0-1.922.306-2.724.944l.412.66c.826-.601 1.534-.849 2.312-.849 1.487 0 2.04.896 2.04 1.687v.153c0 1.285-1.155 1.616-1.969 1.616h-.955v.708h.99c1.061 0 1.581.884 1.581 1.616v.094c0 .849-.637 1.379-1.663 1.379-.673 0-1.333-.223-1.817-.99z" style="fill:#000100;fill-opacity:1;fill-rule:nonzero;stroke:none" transform="translate(647.215 285.066)"/><path d="M0 0v-2.677h1.25v-.755H0v-1.887h-.826v1.887h-4.258v.755l4.128 5.863h.944l-4.117-5.863h3.303V0Z" style="fill:#000100;fill-opacity:1;fill-rule:nonzero;stroke:none" transform="translate(658.845 283.072)"/><path d="M0 0v-3.35h1.863c1.475 0 2.088.614 2.088 1.64v.118C3.951-.602 3.314 0 1.993 0Zm2.441-4.081c-.106-.012-.212-.012-.318-.012H0v-3.668h-.826V.743h2.937c1.699 0 2.678-.978 2.678-2.311v-.177c0-1.026-.59-1.817-1.533-2.158l1.71-3.858h-.885Z" style="fill:#000100;fill-opacity:1;fill-rule:nonzero;stroke:none" transform="translate(571.549 230.131)"/><path d="m0 0-.425-.649c-.766.543-1.427.719-2.323.719-1.64 0-2.465-1.215-2.465-2.996v-1.085c0-2.088.897-3.114 2.63-3.114.685 0 1.521.142 1.993.425v2.689h-2.005v.732H.213V-7.16c-.732-.53-1.699-.755-2.831-.755-2.348 0-3.433 1.439-3.433 3.904v1.05c0 2.406 1.168 3.81 3.303 3.81C-1.557.849-.708.542 0 0" style="fill:#000100;fill-opacity:1;fill-rule:nonzero;stroke:none" transform="translate(583.992 230.155)"/><path d="M0 0h2.193c1.333 0 1.958.519 1.958 1.521v.26c0 1.037-.518 1.58-2.216 1.58H0Zm0 7.054V4.058h1.923c1.179 0 1.851.353 1.851 1.415v.212c0 1.002-.601 1.369-1.934 1.369zm-.814.718h2.712c1.805 0 2.702-.683 2.702-2.075v-.248c0-.743-.354-1.451-1.369-1.698 1.039-.153 1.758-.767 1.758-1.946V1.51c0-1.392-.885-2.241-2.724-2.241H-.814z" style="fill:#000100;fill-opacity:1;fill-rule:nonzero;stroke:none" transform="translate(586.705 223.102)"/><path d="M596.318 224.152h1.191v-1.18h-1.191zm0 5.212h1.191v-1.18h-1.191z" style="fill:#000100;fill-opacity:1;fill-rule:nonzero;stroke:none"/><path d="M0 0c.932 1.098 1.085 1.533 1.085 1.981v.095c0 .85-.59 1.38-1.615 1.38-.743 0-1.416-.295-1.971-1.285l-.66.412c.401.731 1.191 1.628 2.606 1.628 1.51 0 2.478-.849 2.478-2.123V1.97c0-.92-.685-1.687-1.416-2.535l-2.642-3.103h4.364v-.755h-5.402v.708z" style="fill:#000100;fill-opacity:1;fill-rule:nonzero;stroke:none" transform="translate(605.743 226.793)"/><path d="M0 0c0 2.1-.696 2.96-2.053 2.96-1.308 0-2.028-.873-2.028-2.96v-1.345c0-2.111.72-2.972 2.028-2.972C-.696-4.317 0-3.468 0-1.345zm.85-1.333c0-2.406-.862-3.728-2.903-3.728-2.016 0-2.878 1.345-2.878 3.728v1.321c0 2.382.897 3.715 2.878 3.715C-.047 3.703.85 2.37.85-.012z" style="fill:#000100;fill-opacity:1;fill-rule:nonzero;stroke:none" transform="translate(614.318 227.301)"/><path d="M0 0v7.466l-2.052-1.25-.378.661L.201 8.504h.625V0Z" style="fill:#000100;fill-opacity:1;fill-rule:nonzero;stroke:none" transform="translate(619.484 222.37)"/><path d="m0 0-3.563-10.427h-.79L-.803 0Z" style="fill:#000100;fill-opacity:1;fill-rule:nonzero;stroke:none" transform="translate(627.364 231.63)"/><path d="M0 0v7.466l-2.052-1.25-.378.661L.201 8.504h.625V0Z" style="fill:#000100;fill-opacity:1;fill-rule:nonzero;stroke:none" transform="translate(631.15 222.37)"/><path d="M0 0c0-1.273.802-2.135 1.958-2.135s1.993.732 1.993 2.005v.177c0 1.274-.943 1.982-1.981 1.982C.979 2.029 0 1.238 0 .153Zm4.022 4.636a3.648 3.648 0 0 1-1.804.507c-1.593 0-2.171-1.333-2.3-3.586.259.507.955 1.191 2.146 1.191 1.451 0 2.702-.967 2.702-2.63v-.283c0-1.675-1.203-2.713-2.785-2.713C.378-2.878-.896-1.793-.896.578v.283c0 3.657 1.191 5.025 3.125 5.025.767 0 1.545-.224 2.182-.578z" style="fill:#000100;fill-opacity:1;fill-rule:nonzero;stroke:none" transform="translate(636.233 225.118)"/><path d="M0 0c0 1.273-.803 2.17-1.958 2.17-1.156 0-1.993-.767-1.993-2.04v-.177c0-1.274.943-2.006 1.981-2.006.991 0 1.97.815 1.97 1.9zm-4.046-4.576c.531-.307 1.156-.52 1.828-.52 1.746 0 2.23 1.345 2.3 3.551-.235-.496-.955-1.227-2.146-1.227-1.451 0-2.702.991-2.702 2.654v.283c0 1.675 1.203 2.748 2.785 2.748 1.58 0 2.877-1.097 2.877-3.468v-.353c0-3.751-1.026-4.943-3.137-4.943-.767 0-1.51.213-2.147.579z" style="fill:#000100;fill-opacity:1;fill-rule:nonzero;stroke:none" transform="translate(647.038 228.091)"/><path d="m0 0-3.563-10.427h-.79L-.803 0Z" style="fill:#000100;fill-opacity:1;fill-rule:nonzero;stroke:none" transform="translate(653.184 231.63)"/><path d="M0 0v7.466l-2.052-1.25-.378.661L.201 8.504h.625V0Z" style="fill:#000100;fill-opacity:1;fill-rule:nonzero;stroke:none" transform="translate(656.969 222.37)"/><path d="M0 0v7.466l-2.052-1.25-.378.661L.201 8.504h.625V0Z" style="fill:#000100;fill-opacity:1;fill-rule:nonzero;stroke:none" transform="translate(664.046 222.37)"/><path d="M0 0v7.466l-2.052-1.25-.378.661L.201 8.504h.625V0Z" style="fill:#000100;fill-opacity:1;fill-rule:nonzero;stroke:none" transform="translate(671.123 222.37)"/><path d="M0 0v-3.35h1.863c1.475 0 2.088.614 2.088 1.64v.118C3.951-.602 3.314 0 1.993 0Zm2.441-4.081c-.106-.012-.212-.012-.318-.012H0v-3.668h-.826V.743h2.937c1.699 0 2.678-.978 2.678-2.311v-.177c0-1.026-.59-1.817-1.533-2.158l1.71-3.858h-.885Z" style="fill:#000100;fill-opacity:1;fill-rule:nonzero;stroke:none" transform="translate(571.549 174.234)"/><path d="m0 0-.425-.649c-.766.543-1.427.719-2.323.719-1.64 0-2.465-1.215-2.465-2.996v-1.085c0-2.088.897-3.114 2.63-3.114.685 0 1.521.142 1.993.425v2.689h-2.005v.732H.213V-7.16c-.732-.53-1.699-.755-2.831-.755-2.348 0-3.433 1.439-3.433 3.904v1.05c0 2.406 1.168 3.81 3.303 3.81C-1.557.849-.708.542 0 0" style="fill:#000100;fill-opacity:1;fill-rule:nonzero;stroke:none" transform="translate(583.992 174.258)"/><path d="M0 0h2.193c1.333 0 1.958.519 1.958 1.521v.26c0 1.037-.518 1.58-2.216 1.58H0Zm0 7.054V4.058h1.923c1.179 0 1.851.353 1.851 1.415v.212c0 1.002-.601 1.369-1.934 1.369zm-.814.718h2.712c1.805 0 2.702-.683 2.702-2.075v-.248c0-.743-.354-1.451-1.369-1.698 1.039-.153 1.758-.767 1.758-1.946V1.51c0-1.392-.885-2.241-2.724-2.241H-.814z" style="fill:#000100;fill-opacity:1;fill-rule:nonzero;stroke:none" transform="translate(586.706 167.204)"/><path d="M596.319 168.254h1.191v-1.18h-1.191zm0 5.213h1.191v-1.18h-1.191z" style="fill:#000100;fill-opacity:1;fill-rule:nonzero;stroke:none"/><path d="M0 0c0 2.1-.696 2.96-2.053 2.96-1.308 0-2.028-.873-2.028-2.96v-1.345c0-2.111.72-2.972 2.028-2.972C-.696-4.317 0-3.468 0-1.345zm.85-1.333c0-2.406-.862-3.728-2.903-3.728-2.016 0-2.878 1.345-2.878 3.728v1.321c0 2.382.897 3.715 2.878 3.715C-.047 3.703.85 2.37.85-.012z" style="fill:#000100;fill-opacity:1;fill-rule:nonzero;stroke:none" transform="translate(607.241 171.404)"/><path d="m0 0-3.563-10.427h-.79L-.803 0Z" style="fill:#000100;fill-opacity:1;fill-rule:nonzero;stroke:none" transform="translate(613.21 175.732)"/><path d="M0 0c.424.685 1.155 1.321 2.453 1.321 1.545 0 2.512-.848 2.512-2.123V-.92c0-.672-.33-1.521-1.462-1.91 1.167-.201 1.793-.991 1.793-1.982v-.177c0-1.215-.767-2.453-2.855-2.453-.991 0-1.922.306-2.724.943l.412.661c.826-.601 1.534-.849 2.312-.849 1.487 0 2.04.896 2.04 1.686v.153c0 1.286-1.155 1.617-1.969 1.617h-.955v.708h.99c1.061 0 1.581.884 1.581 1.615v.095c0 .849-.637 1.379-1.663 1.379-.673 0-1.333-.223-1.817-.99z" style="fill:#000100;fill-opacity:1;fill-rule:nonzero;stroke:none" transform="translate(614.318 173.785)"/><path d="M0 0c0-.92.649-1.663 1.663-1.663 1.015 0 1.663.743 1.663 1.663v.142c0 .873-.66 1.426-1.663 1.426C.649 1.568 0 1.015 0 .142Zm-.235-4.152c0-.872.719-1.569 1.898-1.569 1.191 0 1.9.697 1.9 1.569v.141c0 1.003-.779 1.675-1.9 1.675-1.097 0-1.898-.648-1.898-1.675zm-.838.177c0 .932.637 1.71 1.557 1.994C-.33-1.604-.802-.896-.802-.012v.189C-.802 1.392.236 2.3 1.663 2.3c1.428 0 2.466-.908 2.466-2.123v-.189c0-.884-.472-1.592-1.298-1.969.92-.272 1.569-1.062 1.569-1.994v-.201c0-1.356-1.097-2.288-2.737-2.288-1.639 0-2.736.932-2.736 2.288z" style="fill:#000100;fill-opacity:1;fill-rule:nonzero;stroke:none" transform="translate(622.28 172.807)"/><path d="m0 0-3.563-10.427h-.79L-.803 0Z" style="fill:#000100;fill-opacity:1;fill-rule:nonzero;stroke:none" transform="translate(631.952 175.732)"/><path d="M0 0h-.932l3.455 7.749h-4.776v.755h5.697v-.637Z" style="fill:#000100;fill-opacity:1;fill-rule:nonzero;stroke:none" transform="translate(635.055 166.473)"/><path d="M0 0c.424.685 1.155 1.321 2.453 1.321 1.545 0 2.512-.848 2.512-2.123V-.92c0-.672-.33-1.521-1.462-1.91 1.167-.201 1.793-.991 1.793-1.982v-.177c0-1.215-.767-2.453-2.855-2.453-.991 0-1.922.306-2.724.943l.412.661c.826-.601 1.534-.849 2.312-.849 1.487 0 2.04.896 2.04 1.686v.153c0 1.286-1.155 1.617-1.969 1.617h-.955v.708h.99c1.061 0 1.581.884 1.581 1.615v.095c0 .849-.637 1.379-1.663 1.379-.673 0-1.333-.223-1.817-.99z" style="fill:#000100;fill-opacity:1;fill-rule:nonzero;stroke:none" transform="translate(640.139 173.785)"/><path d="M0 0h-1.902l-.309-2.197h1.902zm1.929-2.197v-.817H.349l-.416-2.947h-.764l.416 2.947h-1.902l-.403-2.947h-.777l.416 2.947h-1.461v.817h1.567L-2.666 0h-1.46v.817h1.58l.402 2.881h.764L-1.782.817H.107l.402 2.881h.777L.871.817h1.474V0H.764L.455-2.197Z" style="fill:#000100;fill-opacity:1;fill-rule:nonzero;stroke:none" transform="translate(581.156 351.694)"/><path d="M0 0h-1.232v.777H0v.911c0 1.567.656 2.077 1.862 2.077.389 0 .938-.067 1.219-.175l-.134-.75a3.649 3.649 0 0 1-1.017.134c-.724 0-1.019-.348-1.019-1.326V.777h1.996V0H.911v-6.444H0Z" style="fill:#000100;fill-opacity:1;fill-rule:nonzero;stroke:none" transform="translate(588.956 352.176)"/><path d="M0 0h-1.232v.777H0v.911c0 1.567.656 2.077 1.862 2.077.389 0 .938-.067 1.219-.175l-.134-.75a3.649 3.649 0 0 1-1.017.134c-.724 0-1.019-.348-1.019-1.326V.777h1.996V0H.911v-6.444H0Z" style="fill:#000100;fill-opacity:1;fill-rule:nonzero;stroke:none" transform="translate(593.968 352.176)"/><path d="M0 0h-1.232v.777H0v.911c0 1.567.656 2.077 1.862 2.077.389 0 .938-.067 1.219-.175l-.134-.75a3.649 3.649 0 0 1-1.017.134c-.724 0-1.019-.348-1.019-1.326V.777h1.996V0H.911v-6.444H0Z" style="fill:#000100;fill-opacity:1;fill-rule:nonzero;stroke:none" transform="translate(598.98 352.176)"/><path d="M0 0h-1.232v.777H0v.911c0 1.567.656 2.077 1.862 2.077.389 0 .938-.067 1.219-.175l-.134-.75a3.649 3.649 0 0 1-1.017.134c-.724 0-1.019-.348-1.019-1.326V.777h1.996V0H.911v-6.444H0Z" style="fill:#000100;fill-opacity:1;fill-rule:nonzero;stroke:none" transform="translate(603.991 352.176)"/><path d="M0 0h-1.232v.777H0v.911c0 1.567.656 2.077 1.862 2.077.389 0 .938-.067 1.219-.175l-.134-.75a3.649 3.649 0 0 1-1.017.134c-.724 0-1.019-.348-1.019-1.326V.777h1.996V0H.911v-6.444H0Z" style="fill:#000100;fill-opacity:1;fill-rule:nonzero;stroke:none" transform="translate(609.004 352.176)"/><path d="M0 0h-1.232v.777H0v.911c0 1.567.656 2.077 1.862 2.077.389 0 .938-.067 1.219-.175l-.134-.75a3.649 3.649 0 0 1-1.017.134c-.724 0-1.019-.348-1.019-1.326V.777h1.996V0H.911v-6.444H0Z" style="fill:#000100;fill-opacity:1;fill-rule:nonzero;stroke:none" transform="translate(614.016 352.176)"/></g><g clip-path="url(#b)" transform="matrix(2.8207 0 0 -2.8207 -446.622 1202.204)"><path d="M841.89 417.432H.002v235.054H841.89Z" style="fill:#b91d22;fill-opacity:1;fill-rule:nonzero;stroke:none"/><path d="m0 0 841.888 141.652V-34.94H0Z" style="fill:#002749;fill-opacity:1;fill-rule:nonzero;stroke:none" transform="translate(0 452.373)"/><path d="m0 0-589.023-101.653L0 33.469Z" style="fill:#c9a970;fill-opacity:1;fill-rule:nonzero;stroke:none" transform="translate(841.888 605.007)"/><path d="m0 0 352.185 60.769L29.116-17.2H0Z" style="fill:#c9a978;fill-opacity:1;fill-rule:nonzero;stroke:none" transform="translate(0 434.632)"/><path d="m0 0 187.054 45.038L39.95 0Z" style="fill:#c9a978;fill-opacity:1;fill-rule:nonzero;stroke:none" transform="translate(60.292 417.433)"/><path d="M0 0v-121.547L369.645 0Z" style="fill:#002749;fill-opacity:1;fill-rule:nonzero;stroke:none" transform="translate(0 652.486)"/><path d="m0 0 465.771 135.106h-96.126L0 13.556Z" style="fill:#81292d;fill-opacity:1;fill-rule:nonzero;stroke:none" transform="translate(0 517.38)"/></g><g clip-path="url(#c)" transform="matrix(2.8207 0 0 -2.8207 -446.622 1202.204)"><path d="M0 0h3.324v-3.248h.836V0h3.401v-9.992H4.16v3.514h-.836v-3.514H0Zm-4.712-14.571 8.245.266v.988h-8.245zm-1.463 8.473c0-.513.514-.912 1.027-.912.512 0 1.025.399 1.025.912v2.527c0 .513-.513.912-1.025.912-.513 0-1.027-.399-1.027-.912zm-2.564-4.369h16.3v-7.181H3.533v.494l-12.272-.494zm-.798 6.991C-9.537-1.292-7.391 0-5.187 0-2.982 0-.836-1.292-.836-3.476v-2.717c0-2.184-2.146-3.476-4.351-3.476-2.204 0-4.35 1.292-4.35 3.476z" style="fill:#fff;fill-opacity:1;fill-rule:nonzero;stroke:none" transform="translate(616.765 572.848)"/><path d="M630.18 569.049h7.826v.76h-7.826zm-4.142-6.459h16.148v-4.578h-11.988v-.684h12.273V555.2h-16.433v4.711h11.987v.665h-11.987zm0 10.373h4.142v-.931h7.826v.931h4.18v-6.137h-16.148zm-.665-6.839h17.478v-2.736h-17.478z" style="fill:#fff;fill-opacity:1;fill-rule:nonzero;stroke:none"/><path d="M0 0h2.831v2.298H7.01V-7.979H2.831v4.73H0zm-4.882-12.443 7.694.266v1.026h-7.694ZM-9.1-8.454H7.01v-6.896H2.812v.494L-9.1-15.35Zm-.797 10.468h9.422l-.57-5.928h-4.844v-1.064l7.865.533v-2.679l-11.873-.76v6.364h5.091l.095.931h-5.186z" style="fill:#fff;fill-opacity:1;fill-rule:nonzero;stroke:none" transform="translate(654.175 570.55)"/><path d="M0 0h16.109v-4.769H4.369v-.569h12.026v-2.337H0v4.901h11.74v.513H0zm11.931 9.973h4.178V.475h-4.178v3.077H8.587C6.592 1.197 2.698.57-.893.513v2.565c2.527.056 4.293.322 5.453.949H-.607v2.394H6.25a3.5 3.5 0 0 1 .076.798H-.798v2.469H9.993V7.694c0-.323-.019-.627-.057-.912h1.995z" style="fill:#fff;fill-opacity:1;fill-rule:nonzero;stroke:none" transform="translate(668.825 562.875)"/><path d="M0 0h3.001v5.452h4.18v-17.648h-4.18v8.758H0zm-9.708 4.882H.076l-.988-9.46h-4.711v-3.287l8.168.627v-3.419l-12.253-.969v10.183h5.034l.323 3.001h-5.357z" style="fill:#fff;fill-opacity:1;fill-rule:nonzero;stroke:none" transform="translate(696.26 567.396)"/><path d="M717.692 572.848h4.274V555.2h-4.274zm-12.803-12.594c2.032 1.367 3.76 3.248 3.76 8.814v3.4h4.2v-3.4c0-5.566 1.728-7.447 3.76-8.814v-4.484c-2.431 1.216-4.502 2.831-5.87 5.395-1.367-2.564-3.419-4.179-5.85-5.395z" style="fill:#fff;fill-opacity:1;fill-rule:nonzero;stroke:none"/><path d="M0 0c3.99.304 6.137 3.153 6.137 5.281v1.634h4.274V5.281c0-2.128 2.147-4.977 6.136-5.281v-3.4c-4.008.094-6.706 1.804-8.282 3.951C6.687-1.596 3.99-3.306 0-3.4Zm-.475-6.839h17.478v-3.515H-.475Z" style="fill:#fff;fill-opacity:1;fill-rule:nonzero;stroke:none" transform="translate(723.697 565.839)"/><path d="M755.825 572.848h3.4v-10.562h-3.4zm-5.585-3.59h1.614v3.59h3.325v-10.562h-3.325v4.028h-1.614zm-3.287-11.17 8.245.266v.798h-8.245zm-4.027 3.723h16.3V555.2h-4.028v.494l-12.272-.494Zm8.454 1.368-9.252-.57v6.649h7.542v-2.507h-4.027v-1.349l5.737.323zm-9.252 9.385h8.396v-2.603h-8.396zM778.492 572.848h4.274V555.2h-4.274zm-12.614-1.139h3.629v1.52h4.103v-1.52h3.59v-3.211h-3.647v-.076c0-2.413 1.615-3.248 3.838-3.4v-3.287c-2.565.057-4.579.855-5.852 2.565-1.292-1.71-3.286-2.508-5.851-2.565v3.287c2.223.152 3.837.987 3.837 3.4v.076h-3.647zm-.38-13.089 4.104.246v3.135h3.913v-2.907l4.503.286v-3.42l-12.52-.76z" style="fill:#fff;fill-opacity:1;fill-rule:nonzero;stroke:none"/><path d="M0 0h8.111c.247 0 .438.228.438.475 0 .247-.191.475-.438.475H0C-.247.95-.437.722-.437.475-.437.228-.247 0 0 0m6.363 12.253c.494-.855 2.204-1.482 6.004-1.424V8.15c-4.312 0-6.896.722-8.263 2.147C2.735 8.872.151 8.15-4.161 8.15v2.679c3.8-.058 5.49.588 5.984 1.424h-5.794v2.717h16.148v-2.717Zm-7.427-8.625H9.251c1.748 0 3.211-1.462 3.211-3.21 0-1.767-1.463-3.191-3.211-3.191H-1.064A3.186 3.186 0 0 0-4.256.418c0 1.748 1.425 3.21 3.192 3.21m-3.572 3.629H2.09v1.596h4.008V7.257h6.744V4.408H-4.636Z" style="fill:#fff;fill-opacity:1;fill-rule:nonzero;stroke:none" transform="translate(788.66 557.879)"/></g></svg>