<svg xmlns="http://www.w3.org/2000/svg" width="343.13678mm" height="343.13681mm" viewBox="0 0 343.13678 343.13681"><g transform="translate(406.132 16.146)"><circle cx="-234.26167" cy="156.79694" r="169.12895" style="fill:#123d44;fill-opacity:1;stroke-width:176.639;stroke-opacity:0"/><circle cx="-234.26167" cy="156.79694" r="124.31395" style="fill:#123d44;fill-opacity:1;stroke-width:129.834;stroke-opacity:0"/><path d="M648.447 0A648.447 648.447 0 0 0 0 648.447a648.447 648.447 0 0 0 648.447 648.448 648.447 648.447 0 0 0 648.448-648.448A648.447 648.447 0 0 0 648.447 0zm13.426 30.451c6.01.065 11.05.203 14.018.424 21.88 1.631 42.412 3.485 45.67 4.123 1.86.364 6.884.97 11.164 1.346 4.28.377 10.52 1.14 13.869 1.695 3.349.556 10.81 1.778 16.578 2.715 10.409 1.692 27.786 5.398 36.875 7.865 2.605.707 8.084 2.17 12.178 3.25 4.093 1.08 9.918 2.887 12.943 4.014 3.025 1.126 9.877 3.26 15.225 4.74 14.139 3.915 37.427 12.654 49.98 18.754 3.275 1.592 12.39 5.423 21.65 9.1 3.55 1.409 34.044 17.18 36.538 18.896.93.64 3.552 2.1 5.828 3.242 9.635 4.838 42.979 26.368 55.675 35.95 4.243 3.201 8.504 6.277 9.471 6.835.968.558 2.521 1.691 3.451 2.518.93.826 3.408 2.806 5.506 4.398 6.122 4.646 23.62 19.13 27.37 22.659 1.893 1.78 6.184 5.583 9.534 8.447 7.378 6.307 33.122 31.939 39.618 39.445 2.576 2.977 6.142 7.087 7.924 9.133 3.953 4.543 9.635 11.24 13.119 15.463a353.584 353.584 0 0 0 4.058 4.836c4.898 5.656 7.817 9.34 8.576 10.822.477.93 1.776 2.758 2.887 4.06 9.852 11.556 37.6 53.368 44.504 67.061 1.43 2.835 3.493 6.487 4.586 8.117 3.402 5.075 15.987 30.332 19.008 38.147 1.582 4.093 4.517 10.839 6.52 14.99 2.002 4.15 4.226 9.022 4.945 10.824 9.353 23.474 13.959 36.373 15.062 42.18.389 2.046 1.475 5.243 2.414 7.104 1.986 3.934 3.552 9.144 8.332 27.74 5.855 22.776 7.201 28.728 8.727 38.564.808 5.21 2.061 13.125 2.785 17.59 1.18 7.276 1.914 13.34 4.096 33.828.357 3.35 1.094 11.266 1.64 17.592.547 6.326 1.273 13.176 1.616 15.223 1.831 10.95 1.295 54.858-.93 76.111-.546 5.21-1.481 14.345-2.078 20.299-2.88 28.717-4.395 40.106-8.362 62.92-.776 4.465-3.58 16.337-6.23 26.384a9933.105 9933.105 0 0 0-6.137 23.342c-.724 2.791-2.053 6.34-2.953 7.887-.9 1.546-2.246 5.43-2.992 8.629-2.828 12.126-13.193 39.758-19.819 52.832-1.697 3.349-4.312 9.322-5.812 13.273-1.5 3.952-3.581 8.976-4.623 11.164-3.182 6.683-14.573 28.27-15.486 29.35-.473.558-2.351 3.908-4.176 7.443-5.35 10.364-24.957 41.011-33.996 53.135a453.68 453.68 0 0 0-6.09 8.414c-1.674 2.382-3.844 5.111-4.82 6.065-.977.953-2.168 2.493-2.647 3.423-.48.931-3.334 4.702-6.344 8.378-3.01 3.675-6.385 7.82-7.502 9.21-11.31 14.082-25.188 29.123-43.257 46.885-10.61 10.428-34.899 32.365-40.98 37.012-1.675 1.28-4.72 3.748-6.766 5.486-2.047 1.738-5.49 4.28-7.65 5.649-2.162 1.369-4.102 2.935-4.311 3.482-.21.547-1.259 1.448-2.33 2.002-1.072.554-5.679 3.842-10.237 7.307-4.558 3.464-11.028 8.066-14.377 10.226s-10.2 6.581-15.224 9.826c-15.747 10.173-19.121 12.196-25.034 15.008-3.163 1.505-6.36 3.285-7.105 3.957-2.46 2.221-33.008 17.567-40.934 20.563-4.28 1.617-10.977 4.472-14.884 6.341-6.768 3.238-10.877 4.986-24.698 10.51-5.633 2.252-21.631 7.401-28.754 9.256-1.674.436-5.33 1.638-8.12 2.67-9.044 3.343-11.754 4.21-16.915 5.418-2.79.653-9.033 2.27-13.87 3.592-11.36 3.104-32.66 7.359-44.995 8.988-1.675.221-5.176.837-7.781 1.365-2.605.529-9.455 1.428-15.223 1.998-24.952 2.47-31.017 3.11-34.846 3.68-2.232.333-8.473.93-13.869 1.324-23.46 1.72-58.618 1.067-83.898-1.56-31.114-3.234-42.216-4.52-47.363-5.49-2.791-.526-8.27-1.433-12.178-2.014-15.719-2.34-32.811-5.817-43.643-8.877-4.465-1.262-10.402-2.875-13.193-3.586-9.118-2.323-13.096-3.553-15.553-4.807-1.33-.678-4.235-1.746-6.457-2.373-18.837-5.316-42.122-13.93-57.205-21.162-3.878-1.86-10.69-4.798-15.139-6.531-4.448-1.733-8.407-3.402-8.797-3.711-.39-.308-6.797-3.684-14.24-7.502-7.442-3.818-14.14-7.477-14.885-8.133-.744-.655-4.208-2.615-7.697-4.355-3.489-1.742-7.903-4.163-9.81-5.38a1465.812 1465.812 0 0 0-9.22-5.802c-10.993-6.865-27.435-17.841-33.151-22.133-8.153-6.119-11.452-8.616-14.547-11.01a753.75 753.75 0 0 0-8.12-6.122c-18.012-13.412-46.493-39.355-69.392-63.213-4.63-4.823-9.027-9.587-9.772-10.584-.744-.998-4.244-5.143-7.779-9.211-10.519-12.107-20.557-24.495-21.82-26.932-.65-1.254-1.666-2.55-2.258-2.883-.592-.33-1.734-1.683-2.539-3.004-.805-1.321-4.06-5.86-7.236-10.088-3.176-4.227-6.374-8.638-7.106-9.802-.732-1.164-3.95-6.037-7.152-10.826-7.098-10.617-17.899-28.106-21.047-34.079-1.275-2.419-4.465-8.204-7.09-12.855-5.975-10.59-12.941-24.468-16.002-31.879a718.798 718.798 0 0 0-4.86-11.422c-9.854-22.515-18.792-45.553-21.605-55.691-1.258-4.535-3.404-11.44-4.767-15.348-3.98-11.403-13.56-50.417-15.533-63.258-.973-6.325-2.21-14.09-2.75-17.252-.54-3.163-1.472-10.774-2.07-16.914-.6-6.14-1.194-11.332-1.32-11.537-.125-.204-.724-7.51-1.33-16.236-.604-8.726-1.428-18.607-1.83-21.955-.923-7.71-1.28-46.832-.497-54.463.324-3.163 1.211-14.276 1.97-24.695.76-10.42 1.665-20.923 2.014-23.342.349-2.419.956-8.202 1.35-12.854.394-4.652 1.15-10.892 1.681-13.869.531-2.976 1.628-9.979 2.438-15.56 2.162-14.896 12.978-57.928 17.283-68.762 1.277-3.213 2.618-7.405 2.98-9.317.821-4.329 2.619-10.58 3.813-13.26.498-1.116 2.005-4.922 3.348-8.456 5.49-14.452 9.936-25.406 12.037-29.66 1.223-2.479 3.572-7.855 5.22-11.948 3.147-7.812 17.032-35.843 22.622-45.668 11.032-19.39 23.443-39.402 28.953-46.683 1.267-1.675 2.705-3.804 3.195-4.733.49-.929 3.503-5.187 6.697-9.463 3.194-4.275 6.264-8.549 6.823-9.498.558-.949 1.728-2.475 2.6-3.392.87-.917 2.24-2.645 3.044-3.84.803-1.195 4.809-6.166 8.902-11.047 4.094-4.88 8.296-9.981 9.338-11.338 1.043-1.356 3.935-4.726 6.428-7.49a6218.01 6218.01 0 0 0 8.541-9.492c3.67-4.089 9.196-9.873 18.813-19.69 7.82-7.984 21.983-21.291 25.209-23.687 1.865-1.386 4.001-3.208 4.746-4.051.744-.843 4.853-4.445 9.132-8.004 4.28-3.56 10.217-8.503 13.194-10.984 2.977-2.482 6.4-5.016 7.605-5.631 1.206-.615 2.68-1.862 3.276-2.77.595-.908 1.623-1.824 2.285-2.033.661-.21 4.21-2.663 7.888-5.451s12.928-9.22 20.557-14.295c7.629-5.074 14.644-9.75 15.588-10.389 3.915-2.65 20.653-12.404 23.285-13.568 1.564-.691 3.581-1.832 4.483-2.535.9-.703 8.032-4.548 15.847-8.547 7.815-4 14.513-7.51 14.885-7.805.372-.292 5.702-2.587 11.842-5.1 6.14-2.513 11.5-4.833 11.914-5.152.79-.612 14.62-6.433 24.96-10.504 8.979-3.534 24.29-8.708 30.46-10.293 2.97-.763 9.039-2.639 13.486-4.17 4.448-1.53 10.842-3.508 14.21-4.392 3.366-.884 9.015-2.38 12.55-3.324 10.119-2.705 23.751-5.555 35.521-7.428 5.954-.948 13.262-2.176 16.239-2.729 2.977-.552 8.762-1.325 12.855-1.72a443.075 443.075 0 0 0 14.547-1.688c3.907-.535 11.824-1.311 17.592-1.72 5.768-.412 12.618-1.044 15.222-1.41 5.806-.812 32.572-1.271 50.6-1.077z" style="fill:#c4ab60;fill-opacity:1;stroke:none;stroke-width:257.613;stroke-opacity:0" transform="matrix(.26458 0 0 .26458 -406.132 -16.146)"/><circle cx="-234.26167" cy="156.79694" r="63.766026" style="fill:#155544;stroke-width:66.5976;stroke-opacity:0;fill-opacity:1"/><path d="M648.076 170.309c-13.02.057-26.383.39-35.787.986-13.197.835-27.567 2.574-42.289 5.117-2.233.386-7.103 1.137-10.824 1.67-12.654 1.813-14.933 2.236-19.356 3.602-2.43.75-5.92 1.583-7.756 1.851-1.834.267-4.402 1.018-5.705 1.666-1.302.647-4.498 1.689-7.103 2.315-7.84 1.883-40.739 12.85-49.393 16.466-14.82 6.192-56.54 26.813-60.556 29.93-1.303 1.011-4.917 3.279-8.034 5.04-7.082 4-21.52 13.44-28.38 18.556-5.195 3.873-19.211 14.483-23.352 17.674-15.714 12.111-45.08 40.03-58.98 56.076-9.803 11.315-14.116 16.472-16.256 19.431-1.988 2.748-13.395 18.018-18.977 25.405-1.59 2.104-3.409 4.845-4.043 6.09-.634 1.244-2.146 3.633-3.357 5.308-1.212 1.675-3.803 5.784-5.758 9.133-1.955 3.35-4.633 7.612-5.951 9.473-1.318 1.86-4.365 7.188-6.77 11.84-2.405 4.65-4.895 9.217-5.537 10.148-.642.93-1.39 2.453-1.664 3.383-.273.93-1.075 2.696-1.781 3.926s-2.985 5.948-5.065 10.486c-2.08 4.537-4.4 9.47-5.158 10.957-.757 1.489-2.727 6.209-4.377 10.488-1.65 4.28-3.419 8.693-3.931 9.809-.513 1.116-1.37 3.4-1.905 5.074-.535 1.675-2.965 8.989-5.398 16.252-2.434 7.263-4.925 15.178-5.535 17.59-.61 2.412-2.138 7.43-3.393 11.15-1.255 3.721-2.943 9.963-3.75 13.87-.807 3.907-1.72 8.17-2.027 9.472-1.707 7.22-6.603 43.399-7.508 55.477-1.777 23.71-1.352 75.635.756 92.351.328 2.605.937 7.932 1.351 11.84.415 3.907 1.035 8.778 1.38 10.824a843.686 843.686 0 0 1 1.65 10.488c2.21 14.61 3.022 18.488 6.46 30.784a3217.78 3217.78 0 0 1 4.391 15.898c5.072 18.584 15.635 48.193 21.967 61.568a5875.987 5875.987 0 0 0 12.5 26.05c4.574 9.377 11.006 20.41 24.762 42.472 5.871 9.417 6.988 11.04 14.877 21.615 11.986 16.068 15.885 20.967 24.65 30.969 33.948 38.736 72.454 71.234 113.424 95.726 3.865 2.311 7.649 4.772 8.406 5.47 1.32 1.212 34.026 17.834 48.053 24.42 20.431 9.591 69.487 25.659 89.611 29.349 3.163.58 9.861 1.66 14.885 2.4 5.024.74 10.2 1.638 11.502 1.996 1.302.357 5.262.975 8.797 1.367 3.535.39 9.014 1.16 12.178 1.706 3.163.546 11.65 1.277 18.86 1.622 7.21.348 13.267.786 13.458.977.893.893 40.946.201 56.994-.986 16.373-1.21 35.71-3.402 41.611-4.715 1.489-.333 5.904-1.076 9.81-1.654 3.908-.579 9.236-1.393 11.84-1.809 5.668-.904 22.987-5.057 25.372-6.084.93-.4 6.714-2.208 12.855-4.017 20.115-5.927 43.457-14.309 55.102-19.788 15.868-7.467 46.87-23.298 49.773-25.418 3.21-2.342 17.98-11.601 24.465-15.336 3.276-1.886 20.01-14.235 34.133-25.19 8.83-6.85 39.977-34.832 42.877-38.519.763-.97 3.882-4.38 6.932-7.58 3.05-3.2 6.756-7.34 8.234-9.2 1.478-1.861 5.163-6.125 8.191-9.473 3.029-3.35 6.232-7.155 7.12-8.457.887-1.303 3.931-5.26 6.765-8.795 6.36-7.935 16.547-22.096 19.27-26.782 3.056-5.262 11.678-19.069 14.558-23.314 3.312-4.883 22.317-41.5 22.317-43 0-.21 1.1-2.563 2.443-5.23 1.343-2.668 3.793-8.457 5.445-12.864 1.653-4.407 3.281-8.516 3.618-9.133.336-.616 1.06-2.645 1.609-4.505.548-1.86 2.517-7.523 4.375-12.583 1.857-5.06 4.635-13.735 6.172-19.28 1.536-5.546 3.39-11.453 4.117-13.128 1.493-3.439 3.73-12.685 4.422-18.265.253-2.047.875-4.546 1.383-5.551.507-1.005.923-2.88.923-4.168 0-1.288.63-6.4 1.397-11.363.768-4.964 1.69-11.463 2.049-14.44.359-2.977.938-7.238 1.289-9.47 1.507-9.595 2.861-35.626 2.902-55.817.067-33.335-1.615-55.067-6.63-85.586-.551-3.349-1.005-7.21-1.005-8.582 0-1.371-.34-3.35-.755-4.398-.416-1.048-1.186-4.34-1.711-7.317-.826-4.681-3.328-13.563-6.727-23.873-.526-1.594-.957-3.31-.957-3.812 0-1.21-5.212-18.166-6.775-22.043-.675-1.675-2.044-5.327-3.043-8.117-3.63-10.134-5.372-14.697-8.647-22.665-3.427-8.338-13.562-29.944-16.027-34.168-.76-1.302-3.093-5.717-5.184-9.81-2.09-4.093-5.835-10.638-8.32-14.545-8.116-12.76-11.173-17.636-13.29-21.193-3.15-5.297-17.466-24.632-28.64-38.684-12.396-15.589-42.37-46.691-53.982-56.01-2.533-2.033-6.729-5.578-9.32-7.879-3.779-3.354-20.954-16.527-33.276-25.517-5.577-4.07-15.583-10.57-23.244-15.102-4.652-2.75-9.536-5.835-10.854-6.853-1.318-1.019-11.212-6.254-21.988-11.635-27.468-13.715-30.161-14.98-38.498-18.096-4.07-1.52-7.977-3.075-8.68-3.45-.702-.377-2.698-1.081-4.437-1.567-1.739-.487-7.121-2.305-11.96-4.04-4.837-1.734-13.666-4.514-19.62-6.18-5.954-1.664-11.891-3.474-13.193-4.019-2.241-.938-9.613-2.723-19.782-4.789-2.507-.51-8.901-1.556-14.209-2.326-5.307-.77-10.717-1.675-12.02-2.012-4.097-1.058-29.598-3.925-42.128-4.736-8.028-.52-20.703-.742-33.723-.685zm-40.867 23.087c1.9.072 3.17.31 3.592.733 1.779 1.778.867 2.32-7.844 4.654-2.768.742-9.227 3.164-14.352 5.383-5.124 2.22-9.965 4.037-10.76 4.037-.88 0-1.742.652-2.206 1.67-.46 1.01-1.728 1.976-3.2 2.441-2.32.734-7.177 3.564-14.623 8.518-1.864 1.24-3.635 2.254-3.937 2.254-.898 0-6.445 3.985-13.522 9.717-17.747 14.375-34.854 32.282-43.832 45.877-6.664 10.092-10.61 16.466-14.171 22.888a696.342 696.342 0 0 1-3.03 5.412c-3.969 6.957-17.918 46.556-17.918 50.866 0 .648-.57 3.7-1.27 6.785-5.086 22.466-7.546 56.987-5.185 72.762.543 3.625 1.285 10.246 1.65 14.71.366 4.466 1.11 10.098 1.651 12.516.459 2.05.885 4.546 1.16 6.39-15.88 16.913-29.409 36.005-40.219 56.536-1.578-.413-3.71-1.28-6.984-2.65-25.335-10.608-36.902-12.78-63.945-12.008-14.241.404-16.766.26-16.766-.951 0-1.015 6.95-15.757 8.816-18.702.992-1.564 2.36-4.303 3.041-6.088.682-1.785 2.327-5.02 3.657-7.193 1.329-2.171 3.104-5.167 3.945-6.658 1.268-2.248 9.375-14.836 12.777-19.838.507-.744 2.03-3.027 3.387-5.074 9.68-14.608 36.95-45.421 40.428-45.678 1.692-.124 2.057-1.712 3.088-13.523.39-4.466.995-9.793 1.345-11.84.351-2.047.974-7.237 1.385-11.535.41-4.299 1.65-11.3 2.756-15.56l3.68-14.175c2.107-8.114 5.864-19.257 7.71-22.877.78-1.527 1.417-3.705 1.417-4.836 0-2.814-2.057-2.743-5.682.196-1.527 1.237-4.757 3.58-7.176 5.209-10.25 6.898-27.998 21.035-40.326 32.119-13.568 12.2-33.6 33.35-43.996 46.453-13.092 16.5-15.513 19.937-31.51 44.717-6.167 9.554-21.278 38.71-24.595 47.459-1.285 3.386-2.924 7.375-3.643 8.863-3.171 6.563-9.415 24.49-14.256 40.932-1.917 6.512-4.06 13.361-4.76 15.222-.7 1.86-1.464 5.057-1.7 7.104-.237 2.047-1.033 5.566-1.768 7.822-1.598 4.902-1.47 9.312.283 9.645.736.138 1.605-.5 2.289-1.686 1.4-2.43 4.968-5.101 14.943-11.184 16.257-9.912 33.371-17.706 54.002-24.6 17.978-6.006 30.98-7.726 58.426-7.732 17.04 0 21.18.204 28.951 1.442 4.805.766 7.146 1.262 8.428 1.805a263.259 263.259 0 0 0-16.697 41.84c-3.816.169-10.798.35-20.637.462-19.331.22-24.776.485-28.047 1.367-2.233.603-6.344 1.584-9.135 2.18-4.852 1.037-9.377 2.577-21.308 7.25-9.539 3.737-36.196 17.724-38.235 20.063-.186.214-4.295 3.57-9.133 7.459-4.837 3.889-9.71 7.921-10.826 8.96-1.116 1.04-2.545 2.056-3.177 2.26-.633.205-1.338.966-1.569 1.692-.23.726-2.304 3.234-4.607 5.572-7.356 7.464-19.05 23.875-25.596 35.922-6.556 12.064-16.332 38.977-18.83 51.836-.325 1.675-.936 6.393-1.357 10.486-.422 4.093-1.041 9.118-1.375 11.164-.335 2.047-.776 4.81-.98 6.14-.206 1.332-.779 2.972-1.272 3.647-.84 1.148-.926 1.152-1.344.063-.246-.64-.45-2.324-.45-3.74 0-1.418-.58-5.427-1.29-8.91-.712-3.483-1.504-8.16-1.762-10.393-.259-2.233-.862-5.429-1.338-7.104-.786-2.764-1.492-7.147-3.752-23.34-2.63-18.845-2.41-84.19.334-99.455.535-2.976 1.34-9.22 1.79-13.87.447-4.652 1.224-9.058 1.726-9.792.501-.734.905-2.711.9-4.396-.011-3.057 1.798-11.992 4.113-20.317.673-2.419 1.428-5.766 1.676-7.441.748-5.05 6.157-25.633 8.445-32.137a785.65 785.65 0 0 0 3.381-9.81c.682-2.047 2.354-6.614 3.715-10.149 1.361-3.535 2.884-7.646 3.385-9.134.5-1.489 2.025-5.294 3.387-8.457 1.361-3.164 3.324-7.755 4.36-10.206 1.038-2.45 2.514-5.648 3.28-7.105.766-1.456 3.891-7.671 6.944-13.81 3.052-6.14 6.077-11.925 6.724-12.856.647-.93 2.272-3.875 3.612-6.545 1.34-2.67 2.775-5.064 3.187-5.318.412-.257 1.336-1.831 2.053-3.502.716-1.672 1.919-3.846 2.674-4.832.754-.986 5.525-8.032 10.601-15.66 9.7-14.578 11.104-16.557 17.11-24.108 2.046-2.573 4.33-5.49 5.074-6.482 4.021-5.362 16.02-18.946 24.07-27.252 5.05-5.212 10.227-10.586 11.502-11.942 2.363-2.511 21.073-19.493 29.043-26.36 12.32-10.613 48.392-35.964 57.85-40.653 1.116-.554 3.553-1.922 5.414-3.041 8.938-5.378 12.232-7.187 21.65-11.887 16.631-8.3 31.88-15.167 40.934-18.438 32.41-11.708 41.007-14.27 64.617-19.248 3.721-.784 9.504-2.03 12.853-2.77 3.35-.739 8.07-1.623 10.489-1.966 2.418-.343 5.92-.934 7.78-1.312 11.32-2.305 22.712-3.587 28.413-3.372v-.002zm172.428 16.842c2.033-.171 8.005 1.975 27.513 9.266 22.295 8.332 29.679 11.562 51.084 22.353 8.88 4.477 14.066 7.375 20.35 11.375 1.89 1.203 4.934 2.984 6.766 3.956 6.837 3.628 31.548 20.358 39.488 26.734 3.513 2.82 7.339 5.738 8.502 6.482 1.163.744 4.074 3.082 6.469 5.196 2.394 2.113 6.049 5.31 8.12 7.103 22.539 19.512 43.48 41.375 60.057 62.7 7.632 9.817 13.25 17.478 16.016 21.84 1.488 2.346 5.63 8.613 9.207 13.927 3.576 5.314 6.719 10.35 6.982 11.19.265.839 1.215 2.396 2.112 3.462.897 1.067 2.244 3.363 2.99 5.104.746 1.74 2.224 4.444 3.285 6.008 4.916 7.244 22.455 43.893 25.483 53.246.662 2.046 1.424 4.026 1.695 4.398.27.371 1.121 2.504 1.89 4.736.77 2.233 2.663 7.56 4.206 11.838 4.466 12.39 8.947 28.605 12.81 46.346.81 3.721 2.204 9.962 3.098 13.87.894 3.906 1.767 8.321 1.94 9.81.172 1.488 1.116 8.338 2.097 15.222 2.585 18.135 2.87 21.215 3.346 36.198.235 7.442.59 16.118.785 19.28.406 6.598-.799 40.964-1.776 50.661-1.203 11.94-5.197 37.745-6.95 44.916a372.273 372.273 0 0 0-2.17 9.629c-5.747 27.308-12.942 49.961-25.038 78.82-6.45 15.392-10.588 23.966-13.627 28.246-1.651 2.326-3.14 4.229-3.306 4.229-.835 0-.098-4.913 1.658-11.063 2.355-8.248 3.235-12.358 3.746-17.486.212-2.12.966-6.286 1.676-9.258.965-4.041 1.312-8.168 1.379-16.383.049-6.039.24-11.227.427-11.529.769-1.244-1.087-27.562-2.355-33.398a406.976 406.976 0 0 1-2.414-12.178c-3.105-17.359-11.737-41.154-20.758-57.219a4905.35 4905.35 0 0 1-7.549-13.482c-1.136-2.047-3.153-5.06-4.482-6.696-1.33-1.635-3.025-3.966-3.77-5.177-1.642-2.673-6.526-9.095-8.623-11.342-.84-.9-3.201-3.672-5.248-6.162-4.944-6.014-21.629-22.269-26.727-26.037-2.232-1.65-6.495-5.03-9.472-7.51-2.977-2.48-6.17-4.912-7.096-5.406-.926-.494-3.55-2.35-5.832-4.121-2.282-1.772-6.245-4.283-8.805-5.584-2.56-1.301-5.702-3.152-6.984-4.112s-2.652-1.75-3.045-1.757c-.393 0-2.926-1.342-5.629-2.967-2.703-1.626-8.488-4.547-12.855-6.489-4.368-1.941-9.767-4.378-12-5.416-2.233-1.037-5.942-2.41-8.242-3.05-1.404-.39-2.455-.694-3.354-1.108-6.795-22.456-16.668-43.97-29.215-63.793.985-1.336 3.249-2.906 7.936-5.797 7.958-4.908 25.22-22.432 31.136-31.611 4.816-7.47 11.634-19.716 12.6-22.625 1.192-3.589 3.504-5.663 5.576-5.006.705.224 2.013 1.744 2.908 3.381.896 1.636 3.403 5.666 5.573 8.953 10.813 16.385 14.682 22.97 20.988 35.746 7.825 15.855 12.204 25.77 12.957 29.334.264 1.25 1.16 3.278 1.994 4.506.834 1.23 1.92 4.165 2.412 6.524.493 2.359 1.406 5.507 2.03 6.996.623 1.488 2.275 6.814 3.668 11.838 3.313 11.95 3.272 11.866 6.578 14.035 1.564 1.026 4.484 3.462 6.488 5.416 2.004 1.953 4.028 3.552 4.498 3.552.47 0 3.117 1.724 5.879 3.83 14.412 10.988 36.574 32.38 44.22 42.684 4.398 5.925 6.37 7.389 7.497 5.565 1.131-1.83-3.386-45.123-5.752-55.123-.705-2.977-1.967-8.915-2.803-13.194-.836-4.28-1.888-8.235-2.338-8.793-.45-.558-1.182-2.804-1.629-4.99-.447-2.186-1.35-5.534-2.004-7.441-.654-1.907-1.41-4.966-1.683-6.795-.272-1.83-.888-3.962-1.368-4.737-.48-.775-2.473-6.28-4.431-12.234-4.098-12.462-4.427-13.33-10.365-27.4-6.192-14.672-21.039-42.758-29.403-55.622-21.421-32.945-43.722-59.467-70.441-83.775-7.897-7.184-8.445-7.557-9.334-6.342-.52.71-.799 1.9-.621 2.645 3.18 13.34 1.673 47.898-3.065 70.363-4.371 20.729-7.931 31.28-16.093 47.697-7.671 15.429-10.676 20.688-16.06 28.102-6.522 8.978-9.666 12.843-11.749 13.889-6.334-9.376-13.256-18.354-20.791-26.803a255.374 255.374 0 0 0-7.695-8.276c.038-1.502.72-2.858 2.017-4.351 1.062-1.222 2.328-2.984 2.815-3.914.487-.93 1.723-2.757 2.746-4.059 2.276-2.899 8.835-15.865 11.191-22.125.952-2.529 1.966-4.903 2.254-5.275.749-.967 5.198-16.74 6.404-22.705 3.304-16.329 3.394-17.335 3.42-37.848.023-17.894-.13-20.73-1.46-27.402-.817-4.093-1.693-8.81-1.948-10.485-.255-1.674-1.198-5.482-2.096-8.459a460.208 460.208 0 0 1-3.002-10.47c-.753-2.783-1.629-5.37-1.945-5.75-.316-.38-1.371-2.825-2.347-5.43-3.688-9.84-13.783-27.959-21.297-38.225-11.997-16.39-30.341-33.792-45.485-43.148-6.904-4.266-8.158-5.502-7.511-7.424.157-.466.398-.782 1.076-.84zm-105.008 29.217h.004c1.618.048 3.39.094 5.48.213 2.091.124 4.502.3 7.403.525 2.048.162 4.07.353 6.068.57 1.997.22 3.97.467 5.916.743 1.946.276 3.867.58 5.764.916a157.759 157.759 0 0 1 11.086 2.363 143.548 143.548 0 0 1 10.511 3.076 132.836 132.836 0 0 1 9.963 3.793 124.577 124.577 0 0 1 9.436 4.526 120.87 120.87 0 0 1 13.213 8.17 125.274 125.274 0 0 1 8.217 6.38c2.67 2.261 6.17 5.207 7.779 6.547.804.67 2.156 2.073 3.683 3.79a121.449 121.449 0 0 1 4.744 5.683 158.434 158.434 0 0 1 12.234 18.115 150.056 150.056 0 0 1 3.417 6.244 140.436 140.436 0 0 1 3.043 6.26 127.52 127.52 0 0 1 2.639 6.227c.81 2.063 1.55 4.113 2.212 6.138a96.9 96.9 0 0 1 1.756 5.998 124.682 124.682 0 0 1 2.12 9.89 129.11 129.11 0 0 1 1.33 10.028 130.976 130.976 0 0 1 .55 10.077c.03 1.678.019 3.353-.02 5.025a129.415 129.415 0 0 1-.613 9.97 125.406 125.406 0 0 1-1.382 9.782c-.294 1.609-.62 3.206-.977 4.789a114.576 114.576 0 0 1-2.521 9.32c-.484 1.52-1 3.025-1.545 4.508a101.73 101.73 0 0 1-1.73 4.389 127.324 127.324 0 0 1-3.013 6.584 118.313 118.313 0 0 1-3.14 5.976c-1.018 1.801-1.982 3.368-2.815 4.56a18.375 18.375 0 0 1-1.138 1.493c-.342.395-.642.677-.889.834-.09.058-.355.098-.518.15-24.332-16.339-51.398-28.6-79.833-35.78-22.306-5.777-45.393-8.518-68.432-8.241-2.55.042-5.098.134-7.645.254.012-.132-.01-.254.055-.402.264-.608 1.07-3.386 1.79-6.174.403-1.565.928-3.227 1.532-4.893a67.803 67.803 0 0 1 2.004-4.916 53.12 53.12 0 0 1 2.217-4.367c.746-1.301 1.485-2.415 2.172-3.248a18.334 18.334 0 0 0 1.459-2.031c.375-.614.607-1.116.607-1.358 0-.124.091-.318.258-.572.167-.252.41-.568.715-.922.608-.71 1.462-1.593 2.441-2.535a71.44 71.44 0 0 1 3.198-2.889 51.054 51.054 0 0 1 3.244-2.56 61.486 61.486 0 0 1 4.74-3.086 50.518 50.518 0 0 1 4.781-2.473 44.688 44.688 0 0 1 9.98-3.154 48.31 48.31 0 0 1 5.35-.713 58.72 58.72 0 0 1 5.694-.156c1.963.047 3.994.171 6.109.39a100.9 100.9 0 0 1 6.604.914c2.176.371 4.747.712 7.134.957 2.387.248 4.59.399 6.035.399 1.167 0 2.113-.048 2.942-.076a13.95 13.95 0 0 0 2.238-.329 13.638 13.638 0 0 0 2.166-.726c.779-.324 1.65-.743 2.717-1.277a28.571 28.571 0 0 0 3.922-2.364 27.645 27.645 0 0 0 3.37-2.857 25.996 25.996 0 0 0 2.782-3.283 24.984 24.984 0 0 0 3.678-7.568 24.631 24.631 0 0 0 .975-6.288c.018-.717.01-1.438-.04-2.164a25.163 25.163 0 0 0-.224-2.187 26.649 26.649 0 0 0-.418-2.202c-.36-1.543-.688-2.8-1.055-3.894-.366-1.094-.771-2.027-1.289-2.924-.517-.897-1.147-1.757-1.96-2.707-.814-.95-1.811-1.99-3.065-3.244a48.802 48.802 0 0 0-2.076-1.969c-.676-.6-1.34-1.148-2.01-1.65a23.371 23.371 0 0 0-4.232-2.535 27.45 27.45 0 0 0-2.42-.979c-.859-.3-1.773-.583-2.76-.85-1.975-.532-4.245-1.008-6.94-1.492-1.886-.337-3.51-.604-5.086-.814a69.907 69.907 0 0 0-4.795-.477c-1.69-.11-3.544-.175-5.773-.209-2.23-.047-4.834-.047-8.025-.047-4.053 0-6.942 0-9.307.061-1.183.048-2.233.077-3.234.158-1.002.081-1.955.189-2.936.346-.981.157-1.992.353-3.113.61-1.122.256-2.353.567-3.776.949-2.845.762-6.452 1.8-11.465 3.218-.91.257-1.961.63-3.12 1.094a71.077 71.077 0 0 0-3.766 1.654c-1.339.632-2.75 1.337-4.196 2.094a146.37 146.37 0 0 0-4.41 2.414 146.745 146.745 0 0 0-8.619 5.297 98.192 98.192 0 0 0-3.783 2.64 56.863 56.863 0 0 0-3.145 2.475c-1.475 1.258-3.27 2.942-5.185 4.84a206.558 206.558 0 0 0-5.91 6.123 184.775 184.775 0 0 0-5.45 6.125c-1.608 1.9-2.94 3.586-3.802 4.848-.713 1.044-1.697 2.736-2.8 4.773a204.751 204.751 0 0 0-3.517 6.846 218.285 218.285 0 0 0-3.347 7.103c-.988 2.21-1.798 4.158-2.282 5.545a110.538 110.538 0 0 0-2.082 6.684 134.041 134.041 0 0 0-1.765 7.11 129.985 129.985 0 0 0-1.365 7.122 99.937 99.937 0 0 0-.868 6.715c-.237 2.575-.506 4.741-.824 6.543-.159.9-.33 1.71-.515 2.434a17.107 17.107 0 0 1-.47 1.498c-26.17 6.94-51.274 17.915-74.1 32.449-.025-.162-.053-.271-.075-.455-.127-1.073-.224-2.508-.285-4.211-.062-1.703-.09-3.676-.09-5.826 0-2.151.03-4.48.086-6.895a358.65 358.65 0 0 1 .654-14.808c.159-2.399.34-4.7.543-6.817.203-2.116.426-4.045.668-5.697a189.395 189.395 0 0 1 3.92-19.488 173.766 173.766 0 0 1 3.672-12.404 164.076 164.076 0 0 1 2.127-5.948c.74-1.95 1.515-3.868 2.316-5.746.802-1.877 1.631-3.714 2.49-5.51l4.532-9.472a104.032 104.032 0 0 1 5.152-9.49c.945-1.544 1.934-3.071 2.973-4.588a115.61 115.61 0 0 1 3.265-4.528c2.116-2.79 4.426-6.065 5.135-7.275a9.844 9.844 0 0 1 1.223-1.653c.426-.461.835-.79 1.127-.882.292-.096.682-.384 1.076-.784s.793-.902 1.1-1.414c.28-.466.734-1.08 1.33-1.802a58.99 58.99 0 0 1 2.177-2.467c1.69-1.825 3.812-3.968 6.1-6.17a215.488 215.488 0 0 1 7.096-6.533c2.353-2.068 4.607-3.94 6.494-5.36a164.433 164.433 0 0 1 6.38-4.543 241.713 241.713 0 0 1 14.436-9.066 138.728 138.728 0 0 1 6.496-3.547 349.851 349.851 0 0 1 6.649-3.29c1.763-.845 2.932-1.368 3.08-1.368.296 0 3.243-1.058 6.549-2.35a93.912 93.912 0 0 1 4.23-1.521c1.546-.52 3.21-1.043 4.942-1.565a239.947 239.947 0 0 1 10.79-2.964c3.596-.899 7.053-1.673 9.963-2.223a72.69 72.69 0 0 1 3.907-.645c1.13-.152 2.073-.228 2.777-.228 1.017 0 2.856-.084 4.998-.227a221.92 221.92 0 0 0 6.82-.558 91.525 91.525 0 0 1 4.663-.358c1.482-.071 2.95-.1 4.568-.076zm-26.182 175.586a233.406 233.406 0 0 1 233.407 233.406 233.406 233.406 0 0 1-233.407 233.407 233.406 233.406 0 0 1-233.406-233.407 233.406 233.406 0 0 1 233.406-233.406zM386.244 626.887c1.958.022 3.047.1 3.78.273a245.498 245.498 0 0 0-.829 20.383c-.286 48.135 13.427 96.196 38.639 137.162-1.187.723-3.676 1.334-9.055 2.611-10.462 2.484-21.918 1.304-33.152-3.42-12.295-5.169-23.428-18.018-27.045-31.21-.788-2.873-1.875-6.07-2.414-7.104-.54-1.034-.982-2.58-.984-3.436-.004-1.984-8.662-10.374-12.692-12.3-4.81-2.3-11.824-3.002-17.69-1.772-11.666 2.448-19.592 12.44-19.91 25.1-.125 4.995 1.82 15.293 3.325 17.59.487.744 1.661 3.41 2.607 5.923 2.766 7.349 8.137 17.512 10.992 20.801 1.454 1.675 4.146 4.981 5.983 7.348 4.336 5.587 13.195 13.393 22.185 19.547 3.942 2.698 7.362 4.904 7.602 4.904.24 0 2.916 1.174 5.95 2.61 10.337 4.894 18.407 7.377 27.657 8.511 19.252 2.361 37.074.661 53.803-5.13 3.07-1.064 5.904-1.93 6.297-1.93.393 0 2.735-1.22 5.203-2.707 1.984-1.197 3.678-1.971 5.186-2.37 18.98 19.731 41.14 36.37 65.314 49.22-.5 1.041-1.56 1.942-3.254 2.802a421.874 421.874 0 0 0-7.531 3.963 3177.602 3177.602 0 0 1-7.078 3.81c-1.474.79-3.102 1.436-3.617 1.436-.515 0-1.745.564-2.733 1.256-7.194 5.033-35.764 14.285-44.166 14.3-.976 0-3.11.492-4.738 1.088-1.628.597-7.68 1.651-13.447 2.344-17.897 2.152-33.33 1.266-54.13-3.105-14.594-3.068-30.151-9.095-43.64-16.91-3.35-1.94-7.458-4.31-9.133-5.264-1.674-.955-5.076-3.357-7.558-5.336a495.324 495.324 0 0 0-8.092-6.303c-7.674-5.802-20.148-18.909-26.4-27.738-10.655-15.045-14.259-21.32-19.172-33.363-5.859-14.36-9.522-26.303-11.557-37.678-1.121-6.265-1.344-32.288-.326-38.225 2.337-13.64 7.223-28.61 13.389-41.027 7.857-15.826 27.384-37.524 40.708-45.234 2.573-1.489 6.15-3.763 7.952-5.055 4.198-3.01 17.212-8.828 25.736-11.506 9.52-2.99 20.592-4.634 32.365-4.807 2.419-.047 4.256-.057 5.67-.052zm521.244 8.965c1.224.178 10.218 5.605 13.33 8.062 1.303 1.028 3.74 2.568 5.414 3.422 7.87 4.01 21.136 14.974 34.149 28.225 8.793 8.953 11.915 12.613 16.258 19.056.744 1.104 2.826 4.077 4.623 6.604 3.963 5.572 9.924 15.653 9.924 16.783 0 .452.648 1.644 1.439 2.65.792 1.007 2.334 4.167 3.428 7.026 9.265 24.202 12.018 37.354 12.42 59.322.137 7.442-.03 15.357-.364 17.59-.336 2.233-.916 7.56-1.293 11.84-.833 9.468-1.977 14.604-5.8 26.048-7.434 22.25-13.752 34.162-27.633 52.096-3.3 4.265-17.096 18.403-22.84 23.41-7.367 6.422-22.182 15.64-30.207 18.8-12.952 5.096-23.775 8.121-32.67 9.13-12.434 1.41-19.63 1.718-26.049 1.117-34.466-3.228-61.08-15.767-84.127-39.635-7.302-7.562-14.72-18.45-16.48-24.183a9.146 9.146 0 0 1-.248-1.063c1.789-.866 3.571-1.748 5.34-2.658 46.997-23.889 86.47-62.427 111.15-109.039 2.233.062 2.93.495 5.256 3.127 5.379 6.082 9.446 13 12.297 20.912 1.762 4.892 1.93 6.162 1.937 14.494.004 8.125-.202 9.79-1.875 15.07-2.779 8.772-7.782 17.063-14.388 23.84-6.578 6.749-8.483 11.156-8.49 19.65-.012 10.044 2.34 15.172 9.542 20.807 4.14 3.24 5.326 3.792 10.453 4.868 5.453 1.144 6.104 1.15 11.356.1 3.483-.7 6.599-1.806 8.312-2.956 6.23-4.178 19-18.588 23.21-26.19 5.596-10.107 9.856-20.51 12.482-30.491 2.09-7.942 2.136-8.46 2.183-23.682.039-12.932-.165-16.47-1.215-20.947-2.952-12.601-9.676-28.097-16.798-38.713-6.49-9.674-20.134-23.262-29.809-29.686-1.649-1.095-2.757-1.88-3.486-2.765 7.399-26.634 10.588-54.435 9.27-82.041zM586.336 900.234a248.451 248.451 0 0 0 21.418 4.287c33.908 5.422 68.884 3.921 102.242-4.189.61.76 2.57 4.596 4.469 8.772 1.942 4.27 4.768 9.597 6.28 11.84 6.413 9.513 24.392 30.218 28.894 33.273 1.302.883 4.346 3.294 6.765 5.357 10.308 8.793 15.45 12.244 28.418 19.067 12.637 6.648 16.555 8.39 25.373 11.295 2.605.858 5.822 2.035 7.149 2.615 5.054 2.208 29.647 6.617 40.96 7.344 21.388 1.372 46.215-1.72 66.237-8.252 14.77-4.82 17.61-6.11 36.197-16.45 6.305-3.506 9.139-3.165 6.385.766-1.315 1.876-19.258 17.937-26.44 23.664a1631.381 1631.381 0 0 0-9.038 7.264 302.08 302.08 0 0 1-21.313 15.836c-18.835 12.766-22.601 15.186-26.557 17.078-2.325 1.113-4.228 2.319-4.228 2.68 0 .361-1.903 1.512-4.229 2.558-2.325 1.046-5.414 2.71-6.865 3.697-5.873 3.997-49.901 24.79-52.492 24.79-.358 0-4.237 1.395-8.621 3.101a8900.516 8900.516 0 0 1-13.723 5.326c-5.894 2.28-15.261 5.032-27.633 8.115-6.418 1.6-11.3 2.591-21.964 4.461-2.161.38-5.339 1.168-7.061 1.752-1.722.585-5.656 1.293-8.742 1.574-3.086.281-5.999.824-6.473 1.207-.474.386-2.535.9-4.582 1.149-2.047.247-7.983 1.032-13.193 1.742s-13.432 1.599-18.27 1.975c-20.374 1.585-64.313 1.294-80.176-.532-3.163-.361-10.166-1.174-15.562-1.8-5.396-.627-11.638-1.688-13.871-2.36-2.233-.671-5.733-1.397-7.78-1.613-2.046-.219-6.157-.978-9.134-1.69-2.977-.712-8.61-1.952-12.518-2.757-25.37-5.23-30.696-6.837-63.94-19.317-14.244-5.347-46.939-20.637-53.113-24.837-1.302-.887-4.347-2.69-6.765-4.006-11.026-6.004-12.785-7.061-21.313-12.78-2.977-1.996-8.61-5.74-12.517-8.324-6.108-4.037-11.461-7.974-25.004-18.38-6.573-5.052-28.962-25.258-39.346-35.51-7.141-7.052-24.662-26.636-30.16-33.713-2.51-3.232-4.91-6.18-5.332-6.551-1.066-.94-7.809-9.924-13.621-18.149-4.434-6.273-5.85-9.254-4.399-9.254 1.23 0 7.058 4.215 10.471 7.573 3.143 3.09 6.693 6.053 12.914 10.775 12.438 9.442 36.901 22.67 52.865 28.588 4.466 1.655 14.36 4.532 21.989 6.39 12.19 2.971 17.098 3.925 32.14 6.262 5.906.918 32.094.68 42.758-.388 21.196-2.126 43.99-7.393 62.115-14.354 8.71-3.345 25.067-10.783 29.432-13.385 2.047-1.22 6.006-3.355 8.797-4.746 2.79-1.39 7.206-3.971 9.81-5.736a1391.06 1391.06 0 0 1 9.473-6.35c7.405-4.91 9.299-6.27 11.84-8.494 4.498-3.935 8.013-6.642 10.584-8.256z" style="fill:#c4ab60;fill-opacity:1;stroke-width:.676585" transform="matrix(.26458 0 0 .26458 -406.132 -16.146)"/><path d="m-237.348 104.645-45.347 24.049v52.086l45.518 23.356-.258-68.624-23.489 12.855v13.64l11.694-6.752v29.622l-21.592-12.34v-36.442l33.474-17.789zm6.044.09v13.662l33.474 17.789v17.987l-9.898-5.715-23.753-12.855.006 68.624 12.053-6.185v-42.696l11.693 6.751 9.899 5.357 11.693 6.751.18.294v-45.715z" style="fill:#fdfffb;fill-opacity:1;stroke:none;stroke-width:.097823px;stroke-linecap:butt;stroke-linejoin:miter;stroke-opacity:1"/><path d="M-241.714 262.146c-.59-.08-2.242-.224-3.67-.32-5.12-.341-13.074-1.65-15.485-2.546a20.099 20.099 0 0 0-2.058-.601c-.64-.147-2.614-.75-4.386-1.34-1.773-.59-3.746-1.242-4.386-1.451a28.906 28.906 0 0 1-2.148-.81 90.892 90.892 0 0 0-3.133-1.24c-1.182-.446-2.27-.892-2.417-.99-.148-.099-1.195-.642-2.327-1.206-1.598-.795-2.059-1.105-2.059-1.383 0-.4.583-.554 4.037-1.06 2.336-.341 10.894-2.835 12.997-3.787.31-.14.626-.255.701-.255.076 0 1.393-.58 2.927-1.29 1.957-.907 2.986-1.287 3.45-1.277.68.015 4.092.768 5.516 1.218 4.259 1.345 15.237 2.408 22.198 2.15 3.513-.13 6.59-.436 7.295-.724.76-.31.742-.672-.09-1.812-1.519-2.082-3.075-4.706-3.589-6.052-1.72-4.504-2.366-6.912-2.804-10.441-.312-2.508-.246-3.12.328-3.039.29.042.468.312.743 1.129.199.59.652 1.638 1.007 2.327.355.689.831 1.696 1.058 2.237.498 1.187 2.793 5.077 3.802 6.445 1.19 1.613 1.658 2.218 3.112 4.027 1.118 1.39 5.872 6.005 7.487 7.265 1.056.825 4.6 3.379 6.176 4.45.552.376 5.798 3.037 7.206 3.655.566.25 1.029.536 1.029.637 0 .311-.842.633-4.654 1.78-2.019.607-3.912 1.19-4.207 1.296-2.877 1.031-8.776 1.986-17.544 2.84-2.995.293-4.906.362-9.399.34-3.101-.013-6.122-.091-6.713-.172z" style="fill:#c4ab60;fill-opacity:1;stroke-width:.179013"/><path d="M-379.538 159.575a144.974 144.974 0 0 0 79.217 128.87l2.265-4.53a139.9 139.9 0 0 1-76.407-124.34zm284.874 0A139.9 139.9 0 0 1-163.8 280.188l2.296 4.591A144.974 144.974 0 0 0-89.59 159.575z" style="fill:#fdfffb;fill-opacity:1;stroke:none;stroke-width:57.5951;stroke-opacity:0"/><path d="M-239.097 28.277a21.904 21.904 0 0 0-1.863.058c-19.166 1.062-38.025 6.627-54.84 15.854-12.616 6.919-24.108 15.914-33.74 26.612-9.242 10.364-16.665 22.32-22.025 35.122-6.911 16.5-10.425 34.431-10.104 52.324a122.342 122.342 0 0 0 2.874 24.314c4.824 21.78 15.536 42.182 30.534 58.675 7.28 8.007 15.581 15.094 24.683 20.953 21.547 13.886 47.355 20.96 72.963 20.261a123.743 123.743 0 0 0 23.193-2.827c23.913-5.239 46.162-17.63 63.373-35.016 5.742-5.8 10.92-12.16 15.405-18.979 14.166-21.438 21.636-47.22 21.15-72.909a123.484 123.484 0 0 0-1.267-15.442c-3.77-26.034-15.855-50.791-34.054-69.784a122.595 122.595 0 0 0-10.207-9.502c-19.082-15.927-42.886-26.194-67.615-28.864-2.505-.276-5.02-.452-7.535-.587a190.817 190.817 0 0 0-10.925-.263zm.479 6.138c4.098 0 8.193.105 12.277.388a116.004 116.004 0 0 1 14.35 1.812c3.982.757 7.959 1.73 11.837 2.892 2.845.851 5.655 1.807 8.426 2.864a122.925 122.925 0 0 1 29.111 15.9 123.9 123.9 0 0 1 10.293 8.492 117.207 117.207 0 0 1 11.821 12.644 121.798 121.798 0 0 1 15.852 25.652 122.694 122.694 0 0 1 5.485 14.23 119.958 119.958 0 0 1 5.072 25.182c.235 2.564.386 5.16.45 7.74.1 4.075-.012 8.151-.326 12.2-.26 3.34-.658 6.647-1.19 9.952a123.288 123.288 0 0 1-7.677 27.188 121.844 121.844 0 0 1-7.352 14.913 118.966 118.966 0 0 1-1.999 3.313 118.947 118.947 0 0 1-6.382 9.228 118.277 118.277 0 0 1-12.051 13.467 122.046 122.046 0 0 1-9.29 8.054 123.368 123.368 0 0 1-17.95 11.679c-9.64 5.142-19.99 9.01-30.668 11.374a115.574 115.574 0 0 1-12.093 2.027c-3.33.38-6.687.616-10.037.711a120.27 120.27 0 0 1-10.34-.148 123.436 123.436 0 0 1-16.581-2.08 123.42 123.42 0 0 1-27.84-8.946 119.196 119.196 0 0 1-16.31-9.085 116.615 116.615 0 0 1-9.108-6.725 119.603 119.603 0 0 1-8.467-7.614 123.022 123.022 0 0 1-15.777-19.147 123.968 123.968 0 0 1-10.309-18.773 122.879 122.879 0 0 1-2.958-7.342 119.896 119.896 0 0 1-3.656-11.861 116.734 116.734 0 0 1-3.376-22.33 120.136 120.136 0 0 1 .031-13.255 122.693 122.693 0 0 1 1.59-13.83 124.38 124.38 0 0 1 6.669-23.988 122.395 122.395 0 0 1 9.428-19.11c1.77-2.912 3.672-5.761 5.69-8.515a116.022 116.022 0 0 1 4.89-6.214 106.37 106.37 0 0 1 4.498-5.012 119.563 119.563 0 0 1 4.604-4.566c8.69-8.16 18.6-15.036 29.26-20.381a127.673 127.673 0 0 1 5.448-2.571 124.5 124.5 0 0 1 16.049-5.831 122.18 122.18 0 0 1 9.83-2.39 119.62 119.62 0 0 1 15.55-2.055c.83-.052 1.653-.105 2.488-.132h.738z" style="fill:#c4ab60;fill-opacity:1;stroke:none;stroke-width:24.534;stroke-opacity:0"/><path d="M-97.048 136.535c-.7-.41-1.147-1.05-1.512-2.173-.243-.75-2.057-13.184-1.934-13.263.288-.187 13.432-1.788 13.554-1.65.343.386 1.774 12.21 1.61 13.305-.23 1.533-.894 2.27-2.307 2.563-1.555.321-2.621.126-3.308-.605l-.562-.598-.262.786c-.397 1.192-1.316 1.736-3.142 1.857-1.034.07-1.77-.012-2.137-.222zm2.65-2.817c1.537-.308 1.6-.718.893-5.802-.347-2.49-.63-4.541-.63-4.56 0-.049-3.579.428-3.655.486-.035.028.213 2.1.552 4.608.53 3.92.69 4.62 1.144 4.992.596.49.612.493 1.696.276zm6.05-1.358c.335-.153.669-.506.742-.785.11-.424-.485-5.57-.953-8.238l-.133-.756-1.684.227-1.684.229.562 3.995c.309 2.198.566 4.135.572 4.305.016.484.948 1.3 1.484 1.3.266 0 .758-.124 1.093-.277zm-288.469 3.854c-6.413-1.186-7.115-2.432-5.696-10.111 1.07-5.796 1.973-7.337 4.291-7.33 1.714.013 1.83.145 1.5 1.788-.203 1.01-.373 1.353-.621 1.258-.685-.263-1.485.165-1.888 1.012-.516 1.082-1.424 5.736-1.424 7.3 0 .935.127 1.301.609 1.754.754.709 2.65 1.236 5.086 1.415 1.734.127 1.895.095 2.413-.463 1.018-1.098 2.402-8.01 1.847-9.227-.277-.609-1.977-1.3-2.3-.935-.087.1-.29.905-.45 1.79-.807 4.464-.707 4.208-1.587 4.044-.434-.08-.886-.234-1.004-.342-.12-.108.15-2.135.608-4.572l.823-4.377.945.151c4.89.782 5.839 1.717 5.546 5.468-.231 2.955-1.301 7.742-2.074 9.275-.374.743-.982 1.57-1.351 1.836-.88.637-2.758.732-5.273.266zm5.077-26.775c-3.337-1.165-6.107-2.154-6.156-2.198-.103-.095.715-2.375.952-2.654.161-.19 12.315 3.9 12.722 4.28.355.333-.563 2.723-1.038 2.706-.227-.013-3.143-.969-6.48-2.134zm268.805 1.118c-1.094-.96-2.012-2.74-3.172-6.15-1.802-5.295-1.632-7.4.693-8.603.403-.208 2.778-1.088 5.276-1.954l4.542-1.576.342.818c.904 2.164 1.173 1.905-3.754 3.617-2.428.843-4.655 1.69-4.95 1.883-.847.553-.905 1.524-.233 3.841 1.234 4.254 2.122 5.688 3.522 5.688.445 0 2.733-.668 5.084-1.484 2.352-.817 4.349-1.402 4.439-1.3.13.146.973 2.466.973 2.678 0 .03-2.21.79-4.911 1.69-5.72 1.905-6.55 1.995-7.851.852zM-364.081 98.26c-1.42-.785-4.06-2.238-5.864-3.228-1.805-.99-3.28-1.932-3.278-2.094 0-.162.452-1.102 1-2.09.984-1.775 1.006-1.795 2.039-1.819 5.355-.123 10.816-.378 10.95-.512.09-.09-1.182-2.439-2.828-5.218-1.645-2.78-2.992-5.174-2.992-5.321 0-.288 1.627-3.265 1.984-3.632.175-.18 11.259 5.637 11.952 6.273.251.23-1.013 2.492-1.39 2.487-.158 0-2.294-1.105-4.745-2.45-2.452-1.346-4.498-2.41-4.546-2.364-.049.045 1.256 2.353 2.899 5.127 1.643 2.774 3.056 5.22 3.14 5.438.083.218-.073.835-.347 1.372l-.498.975-3.025.163c-1.664.09-4.039.17-5.277.181-1.239.013-2.752.093-3.363.186l-1.11.167 4.454 2.435c2.45 1.34 4.556 2.534 4.68 2.654.245.235-.465 2.045-.963 2.459-.198.164-1.107-.213-2.872-1.189zm249.94-11.497c-3.599-6.391-4.556-8.148-4.473-8.21.68-.51 11.928-6.566 12.05-6.488.44.28 1.375 2.385 1.153 2.596-.132.126-2.302 1.37-4.821 2.765-2.52 1.395-4.624 2.572-4.675 2.615-.082.067 1.485 2.997 3.978 7.439l.715 1.274-.843.521c-.464.287-.963.521-1.11.521-.146 0-1.034-1.365-1.974-3.033zm-236.983-18.406c-2.758-2.381-5.015-4.431-5.015-4.556 0-.424 7.675-9.15 8.601-9.78 1.236-.84 2.397-.817 3.794.076 1.371.875 3.139 2.778 3.345 3.603.345 1.372-.949 3.398-5.255 8.228l-1.571 1.763 1.607 1.333c.884.733 1.609 1.396 1.61 1.474 0 .22-1.748 2.213-1.935 2.2-.092-.012-2.423-1.959-5.181-4.34zm4.166-4.481c2.63-3.071 3.696-4.524 3.696-5.039 0-.55-2.13-2.472-2.74-2.472-.242 0-.787.29-1.21.646-.99.833-5.212 5.68-5.212 5.984 0 .236 3.206 3.028 3.477 3.028.083 0 .977-.967 1.989-2.147zm222.182 5.59c-1.163-.575-2.934-2.392-5.354-5.491-3.729-4.776-3.793-6.329-.386-9.417 3.211-2.91 5.402-3.861 7.265-3.153.955.363 2.704 2.079 4.887 4.792 2.981 3.707 3.916 5.455 3.543 6.63-.211.666-1.812 2.453-2.197 2.453-.16 0-.645-.462-1.078-1.026l-.789-1.026.62-.736c.423-.503.57-.903.466-1.264-.496-1.717-5.237-7.095-6.252-7.093-.824 0-1.931.626-3.798 2.143-1.769 1.437-2.33 2.372-2.088 3.476.188.856 2.26 3.671 4.113 5.588 1.484 1.535 2.145 1.745 3.188 1.015.556-.39.605-.38 1.057.186 1.323 1.659 1.34 1.717.682 2.246-.686.551-2.041 1.196-2.514 1.196-.175 0-.789-.234-1.365-.519zm-19.507-19.563c-2.18-1.909-4.34-3.845-4.803-4.303l-.842-.832 3.937-4.507c2.165-2.478 4.174-4.797 4.464-5.152l.528-.645 1.144.938c.63.515 1.14 1.013 1.135 1.106-.009.093-1.662 2.052-3.681 4.353l-3.673 4.184 3.682 3.21c2.024 1.764 3.678 3.28 3.674 3.368-.01.163-1.417 1.778-1.537 1.761-.036-.013-1.849-1.57-4.028-3.48zm-187.092 2.552c-1.092-.596-3.953-3.942-4.944-5.783-.418-.776-.752-1.772-.752-2.242 0-1.704 2-3.918 6.745-7.473 3.584-2.685 5.079-3.106 6.893-1.94 1.363.874 4.26 4.38 5.1 6.17 1.134 2.417.38 3.774-4.173 7.5-4.917 4.026-6.874 4.857-8.869 3.768zm4.69-3.558c2.221-1.567 4.99-3.992 5.348-4.683.2-.386.363-.909.363-1.161 0-1.15-3.43-5.322-4.621-5.62-1.077-.271-4 1.602-6.956 4.456-1.122 1.083-1.3 1.384-1.3 2.2 0 1.096 1.486 3.375 3.227 4.948.914.826 1.155.926 1.928.8.486-.078 1.391-.501 2.012-.94zm164.696-11.87a741.77 741.77 0 0 0-5.404-3.418c-.241-.14.623-1.689 3.31-5.928 1.999-3.156 3.75-5.738 3.891-5.738.486 0 2.416 1.362 2.313 1.633-.057.149-1.394 2.305-2.973 4.791s-2.87 4.546-2.87 4.576c0 .03 1.838 1.218 4.084 2.638 2.247 1.42 4.085 2.68 4.086 2.8 0 .315-.998 1.888-1.195 1.88-.09 0-2.45-1.459-5.242-3.234zm-147.184.455c-1.251-2.02-6.13-11.388-5.999-11.518.09-.089 2.802-1.585 6.029-3.325l5.868-3.164.56.924c.307.509.56 1.005.56 1.104.001.098-.36.363-.803.586-.443.224-2.554 1.355-4.691 2.512l-3.886 2.105.769 1.395c.423.767.84 1.479.927 1.581.087.104 2.132-.872 4.543-2.166 2.411-1.295 4.437-2.354 4.501-2.354.065 0 .342.44.616.978l.5.979-2.166 1.163c-2.466 1.324-6.586 3.596-6.697 3.692-.042.035.489 1.118 1.177 2.406l1.251 2.341-1.21.66c-1.463.795-1.42.793-1.85.101zm132.657-8.177-1.277-.536-.209-1.59-.208-1.592-4.309-1.813-4.31-1.813-1.219.97-1.219.97-1.281-.501c-.705-.276-1.367-.585-1.471-.686-.202-.196 11.749-9.686 12.197-9.686.212 0 3.22 1.18 3.39 1.33.025.02.387 3.157.803 6.969.417 3.812.808 7.293.869 7.735.13.956-.01.975-1.756.243zm-2.112-9.924c-.165-1.996-.365-3.63-.443-3.63-.307 0-5.715 4.527-5.575 4.667.185.185 6.165 2.713 6.254 2.643.035-.027-.07-1.684-.236-3.68zm-110.566 6.54c-.953-.582-2.011-2.69-2.913-5.802-.984-3.395-.788-4.65.93-5.96 1.853-1.414 8.428-3.62 11.32-3.798 1.77-.11 1.91-.078 2.705.591 1.616 1.36 3.754 7.333 3.366 9.403-.378 2.013-2.567 3.322-8.632 5.16-3.442 1.042-5.527 1.167-6.776.405zm7.1-3.044c2.833-.898 4.597-1.755 4.943-2.404.405-.756.306-1.785-.374-3.866-1.193-3.654-1.816-4.144-4.438-3.485-2.654.667-6.357 2.08-6.978 2.663-.743.699-.76 1.818-.06 4.089 1.344 4.358 1.887 4.594 6.907 3.003zm73.086-3.774c-3.318-.74-6.09-1.402-6.16-1.471-.069-.07.501-3.008 1.267-6.53.767-3.523 1.393-6.48 1.393-6.573 0-.318.924-.166 6.585 1.088 5.827 1.29 7.221 1.807 8.103 3 .448.605.467.797.206 2.093-.303 1.508-1.248 2.813-2.038 2.813-.318 0-.214.21.418.842.623.624.841 1.057.84 1.672 0 1.312-.466 2.648-1.21 3.48-1.093 1.224-2.294 1.171-9.404-.414zm7.149-1.494c.17-.204.364-.862.431-1.461.107-.946.046-1.139-.464-1.465-.766-.491-8.88-2.259-9.122-1.988-.22.248-.864 3.277-.724 3.406.193.177 8.042 1.833 8.796 1.856.426.013.913-.144 1.083-.348zm.982-6.05c.417-.781.315-2.197-.177-2.457-.393-.207-8.18-2.018-8.677-2.018-.207 0-.94 3.181-.763 3.31.317.233 7.237 1.6 8.193 1.62.916.018 1.223-.08 1.424-.456zm-61.602 6.938c-.861-.406-1.175-.75-1.655-1.81-.737-1.627-1.206-4.783-1.08-7.267.09-1.807.135-1.926.997-2.716 1.07-.981 2.516-1.447 6.237-2.01 4.05-.612 7.229-.593 8.326.051 1.278.749 1.926 2.138 2.377 5.096.457 3.003.34 5.216-.326 6.135-1.097 1.512-5.21 2.593-10.966 2.88-2.525.126-2.968.086-3.91-.359zm7.377-2.38c4.585-.65 4.955-.927 4.95-3.702-.01-2.226-.54-4.5-1.219-5.174-.467-.465-.788-.524-2.688-.491-2.617.045-6.339.673-7.155 1.208-1.046.685-1.198 1.38-.869 3.982.348 2.754.8 3.98 1.584 4.295.832.334 2.461.298 5.397-.118zm23.155.695-.991-.092.159-3.394c.087-1.867.17-4.425.186-5.685l.027-2.29h-1.574c-.865 0-2.258-.072-3.095-.16l-1.522-.159V3.968c0-.586.083-1.11.186-1.164.102-.054 3.138.043 6.748.217 3.61.174 7.091.323 7.739.332 1.17.016 1.176.02 1.176.863 0 1.681.028 1.669-3.342 1.482l-3.033-.169-.15 2.078a261.214 261.214 0 0 0-.31 5.73c-.179 4.1.084 3.686-2.204 3.475z" style="fill:#fdfffb;fill-opacity:1;stroke-width:.24764"/><path d="M-247.828 306.596c-1.88-.313-2.924-.874-3.578-1.925-.52-.837-.563-1.188-.552-4.518.014-4.054.303-5.457 1.338-6.493 1.097-1.096 2.365-1.304 6.991-1.145 2.26.076 4.532.265 5.049.417 1.398.412 2.55 1.544 2.922 2.877.363 1.295.198 6.564-.254 8.134-.372 1.293-1.36 2.375-2.442 2.675-1.1.306-7.593.29-9.474-.022zm8.317-2.777c.8-.69 1.085-1.971 1.1-4.959.014-2.777-.378-3.332-2.604-3.692-2.035-.328-5.939-.306-6.694.038-.985.45-1.273 1.523-1.273 4.754 0 2.663.047 2.965.54 3.46.708.707 1.826.903 5.36.938 2.693.026 2.96-.014 3.57-.54zm19.534 2.4c0-.117-.28-2.568-.62-5.443-.339-2.876-.618-5.378-.62-5.56 0-.183-1.034.629-2.294 1.805l-2.29 2.137-.822-.796c-.452-.438-.822-.916-.822-1.062 0-.446 4.964-4.73 5.68-4.902.368-.088 1.257-.223 1.976-.299 1.01-.107 1.307-.062 1.307.203 0 .188.338 3.338.75 7 .412 3.66.72 6.684.684 6.718-.203.192-2.928.379-2.93.2zm-50.227-3.553c-4.003-.92-7.354-1.75-7.447-1.843-.232-.232.352-2.776.97-4.23.898-2.116 2.462-2.403 7.78-1.43 3.696.676 4.743.666 5.205-.052.198-.308.434-.964.525-1.459.141-.776.074-.969-.488-1.412-.717-.564-5.48-1.797-6.94-1.797-1.028 0-1.912.69-1.912 1.494 0 .578-.06.586-1.74.226-1.127-.241-1.25-.331-1.12-.81.853-3.098 1.453-3.543 4.468-3.315 2.365.178 7.314 1.373 8.771 2.116 1.664.849 2.149 1.65 1.986 3.277-.204 2.035-.627 3.239-1.414 4.026-.637.637-.869.704-2.418.704-.943 0-2.934-.224-4.425-.498-3.667-.673-4.962-.66-5.463.056-.66.941-.502 1.623.421 1.82 3.53.756 11.463 2.595 11.546 2.678.243.243-.33 2.045-.664 2.083-.199.023-3.638-.712-7.64-1.634zm64.634.613c-.323-.335-.774-1.147-1.002-1.805l-.415-1.196.789-.273c1.89-.653 2.092-.645 2.276.087.395 1.576.969 1.635 5.13.534 2.986-.79 4.363-1.418 4.629-2.11.082-.216.018-.83-.143-1.366-.404-1.35-.996-1.44-4.053-.618-1.377.37-2.644.726-2.816.792-.188.073-.381-.16-.481-.579-.092-.385-.22-.88-.286-1.1-.095-.322.366-.536 2.315-1.074 3.06-.846 3.554-1.154 3.554-2.21 0-1.176-.608-1.918-1.57-1.916-1.024 0-4.395.811-6.207 1.489-1.51.565-1.83 1.015-1.568 2.206.147.668.095.714-1.224 1.08l-1.377.384-.25-.9c-.82-2.953.17-3.992 5.252-5.502 3.768-1.12 6.532-1.56 7.744-1.234.845.227 1.062.44 1.581 1.556.79 1.698.804 3.235.034 4.005l-.573.573 1.045.279c.887.237 1.127.45 1.594 1.413.313.647.564 1.674.586 2.392.034 1.147-.042 1.33-.857 2.078-1.042.956-2.65 1.6-6.929 2.775-3.897 1.07-5.91 1.142-6.778.24z" style="fill:#fdfffb;fill-opacity:1;stroke-width:.248984"/><path d="M-89.59 159.575c-.124 54.42-30.716 104.187-79.216 128.87l-2.265-4.53c46.782-23.826 76.286-71.84 76.407-124.34z" style="fill:#fdfffb;fill-opacity:1;stroke:none;stroke-width:57.5951;stroke-opacity:0"/></g></svg>