<svg xmlns="http://www.w3.org/2000/svg" width="265.5394mm" height="241.17403mm" viewBox="0 0 265.5394 241.17403"><defs><clipPath id="a" clipPathUnits="userSpaceOnUse"><path d="M0 858.897h612.288V0H0Z"/></clipPath></defs><g clip-path="url(#a)" transform="matrix(.91502 0 0 -.91502 -147.432 501.534)"><path d="M547.834 90.398c-87.043 0-171.559 24.804-244.408 71.727-70.778 45.584-127.308 109.718-163.555 185.486-37.706-21.621-76.18-46.327-115.67-74.25L0 256.25l24.879 138.219 5.139 2.78a1238.72 1238.72 0 0 0 78.404 38.823l-.578 2.469c-7.954 33.833-11.987 68.77-11.987 103.834 0 249.231 202.756 451.988 451.977 451.988 249.235 0 452-202.757 452-451.988 0-93.192-28.365-179.876-76.896-251.902-5.886-5.34-12.218-9.795-13.186-18.567-82.513-110.12-214.033-181.508-361.918-181.508Z" style="fill:#fff;fill-opacity:1;fill-rule:nonzero;stroke:none;stroke-width:3.45833" transform="matrix(.28916 0 0 -.28916 161.125 573.162)"/><path d="m0 0-9.91-9.979-2.517-.792L5.428-40.962l8.824 2.399 9.161-.946.281 1.052-9.629 2.547-5.855-.64L-4.5-14.378 21.221-.045C13.907-1.169.684-.065 0 0" style="fill:#231f20;fill-opacity:1;fill-rule:nonzero;stroke:none" transform="translate(318.68 378.95)"/><path d="m0 0-2.523-.787 17.86-29.328 8.826 2.399 9.17-.948.271 1.052-9.63 2.549-5.854-.64L5.411-3.529l26.265 14.82c-6.095.702-11.351 1.849-16.78 3.547z" style="fill:#231f20;fill-opacity:1;fill-rule:nonzero;stroke:none" transform="translate(284.31 368.103)"/><path d="M0 0c-.104 0-.22-.006-.348-.016-1.815-.17-4.261-.28-7.059-.28-13.241 0-34.43 2.515-34.583 13.573-.111 7.754 16.965 16.795 23.421 19.347 1.396.55 1.444.974.472.974-.303 0-.703-.04-1.191-.13-25.547-4.73-45.54-5.656-57.275-5.656-7.544 0-11.671.382-11.671.382s9.06-19.219 37.375-27.63a88.577 88.577 0 0 1 9.542-2.252c3.296-.59 6.8-1.038 10.526-1.305 2.809-.205 5.503-.303 8.097-.303 8.485 0 15.9 1.003 22.769 2.42C.813-.725 1.179 0 0 0" style="fill:#231f20;fill-opacity:1;fill-rule:nonzero;stroke:none" transform="translate(352.643 385.033)"/><path d="m17.193 283.266 18.588 103.298C244.436 499.23 410.713 510.57 410.713 510.57l1.947 2.575c-47.78 3.703-171.08-18.427-245.773-54.64l16.94 54.466C378.276 572.89 546.51 528.838 586.661 524c47.652-5.748 142.436-21.487 162.54 30.906 17.415 45.418-53.489 82.713-74.944 92.98-3.279 1.578-1.08 3.036 1.086 2.483 136.147-34.12 208.9-163.955 208.9-163.955 8.49-9.296 53.169-21.597 62.81-24.16 1.173-.318 2.464-.352 2.464-.352.017-.415-2.077-.973-2.83-1.37-23.265-12.461-65.19-13.618-65.19-13.618-41.324-32.695-94.014-13.744-107.062-9.684-225.992 70.077-451.409 62.288-757.243-153.964Zm792.483 165.238h42.185l-4.683 2.894s-4.326 14.236-11.52 9.885c-5.236-3.157-10.16-8.875-20.48-11.047-2.646-.574-4.636-1.203-5.356-1.324-1.933-.311-.146-.408-.146-.408z" style="fill:#231f20;fill-opacity:1;fill-rule:nonzero;stroke:none;stroke-width:3.45833" transform="matrix(.28916 0 0 -.28916 161.125 573.162)"/><path d="m0 0 1.621.115-.982 2.261Z" style="fill:#231f20;fill-opacity:1;fill-rule:nonzero;stroke:none" transform="translate(311.025 521.95)"/><path d="M0 0c-.07.29-.189.557-.358.794a2.366 2.366 0 0 1-.653.616c-.23.149-.547.237-.936.26-.427.022-.949-.031-1.551-.162l-.01-.003 1.041-4.319c.036.004.071.007.107.009.155.018.301.034.437.055a1.09 1.09 0 0 0 .191.024.938.938 0 0 0 .2.026c.302.1.565.213.797.332.219.118.42.261.594.428.156.149.251.344.291.594.048.284.022.638-.08 1.052z" style="fill:#231f20;fill-opacity:1;fill-rule:nonzero;stroke:none" transform="translate(297.142 516.642)"/><path d="m0 0 .023.021a.795.795 0 0 1 .281.432c.045.187.041.402-.016.636l-.04.161-.037.08-.025.096c-.163.386-.347.683-.545.887-.17.171-.336.26-.509.273l-.012.001a3.213 3.213 0 0 1-.651-.012 11.334 11.334 0 0 1-.434-.059l.774-3.209c.208.076.406.167.599.267.221.117.42.26.592.426" style="fill:#231f20;fill-opacity:1;fill-rule:nonzero;stroke:none" transform="translate(294.267 521.153)"/><path d="M292.008 260.97a12.885 12.885 0 0 0-3.065.382c-1.687.432-3.315 1.252-4.847 2.445-.996 1.193-1.758 2.596-2.27 4.18-.536 1.653-.798 3.506-.777 5.488-.021 1.981.45 3.956 1.373 5.896.958 2.013 2.417 4.064 4.34 6.108l.767.816c1.94 2.047 3.992 3.614 6.098 4.645a17.452 17.452 0 0 0 6.727 1.74c2.126.114 4.121-.084 5.875-.596a13.12 13.12 0 0 0 4.558-2.338c1.22-1.352 2.088-2.838 2.586-4.408.498-1.615.637-3.421.412-5.348a21.204 21.204 0 0 0-1.723-6.238c-.874-1.912-2.091-3.704-3.644-5.344l-.852-.898a1.696 1.696 0 0 1-.378-.31l-.14-.147a1.792 1.792 0 0 1-.39-.318l-.066-.063a24.787 24.787 0 0 0-5.533-3.533 24.796 24.796 0 0 0-6.495-1.961 15.616 15.616 0 0 0-2.556-.197z" style="fill:#231f20;fill-opacity:1;fill-rule:nonzero;stroke:none;stroke-width:3.45833" transform="matrix(.28916 0 0 -.28916 161.125 573.162)"/><path d="m0 0-.189.303A.394.394 0 0 0-.28.408l-.033.051A.477.477 0 0 0-.404.57l-.017.025a7.18 7.18 0 0 1-1.376 1.307 7.238 7.238 0 0 1-1.735.917c-.553.199-1.092.287-1.605.256a3.828 3.828 0 0 1-1.51-.423 3.543 3.543 0 0 1-.876-1.064A4.978 4.978 0 0 1-8.05.074a3.879 3.879 0 0 1 .066-1.748c.16-.624.461-1.288.896-1.973l.173-.272c.437-.692.933-1.25 1.474-1.659a5.013 5.013 0 0 1 1.812-.865c.456-.116.9-.174 1.314-.174.127 0 .258.008.384.018.507.045.984.184 1.424.413.421.316.75.689.975 1.108.233.432.374.934.416 1.495a6.128 6.128 0 0 1-.146 1.864A5.643 5.643 0 0 1 0 0" style="fill:#231f20;fill-opacity:1;fill-rule:nonzero;stroke:none" transform="translate(266.608 507.252)"/><path d="M0 0a3.263 3.263 0 0 1-.222.613 9.835 9.835 0 0 1-.191.391l-2.795-1.76c.138-.171.288-.331.442-.479a2.62 2.62 0 0 1 .598-.427l.023-.015a.83.83 0 0 1 .499-.128c.193.018.396.09.599.22l.14.088.063.062.085.053c.313.278.535.549.665.802.109.215.141.4.096.567z" style="fill:#231f20;fill-opacity:1;fill-rule:nonzero;stroke:none" transform="translate(412.944 475.504)"/><path d="m0 0-.005.01-3.761-2.365c.015-.033.031-.066.042-.099.067-.14.13-.272.195-.398.028-.052.056-.107.076-.162 0-.003.004-.005.005-.009.039-.059.067-.122.091-.181a5.3 5.3 0 0 1 .568-.649c.18-.173.38-.316.596-.428.192-.1.405-.128.653-.088.285.048.613.188.973.413l.256.163A2.254 2.254 0 0 1 .701-2.386c.068.268.049.594-.052.971C.533-1.001.315-.525 0 0" style="fill:#231f20;fill-opacity:1;fill-rule:nonzero;stroke:none" transform="translate(407.728 473.47)"/><path d="m0 0 1.948 2.145-4.049 1.711Z" style="fill:#231f20;fill-opacity:1;fill-rule:nonzero;stroke:none" transform="translate(396.701 343.77)"/><path d="M0 0c-.345.677-.852 1.288-1.505 1.818l-.008.006a5.494 5.494 0 0 1-1.997.559c-.741.066-1.538 0-2.364-.199-.83-.18-1.614-.565-2.341-1.141-.744-.587-1.457-1.389-2.115-2.375l-.261-.386c-.666-1.002-1.122-2.003-1.348-2.973a7.444 7.444 0 0 1-.087-2.975c.159-.901.428-1.703.808-2.389a5.772 5.772 0 0 1 1.438-1.703c.693-.389 1.406-.616 2.128-.67.73-.056 1.498.06 2.287.34.893.321 1.71.76 2.427 1.306a8.514 8.514 0 0 1 1.874 2.024l.306.45a.426.426 0 0 0 .068.157l.065.099a.54.54 0 0 0 .077.158l.027.047c.434.842.75 1.728.945 2.635.191.911.259 1.877.194 2.873C.559-1.466.351-.681 0 0" style="fill:#231f20;fill-opacity:1;fill-rule:nonzero;stroke:none" transform="translate(266.183 332.874)"/><path d="M547.834 102.533c-175.244 0-326.566 102.505-397.275 250.84 44.709 25.049 88.36 45.7 131.326 62.106 47.503-99.15 148.864-167.795 265.949-167.795 117.327 0 218.864 68.91 266.254 168.375 3.316-.239 6.733-.387 10.25-.387 23.482 0 44.198 6.398 61.572 19.014 10.99.619 43.854 3.475 66.147 15.724l.066.041c3.649 2.134 8.775 5.88 10.549 7.719 1.604 1.66 3.038 3.51 2.654 5.824-.429 2.635-2.883 3.899-5.242 5.137-1.653.858-8.175 3.454-9.994 4.053-2.328.802-6.237 2.102-11.168 3.755-5.658 1.892-12.694 4.243-19.725 6.625-17.336 5.88-23.36 9.438-25.197 10.752-1.84 3.103-6.237 10.307-13.115 20.067-8.079 11.488-21.306 28.894-38.971 47.59-10.112 153.408-138.147 275.1-294.08 275.1-162.265 0-294.323-131.821-294.693-294.02-24.8-4.81-49.22-10.905-72.971-18.219l-6.242-1.93-21.1-67.625a1187.121 1187.121 0 0 1-33.176-13.96c-7.625 32.442-11.662 66.286-11.662 101.056 0 242.916 196.945 439.854 439.844 439.854 242.968 0 439.87-196.938 439.87-439.854 0-242.913-196.902-439.842-439.87-439.842zm20.525 48.446 16.024 1.431 6.154.615-2.725 2.483-.013.072-.436.406c-.124.111-.26.207-.402.284-.09.08-.203.15-.324.216-.063.042-.125.081-.184.116l-.014.01c-.065.045-.193.155-.377.404-.207.294-.432.61-.664.941-.159.318-.307.72-.435 1.198-.156.546-.278 1.223-.354 2.025l-3.44 34.15c.412.118.805.215 1.196.301.806.183 1.57.36 2.266.53.453.086.902.17 1.351.236.464.076.907.155 1.319.238.432 0 .84.001 1.238-.004a12.42 12.42 0 0 0 1.186-.08l.103-.01c.54-.031 1.105-.113 1.686-.248.591-.145 1.21-.33 1.804-.541l.069-.02c.304-.096.61-.212.886-.34.329-.159.65-.306.957-.458.36-.201.703-.398 1.032-.602.332-.19.674-.411 1.05-.66l.44-.303 5.51.402-6.15 12.516-31.62-3.185.215-2.124-.686-.748c.035-.027.07-.05.102-.082-.1.049-.205.114-.295.194.121-.11.257-.197.412-.283.066-.042.122-.084.188-.125l.158-.14.139-.062.093-.091c.121-.1.246-.2.395-.286.294-.318.559-.635.773-.957.2-.287.346-.577.436-.857.128-.425.242-.838.346-1.215.083-.332.148-.66.18-.97l3.652-36.237c.048-.57.069-1.097.062-1.557-.014-.539-.047-.84-.082-.996a3.778 3.778 0 0 0-.187-.64.618.618 0 0 0-.149-.248l-.101-.121a1.13 1.13 0 0 0-.176-.204 7.098 7.098 0 0 1-.432-.542 7.569 7.569 0 0 1-.412-.614 7.515 7.515 0 0 1-.387-.683zm-42.361.35 19.309 41.966c.276.588.552 1.085.804 1.473.27.397.538.77.797 1.109.287.315.574.64.875.969.235.263.477.494.719.705.218.131.404.31.57.525.028.028.046.042.053.063l.373.35c.135.096.26.203.38.331l.052.024.197.191c.038.038.07.065.107.086.018.014.028.017.036.023l-.547 2.956-16.852 1.207-.785-2.94c.325-.17.6-.346.8-.533.177-.173.316-.336.386-.484.103-.194.172-.38.203-.557.038-.16.056-.305.039-.453a3.648 3.648 0 0 0-.053-.418.684.684 0 0 0-.05-.135 3.122 3.122 0 0 1-.243-.582c-.017-.059-.039-.124-.053-.19a2.3 2.3 0 0 1-.113-.318c-.048-.09-.114-.191-.166-.295l-.008-.02a3.29 3.29 0 0 1-.14-.269c-.08-.117-.143-.267-.215-.43a2.847 2.847 0 0 1-.149-.386l-4.566-10.446-11.418.82-2.992 11.96c-.028.218-.056.428-.077.629-.027.273-.075.505-.117.709l.024.373c.01.21.035.395.084.54.027.129.066.227.111.303.045.087.102.17.182.256.1.111.197.205.304.274l.098.07.082.078c.118.125.253.264.38.416.122.062.222.14.329.219l.162.072.201.194a.443.443 0 0 0-.086-.07.514.514 0 0 0-.13-.073 1.482 1.482 0 0 0-.528-.1v1.32l.133 1.772-.09-1.094.06.864.012.234-15.836 1.131-.175-2.32-.66-.514c.027-.031.061-.065.085-.1a.626.626 0 0 0-.173.139c.072-.076.156-.151.25-.22.069-.094.16-.185.244-.264.103-.104.223-.197.33-.284a15.805 15.805 0 0 0 1.566-1.76c.422-.573.764-1.151 1.033-1.722.28-.601.522-1.197.705-1.754.15-.47.275-.902.358-1.289l-.014-.201 10.25-37.215a4.76 4.76 0 0 1 .063-.484l.017-.1c.018-.083.035-.167.045-.25v-.203a2.231 2.231 0 0 0-.135-.664c-.007-.035-.013-.049-.013-.049l-.139-.103-.101-.116a2.583 2.583 0 0 0-.45-.44 6.589 6.589 0 0 0-.687-.482l-3.871-2.466 15.058-1.29zm101.74 7.306 15.612 3.863 5.982 1.557-3.08 2.029-.018.076-.506.332a2.2 2.2 0 0 1-.431.217c-.1.062-.222.122-.35.16a1.135 1.135 0 0 1-.215.09l-.006.006a1.859 1.859 0 0 0-.425.344c-.26.26-.526.532-.813.826-.2.29-.4.666-.615 1.123a12.891 12.891 0 0 0-.647 1.937l-8.632 33.235c.39.17.757.328 1.134.476.768.301 1.497.597 2.164.873.419.156.862.303 1.297.442.443.135.856.284 1.264.43.425.065.833.127 1.22.18.391.058.789.096 1.186.107l.1.006a9.713 9.713 0 0 0 1.705.008 17.05 17.05 0 0 0 1.867-.25l.076-.016c.315-.038.627-.105.928-.191.346-.104.689-.207 1.014-.31a39.92 39.92 0 0 0 1.117-.436 19.48 19.48 0 0 0 1.133-.497l.488-.224 5.375 1.238-7.992 11.43-30.766-7.989.54-2.068-.554-.844a.941.941 0 0 1 .114-.072 1.3 1.3 0 0 0-.307.143c.132-.083.272-.15.424-.21.066-.03.142-.067.215-.095l.178-.121.136-.035.121-.073c.121-.086.265-.158.42-.224.346-.266.652-.544.922-.82.232-.26.425-.523.557-.786.187-.397.363-.778.53-1.144.134-.315.242-.63.312-.934l.455-1.728 8.713-33.526c.138-.55.239-1.065.304-1.525.062-.54.071-.84.06-1a4.486 4.486 0 0 0-.072-.652.74.74 0 0 0-.109-.27l-.084-.135c-.041-.08-.079-.16-.144-.24-.1-.159-.212-.355-.34-.59a6.715 6.715 0 0 1-.319-.68c-.1-.234-.203-.48-.283-.732zm-165.677 2.687c1.981.142 3.836.616 5.513 1.4l.031.014c1.712.858 3.14 1.993 4.26 3.383 1.124 1.387 1.927 3.063 2.387 4.969.277 1.152.393 2.32.324 3.478a11.405 11.405 0 0 1-.773 3.504 10.83 10.83 0 0 1-1.63 3.006c.959.246 1.912.553 2.866.93a18.006 18.006 0 0 1 3.531 1.898c1.28.837 2.359 1.98 3.213 3.4.806 1.36 1.456 3.044 1.944 5.022l.008.069c.435 2.192.542 4.204.359 5.982-.211 1.843-.77 3.487-1.639 4.877a19.033 19.033 0 0 1-2.65 3.58 16.748 16.748 0 0 1-3.313 2.697l-.062.034c-.664.366-1.321.72-1.961 1.035a33.92 33.92 0 0 1-1.895.853l-.113.045c-.67.218-1.31.395-1.885.537l-20.57 4.955-1.404-2.66a.885.885 0 0 0 .152-.15c.059-.056.11-.109.152-.16.045-.066.09-.128.127-.194l.028-.135.16-.252a2.34 2.34 0 0 0 .318-.712c.08-.28.113-.53.123-.758a13.31 13.31 0 0 0-.096-1.252 12.197 12.197 0 0 0-.304-1.649l-8.574-35.525a1.752 1.752 0 0 1-.18-.484l-.096-.391a2.017 2.017 0 0 1-.191-.498l-.033-.145c-.07-.166-.142-.31-.207-.445-.073-.149-.16-.319-.233-.506a8.134 8.134 0 0 1-.34-.453c-.124-.173-.24-.343-.365-.502a2.485 2.485 0 0 0-.592-.549 1.767 1.767 0 0 0-.654-.28l-.033-3.026 15.406-3.87 2.688-.644c2.196-.422 4.28-.56 6.203-.428zm-44.1 9.797 1.494 12.87-4.559 1.863-.726-.772c-.059-.059-.2-.175-.535-.307-.311-.128-.695-.21-1.162-.255h-.098c-.505 0-.995.032-1.469.105-.487.073-.989.216-1.494.42l-.059.02-1.886.685 14.07 34.342c.211.512.418.903.633 1.176.152.197.328.34.535.441l.104.059c.297.166.613.316.945.433.356.118.694.231 1.002.324l.457.055.588.121 3.392 1.647-5.693 2.334-12.594 5.158-1.64-2.58c.276-.25.477-.51.605-.797.16-.329.27-.676.328-1.043a4.406 4.406 0 0 0 0-1.129 5.46 5.46 0 0 0-.351-1.244l-.053-.143-14.092-34.406-.848.346c-.785.422-1.514.854-2.181 1.27-.64.407-1.242.844-1.781 1.3a21.79 21.79 0 0 0-1.381 1.518 6.548 6.548 0 0 0-.92 1.425l-.274.563-4.896 1.857-2.276-12.587 4.375-1.795.674.421.014.01c.035-.01.08-.02.129-.044l.2-.08.214-.024a.805.805 0 0 0 .146-.04l.59-.243 22.889-9.54 2.047-.831c.08-.083.165-.175.265-.272a4.58 4.58 0 0 1 .57-.496l.15-.12zm313.656 27.59c.822-.014 1.66.032 2.508.133 3.296.394 6.854 1.673 10.582 3.797l2.49 1.338c.505.342 1.02.681 1.55 1.013.577.363 1.168.77 1.763 1.23.608.405 1.224.841 1.822 1.298.595.456 1.172.902 1.75 1.341.308.246.63.506.934.772.321.277.632.56.916.851.131.135.262.264.39.395.035.035.066.057.094.078l.191.107.159.153c.117.131.25.253.37.385.139.138.27.264.397.392l.844.838-5.686 9.945-4.039-2.306-.207-.37a46.405 46.405 0 0 0-2.226-3.552 14.58 14.58 0 0 0-2.242-2.559 26.484 26.484 0 0 0-1.778-1.508 38.987 38.987 0 0 0-1.646-1.175c-1.685-.8-3.344-1.21-4.91-1.23h-.118c-1.542 0-3.065.362-4.521 1.081-1.785.879-3.374 2-4.736 3.31a21.18 21.18 0 0 0-3.63 4.72l-.456.81-.016.139-.143.265a21.67 21.67 0 0 0-2.164 6.252 24.916 24.916 0 0 0-.256 6.758c.187 1.992.774 3.801 1.739 5.385.885 1.47 2.112 2.757 3.644 3.836h.125l.385.246c.678.44 1.352.812 1.992 1.1.623.283 1.241.49 1.819.628l.107.028c.588.183 1.2.324 1.832.431.64.104 1.308.174 2 .202l.045.004 1.045.08c.283.017.574.016.871.01l.14-.01.133.015c.277.031.56.05.836.05h.108c.418-.011.826-.01 1.248-.005l.373.004 4.598 2.455-8.643 8.22-.674-.04a15.69 15.69 0 0 1-2.564-.373 15.87 15.87 0 0 1-2.385-.748c-.723-.25-1.46-.509-2.18-.772a26.662 26.662 0 0 1-2.05-.875l-.122.045-4.166-2.375c-2.839-1.629-5.351-3.62-7.465-5.933-2.11-2.318-3.885-5.078-5.279-8.207-1.39-3.2-1.944-6.602-1.65-10.12.283-3.458 1.403-7.138 3.299-10.949l.117-.205 1.228-2.164c.121-.204.27-.41.426-.598.094-.145.19-.294.293-.43.11-.145.243-.3.38-.456a32.604 32.604 0 0 1 5.92-6.62 35.617 35.617 0 0 1 7.507-4.896 16.322 16.322 0 0 1 6.982-1.664zm-378.375 7.549c1.659.01 3.33.187 5 .531 3.393.654 6.554 2.027 9.4 4.07 2.809 2.02 5.415 4.776 7.739 8.204l.025.037c.187.28.359.57.518.87.12.236.25.459.389.676l.09.18c.141.287.269.553.404.791.148.277.286.56.418.858.325.619.612 1.253.847 1.896.222.612.446 1.262.647 1.94a29.765 29.765 0 0 1 1.355 7.673c.114 2.639-.118 5.364-.685 8.123a19.038 19.038 0 0 1-3.52 7.87c-1.733 2.286-4.057 4.363-6.928 6.171l-2.261 1.436c-3.621 2.286-7.2 3.807-10.65 4.506-1.491.3-2.976.457-4.428.457-1.996 0-3.977-.288-5.91-.848a29.322 29.322 0 0 1-9.038-4.426c-2.711-1.964-5.19-4.475-7.347-7.453l-.135-.207a26.347 26.347 0 0 1-.965-1.668 31.89 31.89 0 0 1-1.008-1.98 13.08 13.08 0 0 1-.504-1.13c-.128-.348-.267-.717-.416-1.114l-.02-.045c-.096-.336-.21-.683-.327-1.035a9.714 9.714 0 0 1-.348-1.213 27.304 27.304 0 0 1-1.102-7.297c-.055-2.525.243-5.154.875-7.817.588-2.794 1.85-5.426 3.776-7.812 1.874-2.33 4.368-4.495 7.435-6.436l2.262-1.521c3.078-1.892 6.27-3.171 9.486-3.815a24.427 24.427 0 0 1 4.926-.472zm427.674 21.076 12.578 10.023 4.79 3.914-3.645.565-.053.059-.58.085a2.033 2.033 0 0 1-.502.024 2.79 2.79 0 0 1-.377-.002c-.083 0-.149-.001-.229-.012l-.017.004c-.08 0-.242.024-.53.135-.338.124-.701.263-1.081.408-.305.187-.65.44-1.02.768-.425.37-.903.87-1.404 1.49l-21.705 26.592c.266.325.543.626.82.91.577.598 1.12 1.168 1.603 1.697.326.322.654.643.997.943.342.312.66.618.968.918.36.246.708.467 1.034.674.328.218.678.419 1.03.602l.09.04c.464.267.994.512 1.544.72.59.214 1.192.399 1.804.554l.084.018c.301.086.601.159.912.207.367.052.71.1 1.055.139.405.034.8.06 1.193.078.301.01.626.017.975.017h.797l4.375 3.37-12.035 7.048-24.621-20.101 1.12-1.37-.165-1.289a1.92 1.92 0 0 1 .511-.013c.077-.007.156-.008.243-.008l.197-.031.148.027.139-.02c.145-.02.3-.032.477-.025.425-.1.82-.223 1.175-.365a3.15 3.15 0 0 0 .83-.479c.343-.28.657-.555.961-.818a7.04 7.04 0 0 0 .69-.717l23.03-28.213c.366-.446.669-.87.907-1.262.284-.456.423-.729.489-.87.083-.212.141-.416.193-.637a.703.703 0 0 0 .014-.295l-.02-.153c0-.08-.008-.17-.025-.273-.035-.187-.052-.415-.073-.678a13.534 13.534 0 0 1 0-.754c0-.249.022-.511.05-.78zm-483.219 21.557h.239c3.468 0 6.837.736 10.015 2.203 3.144 1.449 6.22 3.658 9.16 6.566l.032.04c.235.238.45.492.671.755.16.2.336.394.512.588l.131.152c.187.26.37.501.539.705.2.256.394.51.574.762.443.547.837 1.116 1.194 1.697.339.554.675 1.152 1.017 1.782a29.903 29.903 0 0 1 2.787 7.28c.626 2.567.92 5.288.871 8.097 0 2.946-.643 5.767-1.933 8.388-1.27 2.584-3.16 5.07-5.623 7.387l-1.95 1.848c-3.112 2.943-6.342 5.115-9.59 6.457-2.697 1.117-5.478 1.68-8.265 1.68-.65 0-1.305-.031-1.955-.087a29.417 29.417 0 0 1-9.725-2.615c-3.04-1.421-5.95-3.41-8.634-5.924l-.178-.168a30.53 30.53 0 0 1-1.268-1.457c-.439-.54-.91-1.126-1.36-1.742a18.144 18.144 0 0 1-.708-1.021c-.197-.315-.405-.647-.623-1.01l-.022-.041c-.17-.308-.351-.63-.53-.951a10.625 10.625 0 0 1-.565-1.121 27.784 27.784 0 0 1-2.487-6.953c-.525-2.466-.746-5.102-.632-7.844.045-2.85.787-5.676 2.209-8.39 1.393-2.646 3.434-5.248 6.08-7.741l1.92-1.922c2.67-2.445 5.55-4.31 8.593-5.558 2.974-1.225 6.18-1.842 9.504-1.842zm524.625 12.369 10.596 11.486 3.84 4.25-3.014.336c-.252.031-.55.087-.892.152a8.46 8.46 0 0 0-1.057.29c-.194.058-.384.117-.592.193a2.51 2.51 0 0 0-.38.174l-.173.08c-.193.08-.34.143-.46.213-.167.096-.332.202-.526.316l-.062.041c-.139.07-.25.148-.354.217-.097.059-.162.121-.238.183l-.155.147-.21.103-.336.297-19.538 17.59c-1.41 1.27-2.495 2.48-3.232 3.604-.695 1.058-1.122 2.042-1.277 2.945a10.52 10.52 0 0 0-.01 2.75c.128.806.357 1.552.685 2.227.132.228.249.46.36.709.045.096.1.184.183.267l.1.117c.94.9 1.919 1.628 2.904 2.147.948.494 1.914.786 2.861.873.291.027.571.037.83.037.844 0 1.66-.139 2.424-.408 1.01-.36 2.01-.982 2.957-1.836l19.705-17.742a19.403 19.403 0 0 0 1.952-2.002c.511-.612.887-1.182 1.132-1.694l.018-.035c.27-.526.455-1.049.541-1.547.104-.56.154-1.131.154-1.691l.026-3.95 11.256 12.22 4.02 4.458-3.302.127c-.736.038-1.424.135-2.05.287a7.103 7.103 0 0 0-1.746.674c-.623.34-1.236.731-1.844 1.174-.623.443-1.235.93-1.823 1.463l-25.18 22.676c-.639.577-1.189 1.13-1.61 1.652-.416.505-.762.986-1.05 1.44a2.67 2.67 0 0 0-.283 1.064c-.013.335.067.702.264 1.1l-2.558 1.705-9.561-10.614.287-.27c-.38-.165-.767-.366-1.144-.591-.886-.415-1.809-1.017-2.756-1.781a28.23 28.23 0 0 1-2.922-2.832l-1.795-1.996c-1.892-2.106-3.296-4.212-4.16-6.256-.913-2.137-1.246-4.289-.983-6.381.235-1.95.699-3.797 1.387-5.475a18.853 18.853 0 0 1 2.725-4.65c.103-.163.218-.314.336-.463.107-.135.238-.264.377-.402.127-.17.276-.336.439-.485l.252-.224a7.31 7.31 0 0 1 .7-.727l21.251-19.135a6.945 6.945 0 0 0 1.024-1.136 7.44 7.44 0 0 0 .681-1.176c.156-.453.293-.915.4-1.371.111-.467.188-.975.247-1.504zm-575.166 29.756 9.885 7.57-3.088 4.043-.848-.076c-.38-.038-.795.024-1.265.183-.536.17-1.114.456-1.723.836-.453.305-.892.634-1.297.99a13.45 13.45 0 0 0-1.144 1.122l-.535.705c-.08.173-.175.35-.282.515-.09.166-.196.331-.31.487-.094.19-.181.366-.268.511a2.918 2.918 0 0 0-.148.313l-.082.183a8.128 8.128 0 0 0-.363.739l7.937 6.084 3.63-4.739c.032-.058.055-.11.079-.171a.835.835 0 0 0 .08-.192l-.08-.441 2.898-4.006 9.006 6.889-3.039 3.966-.765.012c-.225 0-.478.055-.754.18-.325.135-.698.39-1.106.726-.332.277-.656.576-.992.908-.308.294-.613.607-.914.928-.114.208-.225.408-.346.598a8.07 8.07 0 0 1-.488.709.99.99 0 0 0-.068.098l12.004 9.19.093-.01.805.62c.453.25.924.473 1.377.684.425.186.868.336 1.342.433.345.049.701.03 1.064-.043.374-.09.748-.265 1.111-.521l2.131 2.217-9.992 13.04-2.728-1.36c.093-.315.12-.607.085-.866a3.764 3.764 0 0 0-.193-.893c-.145-.325-.3-.65-.48-.943a5.564 5.564 0 0 0-.498-.709 10.52 10.52 0 0 1-.354-.33.674.674 0 0 0-.154-.14l-.26-.198-.08-.144-.598-.461a2.687 2.687 0 0 1-.43-.414l-28.052-21.485a14.77 14.77 0 0 0-1.34-.916c-.432-.252-.844-.47-1.234-.633a4.03 4.03 0 0 0-1.162-.193c-.44 0-.951.097-1.522.27l-4.572 1.396 14.99-19.875 2.06-2.684.042-.006h.008c.041-.107.088-.197.109-.287l-.076-.408zm621.846 26.623 8.584 13.355 1.473 2.352c1.1 1.936 1.91 3.867 2.394 5.738.502 1.923.643 3.839.432 5.672l-.008.033c-.263 1.888-.884 3.615-1.842 5.12-.955 1.504-2.293 2.803-3.94 3.85a12.221 12.221 0 0 1-3.199 1.419 11.428 11.428 0 0 1-3.562.38c-1.2-.024-2.33-.214-3.371-.578.076.98.085 1.99.033 3.014a18.768 18.768 0 0 1-.666 3.96c-.38 1.469-1.117 2.856-2.2 4.118-1.016 1.207-2.418 2.36-4.14 3.442l-.062.03c-1.94 1.111-3.804 1.871-5.557 2.241-.906.2-1.81.305-2.664.305-.85 0-1.68-.095-2.483-.295a18.56 18.56 0 0 1-4.228-1.356 16.685 16.685 0 0 1-3.615-2.271l-.05-.053a36.582 36.582 0 0 1-3.03-3.047l-.08-.107a25.225 25.225 0 0 1-1.108-1.607l-11.267-17.897 2.064-2.182c.062.025.13.063.209.09.07.031.128.065.197.096.073.014.148.039.217.053l.139-.014.293.068c.263.07.52.094.779.076.277-.02.54-.068.754-.13.332-.118.72-.285 1.152-.493.443-.207.936-.472 1.469-.814l.121-.074 30.8-19.397a2.49 2.49 0 0 1 .405-.332l.332-.215c.114-.11.245-.225.414-.34l.135-.078c.128-.117.242-.231.346-.332.117-.114.25-.246.402-.384.1-.156.214-.304.324-.46.132-.183.247-.352.354-.515a2.37 2.37 0 0 0 .336-.73c.076-.236.092-.467.064-.72zm2.037 305.367.947 5.373c.108.591.247 1.131.416 1.601.16.464.353.878.57 1.245l.07.125c.089.17.173.32.267.433.08.1.143.166.213.225l.164.14c.204.229.344.35.423.413.184.145.351.273.528.412l.154.148c.038.031.072.058.104.086.034.017.055.032.08.04l1.193.472.252-.01.281.12c.031.022.055.028.082.028.045.003.07.004.102.004l.275-.004.25.059 50.063 13.422.08.035c.342.142.517.186.594.203.141.038.287.058.43.072l.241.022.041.021.27-.115.547.232h.135l.158-.021.162.035c.799.121 1.605.19 2.39.19h.114c.76 0 1.533-.048 2.3-.163a7.134 7.134 0 0 0 1.895-.595c.54-.263.996-.61 1.414-1.07l2.584 1.624-9.008 22.579-2.937-.989a1.8 1.8 0 0 0 .025-.982 3.24 3.24 0 0 0-.515-1.092 7.65 7.65 0 0 0-.965-1.144 9.26 9.26 0 0 0-1.104-.92c-.26-.156-.518-.309-.763-.43a8.32 8.32 0 0 0-.686-.315l-.398-.156a2.363 2.363 0 0 1-.604-.345l-1.402-.567a2.688 2.688 0 0 1-.262-.111l-.709-.274-32.215-8.88 36.977 32.463-1.961 4.904-.715.695-.295.242c-.622.592-1.44 1.125-2.418 1.56-.958.447-2.092.796-3.375 1.038a39.948 39.948 0 0 1-3.684.566c-1.262.163-2.534.246-3.806.315h-.086l-38.574-.428 30.39 16.797c.927.356 1.775.674 2.522.902.709.222 1.348.36 1.912.412l.146.02a5.617 5.617 0 0 0 1.631.07 9.314 9.314 0 0 0 1.768-.332c.114-.03.204-.056.314-.084l.26-.21.385-.018c.187-.087.39-.156.597-.194a.948.948 0 0 0 .278-.138c.038-.014.086-.073.13-.118l2.676 1.504-7.912 19.815-2.984-.467a3.444 3.444 0 0 0-.232-1.025 5.118 5.118 0 0 0-.625-1.123c-.326-.47-.669-.92-1.004-1.352-.319-.415-.668-.817-1.01-1.229-.149-.134-.287-.262-.422-.363a5.198 5.198 0 0 1-.756-.664c-.138-.097-.295-.218-.46-.346a30.626 30.626 0 0 1-.634-.449l-.03-.01a6.83 6.83 0 0 0-.983-.613 9.028 9.028 0 0 0-.864-.39l-.375-.163-43.308-23.845-.037-.022c-.267-.173-.571-.323-.91-.496a13.93 13.93 0 0 0-.965-.43l-.557-.219a3.728 3.728 0 0 1-.654-.355l-.652-.273a16.39 16.39 0 0 0-1.243-.457 1.988 1.988 0 0 0-.48-.092l-.194.023-.148-.035a4.45 4.45 0 0 0-.475-.018 2.17 2.17 0 0 0-.425.102c-.177.07-.386.159-.621.225-.125.055-.27.11-.444.171l-.295.108c.01 0-.033.014-.154.09a3.039 3.039 0 0 1-.57.254l-.942.351-3.199 1.158 7.215-18.775 1.84-4.584 47.218.365-35.367-30.084zm-654.861 8.674c.79-.029 1.561-.01 2.316.054a15.98 15.98 0 0 1 8.408 3.268c2.435 1.733 4.52 3.78 6.207 6.103 1.68 2.314 3.04 4.937 4.036 7.793l1.484 3.88-.01.294v.033l.521 1.493-.048.207.511 1.449.022.228c.007.125.03.242.086.405l.318.947c.11.533.25 1.093.408 1.646a13.6 13.6 0 0 1 .408 2.01c.19.771.329 1.587.405 2.389.069.723.156 1.45.25 2.148.104.778.168 1.483.181 2.116.01.653-.005 1.255-.078 1.808l-.103.969-13.426 4.7-1.951-5.593.148-.507c.277-.865.533-1.854.79-2.922.238-1.059.438-2.2.583-3.424.146-1.217.215-2.414.201-3.586a26.03 26.03 0 0 0-.308-3.508l-.02-.13a5.485 5.485 0 0 0-.085-.624 6.276 6.276 0 0 1-.122-.728 7.951 7.951 0 0 0-.847-1.297 18.064 18.064 0 0 0-1.43-1.565 8.736 8.736 0 0 0-2.289-1.507c-.871-.38-1.908-.636-3.066-.778-.274-.02-.527-.039-.776-.039-.242-.01-.505-.031-.789-.045-.19.014-.362.046-.517.084-.184.035-.375.09-.579.156-.86.315-1.665.833-2.388 1.545-.771.754-1.453 1.756-2.024 2.994a26.653 26.653 0 0 0-1.507 3.981 24.184 24.184 0 0 0-.766 4.209l-.01.107-2.002 12.116-.07.162a9.12 9.12 0 0 0-.334 1.037c-.114.45-.23.938-.336 1.44-.142.57-.288 1.123-.444 1.656-.17.536-.338 1.114-.539 1.681a29.167 29.167 0 0 1-1.652 3.725 37.812 37.812 0 0 1-2.229 3.668 14.55 14.55 0 0 1-3.156 3.328c-1.203.92-2.583 1.646-4.07 2.168-2.801.982-5.54 1.469-8.158 1.469-.737 0-1.474-.038-2.194-.104-3.302-.363-6.457-1.562-9.351-3.547a29.248 29.248 0 0 1-7.324-7.09c-2.034-2.787-3.757-6.07-5.116-9.742l-1.283-3.691a37.622 37.622 0 0 1-1.04-3.469 46.53 46.53 0 0 1-.72-3.582c-.186-1.19-.37-2.442-.533-3.67a48.188 48.188 0 0 1-.338-3.842l-.017-.176.035-.175c0-.018-.001-.031.01-.031l-.098-.26a2.326 2.326 0 0 1-.113-.973 5.04 5.04 0 0 1 .027-.88c.017-.153.014-.33.008-.503l-.06-.992 14.703-7.965 2.101 6.028-.336.609a26.532 26.532 0 0 0-1.445 3.06 17.63 17.63 0 0 0-.893 2.967c-.093.574-.189 1.107-.279 1.612-.076.45-.128.913-.148 1.418l-.01.084c-.056.47-.106.97-.15 1.496-.035.463-.051.914-.034 1.308v.086c-.014.422-.018.82-.025 1.23-.01.33.01.644.058.938l.026.188-.014.176c-.017.224-.012.488.033.748l.008.064c.059.37.11.71.172 1.076.07.419.15.778.232 1.127.08.294.167.607.274.9a25.184 25.184 0 0 0 1.826 3.272c.623.951 1.36 1.746 2.172 2.406 1.04.851 2.107 1.473 3.186 1.854 1.03.384 2.13.506 3.285.384.221-.02.446-.056.646-.11.242-.05.502-.084.772-.122l.19-.062c.203-.07.417-.127.646-.127l.453-.157a9.792 9.792 0 0 0 1.595-.726c.426-.263.785-.57 1.114-.934l.095-.103c.166-.156.33-.333.479-.537l.5-.653c.138-.352.321-.699.525-1.031.139-.2.275-.464.407-.758.176-.536.373-1.095.587-1.676.204-.556.412-1.179.616-1.84.214-.674.42-1.367.607-2.08.197-.677.379-1.399.541-2.16l2.147-11.607a1.893 1.893 0 0 1-.059-.656l-.027-.084v-.262c0-.294.027-.558.068-.78.017-.138.046-.293.07-.431.063-.35.156-.73.287-1.145.115-.36.226-.694.336-1.001a29.291 29.291 0 0 1 1.463-4.12c.606-1.373 1.398-2.778 2.338-4.175a18.155 18.155 0 0 1 3.447-3.842c1.304-1.09 2.84-2.01 4.545-2.76l.307-.113c2.627-.913 5.147-1.415 7.516-1.5zm52.054 89.863 21.707 28.088.088.285c.06.2.154.39.272.553.187.238.385.449.603.66l.104.084.086.117c.059.073.128.156.197.211.09.087.173.14.27.203l.232.156.045.055c.263.118.494.24.709.381l.217.139 3.586 4.447-13.168 10.03-3.729-4.882.176-.728c.2-.83.267-1.77.201-2.76a8.828 8.828 0 0 0-.695-2.871l-.04-.086a16.519 16.519 0 0 0-1.158-2.49 43.802 43.802 0 0 0-1.539-2.496 9.54 9.54 0 0 1-.754-.83l-.619-.817a43.738 43.738 0 0 1-1.388-1.574c-.146-.17-.303-.345-.452-.521l-12.908 9.822 2.309 3.03.062.14c.312.608.644 1.14.996 1.611.37.477.744.913 1.1 1.28l.131.152c.252.332.51.588.762.758.304.217.605.387.92.525l.341.156 3.666 4.541-11.888 9.053-3.742-4.902.2-.737c.122-.45.162-.94.137-1.48a8.476 8.476 0 0 0-.345-1.854 16.036 16.036 0 0 0-.908-2.13 14.927 14.927 0 0 0-1.264-1.985l-.176-.215-.086-.29-.82-1.095-17.951 13.686c.062.1.11.207.158.328l.369.502-.03.156.014.016c.422.795.854 1.613 1.29 2.412.425.792.872 1.608 1.332 2.441.283.485.569.948.85 1.418l.11.194c.253.432.512.861.778 1.314.17.125.316.276.447.45l.266.341c.39.422.806.816 1.228 1.217.453.415.91.83 1.37 1.207.414.332.874.662 1.372.99.54.367 1.082.722 1.635 1.11a17.965 17.965 0 0 0 3.469 1.623c1.235.439 2.632.77 4.137.978l.609.086 4.256 5.277-17.799 5.407-29.459-38.668 4.012.773c.335.073.699.105 1.072.12.432.024.849.024 1.264 0H216.633a.327.327 0 0 0 .215 0c.207-.032.435-.067.677-.085.225-.055.488-.065.772-.086.1 0 .165.001.207-.013.321-.11.657-.208 1.01-.336.307-.1.615-.242.92-.408.338-.194.685-.402 1.013-.61.329-.228.685-.466 1.041-.746l.17-.121 38.916-29.652a41.44 41.44 0 0 0 2.145-1.791c.719-.685 1.45-1.36 2.148-2.069.557-.622 1.012-1.362 1.375-2.199.374-.864.603-1.866.686-2.976zm529.082 36.973 61.399 24.365c.906.353 1.733.611 2.414.764a24.53 24.53 0 0 0 2.004.38c.612.056 1.244.106 1.904.155.557.034 1.082.035 1.58.021.294-.069.616-.087.938-.035.072.014.139.014.187.014H868.56c.243-.035.492-.049.754-.014l.104-.05.27.017c.117-.018.22-.019.31-.04.093 0 .149-.014.166-.035l1.65 2.516-16.355 18.018-2.611-1.58c.21-.568.333-1.094.361-1.56.024-.437-.007-.82-.107-1.132a4.698 4.698 0 0 0-.403-.937 3.017 3.017 0 0 0-.539-.657 5.354 5.354 0 0 0-.535-.425.911.911 0 0 0-.363-.174 4.732 4.732 0 0 1-.71-.315c-.09-.051-.179-.12-.269-.175-.138-.045-.278-.119-.42-.188-.02-.02-.078-.034-.136-.072l-.057-.014c-.121-.038-.251-.065-.383-.127-.155-.045-.304-.08-.44-.133-.196-.072-.4-.142-.615-.228-.186-.087-.342-.154-.484-.24l-15.635-6.56-11.748 12.937 9.04 15.91c.196.259.386.523.566.761.235.315.412.574.547.795.048.073.088.122.132.174l.4.35c.253.238.491.414.716.553.197.141.391.222.564.277.183.07.394.095.611.123.291.014.51.014.727-.027l.12-.01h.118c.225 0 .471.009.758.05h.156a2.49 2.49 0 0 1 .606-.117l.215-.076h.244c-.031 0-.307.077-.576.371l2.298 2.088-15.388 16.94-1.987-1.8-.507.053v-.03a.637.637 0 0 0-.063.273 4.24 4.24 0 0 1 .041-.489 6.819 6.819 0 0 1 0-.535c.01-.187.032-.385.063-.572a24.599 24.599 0 0 0-.127-3.527 15.348 15.348 0 0 0-.66-2.963 24.761 24.761 0 0 0-1.04-2.598 19.874 19.874 0 0 0-.996-1.861l-.197-.182-26.195-48.701-.008-.121a6.988 6.988 0 0 1-.518-.688l-.052-.072a3.305 3.305 0 0 0-.274-.385c-.073-.1-.17-.206-.277-.293a4.369 4.369 0 0 0-.934-.658.699.699 0 0 0-.422-.104l-.172.018-.166-.018a4.923 4.923 0 0 0-1.058 0c-.415.032-.837.103-1.262.19l-4.492.879 13.064-14.8zm-452.986 49.652c2.036.067 4.103.373 6.182.912 4.088 1.1 8.337 3.086 12.629 5.963l3.299 2.078c4.222 2.912 7.709 6.3 10.382 10.094 2.694 3.821 4.582 8.145 5.623 12.869 1.093 4.738 1.127 9.631.114 14.459-1.007 4.804-3.085 9.764-6.184 14.758l-.037.05c-.249.378-.522.762-.816 1.126-.24.314-.463.619-.688.95l-.125.153c-.318.367-.6.715-.838 1.033-.287.336-.569.685-.877 1.024a19.815 19.815 0 0 1-1.943 2.176 45.856 45.856 0 0 1-2.145 1.957 42.019 42.019 0 0 1-9.185 6.162c-3.341 1.663-7.017 2.944-10.932 3.777a26.297 26.297 0 0 1-6.012.695c-2.026 0-4.08-.242-6.095-.709-3.936-.94-7.959-2.76-11.95-5.425l-3.212-2.149c-5.056-3.368-9.086-7.172-11.977-11.219-2.926-4.125-4.735-8.67-5.385-13.543a41.2 41.2 0 0 1 .537-14.255c.996-4.642 2.833-9.291 5.457-13.815l.17-.26a35.06 35.06 0 0 1 1.604-2.216 60.798 60.798 0 0 1 1.982-2.45c.384-.446.782-.881 1.172-1.279.387-.39.796-.792 1.211-1.193l.031-.034c.384-.328.774-.692 1.172-1.058.432-.394.886-.76 1.36-1.1a38.596 38.596 0 0 1 8.832-5.654c3.237-1.504 6.824-2.63 10.642-3.36a24.926 24.926 0 0 1 6.002-.517zm396.809 4.537-.262 2.912c-.052.588-.201 1.069-.457 1.49-.083.118-.16.255-.229.428l-.093.195-.137.15a.664.664 0 0 0-.133.21.534.534 0 0 0-.068.176l-.049.207-.1.193a5.182 5.182 0 0 0-.498 1.297 5.578 5.578 0 0 0-.21 1.52l-.01.09c-.008.19-.001.763.4 2.073.318 1.08.823 2.359 1.498 3.829l31.22 56.527-4.74 2.611c-.394.232-.872.405-1.394.526-.419.1-.866.19-1.319.26l-.148.015c-.519.038-1.02.053-1.5.07a10.705 10.705 0 0 1-1.605-.086c-.526-.02-1.006-.056-1.456-.088-.48-.038-.985-.085-1.494-.154l-.17-.039c-.508-.118-.993-.241-1.453-.342-.47-.128-.933-.246-1.386-.402-.284-.055-.546-.103-.778-.19-.176-.069-.356-.125-.547-.187l-.224-.092-.184-.138c-.059-.032-.13-.087-.207-.122-.076-.034-.179-.082-.31-.117l-.16-.074-46.567-22.648 16.67 30.181c.712 1.28 1.393 2.344 2.02 3.102.587.726 1.183 1.304 1.767 1.719.581.36 1.259.674 2.033.947.792.28 1.699.47 2.688.592l-.139 1.21.88 1.598-19.189 10.594-2.06-2.18c.052-.09.114-.194.193-.35.1-.186.22-.4.37-.587.048-.1.092-.228.13-.324.052-.156.094-.299.125-.416l.035-.176.082-.176c.211-.432.379-.9.479-1.395.114-.577.186-1.165.252-1.777-.014-.512-.111-1.172-.291-1.97a30.347 30.347 0 0 0-.922-2.944l-.045-.086-23.297-42.15c-.754-1.349-1.51-2.528-2.275-3.465-.726-.903-1.398-1.578-1.979-1.996-.646-.432-1.25-.792-1.81-1.051-.515-.242-.99-.4-1.412-.465h-.131c-.156.049-.31.067-.477.067h-.045a2.417 2.417 0 0 1-.709-.143c-.069-.01-.125-.031-.191-.031-.145-.02-.277-.02-.39-.02l-.188-.013-.508-.073-3.73-1.281 6.548-3.603c.779-.36 1.626-.775 2.522-1.28l10.71-5.924 50.696 24.35-15.812-28.604a18.777 18.777 0 0 0-2.282-3.33 16.087 16.087 0 0 0-2.476-2.289c-.82-.48-1.595-.796-2.342-.927a4.649 4.649 0 0 0-2.05.088l-1.178-2.848 16.54-9.383zm-301.698 43.83 7.288 1.625c.82.242 1.732.492 2.728.713l11.955 2.648 21.899 51.8 7.082-31.913c.307-1.421.478-2.774.478-4.006.01-1.196-.11-2.333-.346-3.353-.287-.889-.668-1.653-1.138-2.244a4.581 4.581 0 0 0-1.59-1.295l1.002-2.905 18.61 3.909 6.632 1.455-2.113 2.006c-.436.415-.853.695-1.317.82-.148.052-.301.108-.46.17l-.194.094-.22.027c-.084.02-.164.034-.22.055-.075.034-.123.054-.175.1l-.176.12-.197.067a6.078 6.078 0 0 0-1.238.65 6.02 6.02 0 0 0-1.163 1.002l-.07.066c-.128.142-.493.57-1.074 1.823-.46 1.02-.941 2.317-1.408 3.86l-13.985 63.034-5.28-1.175c-.464-.087-.911-.263-1.395-.522-.398-.204-.788-.45-1.168-.69l-.12-.072c-.394-.304-.784-.643-1.168-.95a9.53 9.53 0 0 1-1.148-1.132c-.373-.36-.708-.704-1.033-1.015-.336-.367-.683-.73-1.022-1.108l-.103-.142a88.896 88.896 0 0 0-.858-1.223 14.26 14.26 0 0 1-.775-1.219 4.368 4.368 0 0 1-.451-.656c-.097-.16-.194-.329-.287-.498l-.112-.211-.052-.22c-.018-.073-.037-.157-.069-.233-.03-.08-.085-.19-.144-.31l-.08-.153-19.938-47.781-7.459 33.65c-.325 1.435-.505 2.669-.547 3.672-.034.916.038 1.746.194 2.441.186.65.49 1.343.898 2.059.412.744.966 1.49 1.62 2.213l-.9.82-.402 1.781h-.017l-21.379-4.748-.09-2.996c.083-.034.205-.07.354-.138.207-.073.435-.135.677-.19a3.963 3.963 0 0 0 .682-.394l.145-.104.175-.072a5.23 5.23 0 0 0 1.278-.748c.463-.346.918-.74 1.361-1.155.335-.383.704-.952 1.084-1.668.405-.76.832-1.71 1.258-2.82l10.443-47.103c.343-1.525.54-2.895.592-4.106.055-1.155-.006-2.092-.186-2.804-.18-.758-.392-1.426-.644-1.993a6.587 6.587 0 0 0-.746-1.285c-.035-.03-.067-.05-.102-.084a1.675 1.675 0 0 1-.406-.273 2.501 2.501 0 0 1-.479-.612c-.017-.034-.062-.082-.103-.13-.107-.107-.197-.195-.273-.282l-.141-.134-.336-.387zm170.323 10.98a74.467 74.467 0 0 1 4.027.022c1.376.031 2.808.148 4.236.324l1.182.157 1.986 15.068-5.914.777-.466-.295a46.031 46.031 0 0 0-3.967-2.195 16.035 16.035 0 0 0-3.998-1.352h-.045a24.366 24.366 0 0 0-3.36-.537 21.528 21.528 0 0 0-3.166-.017 23.743 23.743 0 0 0-7.6 3.013c-2.396 1.467-4.64 3.423-6.655 5.795-2.276 2.601-3.881 5.575-4.784 8.85-.899 3.296-1.096 6.98-.57 10.934l.037.265.149.412.156 1.176c.878 4.31 2.116 7.978 3.676 10.928 1.514 2.87 3.428 5.156 5.666 6.771 2.306 1.691 4.693 3.009 7.058 3.932a27.472 27.472 0 0 0 7.252 1.691c.35.042.67.066.97.086.25.035.497.076.753.09a5.07 5.07 0 0 1 1.025 0c.215.021.398.021.543 0l.977-.12.199.087.016-.022a35.65 35.65 0 0 0 2.42-.57 38.774 38.774 0 0 0 2.23-.65c.896-.318 1.72-.664 2.463-.996.38-.17.737-.347 1.058-.502l-1.978-15.033a33.626 33.626 0 0 0-.654-3.58c-.253-1.045-.578-1.943-.965-2.717l-.037-.09c-.298-.699-.73-1.297-1.31-1.854-.644-.605-1.393-1.125-2.247-1.582l-4.178-2.23 19.676-2.87 6.049-.796-.572 2.629-.069.523a9.179 9.179 0 0 0-.148 1.016c-.024.332-.025.644.013.959l3.702 28.066.123.197.045.344c.017.135.049.259.084.397.038.138.096.276.158.418.052.141.136.28.222.43.156.245.304.517.41.777l.645 1.404-1.412.644a52.626 52.626 0 0 1-4.385 1.75c-1.46.52-3.002 1.02-4.586 1.522a46.25 46.25 0 0 1-4.752 1.469 70.31 70.31 0 0 1-4.798 1.004l-.067.02-6.22.812a58.93 58.93 0 0 1-7.731.523c-2.663 0-5.319-.19-7.898-.578-5.032-.744-9.957-2.262-14.66-4.527-4.877-2.331-8.861-5.895-11.842-10.62-2.937-4.658-4.948-10.497-5.975-17.32l-.045-.38c-.294-6.755.393-12.748 2.025-17.839 1.664-5.16 4.37-9.485 8.018-12.867 3.583-3.285 7.576-5.977 11.889-8.004 4.305-2.006 9.005-3.39 13.974-4.119l3.934-.62c1.321-.105 2.663-.195 3.95-.26 1.296-.05 2.664-.108 4.058-.14z" style="fill:#231f20;fill-opacity:1;fill-rule:nonzero;stroke:none;stroke-width:3.45833" transform="matrix(.28916 0 0 -.28916 161.125 573.162)"/></g></svg>