<svg xmlns="http://www.w3.org/2000/svg" xml:space="preserve" width="1000.15" height="948.67798" viewBox="0 0 1000.15 948.67794"><defs><clipPath id="a" clipPathUnits="userSpaceOnUse"><path d="M0 858.897h612.288V0H0Z"/></clipPath></defs><g clip-path="url(#a)" transform="matrix(3.4638 0 0 -3.4638 -557.666 1942.331)"><path d="M0 0s5.382 12.654 8.789 13.458C8.789 13.458 7.271 3.321 0 0m-18.131 0s5.397 12.654 8.794 13.458c0 0-1.519-10.137-8.794-13.458m-7.539 3.139-1.441 1.35-3.042-2.964c-.091.451-1.614.806-1.614.806 1.523.453 6.552 3.415 6.552 3.415-.353-1.346-.455-2.607-.455-2.607m49.805 15.616s-5.643-.266-9.229-5.115c0 0-.553 4.036-4.591 4.94 0 0-5.564 1.707-13.456-6.467 0 0 .362 6.467-6.556 6.642 0 0-5.108.182-12.292-7.444 0 0 .182 6.998-7.267 7.358 0 0-7.004.806-11.582-6.914 0 0-1.965-5.019 2.784-6.367 0 0-6.463-3.59-7-7.899 0 0 0-2.333 1.803-2.78 0 0 1.789-.725 3.487 2.147 0 0 4.492-2.599 7.189-2.242 0 0 3.77.271 7.535 5.115 0 0 1.532-4.844 6.463-5.115 0 0 5.119-.267 11.214 7.546 0 0 .086-5.304 5.481-7.368 0 0 7.537-2.329 15.794 12.299 0 0 1.165-1.523 2.607-1.616 0 0-6.377-3.677-7.012-8.077 0 0-.265-2.513 2.336-2.689 0 0 1.351-.543 2.966 2.243 0 0 6.011-3.772 9.064-1.708 0 0 6.105 2.337 6.105 7.178l-2.526 2.156-2.867-2.962-1.787.806s10.232 3.496 9.691 9.249c0 0 .349 7.084-8.354 7.084" style="fill:#fff;fill-opacity:1;fill-rule:nonzero;stroke:none" transform="translate(311.643 529.428)"/><path d="M0 0s55.997 11.014 56.472-28.478c0 0 17.954-20.098 23.219-33.984 0 0 .243 1.918.953 5.026 0 0-2.148 3.834-9.094 6.703 0 0-4.534 6.464-2.87 15.079 0 0 0 14.596-10.535 21.78 0 0 22.978-1.196 32.786-21.78 0 0 4.322-11.971-4.302-22.018 0 0 1.439-7.893-1.908-18.191 0 0 5.748-19.383 5.016-29.671 0 0 .483 1.907 2.157 3.591 0 0-4.547 4.064-5.739 10.047 0 0-1.434 9.576 3.109 16.752 0 0 5.989 11.253 7.891 23.699 0 0 30.87-38.298.724-51.938 0 0-5.267-14.594-8.375-20.106 0 0 0-13.399-5.024-31.825 0 0 4.784 5.026 5.989 5.502 0 0-5.511 12.924 5.492 26.564 0 0 15.794 16.513 23.694 21.305 0 0 10.292-59.831-24.895-52.175 0 0-11.239-13.403-15.544-16.99 0 0-4.79-12.931-14.125-27.764 0 0 5.026-.232 8.144 3.589 0 0-3.839 16.752 16.985 24.175 0 0 15.318 5.266 25.137 15.314 0 0-2.643-59.112-37.58-45.23 0 0-4.542-4.072-18.673-6.698 0 0-7.416-11.153-16.992-20.007 0 0 3.235-.81 7.422 1.35 0 0 11.065 32.785 48.978 10.116 0 0-8.508-2.153-21.324-14.436 0 0-13.354-10.519-26.304-1.614 0 0-10.388-2.432-17.139-2.161 0 0-14.361-12.978-16.275-13.937l-6.948 10.296s7.425 2.386 20.583 14.592c0 0-.475.718.482 2.876 0 0-1.432 0-3.834 5.022 0 0-4.069 0-11.973-7.898 0 0-16.022-14.117-29.667-6.702 0 0 8.144-1.432 17.718 17.705 0 0 13.639 18.914 28 3.597 0 0 0-3.114 1.426-4.781 0 0 .968 4.061 1.682 5.02 0 0-12.69 11.955-4.065 24.171 0 0 7.886 5.266 6.454 21.301 0 0 10.295-3.829 16.031-22.977 0 0 3.113-16.747-12.439-23.454l-.717-3.827s11.241 13.163 17.226 22.496c0 0-.233 14.127.248 16.997 0 0-18.428 11.478-6.946 26.796 0 0 5.507 9.578 2.395 25.612 0 0 31.354-23.453 11.487-51.452 0 0 .478-5.51.719-6.226 0 0 7.903 16.273 9.569 27.524 0 0-1.666 9.325-7.655 25.847 0 0-19.382 9.81-7.896 29.436 0 0 3.827 12.683-.246 24.407 0 0 35.185-23.213 14.595-53.606l5.037-10.052s10.285 35.652-6.704 71.56c0 0-21.301 16.506-33.023 14.355 0 0-19.142-1.909-29.436 11.486 0 0 7.651-3.83 19.388 2.877 0 0 18.193 10.768 27.99-11.486 0 0 8.863-5.745 10.534-5.745 0 0-10.056 16.51-15.797 21.299 0 0-13.636-1.912-24.888 13.165 0 0-13.169 13.4-26.8 18.18" style="fill:#fff;fill-opacity:1;fill-rule:nonzero;stroke:none" transform="translate(328.685 559.339)"/><path d="M0 0s-56.008 11.014-56.477-28.478c0 0-17.951-20.098-23.217-33.984 0 0-.238 1.918-.959 5.026 0 0 2.155 3.834 9.096 6.703 0 0 4.535 6.464 2.859 15.079 0 0 0 14.596 10.543 21.78 0 0-22.978-1.196-32.784-21.78 0 0-4.32-11.971 4.305-22.018 0 0-1.443-7.893 1.907-18.191 0 0-5.743-19.383-5.02-29.671 0 0-.483 1.907-2.149 3.591 0 0 4.543 4.064 5.742 10.047 0 0 1.427 9.576-3.113 16.752 0 0-5.992 11.253-7.899 23.699 0 0-30.868-38.298-.722-51.938 0 0 5.273-14.594 8.376-20.106 0 0 0-13.399 5.027-31.825 0 0-4.782 5.026-5.985 5.502 0 0 5.507 12.924-5.499 26.564 0 0-15.794 16.513-23.693 21.305 0 0-10.292-59.831 24.89-52.175 0 0 11.24-13.403 15.546-16.99 0 0 4.798-12.931 14.128-27.764 0 0-5.021-.232-8.14 3.589 0 0 3.831 16.752-16.992 24.175 0 0-15.312 5.266-25.137 15.314 0 0 2.647-59.112 37.587-45.23 0 0 4.542-4.072 18.664-6.698 0 0 7.422-11.153 16.995-20.007 0 0-3.233-.81-7.426 1.35 0 0-11.057 32.785-48.969 10.116 0 0 8.505-2.153 21.317-14.436 0 0 13.359-10.519 26.31-1.614 0 0 10.39-2.432 17.133-2.161 0 0 14.359-12.978 16.282-13.937l6.945 10.296s-7.425 2.386-20.59 14.592c0 0 .489.718-.47 2.876 0 0 1.429 0 3.825 5.022 0 0 4.076 0 11.975-7.898 0 0 16.029-14.117 29.667-6.702 0 0-8.141-1.432-17.717 17.705 0 0-13.635 18.914-28.004 3.597 0 0 0-3.114-1.427-4.781 0 0-.964 4.061-1.674 5.02 0 0 12.685 11.955 4.069 24.171 0 0-7.892 5.266-6.462 21.301 0 0-10.297-3.829-16.031-22.977 0 0-3.109-16.747 12.443-23.454l.717-3.827s-11.247 13.163-17.232 22.496c0 0 .235 14.127-.24 16.997 0 0 18.425 11.478 6.94 26.796 0 0-5.501 9.578-2.393 25.612 0 0-31.352-23.453-11.484-51.452 0 0-.481-5.51-.722-6.226 0 0-7.899 16.273-9.564 27.524 0 0 1.665 9.325 7.65 25.847 0 0 19.379 9.81 7.897 29.436 0 0-3.832 12.683.24 24.407 0 0-35.177-23.213-14.593-53.606l-5.037-10.052s-10.283 35.652 6.703 71.56c0 0 21.303 16.506 33.025 14.355 0 0 19.15-1.909 29.441 11.486 0 0-7.651-3.83-19.391 2.877 0 0-18.191 10.768-27.986-11.486 0 0-8.867-5.745-10.534-5.745 0 0 10.048 16.51 15.796 21.299 0 0 13.637-1.912 24.882 13.165 0 0 13.172 13.4 26.81 18.18" style="fill:#fff;fill-opacity:1;fill-rule:nonzero;stroke:none" transform="translate(282.063 559.339)"/><path d="M0 0s7.656-30.629 28.718-39.966c0 0-.248 7.422-.476 9.813l1.674.242s2.624 8.129 7.177 12.443c0 0 .238-9.81 1.432-11.724 0 0 16.755 2.63 33.508 9.803 0 0 20.351 8.139 35.66 7.662 0 0 12.203 1.194 35.178-7.897 0 0 22.012-7.654 24.172-8.133 0 0 1.921 5.975 1.192 9.812 0 0 6.703-6.945 6.94-11.247 0 0 7.903-.961 10.781-.719l-.249-4.07s11.487 6.94 19.39 33.981c0 0 11.243-41.643-20.58-59.589l-.251-.96s15.797.485 34.467-11.481c0 0-19.626 3.347-35.172-2.634 0 0 4.726-65.737-76.593-125.648 0 0-50.494 39.727-65.926 78.862 0 0-10.77 26.553-11.126 57.795 0 0-39.729 8.492-29.916 63.655" style="fill:#fff;fill-opacity:1;fill-rule:nonzero;stroke:none" transform="translate(198.401 527.752)"/><path d="M0 0s.46-6.59 5.218-7.65l.739 1.123S1.306-3.734.936.562z" style="fill:#0068b7;fill-opacity:1;fill-rule:nonzero;stroke:none" transform="translate(358.227 346.857)"/><path d="M0 0s5.548 6.545 15.001 8.398c0 0-.102 7.879-11.751 7.331 0 0-9.431.369-14.626-10.839 0 0-6.554-12.703-11.562-14.039 0 0 10.202-1.887 22.938 9.149" style="fill:#0068b7;fill-opacity:1;fill-rule:nonzero;stroke:none" transform="translate(344.345 338.459)"/><path d="M0 0s-1.103-7.165-9.249-23.696c0 0-4.438-12.316 5.016-20.443 0 0-7.366-17.746-8.96-17.357 0 0-1.293-10.011.149-8.756 0 0 6.072 10.665 10.699 25.535 0 0 27.882 7.351 2.345 44.717" style="fill:#0068b7;fill-opacity:1;fill-rule:nonzero;stroke:none" transform="translate(427.099 502.452)"/><path d="M0 0s1.304-18.319-3.751-25.304c-1.166-1.608-.78.701-.78.701S-1.046-18.138 0 0" style="fill:#fff;fill-opacity:1;fill-rule:nonzero;stroke:none" transform="translate(429.238 488.213)"/><path d="M0 0s20.959 20.149-4.986 46.184c0 0 1.543-11.127-5.009-23.299 0 0-8.428-12.184 9.995-22.885" style="fill:#0068b7;fill-opacity:1;fill-rule:nonzero;stroke:none" transform="translate(389.977 385.842)"/><path d="M0 0s-3.388-19.701-.992-20.529c2.056-.731.444 1.092.444 1.092S-1.159-16.971 0 0" style="fill:#fff;fill-opacity:1;fill-rule:nonzero;stroke:none" transform="translate(389.393 410.507)"/><path d="m0 0 1.911-22.671-4.691-6.67.342 31.534z" style="fill:#0068b7;fill-opacity:1;fill-rule:nonzero;stroke:none" transform="translate(390.946 389.838)"/><path d="M0 0s20.09 22.353-8.714 47.39c0 0 2.437-11.399-3.377-24.456 0 0-7.753-13.192 12.091-22.934" style="fill:#0068b7;fill-opacity:1;fill-rule:nonzero;stroke:none" transform="translate(400.185 434.066)"/><path d="M0 0s-1.982-20.597.553-21.287c2.191-.606.38 1.163.38 1.163S.087-17.616 0 0" style="fill:#fff;fill-opacity:1;fill-rule:nonzero;stroke:none" transform="translate(397.687 459.519)"/><path d="m0 0 11.356-24.689-1.668-9.616-10.612 32.8z" style="fill:#0068b7;fill-opacity:1;fill-rule:nonzero;stroke:none" transform="translate(398.24 438.231)"/><path d="M0 0s14.031-5.895 24.058-15.27l-2.115 6.537S2.445.155.622 3.481z" style="fill:#0068b7;fill-opacity:1;fill-rule:nonzero;stroke:none" transform="translate(380.292 510.01)"/><path d="M0 0s7.783.964 16.479-3.141c0 0 2.553 6.906-7.457 13.287 0 0-7.777 5.794-16.626.252 0 0-10.582-5.909-15.317-4.004 0 0 7.809-7.409 22.921-6.394" style="fill:#0068b7;fill-opacity:1;fill-rule:nonzero;stroke:none" transform="translate(366.95 511.796)"/><path d="M0 0s1.007-11.987-7.404-19.46c0 0-4.78-5.266-.318-14.928 0 0 3.944-5.417 5.746-7.836 0 0 18.498 7.12 12.637 25.154C10.661-17.07 5.756-3.207 0 0" style="fill:#0068b7;fill-opacity:1;fill-rule:nonzero;stroke:none" transform="translate(368.555 392.482)"/><path d="M0 0s1.032-16.102-2.217-22.036c-.954-1.741-1.446.91-1.446.91S-1.448-22.467 0 0" style="fill:#fff;fill-opacity:1;fill-rule:nonzero;stroke:none" transform="translate(371.053 376.117)"/><path d="M0 0s-6.356-17.312-4.674-23.835l3.92 5.049S-.609-4.46 2.213-.32z" style="fill:#0068b7;fill-opacity:1;fill-rule:nonzero;stroke:none" transform="translate(366.615 352.95)"/><path d="M0 0s4.771-4.474 5.418-18.261c0 0-2.066-9.988 5.589-14.889 0 0 4.629-2.429 7.379-6.679 0 0 9.837 7.38 5.144 20.9 0 0-6.156 14.908-23.53 18.929" style="fill:#0068b7;fill-opacity:1;fill-rule:nonzero;stroke:none" transform="translate(394.013 541.847)"/><path d="M0 0s5.382-15.335 4.33-16.787c-.919-1.257-1.066.279-1.066.279S2.884-9.342 0 0" style="fill:#fff;fill-opacity:1;fill-rule:nonzero;stroke:none" transform="translate(408.045 523.295)"/><path d="M0 0s4.446 13.316 2.997 15.613l.987.67S7.458 9.142 2.608-6.141z" style="fill:#0068b7;fill-opacity:1;fill-rule:nonzero;stroke:none" transform="translate(408.414 488.64)"/><path d="M0 0s17.154-9.116 22.422-17.259c0 0 9.657-13.21 24.523-10.213 0 0 4.809 31.985-46.945 27.472" style="fill:#0068b7;fill-opacity:1;fill-rule:nonzero;stroke:none" transform="translate(336.138 558.045)"/><path d="M0 0s19.629-12.095 19.703-14.235c.068-1.851-1.459-.4-1.459-.4S11.505-7.621 0 0" style="fill:#fff;fill-opacity:1;fill-rule:nonzero;stroke:none" transform="translate(359.858 548.605)"/><path d="M0 0s-7.229-2.297-19.058-13.386c0 0-12.767-8.711-24.394-.895 0 0-12.069-2.802-18.347-2.193 0 0 .98 1.388 1.747 3.103 0 0 11.608-1.685 16.056 1.388 0 0 9.376 29.272 43.996 11.983" style="fill:#0068b7;fill-opacity:1;fill-rule:nonzero;stroke:none" transform="translate(423.29 343.499)"/><path d="M0 0s-20.166-4.15-22.713-8.23c-1.011-1.622 1.223-.804 1.223-.804S-16.644-5.241 0 0" style="fill:#fff;fill-opacity:1;fill-rule:nonzero;stroke:none" transform="translate(406.762 341.057)"/><path d="M0 0s-5.943-6.075-23.866-12.628c0 0-16.456-6.44-13.197-21.452 0 0-1.445-7.186-18.675-5.741 0 0-1.601-2.45-2.87-5.274 0 0 18.182 2.395 23.386 7.973 0 0 28.785-17.541 35.222 37.122" style="fill:#0068b7;fill-opacity:1;fill-rule:nonzero;stroke:none" transform="translate(441.398 397.973)"/><path d="M0 0s-18.082-20.508-20.793-20.056c-2.35.401 1.137 1.95 1.137 1.95S-9.506-9.958 0 0" style="fill:#fff;fill-opacity:1;fill-rule:nonzero;stroke:none" transform="translate(430.408 383.932)"/><path d="M0 0s-8.777-6.358-18.551-17.095c0 0-12.209-10.677-6.465-26.944 0 0-13.924-14.845-15.047-12.456 0 0-4.609-9.94-2.6-9.672 0 0 10.426 9.676 18.842 20.392 0 0 30.828-12.63 23.821 45.775" style="fill:#0068b7;fill-opacity:1;fill-rule:nonzero;stroke:none" transform="translate(446.62 453.407)"/><path d="M0 0s-11.005-22.757-13.147-24.676c-1.495-1.348-.583 1.712-.583 1.712S-7.856-12.313 0 0" style="fill:#fff;fill-opacity:1;fill-rule:nonzero;stroke:none" transform="translate(439.588 436.714)"/><path d="M0 0s22.359-23.173 24.021-37.064c0 0 16.022-26.872 8.913-66.61 0 0-7.916-43.664-18.042-55.55 0 0-26.982-43.696-50.453-54.386l4.334-6.528s32.71 23.568 50.408 56.448c0 0 16.681 27.497 18.779 62.728 0 0 5.257 32.59-10.879 65.949 0 0-2.366 8.645-25.622 35.413z" style="fill:#0068b7;fill-opacity:1;fill-rule:nonzero;stroke:none" transform="translate(378.103 533.97)"/><path d="M0 0s-.464-6.59-5.226-7.65l-.741 1.123S-1.316-3.734-.946.562z" style="fill:#0068b7;fill-opacity:1;fill-rule:nonzero;stroke:none" transform="translate(252.524 346.857)"/><path d="M0 0s-5.546 6.545-15.003 8.398c0 0 .106 7.879 11.748 7.331 0 0 9.436.369 14.624-10.839 0 0 6.556-12.703 11.558-14.039 0 0-10.201-1.887-22.927 9.149" style="fill:#0068b7;fill-opacity:1;fill-rule:nonzero;stroke:none" transform="translate(266.4 338.459)"/><path d="M0 0s1.103-7.165 9.253-23.696c0 0 4.435-12.316-5.016-20.443 0 0 7.363-17.746 8.958-17.357 0 0 1.293-10.011-.155-8.756 0 0-6.067 10.665-10.687 25.535 0 0-27.889 7.351-2.353 44.717" style="fill:#0068b7;fill-opacity:1;fill-rule:nonzero;stroke:none" transform="translate(183.64 502.452)"/><path d="M0 0s-1.301-18.319 3.748-25.304c1.163-1.608.781.701.781.701S1.041-18.138 0 0" style="fill:#fff;fill-opacity:1;fill-rule:nonzero;stroke:none" transform="translate(181.502 488.213)"/><path d="M0 0s-20.958 20.149 4.993 46.184c0 0-1.545-11.127 5.002-23.299 0 0 8.432-12.184-9.995-22.885" style="fill:#0068b7;fill-opacity:1;fill-rule:nonzero;stroke:none" transform="translate(220.766 385.842)"/><path d="M0 0s3.395-19.701 1.001-20.529c-2.055-.731-.446 1.092-.446 1.092S1.17-16.971 0 0" style="fill:#fff;fill-opacity:1;fill-rule:nonzero;stroke:none" transform="translate(221.337 410.507)"/><path d="m0 0-1.907-22.671 4.687-6.67-.344 31.534Z" style="fill:#0068b7;fill-opacity:1;fill-rule:nonzero;stroke:none" transform="translate(219.793 389.838)"/><path d="M0 0s-20.076 22.353 8.723 47.39c0 0-2.445-11.399 3.379-24.456 0 0 7.754-13.192-12.102-22.934" style="fill:#0068b7;fill-opacity:1;fill-rule:nonzero;stroke:none" transform="translate(210.55 434.066)"/><path d="M0 0s1.974-20.597-.555-21.287c-2.196-.606-.387 1.163-.387 1.163S-.093-17.616 0 0" style="fill:#fff;fill-opacity:1;fill-rule:nonzero;stroke:none" transform="translate(213.06 459.519)"/><path d="m0 0-11.36-24.689 1.669-9.616L.912-1.505z" style="fill:#0068b7;fill-opacity:1;fill-rule:nonzero;stroke:none" transform="translate(212.505 438.231)"/><path d="M0 0s-14.029-5.895-24.058-15.27l2.112 6.537S-2.444.155-.617 3.481z" style="fill:#0068b7;fill-opacity:1;fill-rule:nonzero;stroke:none" transform="translate(230.448 510.01)"/><path d="M0 0s-7.782.964-16.479-3.141c0 0-2.55 6.906 7.461 13.287 0 0 7.774 5.794 16.623.252 0 0 10.578-5.909 15.317-4.004 0 0-7.813-7.409-22.922-6.394" style="fill:#0068b7;fill-opacity:1;fill-rule:nonzero;stroke:none" transform="translate(243.789 511.796)"/><path d="M0 0s-1.001-11.987 7.406-19.46c0 0 4.782-5.266.32-14.928 0 0-3.943-5.417-5.743-7.836 0 0-18.501 7.12-12.637 25.154 0 0 4.899 13.863 10.654 17.07" style="fill:#0068b7;fill-opacity:1;fill-rule:nonzero;stroke:none" transform="translate(242.181 392.482)"/><path d="M0 0s-1.039-16.102 2.215-22.036c.947-1.741 1.446.91 1.446.91S1.447-22.467 0 0" style="fill:#fff;fill-opacity:1;fill-rule:nonzero;stroke:none" transform="translate(239.69 376.117)"/><path d="M0 0s6.363-17.312 4.669-23.835L.755-18.786S.612-4.46-2.211-.32z" style="fill:#0068b7;fill-opacity:1;fill-rule:nonzero;stroke:none" transform="translate(244.124 352.95)"/><path d="M0 0s-4.771-4.474-5.422-18.261c0 0 2.058-9.988-5.587-14.889 0 0-4.612-2.429-7.373-6.679 0 0-9.842 7.38-5.151 20.9 0 0 6.158 14.908 23.533 18.929" style="fill:#0068b7;fill-opacity:1;fill-rule:nonzero;stroke:none" transform="translate(216.728 541.847)"/><path d="M0 0s-5.37-15.335-4.318-16.787c.904-1.257 1.063.279 1.063.279S-2.873-9.342 0 0" style="fill:#fff;fill-opacity:1;fill-rule:nonzero;stroke:none" transform="translate(202.688 523.295)"/><path d="M0 0s-4.446 13.316-3.004 15.613l-.976.67S-7.459 9.142-2.613-6.141z" style="fill:#0068b7;fill-opacity:1;fill-rule:nonzero;stroke:none" transform="translate(202.326 488.64)"/><path d="M0 0s-17.146-9.116-22.428-17.259c0 0-9.655-13.21-24.514-10.213 0 0-4.815 31.985 46.942 27.472" style="fill:#0068b7;fill-opacity:1;fill-rule:nonzero;stroke:none" transform="translate(274.603 558.045)"/><path d="M0 0s-19.626-12.095-19.708-14.235c-.066-1.851 1.458-.4 1.458-.4S-11.511-7.621 0 0" style="fill:#fff;fill-opacity:1;fill-rule:nonzero;stroke:none" transform="translate(250.882 548.605)"/><path d="M0 0s7.23-2.297 19.055-13.386c0 0 12.763-8.711 24.39-.895 0 0 12.079-2.802 18.353-2.193 0 0-.984 1.388-1.754 3.103 0 0-11.602-1.685-16.051 1.388 0 0-9.373 29.272-43.993 11.983" style="fill:#0068b7;fill-opacity:1;fill-rule:nonzero;stroke:none" transform="translate(187.454 343.499)"/><path d="M0 0s20.165-4.15 22.718-8.23c1.006-1.622-1.23-.804-1.23-.804S16.655-5.241 0 0" style="fill:#fff;fill-opacity:1;fill-rule:nonzero;stroke:none" transform="translate(203.976 341.057)"/><path d="M0 0s5.938-6.075 23.863-12.628c0 0 16.458-6.44 13.195-21.452 0 0 1.445-7.186 18.686-5.741 0 0 1.589-2.45 2.866-5.274 0 0-18.187 2.395-23.39 7.973C35.22-37.122 6.429-54.663 0 0" style="fill:#0068b7;fill-opacity:1;fill-rule:nonzero;stroke:none" transform="translate(169.345 397.973)"/><path d="M0 0s18.084-20.508 20.795-20.056c2.347.401-1.138 1.95-1.138 1.95S9.511-9.958 0 0" style="fill:#fff;fill-opacity:1;fill-rule:nonzero;stroke:none" transform="translate(180.33 383.932)"/><path d="M0 0s8.782-6.358 18.553-17.095c0 0 12.202-10.677 6.463-26.944 0 0 13.928-14.845 15.046-12.456 0 0 4.615-9.94 2.608-9.672 0 0-10.428 9.676-18.846 20.392 0 0-30.831-12.63-23.824 45.775" style="fill:#0068b7;fill-opacity:1;fill-rule:nonzero;stroke:none" transform="translate(164.119 453.407)"/><path d="M0 0s11.004-22.757 13.145-24.676c1.494-1.348.58 1.712.58 1.712S7.858-12.313 0 0" style="fill:#fff;fill-opacity:1;fill-rule:nonzero;stroke:none" transform="translate(171.154 436.714)"/><path d="M0 0s-22.345-23.173-24.017-37.064c0 0-16.015-26.872-8.913-66.61 0 0 7.914-43.664 18.043-55.55 0 0 26.98-43.696 50.45-54.386l-4.324-6.528S-1.479-196.57-19.173-163.69c0 0-16.69 27.497-18.775 62.728 0 0-5.261 32.59 10.874 65.949 0 0 2.365 8.645 25.616 35.413z" style="fill:#0068b7;fill-opacity:1;fill-rule:nonzero;stroke:none" transform="translate(232.632 533.97)"/><path d="M0 0c0-2.54-1.825-4.601-5.484-6.179-1.785-.748-3.558-1.505-5.31-2.248-1.954-.897-3.525-1.817-4.698-2.767a6.463 6.463 0 0 0 2.879.689c1.066 0 2.156-.209 3.266-.647 1.115-.428 2.243-.877 3.43-1.334.524 0 1.03.247 1.532.737.513.497 1.033 1.017 1.583 1.55l.213-.169c0-.604-.675-1.483-2.025-2.655-1.586-1.377-3.174-2.056-4.753-2.056-.978 0-2.377.519-4.191 1.567-.89.513-1.588.764-2.078.764-.657 0-1.268-.39-1.834-1.163-.562-.777-.881-1.168-.966-1.168-.122 0-.204.036-.266.106-.051.074-.08.125-.08.154.049.286.111.522.173.691.173.492.424 1.025.777 1.6.346.582.884 1.165 1.597 1.776.457.406 1.791 1.357 4.013 2.862C-9.506-6.074-7.557-4.449-6.341-3c1.35 1.588 2.023 3.197 2.023 4.851 0 1.35-.702 2.025-2.116 2.025-1.354 0-2.831-.602-4.445-1.812-.978-.714-1.74-1.491-2.27-2.313-.531-.817-.795-1.499-.795-2.054 0-.772.306-1.163.952-1.163.77 0 1.505.36 2.198 1.089.659.805 1.346 1.622 2.031 2.453.196 0 .3-.14.3-.427 0-.404-.471-1.106-1.378-2.116-1.093-1.212-2.185-1.813-3.246-1.813-1.197 0-1.808.601-1.808 1.813 0 1.496.877 3.022 2.636 4.58 1.956 1.719 4.124 2.589 6.52 2.589 1.725 0 3.122-.442 4.163-1.319C-.521 2.504 0 1.372 0 0" style="fill:#0068b7;fill-opacity:1;fill-rule:nonzero;stroke:none" transform="translate(287.486 541.292)"/><path d="M0 0c0 1.728-.728 2.58-2.175 2.58-.833 0-1.713-.369-2.636-1.119-.912-.748-1.807-1.829-2.67-3.226-1.837-3.021-3.236-5.543-4.165-7.568-.941-2.024-1.401-3.41-1.401-4.156 0-1.294.641-1.944 1.933-1.944 1.67 0 3.588 1.385 5.741 4.138 1.772 2.245 3.133 4.538 4.15 6.899C-.417-2.501 0-1.039 0 0m1.887-1.079c0-1.523-.495-3.216-1.481-5.083-.999-1.867-2.477-3.81-4.431-5.824-2.795-2.87-5.286-4.304-7.475-4.304-1.261 0-2.365.585-3.306 1.765-.934 1.178-1.399 2.586-1.399 4.22 0 3.51 2.136 6.969 6.43 10.388 2.815 2.273 5.339 3.408 7.522 3.408 1.267 0 2.275-.407 3.023-1.206.738-.806 1.117-1.923 1.117-3.364" style="fill:#0068b7;fill-opacity:1;fill-rule:nonzero;stroke:none" transform="translate(304.472 542.503)"/><path d="M0 0c0 1.728-.72 2.58-2.165 2.58-.83 0-1.707-.369-2.633-1.119-.919-.748-1.799-1.829-2.681-3.226-1.836-3.021-3.229-5.543-4.153-7.568-.942-2.024-1.406-3.41-1.406-4.156 0-1.294.645-1.944 1.937-1.944 1.677 0 3.584 1.385 5.744 4.138 1.754 2.245 3.139 4.538 4.144 6.899C-.402-2.501 0-1.039 0 0m1.9-1.079c0-1.523-.498-3.216-1.494-5.083-.992-1.867-2.467-3.81-4.418-5.824-2.797-2.87-5.283-4.304-7.484-4.304-1.263 0-2.353.585-3.294 1.765-.941 1.178-1.41 2.586-1.41 4.22 0 3.51 2.147 6.969 6.436 10.388 2.822 2.273 5.333 3.408 7.52 3.408 1.274 0 2.273-.407 3.023-1.206C1.522 1.479 1.9.362 1.9-1.079" style="fill:#0068b7;fill-opacity:1;fill-rule:nonzero;stroke:none" transform="translate(322.644 542.503)"/><path d="M0 0c0-2.54-1.836-4.601-5.486-6.179-1.791-.748-3.559-1.505-5.315-2.248-1.956-.897-3.521-1.817-4.697-2.767a6.501 6.501 0 0 0 2.876.689c1.08 0 2.163-.209 3.27-.647 1.113-.428 2.251-.877 3.435-1.334.516 0 1.023.247 1.539.737.497.497 1.019 1.017 1.567 1.55l.229-.169c0-.604-.69-1.483-2.043-2.655-1.585-1.377-3.166-2.056-4.746-2.056-.978 0-2.373.519-4.183 1.567-.901.513-1.585.764-2.08.764-.657 0-1.274-.39-1.836-1.163-.564-.777-.888-1.168-.972-1.168a.333.333 0 0 0-.262.106c-.056.074-.076.125-.076.154.055.286.113.522.167.691a8.54 8.54 0 0 0 .781 1.6c.34.582.871 1.165 1.594 1.776.464.406 1.799 1.357 4.012 2.862C-9.507-6.074-7.553-4.449-6.345-3-4.998-1.412-4.32.197-4.32 1.851c0 1.35-.7 2.025-2.118 2.025-1.353 0-2.833-.602-4.441-1.812-.981-.714-1.743-1.491-2.273-2.313-.529-.817-.793-1.499-.793-2.054 0-.772.311-1.163.939-1.163.78 0 1.512.36 2.205 1.089.666.805 1.337 1.622 2.031 2.453.203 0 .309-.14.309-.427 0-.404-.466-1.106-1.39-2.116-1.087-1.212-2.175-1.813-3.234-1.813-1.213 0-1.819.601-1.819 1.813 0 1.496.886 3.022 2.647 4.58 1.946 1.719 4.12 2.589 6.514 2.589 1.722 0 3.114-.442 4.166-1.319C-.526 2.504 0 1.372 0 0" style="fill:#0068b7;fill-opacity:1;fill-rule:nonzero;stroke:none" transform="translate(342.036 541.292)"/><path d="m0 0-5.961-16.387h9.697l1.043 2.862h18.873L28.73 0Z" style="fill:#fff;fill-opacity:1;fill-rule:nonzero;stroke:none" transform="translate(279.547 303.389)"/><path d="M0 0h-16.703c-5.125 0-10.362-3.401-11.949-7.743-.784-2.171-.569-4.29.604-5.985 1.323-1.878 3.712-2.955 6.54-2.955H-.856l2.807 7.722h-20.573c-.801 0-.077 1.403 1.33 1.403H2.456L5.211 0Z" style="fill:#fff;fill-opacity:1;fill-rule:nonzero;stroke:none" transform="translate(332.352 303.55)"/><path d="M0 0h-5.992l4.7 12.915h25.02l-1.505-4.124H3.195L2.5 6.887h18.864L19.907 2.87H1.043Z" style="fill:#0068b7;fill-opacity:1;fill-rule:nonzero;stroke:none" transform="translate(282.07 288.74)"/><path d="M0 0c-4.365 0-6.84 2.946-5.51 6.604 1.33 3.636 5.943 6.592 10.315 6.592h19.427l-1.483-4.071H4.216c-1.628 0-3.332-1.092-3.82-2.442-.489-1.349.432-2.45 2.042-2.45h18.538L19.428 0Z" style="fill:#0068b7;fill-opacity:1;fill-rule:nonzero;stroke:none" transform="translate(310.844 288.61)"/><path d="M0 0a673.262 673.262 0 0 1-1.507-4.147c-.12-.149-.487-.332-.775-.332h-8.204C-9.715-2.354-9.358-1.377-8.856 0zm-18.049 7.082-5.519-15.167 4.411-5.772h17.203c4.738 0 9.34 2.801 10.692 6.504l2.86 7.839c.692 1.934.457 3.963-.664 5.561-1.365 1.949-3.825 3.057-6.76 3.057h-15.967l-5.517.007z" style="fill:#fff;fill-opacity:1;fill-rule:nonzero;stroke:none" transform="translate(252.427 316.908)"/><path d="M0 0h-18.491c-4.736 0-9.33-2.81-10.667-6.514l-2.699-7.377c-.718-1.973-.469-4.069.694-5.716 1.367-1.958 3.809-3.081 6.667-3.081h16.293l6.358 4.017L2.566-6.598h-.549C2.249-5.928 4.394 0 4.394 0Z" style="fill:#fff;fill-opacity:1;fill-rule:nonzero;stroke:none" transform="translate(347.35 325.74)"/><path d="M0 0h-7.855s-4.735-13.024-4.822-13.249c-.127-.142-.474-.337-.761-.337h-7.373C-19.854-10.951-15.871 0-15.871 0h-12.06l-5.162-14.212c-.708-1.963-.464-4.036.694-5.684 1.365-1.958 3.8-3.072 6.679-3.072h13.445c4.663 0 9.386 2.916 10.735 6.652L4.398 0Z" style="fill:#fff;fill-opacity:1;fill-rule:nonzero;stroke:none" transform="translate(377.481 325.74)"/><path d="M0 0h-25.402l-6.33-17.401 4.918-5.014h23.319l3.293 9.007h-.282l2.531 6.96H2.04C2.271-5.81 4.394 0 4.394 0Z" style="fill:#fff;fill-opacity:1;fill-rule:nonzero;stroke:none" transform="translate(318.914 325.74)"/><path d="M0 0c-4.662 0-9.384-2.924-10.749-6.653l-5.932-16.314h11.77s1.803 4.951 2.547 7.005h7.277c-.502-1.397-2.546-7.005-2.546-7.005h12.157l5.173 14.202c.71 1.972.46 4.04-.687 5.686C17.641-1.121 15.206 0 12.331 0Z" style="fill:#fff;fill-opacity:1;fill-rule:nonzero;stroke:none" transform="translate(272.976 326.16)"/><path d="M0 0c-.444-1.233-2.073-2.237-3.623-2.237h-12.594l3.863 10.646H.249c1.554 0 2.444-1.006 1.993-2.249zm2.833 11.347h-19.328l-4.953-13.578 2.473-3.22h15.681c3.403 0 6.884 2.005 7.803 4.475l2.853 7.849c.901 2.471-1.13 4.474-4.529 4.474" style="fill:#0068b7;fill-opacity:1;fill-rule:nonzero;stroke:none" transform="translate(253.768 311.583)"/><path d="M0 0h-15.569l-1.104-3.041h10.431l-1.426-3.916h-12.033c-1.558 0-2.451.965-2.007 2.206l2.242 6.154c.46 1.239 2.067 2.246 3.619 2.246H.777l1.068 2.94h-18.491c-3.395 0-6.886-2.012-7.791-4.493l-2.692-7.371c-.897-2.468 1.071-4.663 4.478-4.663h15.403l4.722 2.981z" style="fill:#0068b7;fill-opacity:1;fill-rule:nonzero;stroke:none" transform="translate(345.506 316.07)"/><path d="M0 0c-.895-2.48-4.434-4.624-7.846-4.624H-21.29c-3.412 0-5.386 2.144-4.482 4.624l4.44 12.182h5.492L-19.96.842c-.45-1.241.439-2.247 1.987-2.247h8.964c1.536 0 3.16 1.006 3.615 2.247l4.123 11.34H4.43Z" style="fill:#0068b7;fill-opacity:1;fill-rule:nonzero;stroke:none" transform="translate(373.052 310.477)"/><path d="M0 0H23.251l-1.023-2.792H4.48L3.155-6.451h17.742l-1.132-3.077H2.029L.626-13.404h18.019l-1.032-2.842H-2.269l-2.651 2.7z" style="fill:#0068b7;fill-opacity:1;fill-rule:nonzero;stroke:none" transform="translate(295.663 322.658)"/><path d="m0 0 .566 1.545c.451 1.238 2.184 2.531 3.721 2.531h8.234c1.547 0 2.329-1.293 1.867-2.531L13.831 0Zm15.831 7.011H3.5c-3.412 0-6.953-2.154-7.847-4.624L-8.774-9.795h5.211l2.544 6.988h13.828l-2.546-6.988h5.606L20.3 2.387c.901 2.47-1.072 4.624-4.469 4.624" style="fill:#0068b7;fill-opacity:1;fill-rule:nonzero;stroke:none" transform="translate(269.475 316.07)"/><path d="M0 0c25.495 0 50.979-18.364 76.468-18.364C73.102-82.463 79.154-118.401 0-183.866-79.14-118.401-73.103-82.463-76.466-18.364-50.984-18.364-25.487 0 0 0" style="fill:#d5d8dd;fill-opacity:1;fill-rule:nonzero;stroke:none" transform="translate(305.818 514.073)"/><path d="M0 0c23.554 0 47.121-16.98 70.684-16.98C67.582-76.235 73.165-109.459 0-169.979c-73.159 60.52-67.586 93.744-70.686 152.999C-47.126-16.98-23.564 0 0 0" style="fill:#fff;fill-opacity:1;fill-rule:nonzero;stroke:none" transform="translate(305.818 508.602)"/><path d="M0 0c22.823 0 45.652-16.445 68.485-16.445C65.474-73.858 70.88-106.043 0-164.681c-70.885 58.638-65.469 90.823-68.483 148.236C-45.654-16.445-22.827 0 0 0" style="fill:#a0d2f2;fill-opacity:1;fill-rule:nonzero;stroke:none" transform="translate(305.818 505.948)"/><path d="M0 0c-13.831-13.804-34.801-7.917-42.494 4.588-5.162 8.376-4.851 16.933-1.299 22.564 3.536 5.627 8.37 8.791 17.348 9.567 11.231.98 20.838-9.956 15.893-21.718-4.928-11.763-19.559-11.459-27.373-3.484C-36.052-1.355-18.664-12.006 0 0m-79.916 11.517c1.086-21.492 14.817-33.364 29.261-46.121 12.623-11.162 15.638-23.084 18.557-35.369 3.282 12.103 4.199 24.87-.717 33.682C-17.47-45.579 1.31-43.23 16.26-34.304c-7.688-.407-18.415-.397-24.8 2.622 30.408 6.257 32.422 28.569 42.321 49.791 8.906 19.138 28.285 18.339 41.675 17.979-21.173 10.708-45.625 9.134-58.883-10.323 6.7 13.926 17.871 16.695 31.285 21.344 16.343 5.665 25.455 31.346 22.357 50.098-7.581-21.211-16.336-29.512-35.243-37.056 4.634 3.81 6.67 14.243.821 21.818-.38-6.71-3.693-12.744-9.564-17.486-12.182-9.795-14.733-13.627-15.759-30.08-4.635 27.052-38.545 35.632-60.612 24.526 1.334 6.012-4.651 14.758-10.291 18.482 1.12-9.099-.262-17.685-7.006-26.895-8.592-11.724-13.201-24.297-12.477-38.999" style="fill:#231916;fill-opacity:1;fill-rule:nonzero;stroke:none" transform="translate(332.969 422.337)"/><path d="M0 0c-.928 23.649-17.567 25.647-31.11 31.144-17.372 7.064-25.682 31.781-22.567 50.533 7.575-21.211 16.326-29.511 35.226-37.055-4.632 3.81-6.649 14.243-.804 21.817.371-6.71 3.674-12.744 9.567-17.485C2.467 39.159 10.448 30.731 0 0" style="fill:#231916;fill-opacity:1;fill-rule:nonzero;stroke:none" transform="translate(253.16 437.866)"/><path d="M0 0c11.367 4.761 19.795 21.725 21.6 35.282 0 0-6.352-17.572-24.288-24.596C-20.617 3.661-25.811-5.53-30.45-21.48-24.092-6.82-11.378-4.752 0 0" style="fill:#f39700;fill-opacity:1;fill-rule:nonzero;stroke:none" transform="translate(379.269 472.68)"/><path d="M0 0c-11.389 4.761-19.814 21.725-21.617 35.282 0 0 6.357-17.572 24.282-24.596C20.6 3.661 25.793-5.53 30.427-21.48 24.062-6.82 11.36-4.752 0 0" style="fill:#f39700;fill-opacity:1;fill-rule:nonzero;stroke:none" transform="translate(223.408 472.68)"/><path d="M0 0c5.701 4.293 9.048 12.494 8.04 18.317 0 0-.959-8.399-10.041-14.965-9.073-6.577-10.636-11.364-10.873-18.726C-11.465-8.163-5.73-4.279 0 0" style="fill:#f39700;fill-opacity:1;fill-rule:nonzero;stroke:none" transform="translate(361.389 479.415)"/><path d="M0 0c-5.721 4.293-9.049 12.494-8.067 18.317 0 0 .979-8.399 10.048-14.965 9.086-6.577 10.654-11.364 10.88-18.726C11.447-8.163 5.701-4.279 0 0" style="fill:#f39700;fill-opacity:1;fill-rule:nonzero;stroke:none" transform="translate(241.277 479.415)"/><path d="M0 0c-1.529 28.966-36.611 40.768-62.167 26.436 0 0 2.984 9.221-3.929 17.67 1.325-9.383-1.057-14.839-8.934-25.873-7.548-10.548-12.294-25.908-8.305-42.056 3.994-16.146 17.606-27.168 23.704-32.24 6.118-5.076 15.183-12.797 18.682-28.827.621 16.924-3.259 23.765-11.965 32.849C-28.883-73.394-3.59-63.89-3.59-63.89c-16.42-.499-25.69 5.393-28.558 8.357 8.165-2.917 22.2 1.336 29.429 6.487 13.142 9.815 18.602 27.801 23.257 39.04C24.621-.173 35.808 13.24 55.51 10.863 33.968 17.388 14.315 7.828 5.1-11.596c-8.661-18.214-16.338-24.26-28.069-26.417-11.718-2.15-25.233 4.275-31.749 13.856 1.285-7.695 12.403-22.587 32.169-22.272-21.319-4.213-34.893 12.883-38.434 23.082-5.615 19.534 4.588 38.134 25.682 41.025-4.764-1.505-11.908-5.763-14.14-10.585 3.25 3.261 11.233 6.758 19.132 5.288 7.917-1.465 15.639-7.537 15.659-19.323.027-11.776-13.959-22.329-26.67-14.353 3.179-5.947 14.535-9.673 23.507-6.782C-8.845-25.2.835-15.636 0 0" style="fill:#f39700;fill-opacity:1;fill-rule:nonzero;stroke:none" transform="translate(341.463 449.49)"/></g></svg>