<svg xmlns="http://www.w3.org/2000/svg" xml:space="preserve" width="312.024691834" height="320.487456977" x="0px" y="0px" viewBox="0 0 418.736 430.093"><path fill="#FABF00" d="m390.476 101.903-13.917.887-1.294.071c-23.047 1.039-44.065-13.249-51.109-34.742-1.245-3.789-1.825-7.578-1.74-11.277.047-1.905.277-3.821.688-5.689l1.779-7.992-7.587-5.931C299.485 23.358 262.024.095 211.331 0c-50.742.095-88.208 23.358-106.018 37.229-.004 0-7.643 5.979-7.643 5.979l1.83 7.944c.415 1.869.651 3.784.698 5.689.081 3.699-.504 7.488-1.746 11.277-7.042 21.5-28.065 35.782-51.112 34.743l-15.121-.896v17.419c0 17.003 1.75 77.043 24.51 135.442 26.581 68.179 71.925 123.139 134.796 163.346a386.56 386.56 0 0 0 13.234 8.09l6.543 3.832 6.553-3.832a396.561 396.561 0 0 0 13.235-8.09c62.861-40.207 108.215-95.167 134.791-163.346 22.764-58.399 24.538-118.439 24.538-135.442l.057-17.481z"/><path fill="#DC5310" d="M211.302 12.984c-46.225.081-80.492 20.853-98.02 34.492 38.646 71.119 82.422 246.972 85.229 359.744a363.587 363.587 0 0 0 12.791 7.832 358.367 358.367 0 0 0 12.796-7.832c2.807-112.772 46.585-288.625 85.229-359.744-17.522-13.64-51.793-34.411-98.025-34.492z"/><path fill="#00615A" d="M377.44 115.741c-.528.033-1.053.071-1.586.09-28.935 1.307-55.294-17.004-64.031-43.665-1.732-5.292-2.501-10.544-2.387-15.62.065-2.841.41-5.576.999-8.204-.358-.289-.736-.576-1.108-.865-38.645 71.119-82.423 246.972-85.229 359.744 60.46-38.659 104.087-91.448 129.691-157.112 21.107-54.153 23.651-111.004 23.651-130.724 0-.643-.005-1.256-.015-1.841.011-.633.015-1.233.015-1.803zM112.173 48.341a42.106 42.106 0 0 1 1.002 8.204c.117 5.076-.652 10.328-2.383 15.62-8.738 26.661-35.098 44.972-64.038 43.665-.527-.019-1.056-.057-1.579-.09 0 .57.005 1.17.005 1.802 0 .585-.005 1.198-.005 1.841 0 19.72 2.538 76.571 23.65 130.724 25.595 65.664 69.227 118.453 129.686 157.112-2.807-112.772-46.583-288.625-85.229-359.744-.373.29-.75.578-1.109.866z"/><g fill="#002928"><path d="M191.831 291.952v-9.025h12.526v-13.409l7.002 3.858v24.757l8.864 9.134h28.025l8.859-9.134v-53.521l-8.539-8.517h-28.681l-8.487 8.479-7.284-8.492h-47.033l9.479 12.86v58.324h35.002l-9.733-15.314z"/><path d="M285.521 234.558s3.845-28.3 6.704-49.45v41.528l9.577 11.634 30.172 7.771s13.238-7.831 13.295-7.86v11.683l62.098 28.185 11.37-147.081h-81.272l2.347 5.128c-2.638-2.208-5.728-4.808-5.728-4.808h-31.248l-3.773 3.274.476-3.454H192.482l-11.483 7.614v-7.893l-59.267-.114s4.558 14.811 4.689 15.258v49.086c-3.51-22.49-10.017-64.093-10.017-64.093H79.483s5.331 15.073 5.585 15.78c-.081.581-5.43 37.914-8.883 62.064v-23.778l.297-.032s-.108-.052-.296-.137v-40.966l-10.2-12.932h-50.11L0 145.422l15.956 121.61 19.01 8.563 36.171-20.953 58.158-18.531 51.704-7.535v-7.194l11.837 8.224h28.407l12.701-8.818v-46.887l6.052 55.45 45.525 5.207z"/></g><g fill="#EFEFF0"><path d="M251.849 278.864v14.511l-5.827 6.016h-23.571l-5.837-6.016v-49.202l5.449-5.445h24.332l5.454 5.445v22.599l-11.48-6.506v-11.631h-12.228v40.476h12.196v-16.569zM201.659 238.713h-34.285l4.444 6.144v54.492h16.965l-5.468-8.557v-15.504h15.792v-9.965h-15.792v-16.682h12.672v7.733l11.517 6.416v-17.051z"/></g><g fill="#EFEFF0"><path d="M110.466 134.882H89.174s2.854 8.072 2.972 8.396c-.057.355-13.984 97.624-13.984 97.624l22.528-6.793s-4.085-6.842-4.297-7.195c.023-.406.589-9.644.646-10.602.887-.18 10.313-2.137 11.478-2.378.223 1.307 2.841 17.269 2.841 17.269l17.513-5.591s-4.939-5.878-5.18-6.162c-.057-.396-13.225-84.568-13.225-84.568zm-4.081 66.423c-1.006.165-6.771 1.114-8.11 1.321.155-1.501 3.147-30.271 4.114-39.711.977 9.385 3.878 37.287 3.996 38.39zM161.477 142.024v33.403c-2.156-7.224-12.163-40.796-12.163-40.796H131.011s2.266 7.351 2.327 7.558v83.032l16.088-2.317s-3.52-7.364-3.652-7.647v-44.188l15.965 50.741 12.347-1.812v-85.253h-14.895c.001 0 2.215 7.082 2.286 7.279zM273.862 134.882s2.16 6.935 2.236 7.213c-.019.245-2.533 24.868-3.444 33.841-1.047-9.469-4.524-40.956-4.524-40.956h-8.545l-5.029 40.239c-.914-8.998-4.104-40.338-4.104-40.338h-16.988s4.095 6.798 4.25 7.058l8.573 78.577 11.507 1.339s4.241-26.585 5.312-33.308c1.025 6.779 5.177 34.45 5.177 34.45l11.347 1.213 12.04-89.329h-17.808zM410.555 134.882h-23.858s3.406 12.817 3.473 13.03c-.014.217-2.533 44.849-2.996 52.987-1.849-8.248-14.79-66.018-14.79-66.018H348.1s3.948 8.638 4.08 8.917v99.015l17.392 8.029-2.152-11.29s.015-48.788.015-58.997c2.298 10.45 16.852 76.704 16.852 76.704l16.942 7.757 10.063-130.135h-.737zM305.288 135.25l-6.151 5.449v80.78l6.638 8.059 25.122 6.473 8.089-4.789v-89.745l-7.475-6.227h-26.223zm8.3 13.304h10.021v71.273c-1.297-.239-9.077-1.642-10.006-1.796l-.015-69.477zM201.697 207.108v-59.384h10.639v14.342l14.696 8.067v-30.067l-7.512-4.912h-24.938l-7.54 4.912v74.455l8.001 5.567h23.981l8.007-5.567v-39.929l-25.104-.019 5.614 12.498h4.788v20.036h-10.632zM69.263 182.636v-39.268l-6.684-8.486H18.607L7.299 145.176 22.33 259.695l12.229 5.506 30.874-17.881 3.831-10.716v-49.17l-34.095 3.181 9.577 16.149 7.572-1.07v30.557c-2.972 1.255-12.598 5.313-13.956 5.884-.131-1.948-5.907-88.758-6.001-90.272H52.38v20.019l16.883 10.754z"/></g><g fill="#FABF00"><path d="M153.399 329.898h-5.143v-1.784c0-1.133-.048-1.84-.146-2.123-.099-.287-.325-.434-.685-.434-.311 0-.524.127-.637.363-.108.246-.165.873-.165 1.883v9.469c0 .882.057 1.472.165 1.75.113.279.335.42.665.42.369 0 .614-.16.742-.477.131-.316.198-.934.198-1.854v-2.345h-.996v-2.987h6.002v10.588h-3.241l-.477-1.412c-.349.615-.798 1.072-1.321 1.379-.529.302-1.151.447-1.878.447a4.918 4.918 0 0 1-2.415-.617c-.75-.424-1.321-.944-1.708-1.557a5.095 5.095 0 0 1-.736-1.949c-.095-.679-.142-1.697-.142-3.053v-5.869c0-1.881.104-3.254.302-4.113.208-.85.788-1.629 1.75-2.346.968-.707 2.209-1.065 3.733-1.065 1.504 0 2.75.311 3.75.93.99.617 1.632 1.354 1.93 2.198.302.858.453 2.09.453 3.703v.855zM162.986 326.293c.226.203.335.609.335 1.236v1.085c0 .878-.113 1.388-.35 1.542-.227.161-.627.236-1.203.236V326c.591 0 .997.1 1.218.293zm-6.36 16.075h5.143v-8.903c.707 0 1.141.128 1.307.382.16.256.246.906.246 1.968v6.554h4.755v-5.201c0-1.594-.047-2.564-.127-2.919-.084-.358-.306-.741-.656-1.165-.354-.424-1.028-.765-2.042-1.015 1.118-.108 1.868-.42 2.254-.947.379-.529.571-1.573.571-3.097 0-1.688-.264-2.92-.812-3.679-.542-.769-1.235-1.251-2.095-1.439-.854-.188-2.491-.278-4.91-.278h-3.634v19.739zM171.317 322.627h8.55v3.953h-3.402v3.737h3.181v3.755h-3.181v4.346h3.761v3.949h-8.908v-19.74zM187.345 335.323c.146-1.745.472-4.51.977-8.307.269 3.302.523 6.07.77 8.307h-1.747zm-2.959-12.696-2.608 19.74h5.308l.284-3.538h1.881l.284 3.538h5.228l-2.949-19.74h-7.428zM205.834 322.627v3.953h-3.038v15.787h-5.151V326.58h-3.039v-3.953h11.228zM225.56 322.627v13.201c0 1.49-.047 2.543-.146 3.146-.094.604-.381 1.227-.867 1.868-.481.637-1.114 1.118-1.897 1.448-.782.33-1.712.49-2.773.49-1.184 0-2.223-.188-3.128-.58-.9-.396-1.575-.9-2.024-1.523-.443-.627-.712-1.287-.788-1.987-.084-.692-.131-2.155-.131-4.382v-11.682h5.142v14.806c0 .858.052 1.414.146 1.646.09.24.284.363.563.363.324 0 .533-.137.623-.396.095-.266.142-.893.142-1.874v-14.545h5.138zM240.271 322.627v19.74h-4.511l-2.685-8.97v8.97h-4.279v-19.74h4.313l2.872 8.893v-8.893h4.29zM248.701 322.627v19.74h-5.143v-19.74h5.143zM258.581 336.772c0 1.165-.053 1.896-.146 2.203-.095.312-.316.467-.655.467-.335 0-.548-.137-.647-.4-.084-.27-.132-.977-.132-2.123v-9.215c0-1.015.071-1.627.212-1.83.137-.213.336-.316.601-.316.311 0 .519.127.617.387.099.255.151.84.151 1.76v9.067zm5.143-5.959c0-2.033-.047-3.459-.151-4.264a4.615 4.615 0 0 0-.916-2.262c-.508-.693-1.183-1.207-2.022-1.557s-1.793-.519-2.841-.519c-1.118 0-2.085.188-2.925.552s-1.5.888-1.986 1.57a4.672 4.672 0 0 0-.882 2.261c-.09.826-.146 2.236-.146 4.218v3.373c0 2.033.057 3.454.155 4.275.09.811.4 1.564.905 2.25a4.69 4.69 0 0 0 2.034 1.557c.835.345 1.789.514 2.845.514 1.108 0 2.081-.184 2.925-.546.831-.364 1.5-.889 1.991-1.571.486-.68.773-1.436.873-2.261.095-.825.142-2.23.142-4.218v-3.372zM278.358 322.627v19.74h-4.506l-2.685-8.97v8.97h-4.283v-19.74h4.317l2.867 8.893v-8.893h4.29zM193.271 368.278v3.374h-10.809v-2.817c3.203-5.256 5.1-8.506 5.704-9.756.603-1.242.91-2.218.91-2.921 0-.537-.1-.929-.273-1.198-.188-.264-.463-.401-.835-.401-.377 0-.656.147-.844.443-.18.292-.269.878-.269 1.746v1.883h-4.392v-.728c0-1.099.047-1.977.16-2.618.119-.637.397-1.264.845-1.882a4.266 4.266 0 0 1 1.741-1.406c.712-.316 1.57-.473 2.566-.473 1.953 0 3.43.482 4.43 1.455 1.01.971 1.51 2.201 1.51 3.688 0 1.132-.283 2.325-.844 3.591-.567 1.255-2.224 3.929-4.979 8.02h5.379zM203.149 366.715c0 .969-.056 1.592-.174 1.869-.113.27-.354.41-.718.41-.368 0-.608-.117-.712-.354-.108-.23-.169-.924-.169-2.07v-9.635c0-1.023.066-1.67.18-1.948.122-.288.358-.43.727-.43s.612.138.711.401c.104.27.156.92.156 1.977v9.78zm4.7-11.402a4.618 4.618 0 0 0-.858-1.839c-.429-.543-1.065-1.006-1.92-1.388-.855-.378-1.822-.563-2.892-.563-1.331 0-2.458.275-3.388.817-.929.542-1.551 1.269-1.863 2.175-.316.896-.467 2.251-.467 4.071v6.897c0 1.393.093 2.406.288 3.043.199.637.528 1.246.991 1.831.458.575 1.08 1 1.864 1.271.773.277 1.754.408 2.938.408.892 0 1.698-.127 2.416-.386a4.393 4.393 0 0 0 1.86-1.283c.513-.595.844-1.231 1.009-1.915.161-.686.246-1.779.246-3.275v-6.591c-.002-1.499-.077-2.588-.224-3.273zM217.779 366.715c0 .969-.056 1.592-.169 1.869-.113.27-.354.41-.722.41s-.6-.117-.712-.354c-.109-.23-.166-.924-.166-2.07v-9.635c0-1.023.062-1.67.175-1.948.118-.288.362-.43.728-.43.377 0 .617.138.721.401.09.27.146.92.146 1.977v9.78zm4.696-11.402a4.566 4.566 0 0 0-.859-1.839c-.419-.543-1.056-1.006-1.915-1.388-.849-.378-1.812-.563-2.892-.563-1.331 0-2.459.275-3.393.817-.925.542-1.547 1.269-1.859 2.175-.316.896-.467 2.251-.467 4.071v6.897c0 1.393.095 2.406.293 3.043.188.637.519 1.246.985 1.831.463.575 1.086 1 1.864 1.271.778.277 1.76.408 2.943.408.887 0 1.698-.127 2.411-.386a4.427 4.427 0 0 0 1.863-1.283c.51-.595.845-1.231 1.01-1.915.16-.686.246-1.779.246-3.275v-6.591c.001-1.499-.085-2.588-.23-3.273zM235.095 360.465c.727.297 1.283.731 1.675 1.312.396.585.585 1.967.585 4.156 0 1.585-.15 2.77-.462 3.524-.307.756-.911 1.369-1.798 1.858-.891.478-2.09.722-3.595.722-1.464 0-2.623-.23-3.472-.693-.854-.466-1.469-1.079-1.841-1.84-.367-.764-.552-2.033-.552-3.821 0-1.192.099-2.227.272-3.104.19-.883.771-1.59 1.741-2.113-.608-.287-1.057-.755-1.367-1.397-.297-.637-.453-1.452-.453-2.438 0-1.703.467-2.981 1.411-3.831.942-.849 2.34-1.274 4.212-1.274 2.156 0 3.653.454 4.479 1.355.825.905 1.235 2.188 1.235 3.877 0 1.063-.132 1.831-.405 2.303-.269.476-.82.942-1.665 1.404zm-2.774-4.251c0-.669-.053-1.113-.17-1.33-.114-.214-.34-.326-.666-.326-.32 0-.537.118-.646.35-.113.24-.169.67-.169 1.307v1.501c0 .594.061 1.004.192 1.235.123.227.345.341.647.341.319 0 .537-.109.65-.336.113-.222.161-.685.161-1.383v-1.359zm.114 8.219c0-.755-.071-1.265-.231-1.505-.151-.25-.397-.373-.727-.373-.326 0-.558.119-.703.354-.146.241-.213.745-.213 1.524v2.553c0 .854.081 1.401.236 1.646.16.246.41.363.751.363.354 0 .594-.121.707-.372.123-.241.18-.803.18-1.675v-2.515z"/></g><path fill="#FABF00" d="m252.33 32.837-4.666-6.176-12.196.072-11.629-1.613h-7.422l-5.724.792-4.878.929-8.836 6.199-.189-2.302 3.676-4.034-7.879-.043-4.667 6.176 3.412 6.832-3.242 11.248 3.869 16.107 10.535 8.473 3.68 4.79 6.459-16.335 4.491 17.499h7.54l-1.987 5.492h-5.773l-9.205-3.968 4.892 5.883 5.016 1.5h5.04l5.009-1.5 10.105-13.361 10.819-8.473 3.59-16.107-3.256-11.248 3.416-6.832zm-45.792 25.751-.539-2.271 5.412 1.19.551 4.647-5.424-3.566zm26.717.023-5.42 3.572.551-4.652 5.407-1.188-.538 2.268z"/><path fill="#FABF00" d="m149.237 103.573 19.537 8.577-5.265 7.582 85.913.005-8.567-4.944 3.345-3.624 11.456 8.559h6.681l-9.72-6.53 4.478-2.468 9.049 9.006h5.558l-8.336-13.885-22.676-12.076-38.545 4.925-20.075-11.805.575-1.142 19.372 7.147.646-.646-18.796-18.602-6.718-15.858 8.483-13.414-26.345-3.43-26.708 9.771c4.948 12.867 12.465 38.764 16.658 52.852z"/></svg>