<svg xmlns="http://www.w3.org/2000/svg" width="274.36636mm" height="373.62018mm" viewBox="0 0 274.36636 373.62018"><g style="stroke-width:.0296543"><path d="M58.926 56.477c.05-.227.129-.477.187-.653.004-.004.004-.008.004-.012.125.141.254.278.387.407a1.626 1.626 0 0 0-.578.258m-.028-.926a1.336 1.336 0 0 0-.503-.086c-.18 0-.36.027-.508.062.152-.191.402-.3.746-.324.086.121.176.234.265.348M51.973 41.95s.109-.06.441-.09c0 0-.055.308-.234.335-.176.024-.223-.152-.207-.246M52.188 57.887s-1.75 0-2.672-1.559c-.926-1.562-.293-2.648-.293-2.648s-1.836.914-2.075 1.754c-.195.68.235 2.02.801 2.765 1.446 1.895 3.805 2.156 3.805 2.156s-.371-1.316.434-2.468m-4.524-1.668a.503.503 0 0 1-.129-.16.32.32 0 0 1-.015-.286c.046-.117.175-.234.351-.32.375-.187.621-.086.719.098a.32.32 0 0 1 .039.156l-.188.059a.18.18 0 0 0-.027-.11c-.059-.113-.195-.16-.465-.023-.246.125-.293.25-.25.332l.02.031.25-.129-.04-.078.16-.082.122.234zm.031.277.965-.648.086.18-.39.238c-.118.07-.231.132-.352.203l.004.004c.133-.047.254-.082.387-.125l.44-.133.067.137-.379.253c-.113.075-.218.145-.347.22v.003c.14-.055.258-.098.383-.14l.43-.157.077.168-1.109.344-.082-.18.313-.215c.09-.058.203-.128.324-.199l-.004-.004c-.133.043-.254.086-.363.114l-.368.105zm.758.914-.234.121-.114-.144 1.047-.524.137.184-.805.84-.109-.145.184-.191zm.234.024.172-.172c.051-.051.133-.13.192-.18l-.004-.004c-.067.035-.172.098-.23.129l-.212.113zm-.046.617.797-.828.125.12-.204.43c-.043.082-.109.223-.16.313l.004.004c.078-.094.207-.246.356-.399l.175-.18.118.114-.797.828-.125-.121.195-.418c.047-.094.113-.227.172-.316l-.004-.004c-.078.086-.195.219-.355.386l-.18.184zm1.086.863a.508.508 0 0 1-.192-.078.32.32 0 0 1-.148-.242c-.02-.125.043-.293.156-.453.238-.344.504-.371.676-.254.058.039.094.086.11.117l-.138.14a.177.177 0 0 0-.078-.085c-.105-.07-.25-.043-.418.203-.156.226-.132.363-.062.41.015.012.027.016.035.02l.156-.231-.074-.047.105-.152.215.148zm.8-.832.172.086-.351.695c-.149.297-.293.282-.414.219a.27.27 0 0 1-.079-.059l.098-.16c.016.012.031.024.05.035.052.024.102.024.169-.109zm.48.211-.241.703c-.059.156-.032.223.011.238.055.02.106-.011.164-.175l.247-.707.175.066-.23.664c-.098.277-.238.398-.418.336-.192-.066-.211-.246-.117-.52l.234-.668zm0 0" style="fill:#9c2130;fill-opacity:1;fill-rule:nonzero;stroke:none;stroke-width:.0296543" transform="matrix(11.89636 0 0 11.89636 -520.389 -369.624)"/><path d="M52.105 53.23c-.285.415-.578.395-.578.395.172-.125.297-.29.383-.441a4.29 4.29 0 0 0-.32-.051c-.274.375-.55.351-.55.351.148-.105.257-.242.343-.375a8.34 8.34 0 0 0-.36-.02c-.246.274-.468.259-.468.259.101-.078.191-.168.261-.262h-.113c-.168 0-.344.004-.531.012a5.241 5.241 0 0 0-.453.433 1.585 1.585 0 0 0-.399.977c.11-.168.282-.387.512-.512 0 0-.312.363-.496.926.008.074.023.152.035.223.094-.165.293-.47.586-.633 0 0-.316.375-.504.941.02.055.035.102.05.152.09-.16.294-.488.599-.656 0 0-.305.36-.493.91.114.25.215.407.215.407.059-1.192 1.41-1.907 2.535-2.528.153-.086.426-.304-.254-.508" style="fill:#9c2130;fill-opacity:1;fill-rule:nonzero;stroke:none;stroke-width:.0296543" transform="matrix(11.89636 0 0 11.89636 -520.389 -369.624)"/><path d="M50.277 54.934a.167.167 0 0 0-.039-.094.172.172 0 0 0-.136-.067.164.164 0 0 0-.082.024c-.032.016-.06.035-.09.055.09-.145.16-.227.16-.227a.176.176 0 0 0 .004-.223.174.174 0 0 0-.137-.062.21.21 0 0 0-.082.02 1.1 1.1 0 0 0-.14.093c.12-.219.23-.344.23-.348a.176.176 0 0 0 .004-.222.187.187 0 0 0-.137-.063.21.21 0 0 0-.082.02l-.074.047c.047-.086.105-.164.172-.239.113-.125.242-.25.394-.378.055-.004.11-.004.16-.008a.194.194 0 0 0-.011.14c.023.07.093.118.171.118a.684.684 0 0 0 .317-.09.187.187 0 0 0 0 .113c.023.07.094.117.168.117.05 0 .172-.012.32-.09a.174.174 0 0 0 0 .11c.024.07.094.12.168.12.086 0 .36-.03.637-.366.11.039.16.074.183.093a.453.453 0 0 1-.082.059l-.105.059c-.672.37-1.395.773-1.89 1.289M45.55 48.8s.938-.538.868-1.362c0 0-.414.394-1.27.874-.445.25-.863.602-1.125 1.094a.753.753 0 0 1 .368-.152s-.29.16-.528.527c-.027.09-.054.188-.074.29.121-.157.305-.337.547-.376 0 0-.371.243-.59.75-.004.098-.004.2.004.305.07-.176.246-.516.566-.61 0 0-.421.356-.523 1.024.02.102.039.207.066.316 0 0 .746-2.703 2.536-1.62 0 0 .144-1.036-.844-1.06" style="fill:#9c2130;fill-opacity:1;fill-rule:nonzero;stroke:none;stroke-width:.0296543" transform="matrix(11.89636 0 0 11.89636 -520.389 -369.624)"/><path d="M44.434 50.012a.165.165 0 0 0-.118-.047c-.011 0-.023 0-.035.004.086-.082.145-.125.149-.125.066-.047.097-.133.066-.207a.171.171 0 0 0-.16-.114h-.02c.09-.078.157-.117.157-.117a.174.174 0 0 0 .082-.203.18.18 0 0 0-.106-.113c.203-.238.465-.445.785-.625a8.28 8.28 0 0 0 .95-.617c-.184.484-.715.8-.723.804a.17.17 0 0 0-.078.192.18.18 0 0 0 .164.133c.23.003.402.074.515.207.098.113.141.261.157.39a1.546 1.546 0 0 0-.633-.144c-.484 0-.863.254-1.152.582M58.719 55.023c-.414.012-1.004.141-1.145.774 0 0 .84-.34 1.375-.031 0 0-.308.87-.246 1.195 0 0 .274-.57 1.18-.625a7.626 7.626 0 0 1-1.164-1.313" style="fill:#9c2130;fill-opacity:1;fill-rule:nonzero;stroke:none;stroke-width:.0296543" transform="matrix(11.89636 0 0 11.89636 -520.389 -369.624)"/><path d="M58.922 56.473a5.69 5.69 0 0 1 .191-.649c0-.008 0-.012.004-.015.125.14.25.277.383.406a1.66 1.66 0 0 0-.578.258m-.027-.926a1.41 1.41 0 0 0-.5-.086c-.184 0-.364.027-.512.062.152-.191.402-.3.75-.324.086.121.172.238.262.348M61.797 57.469c.082.027.164.054.246.078a2.795 2.795 0 0 1-.363.652c-1.442 1.895-3.805 2.156-3.805 2.156s.371-1.316-.43-2.468c0 0 1.645 0 2.586-1.426.074.062.153.125.227.18l.012.011.199.141a1.6 1.6 0 0 1-.531.582s.402-.094.746-.437c.02.007.039.023.054.03.008.005.016.012.024.016.062.036.125.075.187.11-.105.191-.27.394-.511.554 0 0 .398-.093.742-.433l.058.023c.012.008.024.012.035.02.063.031.125.055.188.082-.106.2-.273.414-.527.578 0 0 .433-.102.785-.477l.035.012c.012.008.031.012.043.016m-2.969 1.949.184-.063-.157-.464.22-.07-.063-.184-.215.074-.098-.29.23-.077-.062-.192-.418.141zm1.055-.684a.314.314 0 0 1-.078.059c-.106.055-.239 0-.367-.254-.133-.262-.098-.406 0-.457a.193.193 0 0 1 .093-.023l-.058-.184c-.024-.008-.075 0-.137.031-.172.09-.281.34-.078.739.156.296.379.464.605.347a.353.353 0 0 0 .125-.094zM45.559 51.633c-.04.246-.012.375.074.39.086.012.144-.144.176-.359.03-.187.027-.363-.067-.379-.082-.012-.148.121-.183.348M47.105 51.727h.04c.09.003.148-.07.148-.164.004-.094-.031-.16-.125-.165-.016 0-.04 0-.05.004zM48.09 51.754c.008.004.02.004.035.004.105-.004.152-.078.148-.18 0-.094-.039-.168-.136-.168-.02 0-.04.004-.055.012zM48.805 51.715l.039-.004c.09-.004.14-.078.136-.172-.003-.094-.043-.156-.14-.156a.168.168 0 0 0-.047.008zM49.988 52.11c.008 0 .024 0 .035.003.102 0 .192-.101.192-.398 0-.223-.055-.356-.184-.36-.011 0-.027 0-.039.004zM56.023 62.168c.028-.008.051-.02.082-.035.188-.078.454-.18.653-.188.289-.011.758.399.933.532-.129-.18-.543-.649-.53-.938.01-.2.112-.465.19-.652.012-.028.024-.055.04-.078.101-.25.168-.512.191-.774-.078.32-.363.977-.758 1.102-.23.074-.539-.11-.66-.192.082.121.266.43.191.664-.125.395-.78.676-1.101.754.262-.023.523-.09.77-.195" style="fill:#9c2130;fill-opacity:1;fill-rule:nonzero;stroke:none;stroke-width:.0296543" transform="matrix(11.89636 0 0 11.89636 -520.389 -369.624)"/><path d="M57.059 61.84a.762.762 0 0 0-.29-.07h-.019c-.09.003-.191.023-.309.054a.634.634 0 0 0 .079-.164.647.647 0 0 0 .003-.355.717.717 0 0 0 .184.023.496.496 0 0 0 .172-.027.528.528 0 0 0 .164-.078c-.031.117-.05.218-.055.308-.004.098.024.2.07.309M52.242 58.387c.012-.024.024-.051.035-.078.082-.192.184-.454.192-.653.011-.293-.403-.758-.531-.937.175.129.644.543.933.531.2-.008.465-.11.652-.191a2.655 2.655 0 0 1 .852-.23c-.316.077-.973.362-1.102.757-.074.23.11.543.192.66-.117-.082-.43-.262-.66-.191-.395.129-.68.785-.758 1.101.027-.261.09-.523.195-.77" style="fill:#9c2130;fill-opacity:1;fill-rule:nonzero;stroke:none;stroke-width:.0296543" transform="matrix(11.89636 0 0 11.89636 -520.389 -369.624)"/><path d="M52.586 57.969c.035-.117.05-.219.055-.309a.695.695 0 0 0-.067-.305.72.72 0 0 0 .285.067h.02c.09-.004.191-.02.308-.055a.793.793 0 0 0-.078.164.7.7 0 0 0-.004.36.717.717 0 0 0-.355 0 .9.9 0 0 0-.164.078M52.242 60.805l.035.082c.082.187.184.453.192.652.011.29-.403.758-.531.934.175-.13.644-.543.933-.528.2.008.465.11.652.188.032.012.059.027.082.035.247.105.508.172.77.195-.316-.078-.973-.36-1.102-.758-.074-.23.11-.539.192-.66-.117.082-.43.266-.66.192-.395-.125-.68-.782-.758-1.102.027.262.09.524.195.77" style="fill:#9c2130;fill-opacity:1;fill-rule:nonzero;stroke:none;stroke-width:.0296543" transform="matrix(11.89636 0 0 11.89636 -520.389 -369.624)"/><path d="M52.574 61.84c.047-.11.07-.211.067-.309a1.256 1.256 0 0 0-.055-.308c.05.035.11.062.164.078.055.02.113.027.172.027.062 0 .125-.012.187-.023a.647.647 0 0 0 0 .355c.02.059.047.113.079.164a1.474 1.474 0 0 0-.31-.054h-.019a.728.728 0 0 0-.285.07M56.023 57.023l.082.036c.188.082.454.183.653.191.289.012.758-.402.933-.531-.129.176-.543.644-.527.937.008.196.106.465.188.649.011.03.027.058.035.082.105.246.172.508.195.77-.078-.317-.363-.973-.754-1.102-.234-.075-.547.11-.664.191.082-.117.266-.43.191-.66-.128-.395-.78-.68-1.101-.754.262.023.523.086.77.191" style="fill:#9c2130;fill-opacity:1;fill-rule:nonzero;stroke:none;stroke-width:.0296543" transform="matrix(11.89636 0 0 11.89636 -520.389 -369.624)"/><path d="M57.043 57.969a.793.793 0 0 0-.164-.078.716.716 0 0 0-.355 0 .66.66 0 0 0-.079-.524 1.2 1.2 0 0 0 .305.055h.02c.09 0 .187-.024.289-.067a.703.703 0 0 0-.07.305c.003.09.023.192.054.309M54.25 59.598c0 .355-.344.851-.605 1.172.316-.266.812-.606 1.167-.61h.004c.352.004.852.344 1.172.61-.265-.32-.61-.817-.61-1.172.005-.356.345-.852.61-1.172-.32.265-.82.605-1.172.605h-.004c-.355 0-.851-.34-1.167-.605.261.32.605.816.605 1.172" style="fill:#9c2130;fill-opacity:1;fill-rule:nonzero;stroke:none;stroke-width:.0296543" transform="matrix(11.89636 0 0 11.89636 -520.389 -369.624)"/><path d="M54.27 60.14c.09-.183.152-.37.152-.542 0-.172-.063-.36-.152-.547.183.09.37.152.542.156a1.37 1.37 0 0 0 .547-.156c-.09.187-.152.375-.152.547 0 .168.063.359.152.543a1.285 1.285 0 0 0-.543-.153 1.3 1.3 0 0 0-.546.153M50.23 36.61c.149-.942.672-1.407.672-1.407.028-.289.258-1 .258-1 .16-1.062-.379-1.379-.379-1.379-1.062.89-1.207 3.235-1.207 3.235.328.078.656.55.656.55m9.668-.87c.043.468-.265 1.292-.265 1.292.328-.136.898-.07.898-.07s.297-.34.828-1.438c.684-1.414.438-1.937.438-1.937-.895.02-1.332 1.078-1.332 1.078-.149.512-.567 1.074-.567 1.074m-8.218.114c.136-.985.87-1.45.87-1.45.04-.722.532-1.449.532-1.449.031-.664-.297-1.055-.297-1.055s-.59.192-1.031 1.149c-.445.96-.684 2.172-.684 2.172.309.117.61.633.61.633m-2.84 1.96c.086-1.214.578-1.718.578-1.718.11-1.61-.504-2.157-.504-2.157-.246.188-.465.52-.57.766-.418 1.02-.348 2.54-.348 2.54.473.046.844.57.844.57m-1.227 1.085c-.062-1.175.196-1.503.196-1.503-.172-1.348-.996-1.715-.996-1.715-.583.843-.137 3.093-.137 3.093.492-.086.937.125.937.125m13.614-.265a1.75 1.75 0 0 1-.547 1.199c.28-.039.59.137.59.137s1.187-.703 1.82-1.469c.765-.926.523-1.57.523-1.57-.547-.012-.945.457-1.32.812-.371.352-1.066.89-1.066.89m1.57 2.282c-.672.297-1.613.383-1.613.383.132.031.234.09.234.09-.133.535-.594.918-.594.918s.91.023 2.008-.328c1.172-.372 1.324-1.211 1.324-1.211-.21-.157-.687-.153-1.36.148m-1.331-.785c-.086.781-.945 1.172-.945 1.172s1.265-.184 2.386-.832c1.121-.653 1.153-1.477 1.153-1.477-.278-.125-.704-.004-1.211.34-.508.344-1.383.797-1.383.797m-14.676.246c-.3-.684-.258-1.207-.258-1.207-.52-1.336-1.402-1.32-1.402-1.32-.309 1.222.715 2.672.715 2.672.36-.204.945-.145.945-.145m13.89-3.309c.044.676-.3 1.223-.3 1.223.469.027.684.156.684.156s.906-.89 1.453-1.78c.543-.888.304-1.571.304-1.571-.222-.012-.57.07-.851.472-.285.399-.778.922-.778.922a6.568 6.568 0 0 1-.511.578m5.984 16.145c-.254-.422-.656-.27-.656-.27.68.47.101 1.336-.95 1.739-.949.367-2.292.324-3.328-.27-2.18-1.25-2.972-3.11-2.957-3.617.02-.504 1.524-.691 2.586-.707 1.067-.02 1.895.422 1.809.96-.086.544-.691.509-.691.509 1.03.558 1.722-.137 1.906-.743.187-.609-.067-1.843-1.113-2.18-1.047-.339-2.145.2-3.075.153-.953-.055-1.539-.762-1.539-.762s.254.524-.254.676c-.507.153-1.148-.386-1.148-.386s.219.605-.336.605c-.559 0-.89-.379-.89-.379-.114.414-.465.39-.747.25-.308-.148-.543-.426-.543-.426-.234 1.637 1.235 2.875 1.809 3.23.574.356.988.973 1.84 2.497 1.133 2.027 2.922 3.515 5.152 3.41 1.758-.078 1.707-1.52 1.707-1.52-.441.407-2.281.473-4.074-.472-1.79-.946-1.977-2.028-1.977-2.028 1.016 1.758 4.887 2.973 6.336 2.114 1.453-.864 1.387-1.961 1.133-2.383M45.777 42.297c.25-.246.82-.211.82-.211-.71-.469-.82-1.18-.82-1.18-.941-1.004-1.687-.672-1.687-.672-.04 1.215 1.687 2.063 1.687 2.063m3.621 4.773c-.023-.12-.027-.351-.027-.351-.555.297-1.14.199-1.14.199a3.167 3.167 0 0 1-.114-.316s-.254.191-.562.476c-.309.285-.239.754-.239.754 1.192.188 2.082-.762 2.082-.762m3.063.555c.531-1.059 1.152-1.672 1.773-2.488.625-.817.832-1.696.602-2.188-.23-.496-.797-.543-.98-.886-.184-.348.773-.461.773-.461-.047-.485.55-.786.91-.887.356-.106.723-.508.723-.508-.309 0-.84.07-1.29.348-.449.273-1.07.55-1.519.55-.45 0-.922.082-.922.082-.093-.37.207-.773.61-1.003.406-.23 1.293-.598 1.949-1.473.656-.879.539-1.961.539-1.961s-.172.496-.598.832c-.36.281-.781.242-.781.242-.234 1.254-1.328 1.715-1.95 1.98-.62.266-.538.669-.46.794.082.129.207.496.207.566 0 .066-.067.137-.067.137-.164.07-.37.242-.437.39-.07.153-.129.211-.29.301-.233.13-.698.16-.827.606-.133.445.101.601.101.601.04-.16.141-.3.305-.41a.26.26 0 0 0-.035.133c0 .164.133.297.293.3-.121.137-.156.278-.156.278s.328-.18.597-.344c.274-.168.633-.21.633-.21a.595.595 0 0 0-.148-.36c.277.082.402.277.375.457-.04.262.093.5.093.5.184-.25.575-.473.575-.473.015-.328-.301-.683-.301-.683.433.093.512.55.512.55s.25.016.378.329c.2.472-.68 1.312-1.414 1.574-.734.262-1.629.222-2.297-.106-.566-.277-1.363-1.625-.773-3.187.59-1.559 2.73-2.348 3.41-2.7.684-.355.707-.695.801-2.53.09-1.837 1.246-3.383 1.707-4.122.457-.734.219-1.125.219-1.125-1.203.407-2.254 2.059-2.422 2.676-.129.461-.168.559.043 1.172.285.82-.098 1.828-.098 1.828s.067-.523.04-1.14c-.028-.618-.266-.993-.266-.993-.293.2-.5.508-.618.848-.34.957-.332 2.164-.332 2.164-.273-.46-.015-1.488-.015-1.488-.074-.336-.637-.762-.637-.762-.176.148-.351.434-.445.691-.41 1.114-.117 2.266-.117 2.266-.356-.207-.246-1.367-.246-1.367-.126-.496-.653-.715-.653-.715-.203.207-.312.496-.39.77-.336 1.187.007 2.414.007 2.414-.347-.258-.336-1.266-.336-1.266-.25-.633-.82-.711-.82-.711-.234.55-.242 1.172-.144 1.668.164.793.597 1.336.597 1.336-.562-.207-.773-1.188-.773-1.188-.223-.449-.977-.3-.977-.3s-.078.613.305 1.425c.383.813 1.078 1.102 1.078 1.102-.746-.02-1.191-.914-1.191-.914-.477-.133-.938.129-.938.129-.027.191.137.7.563 1.078.582.527 1.453.777 1.453.777-.57.106-1.086-.28-1.086-.28-.91-.13-1.125.327-1.125.327.058.45.453.7 1.035.86.582.164 1.309.117 1.309.117-.465.254-1.215.097-1.215.097-.555.125-.742.649-.742.649.28.379.62.476 1.011.457.645-.027 1.328-.371 1.328-.371-.277.43-1 .531-1 .531-.246.395-.343.89-.343.89.957.434 2.066-.71 2.066-.71-.02.433-.93.836-.93.836-.093.437.067.804.067.804 1.367.047 1.933-1.246 1.933-1.246.078.489-.734 1.102-.734 1.102-.063.23.094.605.094.605.562.055.89-.246.89-.246.203-.691.641-1.094.989-1.367.449-.352 1.109-.57 1.109-.57s-1.586.804-1.895 2.23c-.296 1.39.223 1.848.73 2.246.395.313.845.758.845.758-.032-.133-.157-.441-.188-.828a3.596 3.596 0 0 1 .344-1.836M51.387 43c.004-.027.008-.05.008-.078a.298.298 0 0 0-.223-.29c.11-.03.238-.058.379-.073.11-.012.21-.012.297-.004-.02.183-.254.32-.461.445m1.136-1.148s-.027.418-.316.468c-.289.055-.367-.207-.355-.328 0 0-.118.043-.196.121 0 0-.078-.25.383-.316.457-.067.574-.067.813-.172 0 0-.106.172-.329.227m4.34 14.988s.082-.082.024-.25c-.102-.266-.84-.637-1.059-.867-.219-.23-.332-.188-.426-1.11-.097-.918-.129-1.379-.324-1.902-.086-.227-.148-.406-.086-.625.063-.219 1.285-.344 1.285-.344-1.922-1.312-2.082-2.969-1.664-4.039.063.07.121.152.18.25.336.61.812.633.812.633.188-.332-.113-.95-.203-1.367-.093-.414.055-.602.055-.602s.04.488.344 1.074c.394.75.945.743.945.743.363-.215-.195-1.094-.308-1.47-.11-.374-.012-.53-.012-.53s.27.843.855 1.398c.43.406.852.258.852.258.289-.48-.313-1.031-.559-1.352-.246-.32-.219-.59-.219-.59s.247.383.852.942c.61.558 1.29.496 1.29.496.136-.527-.497-1.043-.817-1.32-.32-.278-.364-.547-.364-.547s.457.445 1.082.812c.91.528 1.48.282 1.48.282.099-.54-.882-.985-1.276-1.215-.395-.235-.426-.438-.426-.438s.894.512 1.89.63c.993.12 1.332-.313 1.332-.313-.207-.477-1.023-.622-1.628-.715-.606-.09-.762-.367-.762-.367.16.023 1.601.164 2.48-.051.88-.215 1.117-.828 1.117-.828-.027-.086-.199-.348-1.054-.172-.856.176-2.215.144-2.215.144s.113.203.055.403c0 0-.203.34-.676.394 0 0 .066.266-.055.469 0 0-.164.27-.719.254 0 0 .024.203-.066.383 0 0-.371.203-.734.164 0 0-.13.28-.254.402 0 0-.399.098-.617.02 0 0-.22.27-.391.343 0 0-.262.075-.543-.054 0 0-.274.234-.461.3 0 0-.16.02-.395-.156h-.003c.527-.754.793-1.348.793-1.348.543.063.773-.03.742-.105-.032-.07.07-.187.07-.187.648.02.805-.176.785-.274-.02-.09.043-.195.043-.195.836-.094.836-.41.793-.492-.043-.082-.004-.243-.004-.243.637-.043.809-.582.664-.738-.093-.101-.148-.316-.148-.316s.324.156 1.078-.07c.75-.231.984-.993.984-.993-.402-.144-.824.024-1.328.043-.5.02-.617-.004-.617-.004s.688-.043 1.293-.406c.605-.367.676-.93.676-.93-.301-.199-.727-.183-.727-.183-.98.664-1.304.535-1.304.535 1.882-.75 1.804-1.867 1.804-1.867-.375-.2-.816-.176-.816-.176s-.059.164-.625.582c-.567.418-.727.348-.727.348s.844-.508 1.23-1.07c.352-.512.38-1.16.38-1.16a1.879 1.879 0 0 0-.977.085c-.684.996-1.203 1.11-1.203 1.11s.734-.731 1.035-1.231c.297-.5.363-1.25.363-1.25s-.382-.05-.812.3c-.434.348-.934 1.165-.934 1.165.032-.434.34-.852.774-1.27.43-.414.965-.425.965-.425s.39-.684.66-1.786c.312-1.293-.114-1.757-.114-1.757-.601.199-.902 1.078-1.27 2.242-.362 1.156-1.964 3.527-2.148 3.777-.183.25-.683.734-.05 1.067.633.332 1.082 1.214 1.097 2.199.02.98-.78 1.98-1.664 2.281-.883.297-1.082.098-1.082.098-.027.851-.914 1.777-1.457 2.464-.543.684-1.183 1.446-1.285 2.825-.105 1.379.93 2.27 1.66 3.082.73.816.762 2.258.793 2.707.031.449-.07.836-.387 1.004-.312.168-1.066.261-1.39.398-.324.133-.219.332-.219.332-.406.293-.113.742-.113.742.039-.386.312-.53.312-.53.243.218 1.192-.243 1.368-.345.18-.105.648-.254.742-.273.093-.02.449.125.672.262.218.136.375.336.511.48.137.145.262.106.262.106.332.199.305.343.305.343.132-.011.113-.242.058-.355-.058-.117-.125-.168-.125-.168m-7.3-9.414c-.086-.098-.098-.192-.098-.192-.153.18-.414.438-.414.438-.406.363.152.672.152.672.293.011.672-.157.91-.297.235-.137.32.098.32.098-.085-.333.067-.958.067-.958-.414.333-.938.239-.938.239m-2.968-3.809c-1.102-.41-.996-1.047-.996-1.047-1.25-.457-1.73.09-1.73.09.519 1.004 2.226 1.336 2.226 1.336.086-.16.5-.379.5-.379m.48 1.79c.028-.134.192-.43.192-.43-1.043.027-1.309-.61-1.309-.61-1.14-.027-1.445.57-1.445.57s.23.45.949.532c.723.082 1.613-.063 1.613-.063m1.024.64c-.832.184-1.137-.066-1.137-.066 0-.171.07-.355.07-.355-1.176.238-1.258 1.129-1.258 1.129s.223.262.954.137a5.19 5.19 0 0 0 1.363-.45c-.027-.117.008-.394.008-.394" style="fill:#9c2130;fill-opacity:1;fill-rule:nonzero;stroke:none;stroke-width:.0296543" transform="matrix(11.89636 0 0 11.89636 -520.389 -369.624)"/><path d="M63.324 57.332c-2.547 0-4.094-2.086-4.789-3.328-.867-1.559-1.285-2.18-1.898-2.555-.63-.39-1.73-1.422-1.75-2.707.09.074.199.145.316.203.149.075.293.11.422.11a.538.538 0 0 0 .46-.235c.173.125.458.27.833.27.262 0 .395-.11.46-.203a.5.5 0 0 0 .083-.223c.203.117.476.234.75.234a.956.956 0 0 0 .242-.03c.238-.075.344-.216.39-.325a.323.323 0 0 0 .032-.086c.285.219.734.469 1.309.5.046.004.09.004.136.004.344 0 .692-.063 1.063-.133l.031-.004c.336-.062.719-.129 1.094-.129.262 0 .492.032.707.102.957.308 1.164 1.441 1.004 1.965-.125.41-.489.824-1.016.824-.055 0-.113-.004-.172-.012a.73.73 0 0 0 .309-.5.7.7 0 0 0-.18-.574c-.312-.363-.976-.59-1.742-.59h-.063c-.82.012-2.73.125-2.753.88-.02.585.828 2.5 3.043 3.772.593.34 1.328.528 2.07.528.504 0 .988-.086 1.406-.246.762-.293 1.29-.805 1.348-1.309a.697.697 0 0 0-.043-.348.384.384 0 0 1 .09.114c.097.16.168.457.078.816-.09.348-.36.86-1.149 1.328-.289.168-.707.258-1.21.258-1.676 0-4.126-.988-4.887-2.308a.174.174 0 0 0-.153-.086c-.02 0-.039.003-.058.007a.181.181 0 0 0-.114.196c.008.047.223 1.175 2.07 2.148.93.496 2.009.777 2.958.777.39 0 .73-.05.98-.14-.093.379-.418.984-1.5 1.031-.07.004-.136.004-.207.004m-6.633-.473a.138.138 0 0 0-.109-.007c-.016 0-.047-.008-.094-.055l-.07-.082c-.125-.137-.273-.305-.477-.43-.195-.121-.562-.289-.738-.289-.023 0-.039.004-.058.008-.102.023-.594.172-.793.289-.176.105-.782.379-1.079.379-.066 0-.086-.012-.086-.012a.172.172 0 0 0-.117-.047c-.007 0-.011.004-.02.004.009-.043.005-.078-.023-.113 0-.02.04-.059.13-.098.132-.055.363-.11.585-.16.309-.07.625-.14.82-.246.348-.184.52-.598.481-1.168a3.623 3.623 0 0 1-.012-.113c-.031-.567-.11-1.895-.828-2.696-.094-.105-.195-.21-.297-.32-.66-.707-1.406-1.508-1.32-2.633.098-1.277.676-2.011 1.191-2.656l.059-.078c.082-.102.176-.215.27-.328.484-.586 1.074-1.305 1.199-2.012.043.004.086.008.136.008.227 0 .516-.059.856-.172 1-.34 1.797-1.437 1.781-2.45-.02-1.038-.496-1.98-1.191-2.347-.125-.066-.2-.137-.215-.215-.031-.148.137-.355.246-.496.027-.035.055-.07.078-.097.172-.239 1.8-2.645 2.172-3.832.328-1.043.602-1.82 1.035-2.075.09.192.219.653.012 1.5a7.853 7.853 0 0 1-.598 1.66 1.74 1.74 0 0 0-.976.465c-.532.512-.793.95-.828 1.383a.177.177 0 0 0 .12.176c.02.008.036.008.055.008a.173.173 0 0 0 .149-.082c.004-.008.488-.793.89-1.121.2-.157.38-.223.508-.247-.039.247-.129.665-.316.973-.281.473-.996 1.192-1.004 1.2a.177.177 0 0 0-.031.206c.03.055.09.09.152.09.012 0 .027-.004.039-.004.059-.015.59-.152 1.273-1.136.09-.032.305-.09.551-.09.043 0 .086.004.13.004-.032.21-.114.597-.337.918-.36.523-1.164 1.011-1.176 1.02a.169.169 0 0 0-.082.155.17.17 0 0 0 .106.149c.02.008.05.02.101.02.184 0 .45-.13.793-.383.364-.266.536-.442.618-.551.113.004.332.027.543.113-.036.266-.262 1.027-1.688 1.598a.179.179 0 0 0-.113.16c0 .07.047.133.11.16.023.008.07.023.151.023.208 0 .598-.097 1.274-.546.09.004.293.02.473.101a1.26 1.26 0 0 1-.567.692 3.055 3.055 0 0 1-1.215.382.176.176 0 0 0-.164.16.18.18 0 0 0 .14.184c.017 0 .09.012.298.012.105 0 .226 0 .363-.008a4.85 4.85 0 0 0 .504-.055c.16-.023.309-.047.45-.047.046 0 .089.004.128.008-.113.215-.355.567-.797.703a2.41 2.41 0 0 1-.683.118.783.783 0 0 1-.27-.036.17.17 0 0 0-.184.027.172.172 0 0 0-.058.173c.012.043.07.265.187.39.004.012.012.078-.039.172-.043.074-.175.254-.507.274a.179.179 0 0 0-.16.136c-.012.047-.044.223.015.352 0 .039-.117.187-.652.25a.162.162 0 0 0-.13.082.478.478 0 0 0-.07.285c-.043.035-.187.102-.515.102h-.09a.17.17 0 0 0-.129.054.45.45 0 0 0-.121.235 1.026 1.026 0 0 1-.242.023c-.09 0-.196-.008-.305-.02h-.02c-.07 0-.132.04-.16.102-.004.004-.265.59-.773 1.317a.172.172 0 0 0-.004.187l-.012.012c-.02.023-.195.265-.09.75.028.117.067.246.11.383.078.246.172.546.148.742-.136-.051-.36-.18-.543-.512a1.405 1.405 0 0 0-.207-.285.169.169 0 0 0-.125-.055h-.03a.181.181 0 0 0-.134.11c-.422 1.097-.261 2.683 1.375 3.98-.922.14-.976.344-.996.418-.078.266-.012.48.086.734.172.454.215.868.29 1.618l.023.242c.086.808.191.941.39 1.125l.086.086c.098.101.27.218.453.343.207.141.524.352.567.465.02.047.011.07.007.078a.17.17 0 0 0-.039.13m-4.71-7.114a7.266 7.266 0 0 0-.415-.351c-.445-.352-.949-.747-.664-2.07.286-1.329 1.786-2.106 1.801-2.114a.178.178 0 0 0 .082-.223.174.174 0 0 0-.16-.105c-.02 0-.035 0-.055.008-.004 0-.023.007-.054.02.539-.259 1.074-.747 1.257-1.169.09-.203.102-.383.036-.543a.706.706 0 0 0-.399-.406c-.058-.172-.219-.492-.617-.574-.012-.004-.023-.004-.035-.004a.172.172 0 0 0-.149.086.171.171 0 0 0 .02.203c.062.07.219.281.25.473a2.57 2.57 0 0 0-.316.234.425.425 0 0 1 0-.14c.03-.204-.063-.438-.32-.579.273-.05.394-.308.437-.512.203-.085.304-.242.32-.261a.177.177 0 0 0-.02-.207.173.173 0 0 0-.128-.059.143.143 0 0 0-.07.016c-.173.074-.27.09-.552.125-.062.011-.136.02-.218.031a.986.986 0 0 0-.274.078.935.935 0 0 1 .309-.242.13.13 0 0 0 .055-.04c.027-.026.12-.128.12-.257 0-.125-.152-.527-.234-.66a.237.237 0 0 1-.015-.195c.039-.133.175-.254.398-.348h.008c.601-.258 1.71-.73 2.012-1.965a1.36 1.36 0 0 0 .746-.281c.113-.086.207-.18.285-.278a2.618 2.618 0 0 1-.473 1.168c-.531.707-1.215 1.067-1.668 1.305-.086.047-.16.086-.226.125-.43.246-.813.711-.692 1.192.02.078.09.132.168.132.012 0 .02 0 .032-.004.003 0 .46-.078.89-.078.492 0 1.156-.297 1.61-.578a2.23 2.23 0 0 1 .644-.254.99.99 0 0 1-.219.102c-.457.133-.968.441-1.031.902-.242.043-.64.149-.762.375a.345.345 0 0 0 .008.32c.106.196.293.31.477.418.203.122.394.235.496.458.215.457-.024 1.285-.578 2.011-.164.219-.332.426-.496.625-.461.563-.899 1.098-1.293 1.89a3.724 3.724 0 0 0-.364 1.927c.008.097.02.187.035.273m4.704-1.496c-.133-.023-.465-.137-.73-.64a3.073 3.073 0 0 1-.31-.91c.09.034.165.042.211.042h.004c.024 0 .036-.004.036-.004a.139.139 0 0 0 .039-.008c.09-.03.191-.093.28-.156-.007.11.005.254.06.442.03.109.093.242.163.398.094.215.313.695.247.836m-7.43-.082c-.07-.047-.168-.133-.176-.215-.008-.043.024-.094.086-.152.012-.012.137-.133.262-.266 0 0 .004 0 .004.004.027.031.062.05.101.055.008.004.09.02.207.02.145 0 .332-.024.524-.094a3.722 3.722 0 0 0-.028.312.457.457 0 0 0-.21.066c-.22.13-.532.266-.77.27m8.684-.227a.774.774 0 0 1-.54-.234c-.406-.387-.656-.937-.757-1.191h.05a.89.89 0 0 0 .235-.028c.008-.004.015-.004.02-.008a.935.935 0 0 0 .245-.171c.024.132.086.324.246.535.043.054.094.113.145.18.285.331.527.652.434.914-.02.003-.047.003-.079.003m-10.308-.257c-.047 0-.098-.004-.145-.008.004-.13.04-.332.188-.469.137-.129.262-.234.36-.312.015.035.03.07.046.101.024.05.07.086.125.094.012 0 .11.015.262.015.191 0 .465-.023.746-.125 0 .008 0 .02.004.028-.188.172-.8.676-1.586.676m11.71-.274a1.703 1.703 0 0 1-1.015-.449 6.319 6.319 0 0 1-.734-.785c.176-.008.332-.047.34-.047a.174.174 0 0 0 .082-.047c.058-.059.117-.144.164-.227.043.125.148.333.39.543l.043.036c.254.222.707.609.73.976m-9.573-.336h-.008a1.128 1.128 0 0 1-.055-.347c.203-.164.828-.715.742-1.223a.174.174 0 0 0-.148-.145h-.024a.17.17 0 0 0-.156.102c-.02.047-.504 1.11-1.648 1.144-.032-.109-.067-.3-.035-.515.27-.129.925-.492.949-.942 0-.074-.04-.14-.106-.168a.153.153 0 0 0-.07-.015c-.043 0-.09.02-.125.055-.004.003-.742.753-1.477.753a.983.983 0 0 1-.261-.035c.043-.152.125-.402.25-.625.215-.043.777-.191 1.035-.593a.17.17 0 0 0-.016-.211.18.18 0 0 0-.129-.059.178.178 0 0 0-.078.02c-.008.003-.656.328-1.258.355h-.078c-.308 0-.535-.094-.722-.309a.88.88 0 0 1 .547-.449c.082.016.277.043.507.043.317 0 .582-.055.785-.164a.176.176 0 0 0-.086-.328h-.011s-.094.008-.242.008c-.274 0-.668-.02-1.008-.113-.551-.157-.832-.36-.899-.657.063-.07.235-.215.633-.215.078 0 .16.004.242.016.121.078.5.305.95.305.078 0 .16-.008.234-.024a.167.167 0 0 0 .14-.16.173.173 0 0 0-.124-.176c-.008 0-.84-.246-1.387-.738-.328-.293-.473-.66-.5-.84.101-.043.277-.101.476-.101.059 0 .118.004.172.015.133.23.586.914 1.301.934h.004a.18.18 0 0 0 .172-.137.174.174 0 0 0-.106-.195c-.003-.004-.64-.277-.988-1.016a2.871 2.871 0 0 1-.293-1.195.91.91 0 0 1 .113-.008c.192 0 .434.04.532.211.039.168.28 1.07.875 1.293.02.008.039.008.062.008a.172.172 0 0 0 .14-.07.17.17 0 0 0-.007-.208c-.004-.007-.41-.523-.559-1.265a2.76 2.76 0 0 1 .079-1.422c.152.055.398.2.543.531 0 .25.027 1.094.406 1.375.031.02.066.031.101.031s.07-.007.102-.03a.173.173 0 0 0 .066-.188c-.004-.012-.328-1.196-.008-2.32.047-.172.125-.415.266-.598.137.078.356.25.434.511-.028.333-.075 1.266.336 1.504a.171.171 0 0 0 .191-.012.173.173 0 0 0 .063-.183c0-.008-.274-1.117.109-2.164.07-.184.184-.379.297-.516.176.153.387.371.445.532-.05.23-.226 1.109.047 1.574.031.055.09.086.148.086a.196.196 0 0 0 .047-.008.171.171 0 0 0 .13-.168c0-.012-.009-1.187.316-2.105a1.59 1.59 0 0 1 .394-.633c.063.156.14.406.156.726.024.594-.039 1.11-.039 1.114a.175.175 0 0 0 .13.191c.015 0 .027.004.042.004.07 0 .137-.043.16-.113.02-.043.403-1.078.102-1.946-.188-.543-.168-.617-.055-1.023l.016-.047c.148-.543 1.062-2.016 2.14-2.492.016.148-.015.418-.253.805l-.188.285c-.547.843-1.46 2.246-1.543 3.914-.094 1.84-.129 2.086-.707 2.386a6.68 6.68 0 0 1-.363.176c-.91.426-2.602 1.215-3.13 2.621-.624 1.649.227 3.094.86 3.403.395.191.86.297 1.344.297.34 0 .684-.055.992-.153a3.663 3.663 0 0 0-.789.453c-.367.29-.812.707-1.035 1.403-.078.054-.29.183-.61.183m-3.41-.32a.894.894 0 0 1-.39-.074c.05-.188.226-.602.828-.809a1.031 1.031 0 0 0-.008.11c0 .054.024.101.067.136.02.016.226.172.687.172.117 0 .238-.012.367-.031v.078a5.11 5.11 0 0 1-1.21.387c-.122.02-.235.03-.34.03m14.152-.058c-.219 0-.574-.054-1.024-.316a6.18 6.18 0 0 1-.937-.684c.23-.054.402-.148.414-.152a.184.184 0 0 0 .07-.074c.02-.04.032-.074.047-.113.063.105.192.246.434.39.058.035.129.074.207.113.332.184.918.508.988.82a1.331 1.331 0 0 1-.2.016m.891-1.058c-.097 0-.207-.008-.312-.02-.684-.082-1.332-.363-1.637-.511.246-.09.344-.235.36-.262a.69.69 0 0 0 .093-.301c.09.11.325.316.844.39.387.06 1.16.176 1.43.508-.117.082-.36.196-.778.196m-15.445-.317c-.172 0-.332-.007-.473-.023-.433-.05-.66-.246-.757-.36.12-.132.437-.39 1.132-.398.118.184.438.543 1.133.606l-.047.105a7.34 7.34 0 0 1-.988.07m15.266-1.03c-.375 0-.719-.02-.942-.04a.938.938 0 0 0 .262-.273.552.552 0 0 0 .031-.312h.032c.472 0 1.355-.02 1.984-.15.18-.038.34-.058.477-.058.187 0 .292.04.34.074-.09.157-.356.496-.958.645-.304.074-.718.113-1.226.113m-15.196-.484c-.343-.086-1.468-.407-1.93-1.102.102-.062.294-.14.59-.14.223 0 .473.042.743.132.023.215.16.625.793.95-.07.046-.137.101-.196.16m5.215-.676a.19.19 0 0 0-.144-.082.12.12 0 0 1-.121-.125c0-.016.004-.035.011-.055a.172.172 0 0 0-.039-.207.159.159 0 0 0-.113-.043.146.146 0 0 0-.098.031.913.913 0 0 0-.175.145.924.924 0 0 1 .03-.148c.067-.23.247-.31.509-.403.086-.031.168-.058.238-.097.055-.032.102-.063.14-.09 0 .054.012.097.016.11a.167.167 0 0 0 .121.116c.016.004.032.004.043.004a.181.181 0 0 0 .082-.02.69.69 0 0 0 .067.094l.02.02c-.036-.004-.071-.004-.106-.004a2.18 2.18 0 0 0-.598.094.176.176 0 0 0-.125.168.175.175 0 0 0 .133.164.129.129 0 0 1 .094.12c0 .009 0 .02-.004.032a.177.177 0 0 0 .039.164l-.02.012m.676-.309a.14.14 0 0 1 .027-.039.192.192 0 0 1 .012.028l-.039.011m9.324-.707c.133-.172.278-.41.348-.687v-.008c.344-.05.855-.16 1.281-.348.434-.191.727-.234.895-.234.078 0 .136.008.183.023-.09.223-.367.7-1.168.954a7.035 7.035 0 0 1-1.539.3m-15.48-.023c-.332-.184-1.418-.852-1.492-1.723a.744.744 0 0 1 .144-.012c.274 0 .703.114 1.207.637.035.149.16.57.535.953-.136.024-.277.07-.394.145m15.504-1.133a1.5 1.5 0 0 0 .363-.715c.227-.12.89-.48 1.316-.77.438-.292.715-.355.872-.355a.19.19 0 0 1 .046.004c-.058.238-.273.75-1.039 1.195a6.862 6.862 0 0 1-1.558.641m-15.356-.656c-.215-.344-.781-1.36-.64-2.262.238.059.742.281 1.09 1.156-.004.125.003.508.175 1a1.908 1.908 0 0 0-.625.106m15.356-.531a1.865 1.865 0 0 0-.227-.079c.149-.21.32-.535.36-.972.18-.137.703-.555 1.02-.852a4.57 4.57 0 0 0 .14-.137c.28-.277.574-.562.918-.617.02.207-.016.668-.52 1.278-.512.62-1.422 1.21-1.691 1.379m-13.828-1.122a2.08 2.08 0 0 0-.516-.07c-.035 0-.066 0-.102.004-.109-.652-.25-1.996.059-2.66.215.156.625.562.754 1.437-.074.141-.207.512-.195 1.29m13.59-.41a1.515 1.515 0 0 0-.376-.094 2.5 2.5 0 0 0 .207-1.012c.106-.11.344-.36.473-.535.067-.075.512-.551.781-.93.2-.281.418-.371.575-.395.035.22.05.704-.317 1.301-.433.707-1.11 1.422-1.344 1.664m-12.316-.824a1.439 1.439 0 0 0-.539-.316c-.008-.387.008-1.532.34-2.328.07-.176.215-.41.387-.583.148.227.414.782.351 1.84-.113.141-.414.578-.539 1.387m11.191-.625c.082-.277.188-.687.18-1 .106-.156.418-.621.55-1.066.04-.09.392-.84 1.036-.95.02.215-.004.73-.46 1.676-.384.797-.645 1.188-.75 1.332a3.987 3.987 0 0 0-.247-.008c-.113 0-.219.004-.309.016m-9.761-.562a1.463 1.463 0 0 0-.38-.286c.048-.468.263-2.113 1.028-2.886.121.14.3.465.207 1.11-.031.097-.207.651-.254.956-.12.125-.43.492-.601 1.106m1.46-.793a1.471 1.471 0 0 0-.331-.309c.074-.332.297-1.254.644-2.004.285-.621.637-.894.813-1 .082.14.195.414.191.777-.11.168-.469.774-.531 1.41a2.357 2.357 0 0 0-.785 1.126" style="fill:#9c2130;fill-opacity:1;fill-rule:nonzero;stroke:none;stroke-width:.0296543" transform="matrix(11.89636 0 0 11.89636 -520.389 -369.624)"/><path d="M51.969 41.945s.11-.058.441-.09c0 0-.05.313-.23.336-.18.028-.227-.152-.211-.246" style="fill:#9c2130;fill-opacity:1;fill-rule:nonzero;stroke:none;stroke-width:.0296543" transform="matrix(11.89636 0 0 11.89636 -520.389 -369.624)"/><path d="M51.969 41.945s.11-.058.441-.09c0 0-.05.313-.23.336-.18.028-.227-.152-.211-.246M58.48 60.898a.501.501 0 1 0 .002 1.006.501.501 0 0 0-.002-1.006m0 .91a.408.408 0 1 1 .005-.816.408.408 0 0 1-.005.817m.118-.403v-.004a.16.16 0 0 0 .105-.148.157.157 0 0 0-.055-.125c-.043-.031-.105-.047-.195-.047-.07 0-.137.008-.18.016v.586h.137v-.235h.04c.054.004.081.024.097.098a.713.713 0 0 0 .039.137h.14c-.011-.024-.03-.102-.05-.168-.012-.055-.04-.094-.078-.11m-.137-.054h-.05v-.164c.007 0 .026-.004.058-.004.062 0 .097.027.097.082 0 .054-.039.086-.105.086M52.996 52.57c-.094.668-.195.848-.195.848s-.156-.668-2.762-.531c-3.047.16-5.848.433-5.941-1.121 0 0-.02-.493.43-1.227.171-.27.398-.516.679-.637.086.293.438.793 1.813.75 1.94-.066 5.98-.382 6.011 1.078 0 0 .012.524-.035.84m-7.223-1.465c-.234-.035-.39.2-.433.493-.043.293.012.566.258.605.203.027.37-.113.43-.52.035-.242.007-.538-.255-.578m-.035.18c.098.016.098.192.07.38-.035.214-.09.366-.175.355-.086-.012-.113-.141-.078-.387.035-.23.101-.36.183-.348m.418-.113-.054.668c-.02.27.054.433.28.45.208.019.325-.126.348-.403l.051-.664-.207-.016-.058.7c-.012.163-.059.202-.121.198-.055-.003-.098-.054-.086-.214l.058-.704zm.719 1.14.21.008.017-.433h.03c.071.004.102.043.118.18.012.117.031.226.043.257l.223.008a1.747 1.747 0 0 1-.063-.297c-.016-.113-.05-.183-.125-.219a.293.293 0 0 0 .176-.265c.004-.094-.012-.168-.078-.23-.067-.067-.168-.087-.285-.09-.082 0-.164.003-.23.015zm.242-.91c.012-.004.031-.007.051-.004.094.004.129.07.125.165-.004.093-.059.164-.152.164l-.036-.004zm.77.93.21-.004-.007-.402h.043a.367.367 0 0 0 .262-.11.353.353 0 0 0 .085-.261c0-.09-.03-.18-.097-.235-.07-.066-.168-.082-.293-.078-.082 0-.16.012-.219.024zm.195-.91a.098.098 0 0 1 .05-.012c.098 0 .138.07.141.168 0 .102-.046.176-.152.18-.012 0-.023 0-.031-.004zm.54.894.21-.007-.02-.434h.032c.07-.004.105.031.129.168.023.117.05.227.066.254l.219-.008a2.1 2.1 0 0 1-.082-.289c-.028-.117-.067-.184-.14-.21a.285.285 0 0 0 .151-.282c-.003-.094-.023-.164-.093-.219-.074-.062-.176-.074-.293-.07a1.32 1.32 0 0 0-.227.031zm.167-.925a.174.174 0 0 1 .05-.008c.095 0 .138.062.141.152.004.098-.046.172-.136.176l-.04.004zm.559-.188.027 1.082.21-.008-.026-1.082zm.425 1.067c.043.003.11.011.172.011.153 0 .262-.031.332-.101.098-.082.153-.239.157-.457 0-.211-.047-.356-.141-.438-.07-.066-.164-.098-.3-.098-.083 0-.161.008-.216.02zm.215-.91c.016-.005.028-.005.043-.005.125 0 .184.137.184.36-.004.297-.09.394-.192.394-.011 0-.027 0-.039-.004zm1.067.296-.25-.011.015-.25.258.015.012-.183-.469-.024-.059 1.078.489.028.011-.184-.28-.016.015-.289.246.012zm0 0" style="fill:#9c2130;fill-opacity:1;fill-rule:nonzero;stroke:none;stroke-width:.0296543" transform="matrix(11.89636 0 0 11.89636 -520.389 -369.624)"/></g></svg>