<svg xmlns="http://www.w3.org/2000/svg" width="209.77092mm" height="223.19739mm" viewBox="0 0 209.77092 223.19739"><path fill="#d1d1d1" d="m206.77 57.094-6.732-8.657C200.023 48.412 164.433 3 164.433 3l-6.896 2.748s-3.024 1.208-3.129 1.245c-.203.098-20.817 8.014-49.557 8.178-28.628-.164-49.288-8.091-49.466-8.178.036.018-3.1-1.238-3.1-1.238L45.41 3.004 3 57.062l6.563 8.834c.058.102 11.575 16.41 19.764 51.361l-.095-.522c9.34 52.671 53.877 87.956 67.3 97.517l8.366 5.945 8.352-5.945c13.441-9.565 57.975-44.846 67.383-97.753l-.12.519c8.16-34.715 19.652-51.045 19.79-51.194l6.468-8.73"/><path fill="#fff" d="M158.081 16.223c-.243.095-22.156 8.679-53.186 8.875-31.006-.2-52.94-8.788-53.155-8.875l-3.136-1.248L15.49 57.232l2.044 2.755c.13.178 12.65 17.39 21.47 55.01 8.642 48.936 50.613 82.151 63.292 91.157l2.602 1.866 2.617-1.866c12.66-8.995 54.606-42.196 63.35-91.405 8.744-37.375 21.263-54.588 21.427-54.762l2.043-2.755-2.134-2.7-30.984-39.561z"/><path d="M188.67 57.305s-13.057 17.437-22.244 56.686c-8.856 49.825-54.123 83.226-61.531 88.497-7.398-5.27-52.675-38.69-61.547-88.497-9.168-39.249-22.214-56.686-22.214-56.686L50.071 20.4s22.45 9.005 54.82 9.201c32.36-.196 54.85-9.2 54.85-9.2z"/><path fill="#fb342e" d="M155.025 76.463c-2.955 3.14-7.553 8.653-11.503 16.261-3.978 8.167-6.758 17.107-7.216 28.526-16.744-16.443-11.397-34.61-11.397-34.61s-15.38 1.804-25.267.396c0 0-1.154 15.583 15.253 27.412 25.495 18.309 24.635 31.673 19.836 41.873-3.916 8.414-19.114 22.867-29.8 31.739 0 0-47.87-35.855-52.65-80.737 0 0 7.296 16.261 27.902 23.851 0 0 23.71 8.682 20.269 27.1 19.898-13.623 12.029-32.991-7.826-45.031-15.441-9.383-23.48-22.033-27.786-32.428 0 0-3.648-7.26-8.802-8.675 2.759.188 7.143 2.05 9.289 2.573a120.09 120.09 0 0 0 6.75 1.684c40.23 7.194 70.912 1.086 81.801-1.72 2.759-.715 5.11-1.634 5.11-1.634s-2.086 1.463-3.963 3.42z"/><path fill="#faa74a" d="M82.633 116.38c-14.777-9.703-18.635-15.776-23.727-27.351-4.164-9.408-9.84-17.46-24.127-24.116 8.206 6.704 9.912 10.918 13.898 21.267 0 .047 3.706 10.736 8.229 16.747 3.989 5.488 9.713 10.356 17.546 13.851 5.078 2.269 15.528 6.44 21.673 10.196 0 0-9.11-8.098-13.492-10.595z"/><g fill="#fff"><path d="m76.757 36.673.624.135c.588.112.69.217.465 1.303-.2.842-.37.994-.937.867l-.624-.13Zm-.766 3.58.577.112c2.381.515 3.256.283 3.52-1.09l.302-1.458c.301-1.38-.381-1.924-2.773-2.429l-3.05-.631-1.596 7.702 2.46.516zM87.41 38.818c.054-.33.261-.428.773-.344.505.054.712.221.679.504l-.588 4.41c-.011.323-.258.403-.77.342-.49-.066-.711-.211-.653-.505zm-3.064 4.091c-.163 1.456.785 1.957 2.98 2.254 2.178.269 3.216.018 3.442-1.44l.555-4.425c.218-1.467-.784-1.96-2.955-2.244-2.181-.275-3.267-.029-3.437 1.423zM96.39 38.009l2.494.087-.146 3.042 1.467.036.09-3.023 2.534.094-.265 7.833-2.526-.069.116-3.39-1.416-.047-.127 3.36-2.522-.057zM111.061 39.57h.059l.588 3.717-1.22.014zm-1.056 6.552.247-1.39 1.728-.019.326 1.369 2.589-.037-2.226-7.818-3.328.054-1.898 7.899zM124.386 37.283l2.356-.298.89 7.83-3.097.36-2.798-5.21h-.03l.621 5.449-2.36.265-.888-7.797 3.154-.363 2.74 5.252h.055zM139.42 42.644l-1.61.327-.455-.508c-.395.591-.773.907-1.847 1.129-1.42.275-2.476-.073-2.693-1.053l-.922-4.657c-.265-1.285.5-1.996 2.715-2.454 2.399-.472 3.35-.105 3.611 1.173l.098.472-2.457.49-.083-.465c-.059-.29-.302-.356-.803-.261-.508.083-.697.25-.639.548l.897 4.363c.05.305.28.38.799.283.504-.105.7-.272.631-.574l-.352-1.633-.722.145-.272-1.412 3.161-.635z"/></g><path fill="#faa74a" d="M174.488 66.898s-31.281 24.991-31.158 68.704c0 0 8.185-6.914 13.753-32.784-.003.004 6.055-24.58 17.405-35.92z"/><g fill="#d1d1d1"><path d="m76.172 48.797-.087.181-.185.78.272.088c1.481.42 1.902.544 1.873 1.183-.01.163-.036.356-.109.602l-.145.567-.141.595-3.627 14.454 12.153 1.673.25-1.946-.435-.04-3.263-.312-2.338-.3c-.566-.099-.98-.146-1.11-.302-.015-.047-.015-.134-.015-.269 0-.167.014-.428.105-.7 0 0 1.252-5.3 1.474-6.218.323.05 2.116.276 2.116.276l3.372.472.385-1.735-3.423-.418s-1.485-.2-2.044-.272l1.165-5.067c.215-.806.215-.842 1.423-.693l1.361.177 3.554.567.443.08.254-1.757-.414-.051zM98.553 52.858l1.369.062 3.564.28c.102 0 .52.04.52.04v-1.754l-13.562-.624-.036.196-.109.81.276.05c1.964.378 2.16.436 2.127 1.68 0-.035-.076.556-.076.556l-.047.606-1.213 14.715 12.461.846.011-2.072s-.526.058-.544.058l-3.278-.142-2.519-.229c-.99-.072-1.147-.094-1.147-.69 0-.137.047-.293.047-.49 0 0 .356-5.324.403-6.308.392 0 2.16.058 2.16.058l3.499.178.065-1.786-3.48-.094s-1.54-.044-2.117-.05c.051-.418.338-5.1.338-5.1.076-.828.076-.861 1.288-.796zM134.172 66.775l-3.205.519-2.33.276c-1.307.152-1.332.152-1.55-.977 0 0-.962-5.477-1.133-6.515.374-.044 2.077-.182 2.077-.182l3.473-.29-.352-1.746-3.394.338s-1.582.134-2.116.185c-.069-.363-.885-5.129-.885-5.129-.066-.163-.066-.338-.077-.465 0-.109.011-.174.077-.25.076-.134.482-.185 1.034-.225l1.365-.109 3.608-.218h.479l-.48-1.728-.17.022-13.248 1.13.148.994.262.01c2.05.138 2.268.142 2.468 1.38l.13.58c0 .04.113.625.113.625l2.44 15.056 12.112-1.474-.45-1.89zM117.806 68.48l-4.647.052c-.137 0-.22-.019-.268-.084-.07-.08-.065-.243-.065-.305l-.32-16.301v-.21h-.37l-6.646-.088-.055.806.262.022c1.953.32 2.167.388 2.236 1.387l.054.453-.123 16.312 12.936-.196-.029-1.89h-.421ZM169.094 53.555c-2.508-3.644-6.483-4.138-10.029-4.577h-.073c-2.7-.337-5.284-.646-6.3-2.41-.396-.682-.513-1.281-.328-1.75.262-.693 1.068-1.027 1.387-1.107.719-.221 1.52-.352 2.425-.439 1.038-.04 2.21.051 3.437 1.06-.036-.062.316.254.316.254l.076.094.109-.047 1.002-.301-2.675-3.684h-.113l-.272.04c-.868.098-2.897.334-4.86.9-2.501.74-4.167 1.935-4.74 3.455-.484 1.133-.338 2.389.399 3.728 1.887 3.474 5.67 3.978 9.404 4.476 3.042.399 5.8.762 7.198 2.958.755 1.114 1.016 2.094.755 2.875-.247.777-.955 1.397-2.087 1.807-2.428.893-5.652.505-7.343.196l-.915-.17 2.218 4.08.657-.044c1.227-.127 3.967-.4 6.338-1.256 2.09-.795 4.725-2.243 5.397-4.693.475-1.615.01-3.43-1.383-5.445zM74.978 49.348l.341-1.212-13.47-3.024-.05.135-.77 1.34 3.826.917s.577.135.91.207c-.155.429-5.858 13.993-5.858 13.993l-2.138 5.23.908-.5c.591-.258 1.833-.97 2.842-1.652h-.058c.112-.043.283-.152.755-.526l.156-.098a9.593 9.593 0 0 0 1.586-1.517c.018 0 .759-1.028.759-1.028.014-.061.087-.12.087-.12l.693-1.328s4.076-10.094 4.614-11.48c.236.057.907.199.907.199l3.858.85zM146.865 56.844c1.62-.748 2.403-1.819 2.33-3.245-.014-.534-.159-1.125-.395-1.732-1.779-4.69-7.397-3.706-9.256-3.364l-7.394 1.314.058.228.273.828.214-.011c1.771-.047 2.149-.033 2.475.664 0 .018.095.247.095.247s.014.036 6.664 20.083l.134.45.487-.802s.78-1.39 1.245-2.599c.018-.032.221-.733.221-.733l.076-.152a7.575 7.575 0 0 0 .283-1.997l-.058-1.205a.316.316 0 0 0-.043-.123l-.294-1.46c0-.014-.047-.06-1.84-5.288.137-.05.272-.061.272-.061.174.141 8.149 7.502 8.149 7.502l4.638-.882-.544-.551s-7.361-6.745-7.79-7.111zm-5.35-6.556c1.477-.265 2.541.541 3.263 2.505a4.5 4.5 0 0 1 .236 1.056c0 .436-.072.85-.265 1.187-.283.516-.77.831-1.423.958 0 0-1.444.27-1.775.327-.098-.327-1.582-4.686-1.582-4.686a.349.349 0 0 1-.07-.2c0-.559.291-.91 1.616-1.147zM61.798 42.129l-.41-.222c-.671-.377-2.472-1.379-4.519-2.025-4.417-1.408-8.24-.327-10.232 2.918-2.16 3.47-.153 5.913 1.79 8.283 1.567 1.928 2.994 3.717 1.814 5.855-1.6 2.795-3.84 2.712-5.448 2.142-2.305-.802-3.88-2.74-4.635-3.855l-.407-.57-2.196 3.612.472.34c.737.538 2.643 1.9 4.911 2.716 3.19 1.122 9.017 2.105 12.305-3.855 2.094-3.87-.225-6.653-2.127-8.85l-.033-.04c-1.535-1.803-2.842-3.368-1.778-5.168 1.307-2.207 3.281-1.775 3.836-1.604a9.522 9.522 0 0 1 2.193 1.034c.733.527 1.492 1.198 1.281 2.686.015-.061-.098.356-.098.356l-.01.174.152.047.929.309z"/></g><g fill="#707070"><path d="M78.383 65.9c-.091-.403.05-.77.05-.77l.854-3.644 1.687-7.027.592-2.48s.05-.37.301-.678c.204-.301.534-.45.534-.45s-.682-.036-1.02.301c-.269.265-.345.766-.345.766l-.61 2.461-1.687 7.02-.886 3.655s-.178.534-.058.886c.189.457.896.603.896.603s-.261-.25-.308-.643zM95.54 67.65c-.14-.378-.043-.784-.043-.784l.28-3.706.566-7.14.16-2.468s0-.349.156-.686c.185-.316.53-.505.53-.505s-.72 0-1.02.374c-.225.28-.247.795-.247.795l-.145 2.468-.585 7.122-.297 3.724s-.088.57.105.914c.24.432.983.501.983.501s-.3-.225-.442-.61zM126.48 67.686c-.232-.367-.279-.751-.279-.751l-.653-3.993-1.245-7.085-.45-2.505s-.087-.36 0-.708c.069-.352.366-.552.366-.552s-.707.102-.9.487c-.134.312-.014.813-.014.813l.46 2.508 1.213 7.089.668 4.015s.062.562.345.863c.37.374 1.096.349 1.096.349s-.363-.182-.606-.53zM166.869 52.296c2.287 1.804 4.748 6.468.287 9.452 1.938-2.72 2.762-5.51-.287-9.452zM153.374 48.448c-1.507-1.405-3.572-3.735-.186-5.39-2.348.348-4.141 3.114.186 5.39zM60.876 64.034c2.298-1.539 3.053-2.515 3.627-3.63.602-1.096 4.9-12.126 4.9-12.126l-.49-.117-4.381 10.868c-.661 1.463-1.924 3.586-3.656 5.005zM138.314 51c-.098.334.149.81.149.81l.007.123 3.731 10.791c.494 1.532.871 3.898.418 5.844.845-2.272.816-3.434.584-4.613-.272-1.21-4.214-12.113-4.214-12.113l-.033-.109s-.134-.348-.105-.726c0-.327.272-.559.272-.559s-.66.153-.81.552zM55.054 55.294c-.305 2.479-3.423 6.791-9.125 6 3.84-.497 7.14-1.735 9.125-6zM49.911 45.08c.377-1.848 1.38-4.694 5.456-4.102-2.03-1.009-6.062.087-5.456 4.102zM145.519 56.677c2.715-1.267 2.544-3.05 2.544-3.05-.355 1.605-2.515 2.643-3.372 2.966l8.033 7.594.65-.13zM110.982 53.01l.21 14.912s-.062.595.185.922c.265.417 1.031.417 1.031.417s-.32-.203-.494-.57c-.17-.388-.141-.802-.141-.802l-.196-14.896Z"/></g></svg>