<svg xmlns="http://www.w3.org/2000/svg" width="828.1104736328125px" height="976.0829467773438px" x="0px" y="0px" style="enable-background:new 0 0 1400 980" viewBox="0 0 828.1104736328125 976.0829467773438"><defs><clipPath id="a" clipPathUnits="userSpaceOnUse"><path d="M0 840h592V0H0Z"/></clipPath></defs><path fill="none" d="M0 0h828.11v976.083H0z" style="fill:#404040;fill-opacity:0;pointer-events:none"/><g clip-path="url(#a)" transform="matrix(3.17105 0 0 -3.17105 -559.456 1888.805)"><path d="M0 0v10.268c-.849-.114-1.622-.202-2.381-.293l.009-9.996C-1.588-.021-.794 0 0 0" style="fill:#231f20;fill-opacity:1;fill-rule:nonzero;stroke:none" transform="translate(434.446 365.023)"/><path d="M0 0v47.329c0 4.554.354 6.717 1.092 11.292-.798-.609-1.582-1.185-2.366-1.763l-.012-.121c-.746-4.462-1.072-6.504-1.096-10.903v-98.073c.86.022 1.644.069 2.382.092z" style="fill:#231f20;fill-opacity:1;fill-rule:nonzero;stroke:none" transform="translate(419.642 426.356)"/><path d="M0 0c-.819.456-1.618.889-2.372 1.304v-30.246c.795-.213 1.573-.423 2.372-.636z" style="fill:#231f20;fill-opacity:1;fill-rule:nonzero;stroke:none" transform="translate(230.496 462.287)"/><path d="M0 0c-.268.114-.53.225-.804.316-.698.203-1.228.18-1.638-.081-.521-.315-.881-1.053-1.067-2.184v-.033l-.011-.019c-.115-.323-.216-1.477-.228-3.319v-14.303c.012-5.857.445-7.495.816-8.244 2.164-4.268 7.258-7.829 12.16-11.27 3.504-2.457 6.816-4.774 9.205-7.363 5.013-5.999 4.962-13.274 4.927-19.698v-20.39c0-5.596.005-10.866-3.745-14.407-1.789-1.515-4.439-2.328-7.592-2.759 4.225.322 7.846 1.082 10.051 2.933 3.765 3.539 3.658 8.862 3.647 14.615v18.301c.017 6.787.487 14.477-4.855 20.756C15.055-40.958 3.177-35.96-.53-28.789c-.482.943-.84 2.875-.851 8.215v14.019c0 1.863.118 2.997.259 3.338.263 1.67.906 2.391 1.759 2.53A9.2 9.2 0 0 1 0 0" style="fill:#231f20;fill-opacity:1;fill-rule:nonzero;stroke:none" transform="translate(205.868 467.575)"/><path d="M0 0c-.11.951-.11 3.107-.11 4.945v29.51c-.789.141-1.584.272-2.372.404V5.096c0-1.676 0-3.961.106-4.963.263-2.41 1.295-3.328 2.756-3.977.39-.133.83-.244 1.306-.302.262.07.519.14.747.232C1.109-3.217.228-2.195 0 0" style="fill:#231f20;fill-opacity:1;fill-rule:nonzero;stroke:none" transform="translate(202.054 376.676)"/><path d="M0 0c-1.458-.519-1.648-1.973-1.648-3.448 0-.265 0-.57.009-.83l.011-.72v-13.334c.803-.091 1.587-.162 2.366-.242v13.212C.727-3.573.398-1.135 2.311-.265a2.484 2.484 0 0 1-.475.283C1.153.08.501.08 0 0" style="fill:#231f20;fill-opacity:1;fill-rule:nonzero;stroke:none" transform="translate(256.972 427.752)"/><path d="M0 0v22.535c-.778.063-1.563.121-2.366.184V.08l-.011-2.125c-.009-.588-.009-1.143-.009-1.621 0-4.328.343-5.066 3.732-5.207.086.041.161.07.227.111C-.303-7.994-.011-5.828 0 0" style="fill:#231f20;fill-opacity:1;fill-rule:nonzero;stroke:none" transform="translate(257.71 379.166)"/><path d="M0 0c0-7.943 0-10.33-1.144-12.102l-.055-.121c-.631-1.052-1.66-2.8-5.189-3.935-.596-.174-1.381-.324-2.343-.444 1.948.141 3.733.373 4.906.696 3.562 1.142 4.488 2.883 5.099 3.916C2.358-10.279 2.367-8.025 2.367-.063V14.85c-.793.017-1.583.046-2.367.068Z" style="fill:#231f20;fill-opacity:1;fill-rule:nonzero;stroke:none" transform="translate(281.225 380.371)"/><path d="m0 0-.009-1.811v-15.992c.784-.021 1.573-.041 2.366-.08v15.912C2.363 3.562 2.848 7.286-.56 10.3c-2.11 1.778-4.441 2.641-9.14 3.64 3.139-.838 4.975-1.719 6.681-3.185C.086 7.95.057 4.624 0 0" style="fill:#231f20;fill-opacity:1;fill-rule:nonzero;stroke:none" transform="translate(281.234 417.38)"/><path d="M0 0v-45.549c0-3.785-.016-8.053-6.126-10.369-.643-.213-1.522-.416-2.651-.559 2.525.184 4.173.447 5.195.81 5.767 2.186 5.939 6.038 5.939 10.147V.184c0 3.874-.187 7.597-5.939 9.103-.946.202-2.393.305-4.532.316.815-.051 1.467-.143 1.968-.264C-.016 7.689-.012 3.613 0 0" style="fill:#231f20;fill-opacity:1;fill-rule:nonzero;stroke:none" transform="translate(332.01 420.223)"/><path d="M0 0v-46.555c.011-2.76.891-3.58 2.695-3.781.259.109.512.263.703.443-.682.59-1.026 1.633-1.035 3.338 0 13.162-.006 34.174 0 46.566.009 1.689.353 2.67 1.035 3.258a2.44 2.44 0 0 1-.682.392C.87 3.46.02 2.67 0 0" style="fill:#231f20;fill-opacity:1;fill-rule:nonzero;stroke:none" transform="translate(307.356 420.123)"/><path d="M0 0v51.41c0 3.771.118 6.533.729 8.929-.79-.172-1.579-.362-2.367-.512l-.01-.075c-.586-2.324-.724-4.975-.724-8.757V-.051c.03-2.912.925-3.804 2.692-4.006.293.121.551.284.767.485C.396-2.943.016-1.861 0 0" style="fill:#231f20;fill-opacity:1;fill-rule:nonzero;stroke:none" transform="translate(362.691 374.744)"/><path d="M0 0h2.337C1.019 2.779.531 7.426.517 10.781v56.276c.011 4.34.121 7.615.607 10.45-.795-.253-1.588-.517-2.369-.778v-.052c-.504-2.842-.617-6.15-.617-10.237V10.701c0-3.338.487-7.881 1.807-10.59z" style="fill:#231f20;fill-opacity:1;fill-rule:nonzero;stroke:none" transform="translate(387.567 364.69)"/><path d="M0 0v-1.597c-1.093.121-3.99.192-6.464.254v-4.826c1.998-.04 5.079-.102 5.812-.061v-1.609c-.733.073-3.814.161-5.812.201v-8.211c0-.415.069-.87.257-1.406l-6.417.128c.257.496.369 1.003.369 1.399v14.403a3.51 3.51 0 0 1-.369 1.578z" style="fill:#b4921f;fill-opacity:1;fill-rule:nonzero;stroke:none" transform="translate(304.603 452.36)"/><path d="M0 0v-6.715l-4.956-.081v1.627c0 1.043.15 3.481-.982 3.804-.37.109-1.061.121-1.618-.059-.865-.315-.757-1.164-.757-1.884v-10.641c0-1.022-.108-1.852.62-2.054.329-.121 1.385-.143 1.821.023.845.283.734.94.734 2.133v3.489L0-10.277v-4.227c0-.9.071-1.77-.92-2.317-.986-.566-2.251-.699-5.722-.749l-1.55-.03c-3.871-.062-5.91.213-5.91 2.185v12.512c0 .246-.066 1.791 1.133 2.408 1.786.889 8.013.686 9.463.639z" style="fill:#b4921f;fill-opacity:1;fill-rule:nonzero;stroke:none" transform="translate(322.241 452.493)"/><path d="M0 0v-2.508c15.554-5.684 32.437-9.389 50.303-11.046v2.325C32.406-9.551 15.522-5.766 0 0" style="fill:#b4921f;fill-opacity:1;fill-rule:nonzero;stroke:none" transform="translate(235.378 460.252)"/><path d="M0 0v-2.317C21.911-.231 42.403 4.997 60.38 12.98v2.568C42.484 7.446 21.983 2.134 0 0" style="fill:#b4921f;fill-opacity:1;fill-rule:nonzero;stroke:none" transform="translate(328.286 449.064)"/><path d="M0 0h1.643v-10.572c0-.543 0-.877.127-1.282h-2.874c.162.434.213.739.213 1.282v7.873h-1.321v1.222C-1.19-1.334-.613-1.275 0 0" style="fill:#b4921f;fill-opacity:1;fill-rule:nonzero;stroke:none" transform="translate(201.074 355.22)"/><path d="M0 0v2.639c0 .779 0 1.043-.268 1.234-.202.133-.461.07-.591.02-.289-.122-.36-.454-.36-1.225V.736c0-.252 0-.961.02-1.049.086-.558.424-.667.763-.587.248.058.436.3.436.9m-3.684-2.975h2.485V-4.23c0-.981-.03-1.69.308-1.858a.736.736 0 0 1 .608.018c.358.172.332.98.332 1.672v2.535c-.701-.252-2.497-.434-3.246.082-.436.293-.487.847-.487 1.314v3.106c0 .929.037 1.549.299 1.922.384.57 1.984.488 2.419.488h.85c.496 0 1.917.029 2.352-.465.304-.336.248-.861.248-1.813v-7.666c0-.455.065-1.376-.435-1.884-.542-.535-2-.422-2.57-.422h-.774c-.567 0-1.675.029-2.09.463-.333.355-.299.939-.299 1.902z" style="fill:#b4921f;fill-opacity:1;fill-rule:nonzero;stroke:none" transform="translate(228.484 350.406)"/><path d="M0 0v-3.238c0-.422-.02-.676.294-.867.116-.063.435-.063.56 0 .366.179.349.578.349.908V.021c0 .342 0 .596-.324.739C.683.871.369.809.248.719-.035.525 0 .264 0 0m0 5.016V2.791c0-.434-.02-.687.294-.877.116-.053.435-.053.56 0 .366.168.349.576.349.91v2.233c0 .326 0 .568-.324.72-.196.102-.51.059-.631-.052C-.035 5.533 0 5.281 0 5.016m2.681-3.559c.9-.355 1.052-.576 1.052-1.508v-2.803c0-.806.101-1.699-.657-2.115-.775-.414-4.154-.402-4.938.033-.663.424-.592 1.448-.592 2.145v2.52c0 .917-.071 1.281.961 1.689-.92.221-.975.664-.975 1.535v1.69c0 .609-.057 1.48.379 1.884C-1.553 7.074-.293 7 .343 7h.386c.39 0 2.027.08 2.604-.502.426-.467.349-1.459.349-1.937V2.842c0-.819-.076-1.131-1.001-1.385" style="fill:#b4921f;fill-opacity:1;fill-rule:nonzero;stroke:none" transform="translate(253.856 348.463)"/><path d="M0 0c.911-.334 1.052-.627 1.052-1.598v-2.539c0-.426.052-1.66-.429-2.134-.384-.344-.876-.315-1.907-.315H-3.01c-.849 0-1.548.033-1.862.397-.312.375-.256 1.111-.256 1.873v2.546h2.487v-1.761c0-.901-.049-1.569.335-1.789.101-.069.299-.11.536 0 .319.181.279.838.279 1.689v1.377c0 .664.04 1.182-.325 1.506-.142.102-.455.121-1.052.121V.467c.455 0 .986-.033 1.219.203.198.201.158.664.158 1.445v1.436c0 .295-.057.537-.345.738-.122.07-.435.092-.626 0-.472-.242-.415-.576-.415-1.082V1.375h-2.242v4.139s2.504.103 2.784.103c1.182 0 2.507.098 3.069-.558.375-.457.318-1.155.318-1.922V1.748c0-.697-.02-1.049-.419-1.447A1.082 1.082 0 0 0 0 0" style="fill:#b4921f;fill-opacity:1;fill-rule:nonzero;stroke:none" transform="translate(283.137 349.707)"/><path d="M0 0h2.168c.861 0 1.145 0 1.807.082v-2.203h-6.641V-.01l2.291 2.731c.98 1.134 1.462 1.677 1.613 2.611.076.506.131 2.156.005 2.641-.069.23-.151.433-.459.535a.631.631 0 0 1-.579-.08c-.408-.305-.357-1.215-.357-2.053V5.303h-2.291v4.199c.682.109 2.023.26 2.67.271 1.298.04 2.595.092 3.161-.496.449-.433.434-1.447.434-2.013v-.993c0-1.82-.106-1.82-1.759-3.822z" style="fill:#b4921f;fill-opacity:1;fill-rule:nonzero;stroke:none" transform="translate(330.654 345.488)"/><path d="M0 0c0 .555-.096.797-.607.797-.537 0-.659-.242-.659-.797v-8.328c0-.555.122-.797.659-.797.511 0 .607.242.607.797zm2.479-8.092c0-.98-.026-1.275-.36-1.672-.369-.433-.934-.506-2.742-.506-1.623 0-2.179.073-2.502.293-.633.479-.576 1.164-.576 1.885v7.879c0 .717-.057 1.416.576 1.881.323.242.879.295 2.502.295 1.808 0 2.373-.053 2.742-.496.334-.393.36-.721.36-1.68z" style="fill:#b4921f;fill-opacity:1;fill-rule:nonzero;stroke:none" transform="translate(358.488 353.39)"/><path d="M0 0c0 .555-.092.797-.603.797-.536 0-.642-.242-.642-.797v-8.328c0-.555.106-.797.642-.797.511 0 .603.242.603.797zm2.493-8.092c0-.98-.025-1.275-.378-1.672-.349-.433-.916-.506-2.718-.506-1.633 0-2.185.073-2.508.293-.643.479-.577 1.164-.577 1.885v7.879c0 .717-.066 1.416.577 1.881.323.242.875.295 2.508.295 1.802 0 2.369-.053 2.718-.496.353-.393.378-.721.378-1.68z" style="fill:#b4921f;fill-opacity:1;fill-rule:nonzero;stroke:none" transform="translate(385.074 353.39)"/><path d="M0 0h2.262v4.393Zm2.17 6.891h2.776c-.094-.342-.11-.596-.11-1.012V0h1.168v-1.879H4.795v-2.115c0-.313-.016-.596.082-.969H2.125c.126.322.166.656.166 1.02v2.064h-3.57V0Z" style="fill:#b4921f;fill-opacity:1;fill-rule:nonzero;stroke:none" transform="translate(408.772 348.33)"/><path d="m0 0 3.54 3.004L7.051 0 5.472 4.41l3.784 2.305-4.523-.018-1.193 4.158-1.199-4.158-4.512.018L1.598 4.41Z" style="fill:#b4921f;fill-opacity:1;fill-rule:nonzero;stroke:none" transform="translate(303.077 344.244)"/><path d="M0 0v-4.393h20.359v-.08c26.384-10.923 33.014-28.91 35.807-39.418h142.393c2.802 10.508 9.423 28.495 35.816 39.418v.08h20.305V0Z" style="fill:#b4921f;fill-opacity:1;fill-rule:nonzero;stroke:none" transform="translate(179.328 335.879)"/><path d="M0 0v9.934c-5.168-.647-8.17-.877-14.791-1.114v96.507c0 4.299.355 6.341 1.079 10.612-7.309-5.24-14.301-9.742-21.583-13.92.854-2.296 1.209-3.724 1.209-7.242V8.711c-.006-3.875-.355-5.666-1.209-8.883C-23.317-.133-11.891-.07 0 0" style="fill:#d91920;fill-opacity:1;fill-rule:nonzero;stroke:none" transform="translate(428.61 364.91)"/><path d="M0 0c1.787-4.691 5.186-8.599 12.667-15.103.784-.698 1.533-1.355 2.291-2.012 6.333-5.09 10.262-7.355 11.559-14.781.227-1.406.369-4.479.369-7.717v-15.324c0-4.645 0-7.465-2.308-9.367-.258-.192-.606-.354-.987-.496a6.635 6.635 0 0 0-.747-.233c-1.467-.334-3.334-.314-4.583.151-1.608.72-2.671 1.748-2.934 4.259-.106.983-.116 3.157-.116 5.045v30.127a673.924 673.924 0 0 0-16.764 3.229v-50.58c5.575-.518 16.967-1.112 21.51-1.123 8.532-.012 17.266-.262 21.252 3.175 3.774 3.581 3.666 8.983 3.663 14.838v18.557c.009 6.936.465 14.828-4.865 21.353C34.2-9.58 22.323-4.339 18.619 3.137c-.49.98-.848 2.985-.86 8.567v14.67c0 1.949.133 3.154.254 3.511.399 2.558 1.563 3.003 3.035 2.558 1.548-.506 2.97-1.487 3.924-2.43a9.4 9.4 0 0 0 .637-.687c.012-.018.046-.051.057-.08 2.414-3.28 2.434-7.234 2.434-10.988V1.437a342.897 342.897 0 0 1 15.674-4.775v31.026c-13.207 7.638-28.159 18.126-32.321 21.14-4.099 2.964-7.431 4.26-9.591 3.129-1.665-.669-2.761-3.026-3.135-6.679-.329-3.679-.28-7.536-.28-9.225v-15.83C-1.556 9.923-1.679 4.734 0 0" style="fill:#d91920;fill-opacity:1;fill-rule:nonzero;stroke:none" transform="translate(180.895 437.562)"/><path d="M0 0c1.3.246 3.758-.161 5.093-.819.181-.08.349-.18.475-.272v-.011C7.288-2.52 7.273-3.5 7.273-6.463v-13.514c-3.096.273-6.024.566-9.1.9v13.756C-1.847-3.396-2.211-.757 0 0m-18.108-58.651c.378-1.164 2.044-4.41 4.976-5.412 3.591-1.039 9.549-1.234 13.971-1.24.628-.012 1.214-.012 1.83-.012 1.6 0 11.478-.062 15.186.979 3.571 1.142 4.491 2.906 5.103 3.955 1.088 1.701 1.088 3.978 1.088 11.998v14.97c-5.681.213-11.112.426-16.773.739 0-3.68.015-13.838.015-17.358 0-5.777.227-7.636-1.72-8.66a1.26 1.26 0 0 0-.227-.098.32.32 0 0 0-.133-.074c-.374-.099-1.562-.191-2.3-.179-5.312.091-4.755 1.154-4.735 9.294v23.075a655.434 655.434 0 0 1 25.873-1.61v16.096c.015 5.604.501 9.378-2.914 12.515-2.998 2.618-6.44 3.419-16.529 5.489-1.316.276-2.579.537-3.876.83-6.811 1.487-12.134 2.306-13.859 2.104-1.846-.444-2.787-1.091-3.768-2.163-1.709-2.275-1.695-4.714-1.695-11.706v-44.366c-.014-5.148-.127-7.201.487-9.166" style="fill:#d91920;fill-opacity:1;fill-rule:nonzero;stroke:none" transform="translate(253.714 428.801)"/><path d="M0 0c.869 0 1.588-.069 2.185-.294.258-.102.491-.231.682-.393.663-.569 1.024-1.539 1.028-3.239V-50.51c-.016-1.729-.365-2.748-1.028-3.338a2.43 2.43 0 0 0-.703-.444C1.572-54.534.86-54.604 0-54.604c-2.701.018-3.977.75-3.996 4.094v46.573C-3.961-.639-2.686-.011 0 0m-20.774-49.346c-.004-2.104-.497-6.444 4.138-9.5C-14.108-60.292-7-60.592 0-60.592c8.416 0 12.742.392 14.715 1.06 5.765 2.184 5.943 6.018 5.943 10.088v45.376c0 3.826-.193 7.476-5.943 9.077-1.992.504-6.348.514-14.715.504-7.041-.03-14.137.113-16.636-1.183-4.644-2.571-4.142-6.787-4.138-8.59Z" style="fill:#d91920;fill-opacity:1;fill-rule:nonzero;stroke:none" transform="translate(307.887 424.079)"/><path d="M0 0c.011-3.238.219-5.881 4.366-8.752 4.694-2.83 18.062-3.318 22.245 1.234.222-.675.444-1.334.672-1.994.02-.07.045-.129.066-.203h1.432c5.371.024 10.547.041 15.929.053C43.379-6.92 42.902-2.336 42.877.961V56.01c.017 4.198.133 7.332.623 10.054-6.312-1.95-12.326-3.592-18.584-5.046.35-2.103.598-4.887.598-7.81V.473c-.016-1.858-.379-2.969-1.099-3.631a2.563 2.563 0 0 0-.767-.485c-.582-.253-1.3-.336-2.14-.341-2.479-.024-3.981.617-4.012 4.289v50.586c.01 3.653.127 6.342.729 8.658A246.114 246.114 0 0 0-.603 56.396c.374-1.873.593-4.363.603-6.992Z" style="fill:#d91920;fill-opacity:1;fill-rule:nonzero;stroke:none" transform="translate(339.363 374.33)"/><path d="M293.046 303.285h27.375v28.201h-27.375z" style="fill:#d91920;fill-opacity:1;fill-rule:nonzero;stroke:none"/><path d="M0 0v-17.479c2.227-3.597 4-7.21 5.378-10.722H27.37V0Z" style="fill:#d91920;fill-opacity:1;fill-rule:nonzero;stroke:none" transform="translate(238.29 331.486)"/><path d="M0 0v-28.201h22.005c1.355 3.512 3.145 7.125 5.376 10.722V0Z" style="fill:#d91920;fill-opacity:1;fill-rule:nonzero;stroke:none" transform="translate(347.815 331.486)"/><path d="M0 0a141.098 141.098 0 0 1 4.46-3.734c2.945-2.359 6.016-4.583 9.157-6.706l.353-.243c.789-.536 1.593-1.072 2.398-1.597.302-.195.611-.386.916-.588 1.223-.759 2.438-1.527 3.687-2.265.112-.073.227-.142.343-.202a128.612 128.612 0 0 1 3.298-1.873c20.318-11.351 43.799-18.411 68.65-20.585a28.647 28.647 0 0 0-5.408 5.089 174.21 174.21 0 0 0-19.125 3.356c-9.499 2.218-18.667 5.2-27.37 8.912-9.772 4.18-18.942 9.268-27.389 15.225v34.22c12.868 6.416 21.65 15.397 27.389 24.603a65.8 65.8 0 0 1 5.378 10.711h21.968v.041c0 4.825-2.078 7.627-4.917 8.987 6.829-.012 9.818-5.495 10.077-8.832 2.427 3.925 6.408 7.201 7.838 11.085h-43.14C35.77 65.103 29.14 47.119 2.756 36.185V3.592c-7.996 7.009-14.824 14.666-20.359 22.84v-7.748C-12.544 12.066-6.673 5.805 0 0" style="fill:#b4921f;fill-opacity:1;fill-rule:nonzero;stroke:none" transform="translate(196.931 499.159)"/><path d="M0 0v32.604c-26.393 10.935-33.014 28.918-35.816 39.419h-43.163c1.413-3.883 5.397-7.159 7.832-11.085.262 3.338 3.272 8.821 10.081 8.833-2.839-1.36-4.923-4.162-4.923-8.987v-.041h22.105c1.356-3.512 3.146-7.131 5.376-10.711 5.737-9.206 14.512-18.187 27.381-24.603v-34.18c-8.442-5.949-17.629-11.056-27.381-15.235-8.715-3.713-17.875-6.705-27.381-8.931a178.276 178.276 0 0 0-18.814-3.32 28.34 28.34 0 0 0-5.422-5.118c24.02 2.137 46.752 8.864 66.574 19.605 7.76 4.198 15.094 9.015 21.867 14.436a125.003 125.003 0 0 1 4.339 3.62c6.694 5.808 12.585 12.07 17.65 18.695v7.74C14.775 14.597 7.967 6.958 0 0" style="fill:#b4921f;fill-opacity:1;fill-rule:nonzero;stroke:none" transform="translate(413.703 502.739)"/><path d="M0 0s-.712 1.304-1.836 2.732C1.715 5.251 4.825 10.399-.075 21.83 8.028 7.678 3.226 2.075 0 0m-48.648 39.39c-.928 0-2.879-.374-3.979-.86 1.353 1.892 3.25 5.35 3.979 7.731.711-2.381 2.623-5.839 3.963-7.731-1.086.486-3.044.86-3.963.86M-97.112 0c-3.217 2.075-8.032 7.678.075 21.83-4.906-11.431-1.779-16.579 1.755-19.098C-96.403 1.304-97.112 0-97.112 0M5.139 27.829c-2.364 4.996-.481 12.38.496 13.11-6.318-2.379-7.264-9.165-7.026-12.18-2.115 4.117-5.432 9.207-6.005 15.547a20.258 20.258 0 0 0-.101 1.84v.042c0 4.825 2.084 7.626 4.923 8.986-6.809-.012-9.819-5.494-10.081-8.832-2.435 3.926-6.419 7.201-7.831 11.085-.294.801-.485 1.619-.522 2.478-.064 1.293.219 5.006 3.315 6.931-4.203-.728-5.95-3.482-6.618-6.344-.125-.576-.236-1.164-.277-1.729a13.87 13.87 0 0 1-.075-1.336 6.774 6.774 0 0 1-.017-.841c.092-4.086 1.741-7.817 3.153-10.44.747-1.384 1.447-2.446 1.796-3.074a23.67 23.67 0 0 0-2.707 3.074c-2.433 3.321-3.911 7.224-4.032 11.149-.054.04-.09.092-.141.132-.465.404-.901.818-1.327 1.222a31.056 31.056 0 0 0-1.723 1.843c-5.189 5.98-5.321 11.238-3.304 15.012-.009-.033-.029-.052-.045-.073-1.71-1.637-2.797-3.872-3.373-6.058a14.162 14.162 0 0 1-.516-3.72c0-15.8 19.1-20.244 19.1-35.02 6.382-.041 7.698-4.785 7.647-6.394-.055-1.843-.926-4.288-3.557-5.636 4.857 0 6.699-3.206 6.699-5.707 0-2.699-2.13-4.704-4.719-4.704-3.791 0-5.125 3.289-4.442 4.796-.208-1.254 1.118-3.598 3.393-3.5 2.975.132 3.629 2.53 3.568 3.631-.218 4.129-3.497 4.959-6.02 4.856-2.374-.088-4.922.235-5.778 2.369 1.525-1.771 3.891-1.59 5.246-1.304 1.219.242 3.607 1.932 3.248 5.033-.475 4.208-4.744 5.406-6.949 5.031 0 16.834-22.691 21.424-22.691 31.165 0 2.52 2.355 4.918 2.902 5.465-4.911-2.479-5.623-6.145-5.623-8.458 0-13.899 15.886-18.26 15.886-27.83 0-3.944-2.376-5.177-3.586-5.765.427.598.596 1.758.588 2.692-.032 2.761-2.059 4.884-4.615 5.178-2.751.304-6.595-2.072-6.18-7.687.152-2.005 1.325-5.798 4.563-8.093a5.555 5.555 0 0 1-1.017-3.228c0-.485.071-.93.181-1.376a14.674 14.674 0 0 1-3.92 2.691c1.484 1.043 2.62 2.721 2.62 2.721-2.038 1.591-4.664 4.543-4.664 9.096 0 5.876 4.331 8.354 7.654 8.134 3.071-.213 5.66-2.42 6.029-5.333.795 4.936-4.825 9.024-9.054 13.837-4.629 5.274-7.789 12.659-4.147 19.352-1.326-1.205-3.44-4.37-4.007-6.261-.557 1.891-2.681 5.056-3.995 6.261 3.643-6.693.486-14.078-4.158-19.352-4.224-4.813-9.838-8.901-9.033-13.837.369 2.913 2.943 5.12 6.013 5.333 3.323.22 7.664-2.258 7.664-8.134 0-4.553-2.64-7.505-4.664-9.096 0 0 1.139-1.678 2.604-2.721a14.85 14.85 0 0 1-3.914-2.691c.117.446.192.891.192 1.376a5.537 5.537 0 0 1-1.032 3.228c3.246 2.295 4.422 6.088 4.566 8.093.412 5.615-3.428 7.991-6.175 7.687-2.559-.294-4.571-2.417-4.617-5.178-.011-.934.156-2.094.576-2.692-1.199.588-3.561 1.821-3.561 5.765 0 9.57 15.867 13.931 15.867 27.83 0 2.313-.707 5.979-5.615 8.458.542-.547 2.9-2.945 2.9-5.465 0-9.741-22.686-14.331-22.686-31.165-2.205.375-6.465-.823-6.95-5.031-.355-3.101 2.047-4.791 3.243-5.033 1.369-.286 3.727-.467 5.244 1.304-.845-2.134-3.399-2.457-5.786-2.369-2.499.103-5.787-.727-6.004-4.856-.055-1.101.605-3.499 3.566-3.631 2.277-.098 3.611 2.246 3.393 3.5.679-1.507-.652-4.796-4.431-4.796-2.594 0-4.724 2.005-4.724 4.704 0 2.501 1.847 5.707 6.692 5.707-2.62 1.348-3.496 3.793-3.557 5.636-.049 1.609 1.26 6.353 7.649 6.394 0 14.776 19.105 19.22 19.105 35.02a14.14 14.14 0 0 1-.522 3.72c-.572 2.167-1.663 4.368-3.322 6.018-.031.032-.062.073-.097.113 2.018-3.774 1.871-9.032-3.318-15.012a33.338 33.338 0 0 0-2.549-2.61c-.161-.15-.313-.293-.48-.455-.052-.04-.096-.092-.147-.132-.11-3.925-1.603-7.828-4.027-11.149a23.796 23.796 0 0 0-2.704-3.074c.343.628 1.036 1.69 1.799 3.074 1.412 2.623 3.055 6.354 3.147 10.44.004.265-.02.559-.02.841-.02.841-.081 1.7-.248 2.589-.037.161-.066.315-.107.476-.673 2.862-2.412 5.616-6.601 6.344 3.091-1.925 3.359-5.638 3.308-6.931-.05-.859-.242-1.677-.517-2.478-1.43-3.884-5.411-7.159-7.838-11.085-.259 3.338-3.248 8.82-10.077 8.832 2.839-1.36 4.917-4.161 4.917-8.986v-.042c-.01-7.211-3.793-12.884-6.111-17.387.248 3.015-.689 9.801-7.03 12.18.991-.73 2.869-8.114.51-13.11-4.658-9.854-10.303-13.566-9.752-22.763.37-6.006 4.088-12.624 12.338-14.941-.349-8.394 5.119-12.712 10.069-14.188 1.363-.408 2.682-.622 3.845-.622 5.474 0 8.665 2.957 10.046 4.485-.36-1.994-4.906-7.69-12.185-6.273 3.941-4.934 9.169-5.118 11.012-5.089-.015-.415-.032-.836-.032-1.274a28.363 28.363 0 0 1 6.44-18.045 28.641 28.641 0 0 1 5.407-5.089 28.393 28.393 0 0 1 16.682-5.391 28.421 28.421 0 0 1 16.703 5.409 28.341 28.341 0 0 1 5.422 5.118 28.39 28.39 0 0 1 6.394 17.998c0 .438-.011.853-.027 1.274 2.106.011 6.936.466 10.623 5.089-7.284-1.417-11.827 4.279-12.181 6.273 1.386-1.528 4.574-4.485 10.05-4.485 1.186 0 2.555.225 3.956.651 4.917 1.516 10.29 5.846 9.951 14.159C10.803-7.558 14.521-.94 14.886 5.066c.542 9.197-5.088 12.909-9.747 22.763" style="fill:#b4921f;fill-opacity:1;fill-rule:nonzero;stroke:none" transform="translate(355.21 517.335)"/><path d="M0 0c-8.25 2.317-11.969 8.935-12.338 14.941-.551 9.197 5.094 12.909 9.752 22.763 2.358 4.996.481 12.38-.51 13.11 6.341-2.379 7.278-9.165 7.03-12.18 2.317 4.503 6.1 10.176 6.111 17.387h-21.968a65.791 65.791 0 0 0-5.378-10.71v-74.048c8.702-3.713 17.871-6.695 27.37-8.912v23.461C5.119-12.712-.349-8.394 0 0" style="fill:#d91920;fill-opacity:1;fill-rule:nonzero;stroke:none" transform="translate(255.591 507.46)"/><path d="M0 0c-.238 3.016.708 9.801 7.025 12.181-.976-.731-2.859-8.115-.496-13.111 4.659-9.854 10.289-13.566 9.747-22.762-.364-6.007-4.083-12.624-12.331-14.942.339-8.312-5.033-12.642-9.951-14.159v-23.479c9.506 2.225 18.666 5.217 27.381 8.93V6.677c-2.23 3.58-4.021 7.199-5.376 10.711H-6.006v-1.841C-5.433 9.207-2.115 4.117 0 0" style="fill:#d91920;fill-opacity:1;fill-rule:nonzero;stroke:none" transform="translate(353.82 546.094)"/><path d="M0 0c.617 0 1.121.496 1.121 1.113C1.121 1.724.617 2.22 0 2.22a1.113 1.113 0 0 1-1.133-1.107C-1.133.496-.637 0 0 0" style="fill:#fff;fill-opacity:1;fill-rule:nonzero;stroke:none" transform="translate(292.718 528.997)"/><path d="M0 0c1.112.029 2.646.335 4.021 1.447a4.61 4.61 0 0 0-1.64-.315c-2.563 0-4.647 2.056-4.647 4.582 0 .436.075.852.197 1.245-1.182.162-2.575.738-3.627 1.62-.202-.433-.444-1.671-.435-2.681C-6.074 1.701-2.246-.04 0 0" style="fill:#fff;fill-opacity:1;fill-rule:nonzero;stroke:none" transform="translate(290.32 524.396)"/><path d="M0 0a1.11 1.11 0 1 1 0 2.22 1.114 1.114 0 0 1-1.128-1.107C-1.128.496-.629 0 0 0" style="fill:#fff;fill-opacity:1;fill-rule:nonzero;stroke:none" transform="translate(320.639 528.997)"/><path d="M0 0c.026 1.01-.213 2.247-.42 2.681a7.228 7.228 0 0 0-3.615-1.62c.115-.393.191-.809.191-1.246 0-2.526-2.084-4.582-4.658-4.582-.582 0-1.128.124-1.639.316 1.381-1.112 2.918-1.418 4.016-1.447C-3.864-5.938-.039-4.197 0 0" style="fill:#fff;fill-opacity:1;fill-rule:nonzero;stroke:none" transform="translate(329.14 530.294)"/><path d="M0 0s1.848 3.47-.01 8.151C.814-.438-6.752-5.746-14.243-2.004c.106-.859.177-1.76.177-2.722 0-1.92-.745-5.534-4.487-5.534-1.138 0-2.437.57-3.308 1.275-.096 1.699.844 5.747 4.476 4.259-.502.992-1.543 1.407-2.625 1.407-1.183 0-2.457-1.123-3.091-3.026-.825-2.559-2.782-4.428-5.114-4.428-2.337 0-4.277 1.869-5.119 4.428-.625 1.903-1.9 3.026-3.078 3.026-1.078 0-2.13-.415-2.621-1.407 3.633 1.488 4.562-2.56 4.47-4.259-.875-.705-2.169-1.275-3.308-1.275-3.753 0-4.496 3.614-4.496 5.534 0 .962.077 1.863.181 2.722-7.481-3.742-15.052 1.566-14.222 10.155C-58.28 3.47-56.434 0-56.434 0-65.2.789-69.08-5.574-69.08-9.661s3.36-6.717 6.111-6.93c3.41-.253 6.445 2.365 5.125 6.1.455-3.764-2.718-4.572-4.26-4.572-1.32 0-4.538 1.165-4.538 5.321 0 4.146 4.538 7.242 8.538 6.959 6.446-.445 9.991-6.393 9.297-11.979.415-.757 3.116-5.481 8.52-5.481 6.348 0 7.703 4.997 12.072 4.997 4.376 0 5.723-4.997 12.09-4.997 5.396 0 8.088 4.724 8.512 5.481C-8.316-9.176-4.766-3.228 1.68-2.783c3.99.283 8.544-2.813 8.544-6.959 0-4.156-3.228-5.321-4.542-5.321-1.539 0-4.711.808-4.255 4.572-1.325-3.735 1.715-6.353 5.124-6.1 2.748.213 6.105 2.843 6.105 6.93S8.766.789 0 0" style="fill:#fff;fill-opacity:1;fill-rule:nonzero;stroke:none" transform="translate(334.887 521.11)"/><path d="M0 0c-1.223 1.187-1.649 4.322.87 5.897 4.082 1.195 6.592 4.353 8.549 4.573 0-1.657-.005-7.473-.005-7.657C5.813.951 2.611-1.384-.363-4.34c-.217.08-7.558 2.438-7.806 2.512A16.416 16.416 0 0 0-8.417.963c0 1.799.294 3.48.603 5.199 0 0 .045.273.08.555.597-.282 1.26-.526 2.024-.716l-.026-.063C-6.16 3.996-4.477-.059 0 0" style="fill:#fff;fill-opacity:1;fill-rule:nonzero;stroke:none" transform="translate(297.036 492.622)"/><path d="M0 0s-.012.033-.016.063c.955.231 1.771.576 2.475.958.065-.364.135-.837.135-.837.283-1.679.562-3.309.562-5.068 0-.933-.086-1.902-.279-2.945-.242-.07-7.445-2.388-7.656-2.468a38.457 38.457 0 0 1-9.835 7.172V4.41c1.882-.657 4.295-3.367 8.007-4.451 2.519-1.575 2.084-4.711.865-5.897C-1.335-5.997.43-1.942 0 0" style="fill:#fff;fill-opacity:1;fill-rule:nonzero;stroke:none" transform="translate(322.045 498.56)"/><path d="M0 0c-.121-.161-4.638-6.423-4.791-6.625-3.029.456-5.271 1.679-7.419 2.864l-1.271.698a23.193 23.193 0 0 0-2.929 9.092c.061.114.527 1.103.527 1.103 1.056 2.247 2.139 4.574 4.391 6.766.237-.08 7.612-2.445 7.82-2.518C-3.03 7.385-1.821 3.665 0 0" style="fill:#fff;fill-opacity:1;fill-rule:nonzero;stroke:none" transform="translate(300.103 475.95)"/><path d="M0 0a37.441 37.441 0 0 1 12.072.008c.127-.169 4.186-5.795 4.186-5.795s.408-.559.576-.779c-1.371-2.783-3.213-4.531-4.989-6.212l-1.001-.97c-1.538-.282-3.201-.467-4.817-.467-1.628 0-3.297.185-4.935.519-.106.11-.93.91-.93.91l-2.488 2.509C-3.41-9.034-4.174-7.88-4.796-6.606-4.644-6.394-.127-.184 0 0" style="fill:#fff;fill-opacity:1;fill-rule:nonzero;stroke:none" transform="translate(300.887 475.367)"/><path d="M0 0c1.837 3.551 3.07 7.274 3.771 11.38.21.073 7.414 2.379 7.662 2.46a14.27 14.27 0 0 0 2.068-2.52c.967-1.424 1.67-2.922 2.281-4.276l.596-1.269a23.27 23.27 0 0 0-2.998-8.919c-.031.008-1.204-.617-1.204-.617-2.165-1.164-4.402-2.379-7.401-2.835C4.649-6.423.349-.484 0 0" style="fill:#fff;fill-opacity:1;fill-rule:nonzero;stroke:none" transform="translate(313.743 475.95)"/><path d="M0 0s-.156-1.215-.263-1.942A26.887 26.887 0 0 0-3.67 4.532c-.957 2.688-1.443 5.534-1.493 8.457 1.254-1.407 2.332-2.178 2.646-2.38A23.822 23.822 0 0 1 .461 1.546L0 0" style="fill:#fff;fill-opacity:1;fill-rule:nonzero;stroke:none" transform="translate(285.275 470.997)"/><path d="M0 0c-2.695 0-5.361.434-7.924 1.224 1.795.789 2.867 1.586 3.09 1.769a24.344 24.344 0 0 1 9.666 0c.219-.183 1.27-.98 3.075-1.759A26.402 26.402 0 0 0 0 0" style="fill:#fff;fill-opacity:1;fill-rule:nonzero;stroke:none" transform="translate(306.914 457.674)"/><path d="M0 0c-.198 1.932-.622 3.188-.72 3.452a24.064 24.064 0 0 1 2.965 9.04c.471.305 1.488 1.084 2.656 2.359A26.296 26.296 0 0 0 0 0" style="fill:#fff;fill-opacity:1;fill-rule:nonzero;stroke:none" transform="translate(328.798 469.073)"/><path d="M0 0c-1.842-.029-7.071.154-11.012 5.089C-3.733 3.672.814 9.367 1.173 11.361-.208 9.834-3.399 6.877-8.873 6.877c-1.162 0-2.482.214-3.844.621v-23.461a174.21 174.21 0 0 1 19.125-3.356A28.366 28.366 0 0 0-.031-1.274c0 .437.016.859.031 1.274" style="fill:#231f20;fill-opacity:1;fill-rule:nonzero;stroke:none" transform="translate(278.377 485.774)"/><path d="M0 0v-34.22c8.448-5.957 17.618-11.045 27.39-15.224v74.048C21.65 15.397 12.868 6.416 0 0" style="fill:#231f20;fill-opacity:1;fill-rule:nonzero;stroke:none" transform="translate(210.9 528.168)"/><path d="M0 0v34.18c-12.869 6.416-21.645 15.397-27.381 24.603v-74.018C-17.629-11.056-8.442-5.949 0 0" style="fill:#231f20;fill-opacity:1;fill-rule:nonzero;stroke:none" transform="translate(402.576 493.988)"/><path d="M0 0c-5.477 0-8.664 2.957-10.051 4.484.355-1.994 4.898-7.689 12.182-6.272-3.688-4.623-8.518-5.078-10.623-5.089.015-.422.026-.837.026-1.274 0-6.82-2.392-13.092-6.393-17.998a178.321 178.321 0 0 1 18.814 3.32V.65C2.555.225 1.186 0 0 0" style="fill:#231f20;fill-opacity:1;fill-rule:nonzero;stroke:none" transform="translate(343.86 492.65)"/><path d="M0 0c3.571-1.811 6.725-4.099 9.621-6.948-.712-4.098-1.922-7.792-3.723-11.259-3.984-.639-7.865-.66-11.82-.032A37.354 37.354 0 0 0-9.574-6.948C-6.701-4.088-3.566-1.811 0 0" style="fill:#231f20;fill-opacity:1;fill-rule:nonzero;stroke:none" transform="translate(306.955 494.565)"/><path d="M0 0c1.684.463 3.081.577 3.825.584a.24.24 0 0 0 .08-.04c-.057-.323-.147-.87-.147-.87-.308-1.708-.622-3.448-.622-5.38 0-.951.092-1.965.288-3.037-2.346-2.296-3.445-4.602-4.589-7.039l-.398-.82a15.018 15.018 0 0 0-2.899 2.854A27.193 27.193 0 0 0 0 0" style="fill:#231f20;fill-opacity:1;fill-rule:nonzero;stroke:none" transform="translate(284.503 499.29)"/><path d="M0 0c.05 0 .333 2.609.333 2.609s.238.889.359 1.316c.284-.144.88-.478.88-.478C3.788 2.224 6.109.961 9.346.477c.568-1.175 1.256-2.248 2.185-3.382l2.611-2.762.375-.363s.47-.434.723-.687c-.516-.364-1.729-1.142-3.571-1.792C7.091-6.82 3.07-3.875 0 0" style="fill:#231f20;fill-opacity:1;fill-rule:nonzero;stroke:none" transform="translate(285.854 467.88)"/><path d="M0 0a16.886 16.886 0 0 0-3.517 1.832c.229.242.704.705.704.705C-.855 4.41.966 6.169 2.378 9.033c3.206.466 5.532 1.729 7.777 2.952l.891.489c.219-.691.598-2.116.642-4.079C8.634 4.634 4.589 1.678 0 0" style="fill:#231f20;fill-opacity:1;fill-rule:nonzero;stroke:none" transform="translate(316.228 459.342)"/><path d="m0 0-.38.822c-.859 1.87-1.618 3.418-2.753 5.005 0 0-1.583 1.861-1.779 2.086.208 1.12.294 2.163.294 3.165 0 1.822-.268 3.488-.563 5.23 0 0-.099.577-.166.911h.061c.561-.011 2.058-.092 3.969-.698A27 27 0 0 0 2.917 2.795 14.528 14.528 0 0 0 0 0" style="fill:#231f20;fill-opacity:1;fill-rule:nonzero;stroke:none" transform="translate(330.796 482.586)"/><path d="M265.66 303.285h27.386v28.201H265.66Z" style="fill:#231f20;fill-opacity:1;fill-rule:nonzero;stroke:none"/><path d="M0 0c6.875-5.275 12.083-11.316 15.932-17.479V0Z" style="fill:#231f20;fill-opacity:1;fill-rule:nonzero;stroke:none" transform="translate(222.358 331.486)"/><path d="M0 0c3.834 6.162 9.045 12.203 15.935 17.479H0Z" style="fill:#231f20;fill-opacity:1;fill-rule:nonzero;stroke:none" transform="translate(375.195 314.008)"/><path d="M320.422 303.285h27.393v28.201h-27.393z" style="fill:#231f20;fill-opacity:1;fill-rule:nonzero;stroke:none"/></g></svg>