<svg xmlns="http://www.w3.org/2000/svg" xml:space="preserve" width="158px" height="141.583px" x="0px" y="0px" viewBox="0 0 158 141.583"><path fill="#FFC627" d="m145.707 70.397-1.58-.329c-.047-.01-.615-.127-1.607-.324l2.067-7.513-3.815-1.111c-.063-.02-1.809-.517-5.018-1.236.082-2.594.124-5.282.124-8.085V14.063l-3.003-.242c-11.749-.949-22.959-3.823-33.318-8.543-6.203-2.827-13.113-4.262-20.561-4.265-7.426 0-14.342 1.436-20.551 4.265-10.361 4.72-21.57 7.594-33.319 8.543l-3.002.242v37.735c0 2.801.041 5.487.122 8.081-3.223.722-4.977 1.221-5.039 1.24l-3.813 1.111 2.063 7.518c-.97.192-1.517.305-1.539.311l-1.624.338L1.048 87.353l12.107 14.498 2.32-.431c.056-.01 5.581-1.027 13.816-2.219a61.646 61.646 0 0 0 4.507 8.715c8.223 13.178 21.353 22.969 43.903 32.742l1.299.561 1.299-.561c22.553-9.773 35.682-19.564 43.903-32.742a61.856 61.856 0 0 0 4.507-8.715c8.271 1.194 13.76 2.209 13.818 2.219l2.318.431 12.106-14.498-11.244-16.956zm-2.143 27.895-.442-.08c-.062-.012-6.146-1.135-15.05-2.401l-1.45-.206c-7.166 19.057-21.597 30.779-47.622 42.059-26.024-11.277-40.454-23.002-47.62-42.059l-1.451.206c-8.904 1.267-14.988 2.39-15.049 2.401l-.442.08-9.323-11.165 9.159-13.808.31-.063c.02-.004 1.883-.389 4.955-.971l-2.145-7.819.727-.211c.076-.023 2.704-.772 7.498-1.766a243.982 243.982 0 0 1-.229-10.691V17.077c14.118-1.141 25.683-4.852 34.409-8.827 6.113-2.785 12.665-3.973 19.217-3.97 6.543.002 13.084 1.189 19.186 3.97 8.728 3.976 20.29 7.687 34.409 8.827v34.722c0 3.743-.08 7.29-.23 10.695 4.781.992 7.4 1.738 7.477 1.762l.729.211-2.148 7.813c3.088.586 4.961.973 4.98.977l.311.063 9.158 13.808-9.324 11.164z"/><g fill="#EB0029"><path d="M71.681 127.045A180.803 180.803 0 0 0 79 130.524a179.118 179.118 0 0 0 7.085-3.358V116.67H71.681v10.375zM100.493 118.642c6.183-4.423 10.836-9.108 14.405-14.394V88.842a274.72 274.72 0 0 0-14.405-1.418v31.218zM42.874 103.913c3.557 5.355 8.205 10.098 14.405 14.564V87.445c-5.272.388-10.09.886-14.405 1.433v15.035zM71.681 86.743v18.498h14.404V86.736a302.713 302.713 0 0 0-14.404.007z"/><path d="M127.359 85.56c.078.017.158.028.234.042.371.066.733.135 1.088.201l.313.059c.171.032.33.064.496.098.264.049.53.101.784.149.101.021.195.038.295.06l.949.188a198.391 198.391 0 0 1 2.767.585c.264.061.519.116.764.171.065.017.134.03.197.046l.849.194c.061.017.116.028.178.042a95.413 95.413 0 0 1 1.349.327c.089.021.172.044.256.064a34.765 34.765 0 0 1 .687.174c.017.004.035.008.051.014l-2.732-12.201.104-.373 2.715-9.865c-1.053-.279-3.219-.823-6.387-1.485a187.044 187.044 0 0 0-4.314-.847 230.261 230.261 0 0 0-11.039-1.753c-4.216-.568-8.966-1.1-14.195-1.524a292.312 292.312 0 0 0-16.15-.853c-.508-.013-1.01-.027-1.524-.038a292.925 292.925 0 0 0-12.166-.001c-.514.011-1.017.025-1.524.038a291.39 291.39 0 0 0-16.19.854c-5.231.425-9.98.956-14.196 1.524a232.82 232.82 0 0 0-11.009 1.748c-.755.14-1.473.277-2.158.41-.76.15-1.484.296-2.155.436-3.183.664-5.356 1.212-6.408 1.491L21.058 72l1.035 3.771-2.728 12.203a145.006 145.006 0 0 1 2.448-.6l.106-.023c.136-.032.274-.063.417-.098 1.619-.371 3.692-.813 6.178-1.289a221.42 221.42 0 0 1 4.28-.77l.333-.057c10.6-1.784 26.364-3.656 45.865-3.656 19.928 0 35.82 1.95 45.889 3.646l.335.056.502.085c.503.087.989.173 1.468.258.055.012.115.021.173.034z"/><path d="m20.537 75.809-.563-2.042c-2.42.457-4.108.797-4.77.933L7.028 87.022l8.015 9.598a491.13 491.13 0 0 1 13.117-2.105l-10.68-5.063 3.057-13.643z"/><path d="m20.468 89.282 10.389 4.83a75.842 75.842 0 0 1-1.983-6.667c-2.197.418-5.363 1.063-8.406 1.837zM142.798 74.698c-.661-.135-2.35-.475-4.771-.932l-.563 2.042 3.058 13.644-10.68 5.063a496.655 496.655 0 0 1 13.118 2.105l8.013-9.598-8.175-12.324z"/><path d="M129.129 87.445a75.165 75.165 0 0 1-1.984 6.667l10.391-4.83c-3.045-.774-6.213-1.419-8.407-1.837z"/></g><g fill="#003A70"><path d="M98.202 8.25C92.1 5.469 85.559 4.282 79.016 4.28c-6.552-.003-13.104 1.185-19.217 3.97-8.727 3.976-20.291 7.687-34.409 8.827v34.722c0 3.74.08 7.287.229 10.691.679-.141 1.388-.284 2.153-.434a243.062 243.062 0 0 1-.206-10.258V19.067c11.652-1.154 22.79-4.122 33.135-8.835 5.498-2.506 11.652-3.775 18.295-3.775 6.66.002 12.813 1.271 18.303 3.775 10.348 4.713 21.483 7.681 33.137 8.835v32.731c0 3.607-.069 7.019-.207 10.262.768.149 1.476.294 2.152.434.15-3.405.23-6.952.23-10.695V17.077c-14.119-1.14-25.681-4.851-34.409-8.827z"/><path d="M79.007 48.979a6.086 6.086 0 0 0-6.085 6.081v2.438a295.932 295.932 0 0 1 12.166.001V55.06a6.08 6.08 0 0 0-6.081-6.081zM33.267 87.137c1.676 6.453 3.983 11.916 6.997 16.746 7.152 11.461 18.764 20.171 38.736 29.023 19.975-8.854 31.585-17.563 38.736-29.023 3.015-4.832 5.322-10.293 6.998-16.748l.098-.469c-10.002-1.691-25.924-3.647-45.843-3.647-19.499 0-35.297 1.879-45.819 3.655l.097.463zm67.226.287c5.315.385 10.136.881 14.405 1.418v15.406c-3.569 5.285-8.224 9.971-14.405 14.394V87.424zm-28.812-.681a299.05 299.05 0 0 1 14.405-.007v18.505H71.681V86.743zm0 29.925h14.404v10.496A177.761 177.761 0 0 1 79 130.523a177.525 177.525 0 0 1-7.319-3.479v-10.376zM42.874 88.877a275.545 275.545 0 0 1 14.405-1.433v31.032c-6.2-4.469-10.849-9.209-14.405-14.564V88.877zM128.066 61.653c.108-2.711.17-3.548.186-6.518-2.12-.503-6.345-.979-8.709-1.415l-.006 6.537c3.193.463 6.043.939 8.529 1.396zM29.935 61.648c2.49-.456 5.341-.934 8.54-1.396l-.006-6.534c-2.363.438-6.598.913-8.72 1.417.015 2.969.075 3.803.186 6.513z"/><path d="M128.256 21.022c-11.176-1.306-21.887-4.266-31.859-8.81-5.205-2.373-11.06-3.576-17.399-3.579-6.328 0-12.181 1.205-17.392 3.579-9.975 4.544-20.684 7.504-31.861 8.81v32.503c2.127-.506 6.36-.98 8.724-1.418l-.002-2.402s1.286-.835 4.633-1.757v1.93a45.803 45.803 0 0 1 2.659-.646v-1.93c1.825-.387 4.043-.758 6.719-1.062v1.93a95.6 95.6 0 0 1 2.659-.263v-1.93c.145-.013.294-.023.44-.036 1.646-.133 3.437-.237 5.377-.308.932-.034 1.895-.06 2.896-.075v1.928c.821-.01 1.659-.022 2.528-.022h.132v-1.928h24.996v1.928h.133c.871 0 1.702.013 2.523.022V45.56c1.002.016 1.96.041 2.889.075 1.941.07 3.73.175 5.379.308.148.013.301.023.447.036v1.93c.932.081 1.82.166 2.66.263v-1.93c2.673.304 4.896.675 6.715 1.062v1.93c1.006.213 1.891.433 2.661.646v-1.93c3.347.922 4.634 1.757 4.634 1.757l-.002 2.404c2.363.437 6.589.911 8.711 1.416V21.022zM85.659 43.197H71.935c-4.119 0-5.912-.578-5.912-.578 2.542-.348 3.591-2.168 3.591-2.168 1.123.209 5.292.268 9.187.268 3.891 0 8.059-.059 9.182-.268 0 0 1.049 1.82 3.594 2.168-.003 0-1.798.578-5.918.578zm-27.177-5.095c-1.21 0-2.307-.05-3.301-.131-2.859-.232-4.829-.731-5.974-1.107.14.002.272.002.408.002 1.801 0 3.511-.083 4.898-.18a62.886 62.886 0 0 0 3.255-.295c-.021.007 3.961.354 6.876.354h28.722c2.913 0 6.896-.347 6.933-.352-.01.003 1.274.16 3.189.293 1.386.097 3.103.18 4.906.18.133 0 .271 0 .408-.002-1.146.376-3.119.876-5.984 1.109-.988.079-2.084.129-3.291.129H58.482zm-3.586-11.309a43.645 43.645 0 0 1-1.624-.211c2.172-.113 4.226-.38 6.128-.799.73-.161 1.383-.334 1.966-.507 1.136-.337 2-.674 2.584-.935.627-.28 1.018-.501 1.178-.596.498.038 1.014.064 1.525.094 2.49.139 5.125.167 7.65.167l4.674-.009 4.727.009c2.526 0 5.159-.028 7.646-.166.517-.029 1.037-.057 1.537-.095.161.095.547.315 1.176.596.582.26 1.442.597 2.578.932a27.57 27.57 0 0 0 1.978.51c1.899.419 3.952.686 6.126.799-.458.068-.989.14-1.623.211-1.76.196-3.87.353-6.268.459l-.246.009c-.918.033-2.689.059-5.308.076-3 .021-7.101.031-12.292.031-5.199 0-9.302-.01-12.304-.031-2.62-.018-4.392-.043-5.306-.076l-.237-.009c-2.397-.106-4.508-.263-6.265-.459zm55.069 13.898.866.648-.401.845v3.004c-1.021-.118-1.631-.154-1.631-.154l.031-3.239-.652-.489h-2.699l-.514.559v1.631H93.932l1.338-1.218h8.214v-.739l1.721-1.632h2.859l3.847-2.513-.737-.978v-1.152c-.304.011-.597.018-.89.021a43.752 43.752 0 0 1-5.96-.289c-1.86-.227-3.081-.521-3.59-.661v-1.126l1.656-1.548 1.461.297 2.881-2.482 2.854-2.458-1.307-1.812-.266-.368c-4.976.173-8.963-.769-11.351-1.542-1.569-.511-2.456-.947-2.456-.947l.115-.705c-.184-.004-.577.024-.908-.105-.334-.13-1.045-.295-1.329.013-.287.31-.201.597-.201.597-.163.014-.336.026-.517.038-2.602.169-6.96.169-12.357.169l-.004.011-.005-.013c-5.403 0-9.766 0-12.365-.171a27.029 27.029 0 0 1-.508-.036s.085-.287-.199-.597c-.285-.308-1-.143-1.334-.013-.328.13-.72.102-.906.105l.114.705s-.888.438-2.463.948c-2.388.774-6.372 1.714-11.344 1.541l-.268.375-1.303 1.805 2.842 2.449 2.892 2.491 1.464-.297 1.653 1.548v1.126c-.506.14-1.73.436-3.597.663-1.551.187-3.55.326-5.961.287-.288-.004-.58-.011-.882-.021v1.152l-.738.978 3.851 2.513h2.858l1.721 1.632v.739h8.227l1.34 1.218h-11.05v-1.631l-.511-.559h-2.698l-.65.489.024 3.239s-.611.047-1.63.179v-3.04l-.393-.832.861-.646-4.19-2.979 1.35-1.784v-2.249l1.691.059c.289.011.569.016.848.021.269.004.53.006.788.006 1.731 0 3.392-.095 4.937-.283.014-.001.031-.002.048-.006l-7.229-6.227 2.859-3.968.907.031c.384.014.762.02 1.132.02 4.181 0 7.536-.804 9.616-1.479.469-.151.87-.295 1.2-.421l-.204-1.263 2.229-.063a4.03 4.03 0 0 1 1.37-.259c.715 0 1.34.25 1.761.701.043.048.084.096.123.144 2.586.136 6.624.136 11.717.136 5.105 0 9.143 0 11.73-.135.037-.049.08-.097.121-.144.42-.452 1.045-.702 1.76-.702.606 0 1.15.176 1.392.265.043.003.365.006.365.006l1.853.053-.211 1.263c.328.125.729.269 1.19.419 2.077.676 5.438 1.479 9.62 1.479.371 0 .75-.006 1.135-.02l.906-.031 2.855 3.968-7.225 6.227c.015.002.027.005.043.006 1.545.188 3.21.283 4.945.283a50.483 50.483 0 0 0 1.63-.027l1.688-.059v2.251l1.345 1.783-4.177 2.976z"/><path d="m39.99 50.636.008 9.287h.836c8.283-1.117 18.604-2.09 30.563-2.391V55.06c0-4.193 3.413-7.604 7.609-7.604 4.195 0 7.605 3.411 7.605 7.604v2.475c11.947.301 22.257 1.272 30.533 2.389l.867.101.01-9.387a18.77 18.77 0 0 0-1.586-.623v1.866l-1.93-.532a43.222 43.222 0 0 0-2.572-.623l-1.207-.258v-1.915a68.496 68.496 0 0 0-3.666-.587v1.915l-1.697-.195c-.826-.094-1.701-.178-2.62-.259l-1.394-.119V47.39c-1.389-.099-2.85-.177-4.355-.23-.43-.017-.863-.03-1.309-.043v1.916l-1.785-.022c-.735-.01-1.483-.02-2.264-.02H89.98v-1.928H68.033v1.928h-1.656c-.781 0-1.535.01-2.274.02l-1.779.022v-1.916c-.446.014-.884.026-1.317.043a124.85 124.85 0 0 0-4.347.23v1.918l-1.394.119c-.918.081-1.788.165-2.617.259l-1.697.194v-1.914a69.779 69.779 0 0 0-3.669.587v1.915l-1.208.258c-.888.188-1.754.396-2.57.623l-1.929.531v-1.866c-.697.24-1.219.456-1.586.622zM126.027 90.581a66.614 66.614 0 0 1-1.61 4.709c-1.358 3.527-2.963 6.75-4.833 9.748C112.093 117.04 99.93 126.116 79 135.286c-20.928-9.17-33.093-18.246-40.583-30.248-1.869-2.998-3.474-6.221-4.833-9.748a67.646 67.646 0 0 1-1.611-4.709 77.023 77.023 0 0 1-.972-3.527c-.497.088-1.226.221-2.128.393a75.842 75.842 0 0 0 1.983 6.667c.175.498.34 1.003.523 1.491 7.166 19.057 21.596 30.779 47.62 42.059 26.026-11.277 40.456-23.002 47.622-42.059.184-.488.35-.993.521-1.491a75.165 75.165 0 0 0 1.984-6.667c-.902-.172-1.633-.305-2.129-.393a71.722 71.722 0 0 1-.97 3.527z"/></g><g fill="#FFF"><path d="m47.187 41.341.393.832v3.04a34.967 34.967 0 0 1 1.63-.179l-.024-3.239.65-.489h2.698l.511.559v1.631h11.05l-1.34-1.218h-8.227v-.739l-1.721-1.632h-2.858l-3.851-2.513.738-.978v-1.152c.302.011.594.018.882.021a44.16 44.16 0 0 0 5.961-.287c1.866-.228 3.091-.523 3.597-.663v-1.126l-1.653-1.548-1.464.297-2.892-2.491-2.842-2.449 1.303-1.805.268-.375c4.972.173 8.956-.767 11.344-1.541 1.575-.51 2.463-.948 2.463-.948l-.114-.705c.187-.004.578.024.906-.105.334-.13 1.049-.295 1.334.013.284.31.199.597.199.597.16.013.331.025.508.036 2.6.171 6.962.171 12.365.171l.007.011.004-.011c5.397 0 9.757 0 12.357-.169.181-.012.354-.024.518-.038 0 0-.087-.287.2-.597.284-.308.995-.143 1.329-.013.331.13.727.102.909.105l-.116.705s.887.437 2.456.947c2.388.773 6.375 1.715 11.351 1.542l.267.368 1.306 1.812-2.854 2.458-2.881 2.482-1.461-.297-1.656 1.548v1.126c.509.14 1.729.435 3.59.661 1.551.188 3.547.328 5.96.289.293-.004.586-.011.89-.021v1.152l.737.978-3.847 2.513h-2.859l-1.721 1.632v.739H95.27l-1.338 1.218H104.965v-1.631l.514-.559h2.699l.652.489-.031 3.239s.609.036 1.631.154v-3.004l.401-.845-.866-.648 4.182-2.975-1.344-1.783v-2.251l-1.689.059a50.91 50.91 0 0 1-1.63.027 41.19 41.19 0 0 1-4.944-.283c-.017-.001-.028-.004-.043-.006l7.226-6.227-2.857-3.968-.905.031c-.386.014-.765.02-1.134.02-4.184 0-7.543-.804-9.621-1.479-.463-.15-.862-.294-1.189-.419l.209-1.263-1.852-.053s-.322-.003-.365-.006a4.168 4.168 0 0 0-1.393-.265c-.715 0-1.338.25-1.758.702a2.04 2.04 0 0 0-.123.144c-2.588.135-6.625.135-11.729.135-5.093 0-9.131 0-11.717-.136a3.93 3.93 0 0 0-.123-.144c-.421-.451-1.046-.701-1.761-.701a4.03 4.03 0 0 0-1.37.259l-2.229.063.204 1.263c-.33.126-.731.27-1.2.421-2.08.675-5.436 1.479-9.616 1.479-.37 0-.748-.006-1.132-.02l-.907-.031-2.859 3.968 7.229 6.227c-.017.004-.034.005-.048.006a41.095 41.095 0 0 1-4.937.283c-.258 0-.52-.002-.788-.006-.278-.005-.559-.01-.848-.021l-1.691-.059v2.249l-1.35 1.784 4.19 2.979-.866.647z"/><path d="M66.703 27.337c3.002.021 7.104.031 12.304.031 5.191 0 9.292-.01 12.292-.031 2.617-.018 4.389-.043 5.307-.076l.248-.009c2.396-.106 4.506-.263 6.267-.459a45.002 45.002 0 0 0 1.623-.211c-2.173-.113-4.228-.38-6.126-.799a27.534 27.534 0 0 1-1.977-.51 20.747 20.747 0 0 1-2.578-.932 11.45 11.45 0 0 1-1.178-.596c-.498.038-1.021.065-1.537.095-2.484.138-5.117.166-7.645.166l-4.727-.009-4.674.009c-2.525 0-5.16-.028-7.65-.167-.512-.029-1.027-.056-1.525-.094-.16.095-.551.315-1.178.596-.584.261-1.448.598-2.584.935a28.22 28.22 0 0 1-1.966.507c-1.902.419-3.956.686-6.128.799.454.068.989.14 1.624.211 1.758.196 3.868.353 6.265.459l.237.009c.915.033 2.686.058 5.306.076zM102.82 37.973c2.865-.233 4.837-.733 5.984-1.109-.14.002-.277.002-.408.002-1.806 0-3.521-.083-4.908-.18-1.914-.133-3.198-.29-3.188-.293-.038.005-4.021.352-6.933.352H64.646c-2.915 0-6.896-.347-6.876-.354-.021.004-1.326.164-3.255.295-1.388.097-3.098.18-4.898.18-.136 0-.269 0-.408-.002 1.145.376 3.114.875 5.974 1.107.994.081 2.091.131 3.301.131h41.045c1.207 0 2.302-.05 3.291-.129zM87.98 40.451c-1.123.209-5.291.268-9.182.268-3.895 0-8.063-.059-9.187-.268 0 0-1.049 1.82-3.591 2.168 0 0 1.793.578 5.912.578h13.725c4.119 0 5.915-.578 5.915-.578-2.543-.348-3.592-2.168-3.592-2.168z"/><path d="m143.727 73.32-.31-.063c-.021-.004-1.894-.391-4.981-.977l2.149-7.813-.728-.211c-.076-.023-2.695-.77-7.478-1.762-.678-.14-1.386-.284-2.153-.434.139-3.243.207-6.654.207-10.262V19.067c-11.651-1.154-22.789-4.122-33.136-8.835-5.489-2.504-11.644-3.773-18.303-3.775-6.643 0-12.797 1.27-18.295 3.775-10.345 4.713-21.482 7.681-33.135 8.835v32.731c0 3.605.069 7.016.206 10.258-.766.149-1.475.293-2.153.434-4.794.993-7.422 1.742-7.498 1.766l-.727.211 2.145 7.819c-3.072.582-4.936.967-4.955.971l-.31.063-9.157 13.807 9.322 11.164.442-.08c.061-.012 6.145-1.135 15.049-2.401l1.451-.206c-.184-.488-.349-.993-.523-1.491l-10.389-4.831c3.043-.771 6.209-1.418 8.405-1.836.902-.172 1.631-.305 2.128-.393.303 1.207.626 2.384.972 3.527a67.646 67.646 0 0 0 1.611 4.709c1.359 3.527 2.964 6.75 4.833 9.748 7.49 12.002 19.655 21.078 40.583 30.248 20.931-9.17 33.093-18.246 40.584-30.248 1.87-2.998 3.476-6.221 4.833-9.748a67.126 67.126 0 0 0 1.611-4.709c.346-1.146.67-2.32.972-3.527.496.088 1.228.221 2.129.393 2.194.418 5.362 1.063 8.405 1.836l-10.391 4.832c-.174.497-.34 1.002-.521 1.49l1.449.206c8.906 1.267 14.99 2.39 15.051 2.401l.441.08 9.32-11.164-9.155-13.807zM29.743 21.022c11.178-1.306 21.887-4.266 31.861-8.81 5.211-2.374 11.063-3.579 17.392-3.579 6.341.003 12.193 1.206 17.4 3.579 9.973 4.544 20.684 7.504 31.858 8.81v32.503c-2.122-.505-6.348-.979-8.711-1.416l.002-2.404s-1.287-.835-4.634-1.757v1.93a44.918 44.918 0 0 0-2.661-.646v-1.93c-1.819-.387-4.042-.758-6.715-1.062v1.93a96.064 96.064 0 0 0-2.66-.263v-1.93c-.147-.013-.299-.023-.446-.036a133.238 133.238 0 0 0-8.269-.383v1.928c-.821-.01-1.652-.022-2.522-.022h-.134v-1.928H66.509v1.928h-.132c-.869 0-1.707.013-2.528.022V45.56c-1.002.016-1.965.041-2.896.075-1.94.07-3.731.175-5.377.308-.146.013-.296.023-.44.036v1.93c-.934.081-1.817.166-2.659.263v-1.93c-2.676.304-4.894.675-6.719 1.062v1.93a45.803 45.803 0 0 0-2.659.646v-1.93c-3.347.922-4.633 1.757-4.633 1.757l.002 2.402c-2.363.438-6.597.912-8.724 1.418l-.001-32.505zm89.8 32.699c2.364.437 6.589.912 8.709 1.415-.016 2.97-.076 3.807-.186 6.518a227.046 227.046 0 0 0-8.529-1.396l.006-6.537zm-40.536-6.266c-4.196 0-7.609 3.411-7.609 7.604v2.473c-11.96.301-22.28 1.273-30.563 2.391h-.836l-.008-9.287c.367-.166.889-.382 1.585-.623v1.866l1.929-.531a41.922 41.922 0 0 1 2.57-.623l1.208-.258v-1.915a69.779 69.779 0 0 1 3.669-.587v1.914l1.697-.194a106.16 106.16 0 0 1 2.617-.259l1.394-.119v-1.918c1.399-.1 2.858-.178 4.347-.23.434-.017.871-.029 1.317-.043v1.916l1.779-.022c.739-.01 1.493-.02 2.274-.02h1.656v-1.928H89.98v1.928h1.658c.778 0 1.526.01 2.264.02l1.785.022v-1.916c.443.013.879.026 1.308.043 1.507.054 2.968.132 4.356.23v1.918l1.393.119c.919.081 1.794.165 2.619.259l1.697.195v-1.915c1.293.173 2.519.369 3.668.587v1.915l1.207.258c.897.19 1.764.399 2.571.623l1.929.532v-1.866c.694.24 1.219.456 1.586.623l-.008 9.387-.867-.101c-8.277-1.116-18.588-2.088-30.535-2.389V55.06c0-4.194-3.409-7.605-7.604-7.605zm6.081 7.605v2.439a295.782 295.782 0 0 0-12.166-.001V55.06a6.086 6.086 0 0 1 6.085-6.081 6.08 6.08 0 0 1 6.081 6.081zm-46.613 5.193c-3.199.462-6.05.939-8.54 1.396-.11-2.71-.171-3.544-.186-6.513 2.122-.504 6.356-.979 8.72-1.417l.006 6.534zM28.16 94.514a494.831 494.831 0 0 0-13.117 2.105l-8.015-9.598 8.176-12.324c.661-.135 2.35-.475 4.77-.932l.563 2.042-3.057 13.645 10.68 5.062zm96.574-7.379c-1.676 6.455-3.983 11.916-6.998 16.748-7.151 11.461-18.764 20.171-38.736 29.023-19.973-8.854-31.584-17.563-38.736-29.023-3.014-4.83-5.321-10.293-6.997-16.746l-.097-.463c10.522-1.776 26.32-3.655 45.819-3.655 19.919 0 35.841 1.956 45.843 3.647l-.098.469zm12.362.455-.226-.053-.597-.144c-.062-.015-.117-.026-.178-.042l-.849-.195c-.063-.015-.132-.029-.197-.045l-.764-.171c-.089-.019-.177-.037-.265-.058-.666-.145-1.387-.299-2.158-.457l-.344-.07c-.311-.063-.627-.126-.949-.189l-.295-.059c-.254-.05-.521-.102-.784-.15-.166-.031-.325-.063-.496-.097-.103-.021-.209-.038-.313-.06-.354-.065-.717-.133-1.088-.2-.076-.015-.156-.026-.234-.042l-.178-.033c-.479-.085-.966-.171-1.468-.258l-.502-.085-.335-.056c-10.068-1.695-25.961-3.646-45.889-3.646-19.501 0-35.266 1.872-45.865 3.656l-.333.057a221.42 221.42 0 0 0-4.28.77c-2.485.476-4.559.918-6.178 1.289-.143.035-.281.064-.417.098-.035.009-.07.018-.106.023a113.632 113.632 0 0 0-2.448.6l2.728-12.203-1.035-3.771-1.773-6.466c1.052-.279 3.226-.827 6.408-1.491.671-.14 1.396-.285 2.155-.436.686-.133 1.403-.271 2.158-.41a232.82 232.82 0 0 1 11.009-1.748c4.216-.568 8.965-1.1 14.196-1.524a293.446 293.446 0 0 1 16.19-.854c.508-.013 1.011-.027 1.524-.038a295.883 295.883 0 0 1 12.166 0c.515.011 1.017.025 1.524.038 5.787.146 11.185.451 16.15.853 5.229.425 9.979.956 14.195 1.524 4.232.571 7.936 1.179 11.039 1.753a196.355 196.355 0 0 1 4.314.847c3.168.662 5.334 1.206 6.387 1.485l-2.715 9.865-.104.373 2.732 12.201c-.016-.006-.034-.01-.051-.014-.101-.025-.199-.051-.31-.08-.118-.028-.245-.062-.377-.094-.084-.021-.167-.043-.256-.064-.159-.039-.335-.082-.518-.129zm5.864 9.03c-1.394-.25-6.762-1.17-13.118-2.105l10.68-5.063-3.058-13.644.563-2.042c2.421.457 4.109.797 4.771.932l8.175 12.324-8.013 9.598z"/></g><g fill="#FFF"><path d="M76.85 108.015h-1.553c-1.341 0-2.285.618-2.411 1.565l-.372 2.744c-.126.948.651 1.566 1.989 1.566h1.555c1.337 0 2.283-.618 2.411-1.566l.371-2.744c.128-.947-.653-1.565-1.99-1.565m.382 1.905-.281 2.066c-.062.439-.279 1.061-1.477 1.061h-.161c-1.195 0-1.25-.621-1.19-1.061l.279-2.066c.06-.442.277-1.062 1.477-1.062h.162c1.196.001 1.251.62 1.191 1.062M83.702 108.015h-1.556c-1.34 0-2.283.618-2.414 1.565l-.369 2.744c-.128.948.65 1.566 1.986 1.566h1.558c1.336 0 2.282-.618 2.411-1.566l.369-2.744c.129-.947-.648-1.565-1.985-1.565m.384 1.905-.284 2.066c-.063.439-.28 1.061-1.479 1.061h-.158c-1.197 0-1.25-.621-1.192-1.061l.28-2.066c.06-.442.281-1.062 1.479-1.062h.156c1.199.001 1.255.62 1.198 1.062M70.004 108.015h-1.557c-1.342 0-2.284.618-2.413 1.567h1.6c.141-.365.487-.723 1.396-.723h.157c1.201 0 1.406.703 1.148 1.063-.62.949-4.486 1.07-4.771 3.127l-.116.846h5.612l.464-.846h-4.391s.057-.575 1.807-1.201c1.579-.563 2.831-.7 3.05-2.266.129-.949-.653-1.567-1.986-1.567M90.553 108.015h-1.559c-1.34 0-2.286.618-2.412 1.567h1.604c.138-.365.487-.723 1.394-.723h.159c1.199 0 1.406.703 1.146 1.063-.13.203-.413.369-.776.521h-2.225l-.466.846h2.517c.262.012.803.078.746.502l-.027.195c-.062.439-.28 1.059-1.478 1.059h-2.711l-.466.847h3.761c1.337 0 2.284-.618 2.408-1.567l.063-.468c.071-.394-.078-.729-.399-.972.369-.286.622-.68.707-1.303.127-.949-.648-1.567-1.986-1.567"/></g><g fill="#FFF"><path d="M116.973 75.021c.401-1.56.604-2.34 1.01-3.9.218-.829.771-1.969 2.938-1.667 1.96.271 2.938.415 4.896.72.434-.595.651-.893 1.09-1.486a255.34 255.34 0 0 0-6.822-1.002c-2.434-.33-4.301.657-4.749 2.444a893.094 893.094 0 0 0-1.293 5.189c-.442 1.791.783 3.137 3.127 3.439 2.39.314 3.583.48 5.966.844.422-.6.633-.896 1.055-1.495a269.463 269.463 0 0 0-5.375-.778c-2.113-.286-2.059-1.475-1.843-2.308M102.341 77.204c1.101.09 1.649.135 2.749.232.48-2.24.725-3.359 1.215-5.596 2.481.227 3.723.353 6.201.629.402-.611.605-.918 1.014-1.529a250.554 250.554 0 0 0-6.86-.711c.209-.948.313-1.421.524-2.37 2.937.274 4.403.428 7.334.772.412-.611.619-.917 1.034-1.526-4.546-.547-6.823-.776-11.381-1.153 0 0 .456.337.099 2.02a945.266 945.266 0 0 0-1.929 9.232M80.646 64.929a301.293 301.293 0 0 0-2.852-.003c-2.451.011-4.16 1.244-4.358 3.077a863.788 863.788 0 0 0-.563 5.32c-.189 1.834 1.208 2.995 3.566 2.977a251.14 251.14 0 0 1 2.746-.012c2.357 0 4.041-1.17 4.294-2.994.297-2.119.445-3.178.754-5.296.263-1.825-1.135-3.057-3.587-3.069m.137 7.681c-.113.852-.51 2.037-2.635 2.043h-.279c-2.125.01-2.234-1.178-2.136-2.029.181-1.603.272-2.402.46-4.003.1-.854.492-2.059 2.674-2.061h.288c2.183.002 2.271 1.205 2.158 2.057a764.89 764.89 0 0 0-.53 3.993M37.15 70.6c-.707-.518-.302-1.109.69-1.244 2.201-.301 3.304-.441 5.51-.701l.649-1.724c-3.21.37-4.813.576-8.016 1.03-2.309.327-4.261 2.09-1.436 4.096a244.188 244.188 0 0 1 5.525 4.013c.689.522.288 1.108-.678 1.239-2.388.322-3.582.495-5.966.865-.224.697-.335 1.045-.555 1.744 3.319-.527 4.983-.767 8.314-1.195 2.226-.287 4.204-1.98 1.464-4.063a223.225 223.225 0 0 0-5.501-4.06M68.793 65.095s.491.281.33 1.993a913.29 913.29 0 0 0-.523 5.698 3.187 3.187 0 0 1-.159.758c-.267.766-.821 1.326-1.418 1.351-.596.024-1.06-.497-1.2-1.247 0 0-.065-.303-.032-.732l.022-.271h-.001c.239-2.984.363-4.477.62-7.46-1.351.057-2.027.088-3.38.159 0 0 .497.271.368 1.986-.172 2.287-.257 3.432-.418 5.717-.033.436-.145.75-.145.75-.254.771-.796 1.34-1.393 1.377-.596.035-1.069-.477-1.224-1.225 0 0-.072-.31-.046-.748.189-3.092.289-4.637.496-7.727-1.35.081-2.026.124-3.376.22 0 0 .501.264.405 1.981-.146 2.55-.213 3.823-.344 6.372-.069 1.334.684 2.271 1.992 2.631.5.14 1.075.195 1.725.156.213-.014.32-.02.534-.031a6.004 6.004 0 0 0 1.758-.364c.283-.106.543-.237.782-.388.219.125.463.232.733.312a5.242 5.242 0 0 0 1.719.188c.215-.01.32-.014.533-.022a5.9 5.9 0 0 0 1.766-.329c1.375-.496 2.275-1.508 2.406-2.838.327-3.344.499-5.015.849-8.358-1.35.027-2.026.045-3.379.091M52.871 66.041s.504.255.433 1.974a780.309 780.309 0 0 0-.227 5.718c-.033.857-.319 2.074-2.437 2.277-.111.012-.166.017-.277.027-2.118.205-2.338-.965-2.319-1.822.063-3.096.1-4.645.182-7.74-1.349.137-2.021.208-3.368.358 0 0 .512.243.484 1.964-.04 2.552-.057 3.829-.083 6.379-.019 1.845 1.481 2.871 3.832 2.633a266.754 266.754 0 0 1 2.267-.223c.188-.019.281-.025.469-.043 2.353-.217 3.919-1.539 4.003-3.381.154-3.356.238-5.036.415-8.393-1.351.102-2.026.157-3.374.272M93.784 65.281s.466.32.165 2.014c-.426 2.407-.637 3.611-1.053 6.02a325.775 325.775 0 0 0-3.5-8.214 278.53 278.53 0 0 0-3.651-.103s.476.308.22 2.01a919.862 919.862 0 0 0-1.367 9.333c1.102.021 1.653.035 2.754.066.489-3.215.738-4.82 1.25-8.032a324.4 324.4 0 0 1 3.479 8.204c1.205.053 1.809.082 3.013.148.808-4.51 1.222-6.762 2.071-11.265-1.352-.08-2.028-.115-3.381-.181"/></g></svg>