<svg xmlns="http://www.w3.org/2000/svg" width="568.99622pt" height="685.44531pt" viewBox="0 0 568.99621 685.44531"><path d="M238.348 54.914c-7.012 1.629-14.395 2.41-21.977 2.41-20.394 0-42.27-5.672-62.582-15.91.371-2.043.57-4.144.57-6.293 0-19.398-15.714-35.125-35.117-35.125-19.402 0-35.137 15.727-35.137 35.125 0 2.137.207 4.234.575 6.266-20.336 10.25-42.235 15.937-62.649 15.937-7.582 0-14.957-.781-21.972-2.41-.11 44.781-5.43 164.059 119.144 232.277 124.582-68.218 119.25-187.496 119.145-232.277" style="fill:#003d97;fill-opacity:1;fill-rule:nonzero;stroke:none" transform="matrix(2.38669 0 0 2.38669 -.002 .01)"/><path d="M17.133 158.496c13.48 43.02 41.976 89.09 102.074 122.805V158.496M221.273 158.496c12.098-38.617 12.094-74.777 11.957-97.332-5.417.871-11.062 1.309-16.859 1.309-32.953.004-68.941-14.012-97.14-37.657v133.68" style="fill:#003d97;fill-opacity:1;fill-rule:nonzero;stroke:none" transform="matrix(2.38669 0 0 2.38669 -.002 .01)"/><path d="M119.234 158.496V24.816c-.008-.011-.02-.02-.027-.035-28.2 23.672-64.203 37.692-97.176 37.692-5.789 0-11.437-.438-16.851-1.309-.149 22.555-.149 58.715 11.953 97.332h102.074M221.273 158.496H119.207v122.805c60.09-33.715 88.59-79.785 102.066-122.805" style="fill:#f8bd00;fill-opacity:1;fill-rule:nonzero;stroke:none" transform="matrix(2.38669 0 0 2.38669 -.002 .01)"/><path d="m37.54 139.035.05-13.726c.785-.137 1.566-.262 2.347-.395l-.09 12.152-1.41 4.704zm2.589-38.836-.098 12.469-.144.02c-.75.09-1.496.171-2.239.261l.059-12.597 1.227-3.922zm30.137-1.297c-.762 2.008-1.524 4.024-2.266 6.016A748.705 748.705 0 0 1 65.965 99l2.183-2.996zm28.394.805-.16 22.738c-.852.055-1.7.106-2.555.16l.22-22.824 1.284-3.027zm45.117 28.656-.543 1.29-.789-1.829-.226-28.105.61-1.5.663 1.562zm14.684-4.281c-.84-.094-1.684-.191-2.523-.281l-.211-18.406 1.652.035.844.02zm55.809 23.395s-1.329-5.118-1.633-6.266l-.016-40.75 1.676-5.711h-15.578l1.754 5.598.16 37.054c-.016-.027-.031-.058-.051-.093a1236.965 1236.965 0 0 0-9.07-37.75l1.578-4.809h-16.758l1.742 4.754a1412.867 1412.867 0 0 1-7.394 28.406l-.375-28.746-.84-.727a262.495 262.495 0 0 0-3.672-3.105l-.695-.582H127.91l2.137 4.969.043 7.61c-2.27-4.235-6.59-12.282-6.59-12.282l-.152-.297H23.875l1.684 5.703-.028 40.758-1.902 7.289 6.586-2.203c1.379-.457 2.758-.906 4.137-1.328l4.664-1.418v-.016l5.382-1.492c1.391-.383 2.79-.746 4.188-1.105l4.922-1.227-1.582-4.441.355-35.122.137-.382c.39.562.789 1.12 1.176 1.672a729.916 729.916 0 0 0 8.226 20.792l-.129 9.934-2.191 6.172 6.559-1.277c1.414-.278 2.828-.532 4.242-.778l5.324-.883-1.766-4.464.13-9.875a836.544 836.544 0 0 1 8.57-19.832c.453-.563.91-1.118 1.367-1.668l.074.195-.344 30.133 1.063.746c1.203.844 2.406 1.68 3.613 2.508l.758.52.918-.09c4.969-.508 9.914-.887 14.691-1.126l.805-.039.625-.508c1.219-.976 2.433-1.941 3.637-2.898l.937-.73.133-28.551.672-1.574.66 1.55-.05 27.465-2.169 5.04 6.149-.094c1.011-.02 2.02-.024 3.023-.024l7.418.063-2.172-5-.008-7.453c2.043 3.761 4.086 7.562 6.149 11.41l.664 1.234 1.406.063c2.836.136 5.57.304 8.121.503l4.492.375 8.918.961c3.602.45 7.024.938 10.168 1.454l.992.148.817-.57c.62-.422 1.246-.848 1.863-1.282l-.89 1.336-.481.72 6.11 1.12c1.421.274 2.824.555 4.234.848l6.582 1.406-1.688-4.914.93-3.633c1.52.27 3.043.559 4.562.852.426 1.804.856 3.625 1.278 5.441l-1.13 3.219 4.868 1.27c1.406.367 2.805.746 4.184 1.14l7.308 2.176c1.383.43 2.762.87 4.137 1.328l6.578 2.195" style="fill:#003f97;fill-opacity:1;fill-rule:nonzero;stroke:none" transform="matrix(2.38669 0 0 2.38669 -.002 .01)"/><path d="M210.137 101.18v-1.063c.285-.969.566-1.937.851-2.914h-8.902c.281.914.57 1.836.855 2.762.055 12.812.11 25.62.172 38.43h.004v1.015c-.277.844-.55 1.684-.828 2.524.285.078.559.16.844.257.473.141.953.286 1.43.434 1.386.438 2.78.887 4.175 1.328.477.168.942.324 1.426.48.274.094.559.188.824.282-.265-1.07-.55-2.13-.828-3.188l-.023-40.347M50.688 97.203h-8.915c.274.883.555 1.766.836 2.629-.039 4.676-.07 9.352-.109 14.027-.375.375-.75.75-1.125 1.13-1.777.202-3.555.402-5.32.628-.301-.246-.594-.476-.89-.726.015-4.63.038-9.266.058-13.903h-.004c0-.336.004-.675.008-1.008.289-.937.57-1.863.867-2.777h-8.922c.293.969.578 1.938.86 2.902-.005 13.442-.009 26.895-.02 40.344h.008v1.074a413.425 413.425 0 0 0-.848 3.192l.84-.281c.476-.157.949-.32 1.422-.48 1.386-.446 2.789-.895 4.187-1.329a50.32 50.32 0 0 1 1.422-.434c.277-.097.555-.18.84-.257-.278-.84-.551-1.672-.824-2.508.02-5.164.039-10.32.062-15.465.258-.285.512-.566.766-.844 1.855-.32 3.703-.64 5.566-.933.32.242.652.476.98.71-.035 4.524-.074 9.047-.105 13.56 0 .32 0 .648-.008.972-.285.96-.57 1.914-.863 2.883.277-.079.566-.16.852-.239.472-.129.953-.27 1.43-.394 1.406-.387 2.82-.75 4.234-1.11.476-.129.96-.246 1.449-.37.281-.071.562-.137.844-.212-.274-.77-.551-1.535-.825-2.308.125-11.676.239-23.348.352-35.024 0-.304.008-.613.012-.925.293-.852.582-1.688.882-2.524M160.879 118.695c.031 2.465.055 4.934.094 7.399-.32.21-.641.426-.961.64a325.342 325.342 0 0 0-5.586-.629c-.32-.27-.63-.543-.942-.808-.086-7.23-.175-14.465-.261-21.688.312-.234.62-.464.914-.699 1.867.035 3.718.074 5.578.125.324.258.648.516.965.778.027 2.468.062 4.933.093 7.398l.106 7.484M154 97.203h-8.91c.297.692.582 1.371.883 2.07.09 9.598.18 19.196.289 28.801 0 .258.004.508.004.762-.282.672-.563 1.34-.848 2 .285.023.582.055.871.086.488.039.977.09 1.473.14.722.07 1.437.149 2.16.227.719.082 1.434.156 2.16.234.488.063.985.121 1.477.18l.863.106c3.434.421 6.844.91 10.25 1.453 1.195-.817 2.379-1.653 3.57-2.485-.05-3.793-.097-7.582-.152-11.379-.04-2.574-.066-5.148-.102-7.726-.047-3.797-.097-7.586-.144-11.383a283.588 283.588 0 0 0-3.649-3.086M108.363 97.203h-8.05c.269.68.55 1.36.835 2.027-.054 8.274-.117 16.547-.18 24.825-.323.254-.652.496-.968.757a225.8 225.8 0 0 0-5.617.368c-.317-.211-.625-.43-.934-.637.078-8.422.156-16.848.242-25.27l.88-2.07h-8.915c.278.7.555 1.402.828 2.106-.113 9.77-.222 19.55-.332 29.324 1.196.84 2.403 1.668 3.59 2.5 4.938-.508 9.88-.89 14.828-1.13 1.22-.987 2.442-1.96 3.657-2.921.043-9.289.09-18.582.128-27.875.29-.668.583-1.34.864-2.004M139.96 127.594v-.258c-.073-9.36-.151-18.727-.23-28.09.286-.68.56-1.363.844-2.043h-8.918c.29.664.582 1.336.867 2.012.032 6.039.067 12.074.106 18.117-3.625-6.816-7.219-13.488-10.774-20.129h-8.062c.285.664.574 1.328.852 2.004-.016 9.484-.032 18.969-.04 28.457-.3.668-.586 1.348-.878 2.016.285 0 .578-.016.867-.016.496-.004.984-.012 1.476-.016 1.453-.015 2.899-.015 4.344-.015.492.004.988.004 1.484.008.286.008.575.012.86.015-.285-.671-.574-1.34-.867-2.007l-.024-17.723c3.582 6.594 7.2 13.223 10.836 20.027a274.8 274.8 0 0 1 8.188.508c-.313-.707-.618-1.41-.926-2.117 0-.25 0-.504-.004-.75M182.215 121.16c.898-4.097 1.797-8.258 2.695-12.476.996 4.367 2 8.804 2.996 13.32-.203.137-.402.273-.601.406-1.485-.219-2.965-.437-4.446-.648-.218-.196-.425-.399-.644-.602m6.723-21.68h-.004c.246-.757.496-1.52.75-2.277h-9.813c.266.719.531 1.445.797 2.168h-.012a1389.316 1389.316 0 0 1-8.582 32.863c-.457.692-.91 1.383-1.355 2.067.238.05.504.09.746.137.566.109 1.129.207 1.695.316 1.426.277 2.852.558 4.27.855.484.098.976.203 1.46.301.286.059.575.13.86.192-.176-.5-.348-.997-.52-1.5l1.516-5.903c.266-.18.55-.351.82-.527a342 342 0 0 1 7.137 1.324c.277.29.559.578.832.871.543 2.29 1.086 4.606 1.629 6.95-.16.453-.328.913-.48 1.367.277.078.562.152.84.214.484.13.96.258 1.449.38 1.41.382 2.816.765 4.214 1.16.559.156 1.11.32 1.664.476.25.074.5.148.747.211a373.949 373.949 0 0 0-1.387-3.105c-3.05-13.59-6.14-26.399-9.274-38.54M80.43 99.934c.746-.918 1.488-1.829 2.234-2.73H72.078c.32.437.649.882.98 1.323a979.488 979.488 0 0 0-5.105 13.7 874.883 874.883 0 0 1-4.738-13.633c.332-.465.676-.934 1.008-1.39h-10.59c.722 1.038 1.449 2.066 2.172 3.081a720.966 720.966 0 0 0 8.504 21.477c-.055 3.617-.098 7.222-.149 10.84-.293.824-.582 1.66-.883 2.496.282-.059.575-.114.86-.172.48-.094.972-.196 1.457-.281 1.426-.27 2.855-.524 4.281-.782.488-.078.98-.16 1.473-.246.277-.047.57-.094.851-.14-.273-.7-.55-1.395-.828-2.094.043-3.613.098-7.219.145-10.828a845.297 845.297 0 0 1 8.914-20.621" style="fill:#fff;fill-opacity:1;fill-rule:nonzero;stroke:none" transform="matrix(2.38669 0 0 2.38669 -.002 .01)"/><path d="M216.504 164.223c-16.86 48.48-49.59 86.8-97.297 113.937-47.71-27.137-80.445-65.457-97.309-113.941C8.203 124.844 7.79 86.512 7.895 64.316c4.593.598 9.335.895 14.136.895 16.496 0 34.254-3.512 51.367-10.152a168.129 168.129 0 0 0 17.61-8.063c4.64 11.016 15.531 18.746 28.234 18.746 12.688 0 23.57-7.719 28.223-18.719A165.947 165.947 0 0 0 165 55.055c17.105 6.644 34.871 10.156 51.371 10.156 4.809 0 9.55-.297 14.14-.895.102 22.196-.312 60.543-14.007 99.907M233.23 61.164c-5.417.871-11.062 1.309-16.859 1.309h-.016c-22.378 0-46.16-6.473-67.945-18.032a30.494 30.494 0 0 0 1.45-9.32c0-16.918-13.712-30.613-30.618-30.613-16.914 0-30.625 13.695-30.625 30.613 0 3.234.512 6.356 1.438 9.293C68.25 55.988 44.445 62.473 22.03 62.473c-5.789 0-11.437-.438-16.851-1.309-.301 47.688-.008 156.152 114.027 220.137C233.242 217.316 233.523 108.85 233.23 61.164" style="fill:#fff;fill-opacity:1;fill-rule:nonzero;stroke:none" transform="matrix(2.38669 0 0 2.38669 -.002 .01)"/><path d="M119.242 63.004c-15.383 0-27.883-12.512-27.883-27.883 0-15.375 12.5-27.883 27.883-27.883 15.371 0 27.88 12.508 27.88 27.883 0 15.371-12.509 27.883-27.88 27.883" style="fill:#003d97;fill-opacity:1;fill-rule:nonzero;stroke:none" transform="matrix(2.38669 0 0 2.38669 -.002 .01)"/><path d="m127.746 22.348.059.043a40.913 40.913 0 0 1 7.422-.672l.074-.102c-.047-2.105-.274-3.902-.781-5.523a24.4 24.4 0 0 0-9.11-4.582c-2.05.265-3.785 1.054-5.531 2.14l-.05 2.942.073.004c3.078 1.77 5.688 3.683 7.844 5.75M110.68 22.39l.054-.042c2.153-2.067 4.758-3.98 7.84-5.75l.074-.004-.008-2.895s-2.34-1.804-5.57-2.195a24.545 24.545 0 0 0-9.105 4.59c-.508 1.62-.739 3.418-.786 5.52l.079.105c2.187 0 4.62.164 7.421.672M99.434 40.125c-1.407-3.34-2.262-6.684-2.532-10.277 0 0-.742-.094-1.59.324a24.256 24.256 0 0 0-.507 4.98c0 5.493 1.824 10.57 4.89 14.657l.016.007c-.547-1.355-1.203-4.742-.277-9.691M113.047 31.621c-1.207-2.8-2.152-5.363-2.637-7.73l-.039-.055c-2.262-.399-4.66-.602-7.582-.555l-.129.02c-1.574 1.625-2.91 3.644-3.992 6.097l-.012.082c.324 6.415 2.192 9.786 2.192 9.786l6.324 1.605 5.887-9.176M112.684 50.844c-.422.644-1.364 2.414-1.73 5.386.85 1.211 1.69 2.13 2.464 2.657.266.062.523.125.793.175a28.32 28.32 0 0 0 5.031.473 28.362 28.362 0 0 0 5.035-.472c.262-.051.524-.122.785-.176.555-.383 1.153-.977 1.766-1.73l.856-1.208c-.395-2.875-1.34-4.543-1.723-5.144-6.262 1.562-11.316.574-13.277.039M124.137 32.395l-.098-.079s-1.98.575-4.797.575c-2.82 0-4.805-.575-4.805-.575l-.093.079-5.989 9.324-.027.176 3.442 5.617c.511.812.882 1.289.988 1.523h.082c2.176.442 4.293.68 6.402.695 2.102-.015 4.223-.253 6.399-.695h.078c.097-.234.48-.71.988-1.523l3.434-5.617-.02-.176M139.816 29.398c-1.09-2.457-2.425-4.472-3.996-6.097l-.133-.02c-2.914-.047-5.324.157-7.585.555l-.036.055c-.484 2.367-1.425 4.93-2.636 7.73l-.012.074 5.887 9.176 6.332-1.605s1.855-3.371 2.18-9.786M143.68 35.152c0-1.71-.184-3.375-.516-4.98-.844-.43-1.59-.324-1.59-.324-.262 3.484-1.086 6.738-2.418 9.98l.008-.004c.907 4.524.422 7.996-.144 9.653a24.313 24.313 0 0 0 4.66-14.325M119.195 239.7c-.234.007-.484.007-.738.007-3.02 0-5.633-.281-7.36-.797-.917-.273-1.273-.59-1.925-1.691-.297-.488-.578-1.016-.883-1.578-1.633-3.028-3.668-6.797-9.008-9.313l-.347-.164c-3.422-1.597-9.684-4.527-12.649-14.441-.625.808-1.539 2.27-1.879 4.23l-.207 1.145-.758-.875c-.304-.348-7.25-8.586-3.902-26.293A9.562 9.562 0 0 0 75 192.914l-.918 1.09-.062-1.422c-.008-.289-.22-6.992 4.078-13.594-.285-.46-1.067-1.472-2.59-2.062l-.735-.277.508-.59c.074-.09 1.77-2.059 5.016-3.043-.356-.703-1.086-1.906-2.149-2.45l-.785-.402.703-.527c.032-.02 2.7-2.07 2.868-4.484.074-1.06-.344-2.055-1.25-2.965-4.27-4.309-6.286-8.657-6.176-13.285.078-3.16 1.203-5.426 3.453-6.922 1.086-.735 2.637-1.118 4.496-1.118 4.781 0 12.137 2.63 17.402 9.989 1.75-1.742 8.184-7.176 20.336-7.176h.078c12.118.023 18.536 5.434 20.282 7.176 5.261-7.36 12.609-9.989 17.402-9.989 1.855 0 3.41.383 4.496 1.118 2.242 1.496 3.375 3.761 3.45 6.922.109 4.628-1.907 8.976-6.176 13.285-.899.91-1.329 1.906-1.243 2.965.164 2.414 2.836 4.464 2.856 4.484l.71.527-.788.403c-1.067.554-1.793 1.746-2.149 2.449 3.246.984 4.946 2.953 5.016 3.043l.504.59-.723.277c-1.527.59-2.3 1.602-2.601 2.062 4.304 6.602 4.093 13.305 4.082 13.594l-.059 1.422-.918-1.09a9.434 9.434 0 0 0-4.539-2.984c3.348 17.703-3.598 25.945-3.906 26.293l-.754.875-.203-1.145c-.356-1.96-1.27-3.422-1.891-4.23-2.957 9.914-9.227 12.844-12.64 14.441l-.352.164c-5.34 2.516-7.371 6.285-9.004 9.313-.3.562-.594 1.09-.879 1.578-.656 1.101-1.02 1.418-1.937 1.691-1.72.516-4.329.797-7.356.797h-.004c-.246 0-.496 0-.754-.008" style="fill:#fff;fill-opacity:1;fill-rule:nonzero;stroke:none" transform="matrix(2.38669 0 0 2.38669 -.002 .01)"/><path d="M142.73 180.45c-1.757 4.882-6.18 5.155-8.507 5.648-1.59.328-2.036 1.214-2.18 1.672-.418 2.101-.352 2.347-.352 2.347l-3.043-7.105s-.312-3.38 1.387-7.227c-1.387-.914-1.973-2.535-1.973-2.535 4.618-.395 6.547-2.816 7.051-3.469 0 0 .82-2.168.942-1.758 1.254-.289 2.304-.613 3.18-.957 4.406-1.273 4.452-4.562 4.261-5.129-.402-.789 2.594.567 1.922 10.153 4.012 3.984-1.398 4.777-2.688 8.36m-32.964 2.562-3.047 7.105s.07-.246-.348-2.347c-.152-.458-.594-1.344-2.187-1.672-2.32-.493-6.735-.766-8.504-5.649-1.29-3.582-6.7-4.375-2.68-8.36-.68-9.585 2.32-10.94 1.906-10.151-.18.566-.14 3.855 4.274 5.128.87.344 1.918.668 3.172.957.128-.41.949 1.758.949 1.758.504.653 2.43 3.074 7.047 3.469 0 0-.582 1.621-1.97 2.535 1.696 3.848 1.388 7.227 1.388 7.227m56.054-32.16c.422-2.782-2.05-8.758-4.547-9.223-2.093-.856-4.453-2.168-11.847.527-7.637 2.793-9.48 7.196-9.844 8.09 0 0-2.684-6.621-20.336-6.691h-.082c-17.652.07-20.336 6.691-20.336 6.691-.36-.894-2.21-5.297-9.84-8.09-7.398-2.695-9.75-1.383-11.84-.527-2.503.465-4.98 6.453-4.562 9.223.57 5.699 5.727 9.953 7.137 11.613 1.16 1.34 1.804 4.656-2.696 7.46 2.075.79 3.29 2.973 3.29 2.973-1.997.704-4.61 2.801-5.434 3.38 1.055.363 3.285.984 3.695 2.863 0 0-2.285 2.843-.875 7.988 1.965-1.606 6.965.664 4.43 6.566 0 0 3.144-1.082 3.547-2.78 0 0 2.015 5.835-3.535 7.25 0 0 3.28 2.026 11.23-3.25 2.145.757 6.117 1.108 9.973.007 0 0-8.973 6.945 2.054 12.898 3.543 2.083 8.7 2.61 12.696 1.395a6.66 6.66 0 0 0 1.11-.55c.358.218.722.41 1.108.55 3.993 1.215 9.157.688 12.692-1.395 11.031-5.953 2.05-12.898 2.05-12.898 3.86 1.102 7.833.75 9.977-.008 7.957 5.277 11.23 3.25 11.23 3.25-5.546-1.414-3.538-7.25-3.538-7.25.406 1.7 3.55 2.781 3.55 2.781-2.539-5.902 2.465-8.172 4.43-6.566 1.406-5.145-.867-7.988-.867-7.988.402-1.88 2.64-2.5 3.695-2.864-.836-.578-3.441-2.675-5.441-3.379 0 0 1.219-2.183 3.289-2.972-4.492-2.805-3.844-6.121-2.692-7.461 1.41-1.66 6.57-5.914 7.13-11.613M91.906 209.617c-.008 9.02 8.875 10.567 13.485 10.914-.832-2.152-3.145-6.144-3.723-7.894-2.246-1.457-6.055-3.442-9.762-3.02" style="fill:#f39700;fill-opacity:1;fill-rule:nonzero;stroke:none" transform="matrix(2.38669 0 0 2.38669 -.002 .01)"/><path d="M106.727 179.527c.117.864-.508 2.38-2.317 2.043-1.898-.343-2.097-2.062-1.875-3.093.094-.407.254-.637.395-.774a39.318 39.318 0 0 0-2.035-.644s-.91 4.054 2.37 5.421c3.524 1.473 4.54-1.902 4.54-1.902s-.184-.414-1.078-1.05" style="fill:#fff;fill-opacity:1;fill-rule:nonzero;stroke:none" transform="matrix(2.38669 0 0 2.38669 -.002 .01)"/><path d="M100.895 177.059c.757.214 1.43.433 2.035.644-.14.133-.301.367-.395.774-.222 1.03-.023 2.75 1.875 3.093 1.809.336 2.434-1.18 2.313-2.043.898.637 1.082 1.051 1.082 1.051s-1.016 3.375-4.54 1.902c-3.28-1.367-2.37-5.421-2.37-5.421m-9.364-11.317c2.664 5.863-3.008 11.317-3.008 11.317s5.063-.489 6.797 3.375c1.993 4.472 5.582 4.925 5.582 4.925-2.675-1.277-3.554-3.277-3.925-5.066-.329-1.563.53-1.914 1.03-1.93 2.138-.066.313 4.145 5.505 6.16 1.797.7 2.59 1.915 2.86 3.247.417 2.101-.4 4.324-.4 4.324s3.344-4.07 3.762-7.852c.067-.562.149-1.453-.015-2.465-.266-1.656-1.2-3.629-3.989-5.086-5.78-3.015-10.175-3.015-10.175-3.015s1.172.441 2.07 1.5c.297.344.602 1.07-.492.902-.988-.148-2.457-.605-2.516-.625l-1.586-.613c3.535-4.598 1.528-7.777.957-9.582.145-1.43.492-2.485.922-3.32.41-.79.899-1.387 1.383-1.903-1.836.899-3.918 2.453-4.762 5.707" style="fill:#003f97;fill-opacity:1;fill-rule:nonzero;stroke:none" transform="matrix(2.38669 0 0 2.38669 -.002 .01)"/><path d="M92.184 179.672s-1.07 2.918.28 5.723c1.817 3.777 6.536 4.851 6.536 4.851s-6.348-2.172-3.598-6.797c0 0-2.87-.582-3.218-3.777M103.488 174.469s-2.879-2.278-3.793-3.153c-.527-.511-.574-2.52-.515-4.25.047-1.464.175-2.722.175-2.722s-.335 1.133-.648 2.523c-.457 1.914-.887 4.332-.422 5.043 1.024 1.598 5.203 2.559 5.203 2.559" style="fill:#003f97;fill-opacity:1;fill-rule:nonzero;stroke:none" transform="matrix(2.38669 0 0 2.38669 -.002 .01)"/><path d="M110.18 164.617c-1.91 1.098-4.075 1.086-5.524.903-.98-.118-1.765.527-1.957 1.304-.097.39-.219.79-.347 1.196-.235.73-.524 1.46-.887 2.078.734 2.34 3.094 3.949 3.094 3.949-.891-1.332-1.551-3.707-1.551-3.707l.293-.559.738-1.332s.617-1.387 1.305-1.465c3.843-.445 4.836-2.367 4.836-2.367M84.16 179.57c-.21-6.68 5.817-11.972 6.38-12.382-9.704 3.906-9.704 14.84-9.704 14.84 4.652 5.335 1.297 11.667 1.297 11.667 6.156-5.722 2.105-12.023 2.027-14.125M111.504 187.324s5.691.883 4.41-5.703c0 0-.863 4.32-4.41 5.703M116.898 168.79s-1.636 3.991-3.718 4.655c-.196-.058-.285-1.242-.176-3.32 0 0-3.738 4.941-.176 10.95 0 0-1.008-1.99.274-4.259.804-1.421 2.503-2.175 3.414-4.648.261-.723.382-1.52.382-3.379" style="fill:#003f97;fill-opacity:1;fill-rule:nonzero;stroke:none" transform="matrix(2.38669 0 0 2.38669 -.002 .01)"/><path d="M106.66 170.21c1.512-3.128 5.785-1.773 7.281-5.327 0 0-.015 3.219-2.652 4.285-3.918 1.582-4.273 4.777-4.273 4.777s-1.075-2.246-.356-3.734" style="fill:#003f97;fill-opacity:1;fill-rule:nonzero;stroke:none" transform="matrix(2.38669 0 0 2.38669 -.002 .01)"/><path d="M86.71 158.984c.083-.101-1.632 1.43-2.495 2.528-9.797-7.977-5.711-14.114-5.176-16.078 7.672-4.493 15.918 8.77 15.918 8.77-4.102 1.179-8.246 4.78-8.246 4.78" style="fill:#fff;fill-opacity:1;fill-rule:nonzero;stroke:none" transform="matrix(2.38669 0 0 2.38669 -.002 .01)"/><path d="M86.34 159.32c2.523-2.136 5.062-3.77 8.617-5.117-1.676-5.45-10.934-12.27-15.918-8.77 7.176-.894 8.625 11.57 7.3 13.887" style="fill:#003f97;fill-opacity:1;fill-rule:nonzero;stroke:none" transform="matrix(2.38669 0 0 2.38669 -.002 .01)"/><path d="M151.656 158.984c-.074-.101 1.633 1.43 2.504 2.528 9.8-7.977 5.715-14.114 5.184-16.078-7.684-4.493-15.93 8.77-15.93 8.77 4.102 1.179 8.242 4.78 8.242 4.78" style="fill:#fff;fill-opacity:1;fill-rule:nonzero;stroke:none" transform="matrix(2.38669 0 0 2.38669 -.002 .01)"/><path d="M152.04 159.32c-2.532-2.136-5.071-3.77-8.626-5.117 1.68-5.45 10.938-12.27 15.93-8.77-7.192-.894-8.63 11.57-7.305 13.887" style="fill:#003f97;fill-opacity:1;fill-rule:nonzero;stroke:none" transform="matrix(2.38669 0 0 2.38669 -.002 .01)"/><path d="M146.504 209.617c.008 9.02-8.871 10.567-13.488 10.914.832-2.152 3.14-6.144 3.726-7.894 2.25-1.457 6.055-3.442 9.762-3.02" style="fill:#f39700;fill-opacity:1;fill-rule:nonzero;stroke:none" transform="matrix(2.38669 0 0 2.38669 -.002 .01)"/><path d="M131.684 179.527c-.118.864.504 2.38 2.324 2.043 1.89-.343 2.097-2.062 1.875-3.093-.098-.407-.262-.637-.395-.774.606-.207 1.274-.43 2.035-.644 0 0 .903 4.054-2.382 5.421-3.512 1.473-4.532-1.902-4.532-1.902s.18-.414 1.075-1.05" style="fill:#fff;fill-opacity:1;fill-rule:nonzero;stroke:none" transform="matrix(2.38669 0 0 2.38669 -.002 .01)"/><path d="M135.14 182.48c-3.511 1.473-4.53-1.902-4.53-1.902s.175-.414 1.074-1.05c-.118.863.504 2.378 2.324 2.042 1.89-.343 2.097-2.062 1.875-3.093-.098-.407-.266-.641-.395-.774.606-.207 1.274-.43 2.035-.644 0 0 .903 4.054-2.382 5.421m6.976-22.445c.48.516.977 1.113 1.38 1.902.44.836.784 1.895.925 3.32-.574 1.805-2.574 4.985.957 9.583 0 0-.715.273-1.59.617-.047.016-1.527.473-2.504.621-1.101.172-.797-.558-.496-.902a5.652 5.652 0 0 1 2.07-1.5s-4.394 0-10.18 3.015c-2.784 1.457-3.714 3.43-3.992 5.086-.16 1.016-.078 1.903-.011 2.465.426 3.781 3.754 7.852 3.754 7.852s-.801-2.223-.387-4.324c.27-1.333 1.062-2.547 2.852-3.247 5.195-2.015 3.367-6.226 5.503-6.16.512.016 1.364.367 1.036 1.93-.368 1.789-1.246 3.789-3.922 5.066h-.004s3.597-.453 5.586-4.925c1.73-3.864 6.797-3.375 6.797-3.375s-5.672-5.454-3.008-11.317c-.844-3.254-2.93-4.808-4.766-5.707" style="fill:#003f97;fill-opacity:1;fill-rule:nonzero;stroke:none" transform="matrix(2.38669 0 0 2.38669 -.002 .01)"/><path d="M146.223 179.672s1.074 2.918-.278 5.723c-1.816 3.777-6.53 4.851-6.53 4.851s6.343-2.172 3.597-6.797c0 0 2.875-.582 3.21-3.777M134.926 174.469s2.883-2.278 3.797-3.153c.52-.511.574-2.52.511-4.25-.047-1.464-.175-2.722-.175-2.722s.328 1.133.652 2.523c.445 1.914.879 4.332.418 5.043-1.035 1.598-5.203 2.559-5.203 2.559" style="fill:#003f97;fill-opacity:1;fill-rule:nonzero;stroke:none" transform="matrix(2.38669 0 0 2.38669 -.002 .01)"/><path d="M128.242 164.617c1.899 1.098 4.067 1.086 5.508.903.988-.118 1.777.527 1.96 1.304.095.39.224.79.345 1.196.242.73.527 1.46.89 2.078-.734 2.34-3.093 3.949-3.093 3.949.894-1.332 1.558-3.707 1.558-3.707l-.297-.559-.742-1.332s-.621-1.387-1.305-1.465c-3.843-.445-4.824-2.367-4.824-2.367M154.246 179.57c.219-6.68-5.805-11.972-6.367-12.382 9.7 3.906 9.7 14.84 9.7 14.84-4.653 5.335-1.302 11.667-1.302 11.667-6.152-5.722-2.105-12.023-2.03-14.125M126.914 187.324s-5.695.883-4.414-5.703c0 0 .86 4.32 4.414 5.703M121.516 168.79s1.636 3.991 3.722 4.655c.192-.058.278-1.242.168-3.32 0 0 3.739 4.941.172 10.95 0 0 1.012-1.99-.27-4.259-.804-1.421-2.507-2.175-3.41-4.648-.265-.723-.382-1.52-.382-3.379" style="fill:#003f97;fill-opacity:1;fill-rule:nonzero;stroke:none" transform="matrix(2.38669 0 0 2.38669 -.002 .01)"/><path d="M131.758 170.21c-1.52-3.128-5.793-1.773-7.285-5.327 0 0 .004 3.219 2.656 4.285 3.906 1.582 4.262 4.777 4.262 4.777s1.09-2.246.367-3.734M126.555 155.387c-4.102.59-7.344-1.852-7.344-1.852s-3.121 2.395-7.356 1.852c-8.335-1.059-13.84 3.64-13.84 3.64 3.876-1.93 7.657-1.433 9.813-1.007 3.68.718 7.867-.958 7.809-.02-.059.953-2.535 2.711-2.535 2.711 1.898-.742 4.418-.77 6.109-.77 1.672 0 4.2.028 6.098.77 0 0-2.477-1.758-2.536-2.711-.058-.937 4.133.738 7.813.02 2.152-.426 5.926-.922 9.812 1.007 0 0-5.527-4.824-13.843-3.64M129.082 224.32s.867-4.035-2.062-8.035c0 0 2.656.328 5.347-1.023-.594 3.36-1.742 6.808-3.285 9.058m-2.078 7.39c-2.684-.788-6.426-1.034-7.793-1.034-1.387 0-5.121.246-7.793 1.035 0 0-1.148-3.012-.672-6.559 0 0 .582 2.715 1.77 4.383l1.539-.629 1.386.27 1.856-.54 1.898.52 1.926-.52 1.844.54h.008l1.387-.27 1.53.63c1.188-1.669 1.778-4.384 1.778-4.384.48 3.547-.664 6.559-.664 6.559m-20.96-16.45c2.69 1.352 5.35 1.024 5.35 1.024-2.929 4-2.062 8.035-2.062 8.035-1.543-2.25-2.687-5.699-3.289-9.058m50.227-17.098s-5.63-.05-6.067-4.918c0 0 1.992-3.516 1.055-7.613-.918-3.95-2.465-5.2-2.465-5.2s4.387 8.446-4.867 14.727c-.043.031-.082.055-.121.082 0 0 4.293.77 3.93 4.824-.301 3.434-3.977 6.23-7.899 8.38.074-.231.145-.462.203-.696a12.61 12.61 0 0 0 .172-4.633c2.047-2.988 4.625-2.285 4.625-2.285-2.23-1.543-4.336-.785-5.281-.293-.766-2.094-2.356-4.273-4.676-5.77 0 0 2.676 2.747 3.363 6.614a7.51 7.51 0 0 1-1.757 2.812c-2.895 2.926-7.575 3.438-7.575 3.438 1.496.242 2.864.289 4.098.187 2.07-.16 3.746-.675 4.887-1.148-.008.02-1.067 3.816-6.473 6.316-4.617 2.14-9.648 1.121-10.832-.312-.414-.489-.582-2.867-.273-3.461a6.174 6.174 0 0 1 1.5-1.914c2-1.723 4.441-2.985 5.746-3.711 2.504-1.39 2.875-4.266.539-5.77 0 0 .183 1.91-2.461 1.856-.313-.008-4.051-.973-6.446-.973-2.39 0-6.117.965-6.43.973-2.64.054-2.452-1.856-2.452-1.856-2.34 1.504-1.97 4.38.539 5.77 1.304.726 3.738 1.988 5.738 3.71a6.166 6.166 0 0 1 1.508 1.915c.305.594.137 2.972-.274 3.46-1.183 1.434-6.214 2.454-10.828.313-5.41-2.5-6.468-6.297-6.476-6.316a15.98 15.98 0 0 0 4.886 1.148c1.239.102 2.602.055 4.094-.187 0 0-4.676-.512-7.566-3.438a7.525 7.525 0 0 1-1.766-2.812c.692-3.867 3.367-6.614 3.367-6.614-2.32 1.497-3.906 3.676-4.683 5.77-.938-.492-3.051-1.25-5.27.293 0 0 2.578-.703 4.621 2.285-.246 1.684-.144 3.305.172 4.633.059.234.125.465.207.695-3.93-2.148-7.601-4.945-7.906-8.379-.367-4.054 3.93-4.824 3.93-4.824-.036-.027-.075-.05-.121-.082-9.25-6.281-4.86-14.726-4.86-14.726s-1.555 1.25-2.465 5.199c-.945 4.097 1.051 7.613 1.051 7.613-.433 4.867-6.066 4.918-6.066 4.918 2.726 4.215 7.129 4.297 7.129 4.297-3.598 1.695-4.145 4.84-4.145 4.84 3.106-1.988 7.16.36 7.16.36-2.027 1.655-2.394 4.464-2.394 4.464a8.203 8.203 0 0 1 2.351-.625c3.715-.422 7.528 1.55 9.774 3.023.578 1.743 4.707 11.778 8.933 18.735 0 0 3.403-1.059 8.258-1.059 4.848 0 8.258 1.059 8.258 1.059 4.215-6.957 8.351-16.992 8.926-18.735 2.25-1.472 6.062-3.445 9.758-3.023.8.09 1.59.29 2.363.625 0 0-.36-2.809-2.403-4.465 0 0 4.063-2.348 7.172-.36 0 0-.554-3.144-4.148-4.84 0 0 4.402-.081 7.133-4.296" style="fill:#003f97;fill-opacity:1;fill-rule:nonzero;stroke:none" transform="matrix(2.38669 0 0 2.38669 -.002 .01)"/><path d="M119.73 148.344s5.883-1.153 12.68 1.722c0 0-4.8-4.98-13.203-3.925-8.402-1.055-13.21 3.925-13.21 3.925 6.804-2.875 12.683-1.722 12.683-1.722-2.465 2.965-8.446-.617-15.094 6.008 5.629-3.192 11.934.16 15.621-2.387 3.688 2.547 9.988-.805 15.621 2.387-6.652-6.625-12.633-3.043-15.098-6.008" style="fill:#003f97;fill-opacity:1;fill-rule:nonzero;stroke:none" transform="matrix(2.38669 0 0 2.38669 -.002 .01)"/><path d="M163.824 192.555c-2.523-2.985-5.668-3.352-5.668-3.352 3.723 18.223-3.613 26.656-3.613 26.656-.594-3.343-2.688-5.273-2.688-5.273-2.855 10.824-9.5 13.605-12.98 15.242-6.516 3.074-8.3 8.047-10.113 11.098-.625 1.054-.89 1.234-1.625 1.449-.961.293-4.45.785-7.926.785-3.492 0-6.977-.492-7.953-.785-.735-.215-.988-.395-1.613-1.45-1.817-3.05-3.602-8.023-10.125-11.097-3.477-1.637-10.122-4.418-12.973-15.242 0 0-2.094 1.93-2.688 5.273 0 0-7.336-8.433-3.613-26.656 0 0-3.137.367-5.672 3.352 0 0-.273-6.922 4.172-13.535 0 0-.785-1.735-3.039-2.602 0 0 1.828-2.168 5.363-3.031 0 0-.898-2.407-2.664-3.309 0 0 5.555-4.375 1.774-8.117-2.266-2.238-6.598-6.59-5.664-11.957.828-4.813 2.125-7.945 2.125-7.945 6.523-2.145 12.886 1.359 15.695 3.09 3.953 2.43 6.46 6.585 6.46 6.585s6.313-7.468 20.493-7.507c14.012.039 20.316 7.507 20.316 7.507s2.512-4.156 6.461-6.586c2.805-1.73 9.168-5.234 15.7-3.09 0 0 1.293 3.133 2.12 7.946.93 5.367-3.398 9.719-5.663 11.957-3.778 3.742 1.777 8.117 1.777 8.117-1.77.902-2.664 3.309-2.664 3.309 3.527.863 5.363 3.031 5.363 3.031-2.262.867-3.047 2.602-3.047 2.602 4.446 6.613 4.172 13.535 4.172 13.535m2.488-14.133c-.98-3.711-5.66-5.727-5.66-5.727 1.211-2.183 4.09-2.586 4.09-2.586-6.312-3.074-5.5-5.836-4.547-6.726 4.852-4.524 7.785-8.492 6.028-15.242-1.332-5.114-1.61-7.278-1.61-7.278-4.246-2.242-9.41-2.285-14.726-.32-7.282 2.676-10.508 7.195-10.508 7.195-4.824-4.105-14.102-6.355-20.145-5.476-6.222-.88-15.382 1.37-20.214 5.476 0 0-3.227-4.52-10.497-7.195-5.328-1.965-10.488-1.922-14.742.32 0 0-.277 2.164-1.601 7.278-1.762 6.75 1.18 10.718 6.027 15.242.95.89 1.762 3.652-4.547 6.726 0 0 2.875.403 4.086 2.586 0 0-4.687 2.016-5.652 5.727 0 0 2.676-1.285 4.496.8 0 0-6.488 8.126-4.297 20.907 0 0 .746-1.567 4.687-5.535 0 0-3.832 17.582 9.106 28.418 0 0-.844-3.77.086-6.637 0 0 2.351 7.469 11.371 11.242 5.316 2.227 7.758 6.48 9.55 10.621.946 2.196 1.59 3.196 4.165 3.164 1.808-.023 7.984.121 7.996.121.012 0 6.074-.144 7.883-.12 2.586.03 3.226-.97 4.18-3.165 1.788-4.14 4.226-8.394 9.546-10.62 9.016-3.774 11.364-11.243 11.364-11.243.93 2.867.085 6.637.085 6.637 12.934-10.836 9.114-28.418 9.114-28.418 3.93 3.969 4.68 5.535 4.68 5.535 2.195-12.781-4.29-20.906-4.29-20.906 1.82-2.086 4.496-.801 4.496-.801M91.836 73.191v11.555H90.66l.004-11.598.586-1.789Zm13.133 11.555.008-11.598.87-2.664H84l.879 2.704v14.93l2.328 2.327h8.078l2.336-2.328.004-14.969.781-2.402.785 2.442-.011 14.566-.938 2.691h13.45v-6.652l-3.083.953" style="fill:#003f97;fill-opacity:1;fill-rule:nonzero;stroke:none" transform="matrix(2.38669 0 0 2.38669 -.002 .01)"/><path d="m124.309 79.93-1.407-1.344h2.285l-.863-2.7v-3.07l-2.344-2.332h-7.402l-2.348 2.332v8.211l1.391 1.375h-2.27l.872 2.707v3.008l2.336 2.328h7.406l2.34-2.328" style="fill:#003f97;fill-opacity:1;fill-rule:nonzero;stroke:none" transform="matrix(2.38669 0 0 2.38669 -.002 .01)"/><path d="M148.434 90.445h6.222l-.902-2.715.008-14.582.875-2.664h-7.54l.88 2.704v2.82l-2.364-5.524h-6.19l.866 2.707-.004 14.59-.527 1.61-.996-1.801-3.727-14.836.785-2.32h-7.941l.781 2.386-3.738 14.77-1.617 2.91h8.004l-.645-2.023.543-1.965 1.285.011.516 2-.672 1.977h7.48l.055.098.04-.098.46-.055h6.567l-.872-2.691V85.02" style="fill:#003f97;fill-opacity:1;fill-rule:nonzero;stroke:none" transform="matrix(2.38669 0 0 2.38669 -.002 .01)"/><path d="M103.621 86.094h5.192l1.257-.38v3.38h-9.925l.39-1.11.008-15.011-.367-1.125h3.809l-.364 1.086v13.16M133.148 82.484l-1.308-5.945-1.332 5.945zm-3.12 2.575-.774 3.437.203.652h-3.86l.587-1.062 3.875-15.309-.325-.988h4.196l-.317.898 3.883 15.399.586 1.062h-3.86l.204-.57-.797-3.52M116.64 86.094h3.16v-4.098h-4.667l-1.543-1.535v-7.09l1.543-1.523h6.289l1.543 1.523v2.723l.363 1.133h-3.8l.35-1.094.009-1.149h.008-3.227v4.012h4.707l1.582 1.512-.004 7.047-1.543 1.539h-6.296l-1.543-1.54v-2.663l-.368-1.13h3.809l-.355 1.094v1.239M93.195 86.105V72.973l-.37-1.125h3.804l-.356 1.078v14.629l-1.546 1.539H87.77l-1.543-1.54V72.974l-.372-1.125h3.813l-.36 1.086-.003 13.171M149.32 89.094l-4.613-10.602.012 9.469.36 1.133h-3.802l.356-1.094.008-15.016-.363-1.136h3.445l4.61 10.761-.005-9.636-.367-1.125h3.8l-.355 1.086-.011 15.015.382 1.145" style="fill:#fff;fill-opacity:1;fill-rule:nonzero;stroke:none" transform="matrix(2.38669 0 0 2.38669 -.002 .01)"/><path d="M104.656 250.766v9.582l-.27.836h2.766l-.261-.832v-12.684h-2.59l-.805 2.789h.867M121.59 253.21l-.254-.253v-2.77l.289-.289h1.723l.293.282v2.77l-.27.26zm-.254 5.462v-2.91l.266-.27h1.77l.269.25v2.922l-.293.293h-1.723Zm-1.113-11.004-1.118 1.137v4.406l1.118 1.14-1.118 1.141v4.555l1.118 1.137h4.53l1.114-1.137v-4.555l-1.113-1.14 1.113-1.141v-4.406l-1.113-1.137" style="fill:#003f97;fill-opacity:1;fill-rule:nonzero;stroke:none" transform="matrix(2.38669 0 0 2.38669 -.002 .01)"/><path d="m136.828 248.215-1.953-1.988h-5.75l-1.879 1.921-1.887-1.921h-5.746l-1.804 1.843-1.813-1.843h-5.742l-1.926 1.96v-1.96h-5.11l-1.64 5.675h1.64v8.223l-.82 2.5h6.72l-.532-1.68 1.652 1.68h5.746l1.813-1.848 1.824 1.848h5.738l1.887-1.93 1.879 1.93h5.75l1.953-1.988v-5.692l-.543-.554.543-.54" style="fill:#003f97;fill-opacity:1;fill-rule:nonzero;stroke:none" transform="matrix(2.38669 0 0 2.38669 -.002 .01)"/><path d="M104.656 250.457v9.89l-.27.837h2.766l-.261-.832v-12.684h-2.59l-.805 2.789M114.277 253.316h-2.316v-3.414h2.316zm1.114-5.648h-4.54l-1.109 1.137v5.601l1.11 1.14h3.414v3.411h-2.313v-1.195l.27-.828h-2.762l.266.824v2.289l1.12 1.137h4.536l1.113-1.137v-1.078h.004v-4.086h.012v-6.078M123.637 253.21h-2.301v-3.312h2.3zm0 5.747h-2.301v-3.465h2.3zm1.117-11.289h-4.531l-1.118 1.137v4.406l1.118 1.14-1.118 1.141v4.555l1.118 1.137h4.53l1.114-1.137v-4.555l-1.113-1.14 1.113-1.141v-4.406M133.148 258.957h-2.3l-.004-1.195.27-.828h-2.763l.262.824v2.289l1.121 1.137h4.532l1.109-1.137v-4.512l-1.11-1.144 1.11-1.137v-4.45l-1.11-1.136h-4.53l-1.122 1.137v2.285l-.262.832h2.762l-.27-.836v-1.191l2.305.004v3.402h-1.5l-.804-.281v2.828l.836-.266h1.468" style="fill:#fff;fill-opacity:1;fill-rule:nonzero;stroke:none" transform="matrix(2.38669 0 0 2.38669 -.002 .01)"/></svg>